<?xml version="1.0" encoding="utf-8"?>
<!-- Generator: Adobe Illustrator 24.0.2, SVG Export Plug-In . SVG Version: 6.00 Build 0)  -->
<svg version="1.1" xmlns="http://www.w3.org/2000/svg" xmlns:xlink="http://www.w3.org/1999/xlink" x="0px" y="0px"
	 viewBox="0 0 279 293" style="enable-background:new 0 0 279 293;" xml:space="preserve">
<style type="text/css">
	.st0{fill:#2F2F2F;}
	.st1{enable-background:new    ;}
	.st2{fill:#262626;}
	.st3{fill:#2A2A2A;}
	.st4{fill:#1D1D1D;}
	.st5{fill:#E9A527;}
	.st6{fill:#F1CB30;}
	.st7{fill:#EBEDEE;}
	.st8{fill:#FFFFFF;}
	.st9{fill:#263238;}
	.st10{fill:#455A64;}
	.st11{fill:#F5F5F5;}
	.st12{fill:#CA515B;}
</style>
<g id="Floor">
	<g>
		<g>
			<defs>
				<polygon id="SVGID_1_" points="170.9,-13.7 437.2,-13.7 437.2,292.9 170.9,292.9 170.9,-13.7 				"/>
			</defs>
			<clipPath id="SVGID_2_">
				<use xlink:href="#SVGID_1_"  style="overflow:visible;"/>
			</clipPath>
		</g>
	</g>
	<g>
		<g>
			<g>
				<g>
					<path class="st0" d="M154.4,82.3c0.3,0,0.6-0.3,0.6-0.7V38.9c0-0.4-0.3-0.7-0.6-0.7c-0.3,0-0.6,0.3-0.6,0.7v42.7
						C153.7,82,154,82.3,154.4,82.3z"/>
				</g>
				<g>
					<path class="st0" d="M152.6,34.3c0.2,0,0.4-0.1,0.5-0.4c0.2-0.3,0-0.8-0.3-1l-31-18.9c-0.3-0.2-0.7,0-0.8,0.3
						c-0.2,0.3,0,0.8,0.3,1l31,18.9C152.4,34.3,152.5,34.3,152.6,34.3z"/>
				</g>
				<g>
					<path class="st0" d="M125.6,61.7c0.1,0,0.3,0,0.4-0.1l27.2-23.9c0.3-0.2,0.3-0.7,0.1-1c-0.2-0.3-0.6-0.4-0.9-0.1l-27.2,23.9
						c-0.3,0.2-0.3,0.7-0.1,1C125.2,61.6,125.4,61.7,125.6,61.7z"/>
				</g>
				<g class="st1">
					<g>
						<polygon class="st2" points="155.1,35.5 159.4,38.4 159.4,31.7 155.1,28.8 						"/>
					</g>
					<g>
						<polygon class="st3" points="150,38.9 154.3,41.8 159.4,38.4 155.1,35.5 						"/>
					</g>
					<g>
						<polygon class="st4" points="155.1,35.5 155.1,28.8 150,32.2 150,38.9 						"/>
					</g>
				</g>
			</g>
			<path class="st5" d="M145.7,86.8c-2.4-0.1-5-0.8-7.8-2.2c-18.8-7-29.1-24.8-27.8-48.8c0-0.8-0.1-1.6-0.1-2.3
				c0-4.5,0.7-8.3,1.9-11.4c3.7-9.4,12.6-11.9,23-5c13.7,9.1,24.9,31.3,24.9,49.4C159.8,79.6,154,87,145.7,86.8z"/>
		</g>
		<g>
			<polygon class="st0" points="109.3,68.9 109.3,71.3 75.6,93.7 75.6,91.2 			"/>
			<polygon class="st0" points="109.3,50 109.3,52.4 75.6,74.8 75.6,72.4 			"/>
		</g>
		<g>
			<g>
				<g>
					<g>
						<path class="st0" d="M90.4,270.7l5.1-213.9l4.4-3.3l68,159.3l-1.5,5.4l-73.1,54.6l-0.1,0l0,0.1L90.4,270.7z M99.8,67.9
							l-4.6,196.8l67.2-50.2L99.8,67.9z"/>
					</g>
					<g>
						<polygon class="st0" points="93.4,195.3 95.7,195.6 95.8,195.3 115,157.9 116.6,154.7 128.4,131.8 130.1,128.4 127.9,128.1 
													"/>
					</g>
					<g>
						<polygon class="st0" points="94.4,155.1 96.7,155.4 112.7,157.6 115,157.9 141.1,161.5 141.3,161.6 142.9,158.3 96,151.9 
													"/>
					</g>
					<g>
						<polygon class="st0" points="94.5,252.9 142.9,158.3 140.7,158 140.1,159.2 140.1,159.2 139,161.3 121.4,195.7 119.7,198.9 
							94.6,248 						"/>
					</g>
					<g>
						<polygon class="st0" points="95.1,192.1 93.4,195.3 159.4,204.4 157.8,200.7 123.6,196 121.4,195.7 97.3,192.4 95.9,192.2 
							95.9,192.2 						"/>
					</g>
					<g>
						<polygon class="st0" points="96,151.9 94.4,155.1 96.6,155.4 96.8,155.1 98.3,152.2 110.1,129.1 119.5,110.9 118.4,108.3 
							109.5,125.6 107.9,128.8 96.9,150.2 96.9,150.2 						"/>
					</g>
					<g>
						<polygon class="st0" points="97.4,127.3 110.1,129.1 126.2,131.3 128.3,131.6 128.5,131.6 130.1,128.4 127.9,128.1 
							126.7,127.9 111.8,125.9 109.5,125.6 97.5,123.9 						"/>
					</g>
				</g>
			</g>
			<g>
				<g>
					<g>
						<path class="st3" d="M88.1,272.8L88.1,272.8L88.1,272.8l-70.9-45.1l-1.3-5.2L91.2,56.4l4.2,2.7L91,270.3L88.1,272.8z
							 M21.3,223.4l65.2,41.5l4-194.3L21.3,223.4z"/>
					</g>
					<g>
						<polygon class="st3" points="91.3,196 89,196.6 88.9,196.3 71.3,161.6 69.8,158.6 59,137.4 57.4,134.2 59.7,133.6 						"/>
					</g>
					<g>
						<polygon class="st3" points="92.1,156.3 89.7,156.9 73.6,161 71.3,161.6 45,168.4 44.8,168.4 43.3,165.4 90.6,153.3 						"/>
					</g>
					<g>
						<polygon class="st3" points="87.7,253.1 43.3,165.4 45.6,164.9 46.1,166 46.1,166 47.1,167.8 63.3,199.8 64.8,202.8 
							87.8,248.3 						"/>
					</g>
					<g>
						<polygon class="st3" points="89.8,193 91.3,196 24.8,213.1 26.5,209.2 61,200.4 63.3,199.8 87.5,193.6 89,193.2 89,193.2 
													"/>
					</g>
					<g>
						<polygon class="st3" points="90.6,153.3 92.1,156.3 89.9,156.9 89.7,156.6 88.4,153.9 77.5,132.4 68.9,115.6 70.1,112.9 
							78.2,128.9 79.8,131.9 89.8,151.7 89.8,151.8 						"/>
					</g>
					<g>
						<polygon class="st3" points="90.3,129.2 77.5,132.4 61.2,136.6 59.2,137.1 59,137.2 57.4,134.2 59.7,133.6 60.9,133.3 
							76,129.4 78.2,128.9 90.4,125.8 						"/>
					</g>
				</g>
			</g>
			<polygon class="st0" points="95.4,59.9 102.2,55.4 95.4,50.9 88.6,55.4 			"/>
		</g>
		<g>
			<g class="st1">
				<polygon class="st0" points="56.3,85.2 75.6,72.4 75.6,74.8 57.6,86.7 57.7,103.1 75.6,91.2 75.6,93.7 57.2,105.9 55.9,105 
					55.8,86.1 				"/>
				<polygon class="st0" points="111.4,67.4 111.4,51 109.3,52.4 109.3,50 111.8,48.3 113.2,49.2 113.3,68 112.8,68.9 109.3,71.3 
					109.3,68.9 				"/>
				<path class="st0" d="M55.8,86.1l0,18.8l0.5,0.9l21.6,14.4l1.4-0.9l0-18.8l-0.5-0.9L57.2,85.2L55.8,86.1z M57.6,88l19.7,13.2
					l0,16.4l-19.7-13.2L57.6,88z"/>
				<polygon class="st0" points="56.3,104 75.6,91.2 75.6,93.7 58.6,105 78.3,118.2 132.1,82.4 112.4,69.2 109.3,71.3 109.3,68.9 
					111.9,67.1 112.8,67.1 134.4,81.5 134.4,83.4 78.8,120.3 77.9,120.3 56.3,105.9 				"/>
				<path class="st0" d="M111.9,68.9l-0.5-0.9l0-18.8l1.4-0.9l21.6,14.4l0.5,0.9l0,18.8l-1.4,0.9L111.9,68.9z M113.2,51l0,16.4
					L133,80.6l0-16.4L113.2,51z"/>
				<polygon class="st0" points="56.3,85.2 75.6,72.4 75.6,74.8 58.6,86.1 78.3,99.3 132,63.6 112.3,50.4 109.3,52.4 109.3,50 
					111.8,48.3 112.8,48.3 134.3,62.7 134.3,64.5 78.7,101.5 77.8,101.5 56.3,87 				"/>
				<path class="st0" d="M77.4,100.5l0,18.8l1.4,0.9l55.6-36.9l0.5-0.9l0-18.8l-1.4-0.9L77.8,99.6L77.4,100.5z M79.2,101.2L133,65.4
					l0,16.4l-53.8,35.7L79.2,101.2z"/>
			</g>
		</g>
		<g>
			<path class="st6" d="M31.4,88.5c0,18.2,11.1,40.3,24.9,49.4c10.4,6.9,19.2,4.4,23-5c1-4.8,1.6-9.3,1.8-13.7
				c1.3-24.1-9-41.8-27.8-48.8c-2.5-0.9-5.1-1.6-7.8-2.2C37.1,68,31.4,75.5,31.4,88.5z"/>
			<path class="st5" d="M31.4,88.5c0,18.2,11.1,40.3,24.9,49.4c10.4,6.9,19.2,4.4,23-5c1.2-3.1,1.9-6.9,1.9-11.4
				c0-0.8,0-1.6-0.1-2.3c-0.9-17.7-11.7-38.3-24.8-47.1c-1-0.7-2-1.3-3-1.7c-2.8-1.4-5.4-2.1-7.8-2.2C37.1,68,31.4,75.5,31.4,88.5z"
				/>
			<path class="st7" d="M67.4,140.5c4.8,0,8.6-2.9,10.7-8.1c1.2-3,1.8-6.6,1.8-10.8c0-0.7,0-1.5-0.1-2.3C79,102,68.3,81.8,55.6,73.4
				c-0.9-0.6-1.9-1.2-2.9-1.7c-2.6-1.3-5-2-7.3-2.1c-0.1,0-0.2,0-0.4,0c-7.7,0-12.5,7.2-12.5,18.9c0,17.7,10.9,39.3,24.3,48.2
				C60.5,139.2,64.2,140.5,67.4,140.5z"/>
			<g>
				<g>
					<path class="st0" d="M42.6,113.3c0.3,0,0.6-0.3,0.6-0.7V69.9c0-0.4-0.3-0.7-0.6-0.7c-0.3,0-0.6,0.3-0.6,0.7v42.7
						C42,113,42.3,113.3,42.6,113.3z"/>
				</g>
				<g>
					<path class="st0" d="M75.5,137.5c0.2,0,0.4-0.1,0.5-0.4c0.2-0.3,0-0.8-0.3-1l-31-18.9c-0.3-0.2-0.7,0-0.8,0.3
						c-0.2,0.3,0,0.8,0.3,1l31,18.9C75.3,137.5,75.4,137.5,75.5,137.5z"/>
				</g>
				<g>
					<path class="st0" d="M44.2,115.2c0.1,0,0.3,0,0.4-0.1l27.2-23.9c0.3-0.2,0.3-0.7,0.1-1c-0.2-0.3-0.6-0.4-0.9-0.1l-27.2,23.9
						c-0.3,0.2-0.3,0.7-0.1,1C43.8,115.1,44,115.2,44.2,115.2z"/>
				</g>
				<g class="st1">
					<g>
						<polygon class="st2" points="41.9,116 37.5,113.1 37.6,119.9 41.9,122.8 						"/>
					</g>
					<g>
						<polygon class="st3" points="46.9,112.6 42.6,109.8 37.5,113.1 41.9,116 						"/>
					</g>
					<g>
						<polygon class="st4" points="41.9,116 41.9,122.8 47,119.4 46.9,112.6 						"/>
					</g>
				</g>
			</g>
		</g>
		<g>
			<g class="st1">
				<path class="st7" d="M83.3,83c0-0.1,0-0.1,0-0.2c0-0.1,0-0.1,0-0.2c0,0,0,0,0,0c0,0,0,0,0,0c0,0,0-0.1,0-0.1c0-0.1,0-0.1,0-0.2
					c0-0.1,0-0.1,0-0.2c0,0,0,0,0-0.1c0,0,0,0,0,0c0,0,0-0.1,0-0.1c0-0.1,0-0.1,0-0.2c0-0.1,0-0.1,0-0.2c0,0,0,0,0-0.1c0,0,0,0,0,0
					c0,0,0-0.1,0-0.1c0-0.1,0-0.1,0.1-0.2c0-0.1,0-0.1,0.1-0.2c0,0,0,0,0,0c0,0,0,0,0,0c0,0,0-0.1,0-0.1c0-0.1,0-0.1,0.1-0.2
					c0-0.1,0-0.1,0.1-0.2c0,0,0,0,0,0c0,0,0,0,0,0c0-0.1,0-0.1,0.1-0.2c0-0.1,0.1-0.1,0.1-0.2c0-0.1,0-0.1,0.1-0.2c0,0,0,0,0-0.1
					c0,0,0,0,0-0.1c0.1-0.1,0.1-0.3,0.2-0.4c0,0,0,0,0,0c0.1-0.2,0.2-0.4,0.3-0.6l0,0c0.1-0.1,0.2-0.3,0.3-0.4c0,0,0-0.1,0.1-0.1
					c0,0,0-0.1,0.1-0.1c0,0,0.1-0.1,0.1-0.1c0.1-0.1,0.1-0.2,0.2-0.3c0,0,0,0,0-0.1c0,0,0,0,0-0.1c0-0.1,0.1-0.1,0.1-0.2
					c0.1-0.1,0.1-0.2,0.2-0.3c0,0,0,0,0,0c0,0,0,0,0-0.1c0-0.1,0.1-0.1,0.1-0.2c0.1-0.1,0.2-0.2,0.2-0.3c0,0,0,0,0,0c0,0,0,0,0,0
					c0.1-0.1,0.2-0.2,0.2-0.2c0.1-0.1,0.1-0.1,0.2-0.2c0,0,0,0,0.1-0.1c0,0,0,0,0,0c0.1-0.1,0.2-0.2,0.3-0.3c0,0,0.1-0.1,0.1-0.1
					c0,0,0,0,0.1-0.1c0,0,0.1-0.1,0.1-0.1c0.1-0.1,0.2-0.1,0.3-0.2c0,0,0,0,0.1,0c0,0,0,0,0.1-0.1c0,0,0.1-0.1,0.1-0.1
					c0.1-0.1,0.2-0.1,0.3-0.2c0,0,0,0,0.1,0l0.1-0.1c0.1,0,0.1-0.1,0.2-0.1c0,0,0,0,0.1,0c0,0,0.1,0,0.1-0.1c0,0,0.1,0,0.1-0.1
					c0,0,0,0,0.1,0c0,0,0.1,0,0.1-0.1c0,0,0,0,0.1,0c0,0,0.1,0,0.1,0c0,0,0.1,0,0.1-0.1c0,0,0,0,0,0c0,0,0.1,0,0.1-0.1
					c0,0,0.1,0,0.1,0c0,0,0,0,0,0c0.1,0,0.1,0,0.2-0.1c0,0,0,0,0.1,0c0,0,0,0,0,0c0.1,0,0.2-0.1,0.2-0.1l0,0c0,0,0,0,0,0
					c0.1,0,0.1,0,0.2-0.1c0,0,0,0,0,0c0,0,0.1,0,0.1,0c0,0,0.1,0,0.1,0c0,0,0,0,0,0c0,0,0.1,0,0.1,0c0,0,0.1,0,0.1,0c0,0,0,0,0,0
					c0.1,0,0.1,0,0.2,0c0,0,0,0,0.1,0c0,0,0,0,0,0c0.1,0,0.2,0,0.2,0c0,0,0,0,0,0c0,0,0,0,0,0c0.1,0,0.1,0,0.2,0c0,0,0,0,0,0
					c0,0,0,0,0,0c0.1,0,0.2,0.1,0.3,0.1l0,0c0,0,0,0,0,0c0.1,0,0.2,0.1,0.3,0.2l4.3,2.9c-0.1-0.1-0.2-0.1-0.3-0.2c0,0,0,0,0,0
					c-0.1,0-0.2-0.1-0.3-0.1c0,0,0,0-0.1,0c-0.1,0-0.1,0-0.2,0c0,0,0,0,0,0c-0.1,0-0.2,0-0.2,0c0,0,0,0-0.1,0c-0.1,0-0.1,0-0.2,0
					c0,0-0.1,0-0.1,0c0,0-0.1,0-0.1,0c0,0-0.1,0-0.1,0c0,0-0.1,0-0.1,0c-0.1,0-0.1,0-0.2,0.1c0,0,0,0,0,0c-0.1,0-0.2,0.1-0.3,0.1
					c0,0,0,0-0.1,0c-0.1,0-0.1,0-0.2,0.1c0,0-0.1,0-0.1,0c-0.1,0-0.1,0-0.2,0.1c0,0-0.1,0-0.1,0.1c-0.1,0-0.1,0.1-0.2,0.1
					c0,0-0.1,0-0.1,0.1c-0.1,0-0.1,0.1-0.2,0.1c0,0-0.1,0-0.1,0.1c-0.1,0.1-0.2,0.1-0.2,0.2l-0.1,0.1c-0.2,0.1-0.3,0.2-0.5,0.3
					c0,0,0,0-0.1,0c-0.1,0.1-0.3,0.2-0.4,0.3c0,0-0.1,0-0.1,0.1c-0.1,0.1-0.3,0.2-0.4,0.4c0,0,0,0-0.1,0.1c-0.1,0.1-0.3,0.3-0.4,0.4
					c0,0,0,0,0,0c-0.1,0.1-0.3,0.3-0.4,0.5c0,0,0,0,0,0.1c-0.1,0.2-0.2,0.3-0.4,0.5c0,0,0,0,0,0.1c-0.1,0.2-0.2,0.3-0.3,0.5
					c0,0,0,0.1-0.1,0.1c-0.1,0.2-0.2,0.3-0.3,0.5c-0.1,0.2-0.2,0.4-0.3,0.6c-0.1,0.2-0.2,0.3-0.3,0.5c0,0,0,0,0,0.1
					c-0.1,0.2-0.2,0.3-0.2,0.5c0,0,0,0,0,0c-0.1,0.2-0.1,0.4-0.2,0.5c0,0,0,0,0,0c-0.1,0.2-0.1,0.4-0.2,0.5c0,0,0,0,0,0
					c0,0.2-0.1,0.4-0.1,0.5c0,0,0,0,0,0c0,0.2-0.1,0.3-0.1,0.5c0,0,0,0,0,0c0,0.2,0,0.3,0,0.5l0.1,38.6c0,0.1,0,0.3,0,0.4
					c0,0,0,0,0,0c0,0.1,0,0.2,0,0.3c0,0,0,0,0,0c0,0.1,0,0.2,0.1,0.3c0,0,0,0,0,0c0,0.1,0.1,0.2,0.1,0.3c0,0,0,0.1,0,0.1
					c0,0.1,0.1,0.1,0.1,0.2c0,0,0,0.1,0.1,0.1c0,0.1,0.1,0.1,0.1,0.2c0,0,0,0.1,0.1,0.1c0,0,0.1,0.1,0.1,0.1c0,0,0,0,0.1,0.1
					c0.1,0.1,0.1,0.1,0.2,0.2l-4.3-2.9c-0.1,0-0.1-0.1-0.2-0.2c0,0,0,0-0.1-0.1c0,0-0.1-0.1-0.1-0.1c0,0,0-0.1-0.1-0.1
					c0,0-0.1-0.1-0.1-0.2c0,0,0-0.1-0.1-0.1c0,0,0,0,0,0c0,0,0-0.1-0.1-0.1c0,0,0-0.1,0-0.1c0,0,0,0,0,0c0-0.1-0.1-0.1-0.1-0.2
					c0,0,0,0,0,0c0,0,0,0,0-0.1c0,0,0-0.1,0-0.1c0-0.1,0-0.1,0-0.2c0,0,0,0,0,0c0,0,0,0,0,0c0,0,0-0.1,0-0.1c0-0.1,0-0.1,0-0.2
					c0,0,0,0,0-0.1c0,0,0,0,0,0c0,0,0,0,0-0.1c0-0.1,0-0.1,0-0.2c0-0.1,0-0.1,0-0.2c0,0,0,0,0,0l-0.1-38.6
					C83.3,83.1,83.3,83.1,83.3,83z"/>
				<path class="st8" d="M92.4,77.9c-2.7,1.8-4.8,5.5-4.8,8.2l0.1,38.6c0,2.8,2.2,3.5,4.9,1.8l0.1-0.1c2.7-1.8,4.8-5.5,4.8-8.2
					l-0.1-38.6C97.4,76.8,95.2,76,92.4,77.9L92.4,77.9z"/>
			</g>
			<g class="st1">
				<path class="st7" d="M116.6,60.9c0-0.1,0-0.1,0-0.2c0-0.1,0-0.1,0-0.2c0,0,0,0,0,0c0,0,0,0,0,0c0,0,0-0.1,0-0.1
					c0-0.1,0-0.1,0-0.2c0-0.1,0-0.1,0-0.2c0,0,0,0,0-0.1c0,0,0,0,0,0c0,0,0-0.1,0-0.1c0-0.1,0-0.1,0-0.2c0-0.1,0-0.1,0-0.2
					c0,0,0,0,0,0c0,0,0,0,0,0c0,0,0-0.1,0-0.1c0-0.1,0-0.1,0.1-0.2c0-0.1,0-0.1,0.1-0.2c0,0,0,0,0,0c0,0,0,0,0,0c0,0,0-0.1,0-0.1
					c0-0.1,0-0.1,0.1-0.2c0-0.1,0-0.1,0.1-0.2c0,0,0,0,0,0c0,0,0,0,0,0c0-0.1,0-0.1,0.1-0.2c0-0.1,0.1-0.1,0.1-0.2
					c0-0.1,0-0.1,0.1-0.2c0,0,0,0,0-0.1c0,0,0,0,0-0.1c0.1-0.1,0.1-0.3,0.2-0.4c0,0,0,0,0,0c0.1-0.2,0.2-0.4,0.3-0.6l0,0
					c0.1-0.1,0.2-0.3,0.3-0.4c0,0,0-0.1,0.1-0.1c0,0,0-0.1,0.1-0.1c0,0,0.1-0.1,0.1-0.1c0.1-0.1,0.1-0.2,0.2-0.3c0,0,0,0,0-0.1
					c0,0,0,0,0-0.1c0-0.1,0.1-0.1,0.1-0.2c0.1-0.1,0.1-0.2,0.2-0.3c0,0,0,0,0,0c0,0,0,0,0-0.1c0-0.1,0.1-0.1,0.1-0.2
					c0.1-0.1,0.2-0.2,0.2-0.3c0,0,0,0,0,0c0,0,0,0,0,0c0.1-0.1,0.2-0.2,0.2-0.2c0.1-0.1,0.1-0.1,0.2-0.2c0,0,0,0,0.1-0.1
					c0,0,0,0,0,0c0.1-0.1,0.2-0.2,0.3-0.2c0,0,0.1-0.1,0.1-0.1c0,0,0,0,0.1-0.1c0,0,0.1-0.1,0.1-0.1c0.1-0.1,0.2-0.1,0.3-0.2
					c0,0,0,0,0.1,0c0,0,0,0,0.1-0.1c0,0,0.1-0.1,0.1-0.1c0.1-0.1,0.2-0.1,0.3-0.2c0,0,0,0,0.1,0l0.1-0.1c0.1,0,0.1-0.1,0.2-0.1
					c0,0,0,0,0.1,0c0,0,0.1,0,0.1-0.1c0,0,0.1,0,0.1-0.1c0,0,0,0,0.1,0c0,0,0.1,0,0.1-0.1c0,0,0,0,0.1,0c0,0,0.1,0,0.1,0
					c0,0,0.1,0,0.1-0.1c0,0,0,0,0,0c0,0,0.1,0,0.1-0.1c0,0,0.1,0,0.1,0c0,0,0,0,0,0c0.1,0,0.1,0,0.2-0.1c0,0,0.1,0,0.1,0
					c0,0,0,0,0,0c0.1,0,0.2-0.1,0.2-0.1l0,0c0,0,0,0,0,0c0.1,0,0.1,0,0.2-0.1c0,0,0,0,0,0c0,0,0.1,0,0.1,0c0,0,0.1,0,0.1,0
					c0,0,0,0,0,0c0,0,0.1,0,0.1,0c0,0,0.1,0,0.1,0c0,0,0,0,0,0c0.1,0,0.1,0,0.2,0c0,0,0,0,0.1,0c0,0,0,0,0,0c0.1,0,0.2,0,0.2,0
					c0,0,0,0,0,0c0,0,0,0,0,0c0.1,0,0.1,0,0.2,0c0,0,0,0,0,0c0,0,0,0,0,0c0.1,0,0.2,0.1,0.3,0.1c0,0,0,0,0,0c0,0,0,0,0,0
					c0.1,0,0.2,0.1,0.3,0.2l4.3,2.9c-0.1-0.1-0.2-0.1-0.3-0.2c0,0,0,0,0,0c-0.1,0-0.2-0.1-0.3-0.1c0,0,0,0-0.1,0c-0.1,0-0.1,0-0.2,0
					c0,0,0,0-0.1,0c-0.1,0-0.2,0-0.2,0c0,0,0,0-0.1,0c-0.1,0-0.1,0-0.2,0c0,0-0.1,0-0.1,0c0,0-0.1,0-0.1,0c0,0-0.1,0-0.1,0
					c0,0-0.1,0-0.1,0c-0.1,0-0.1,0-0.2,0.1c0,0,0,0,0,0c-0.1,0-0.2,0.1-0.3,0.1c0,0,0,0-0.1,0c-0.1,0-0.1,0-0.2,0.1c0,0-0.1,0-0.1,0
					c-0.1,0-0.1,0-0.2,0.1c0,0-0.1,0-0.1,0.1c-0.1,0-0.1,0.1-0.2,0.1c0,0-0.1,0-0.1,0.1c-0.1,0-0.1,0.1-0.2,0.1c0,0-0.1,0-0.1,0.1
					c-0.1,0.1-0.2,0.1-0.2,0.2l-0.1,0.1c-0.2,0.1-0.3,0.2-0.5,0.3c0,0,0,0-0.1,0.1c-0.1,0.1-0.3,0.2-0.4,0.3c0,0-0.1,0-0.1,0.1
					c-0.1,0.1-0.3,0.2-0.4,0.4c0,0,0,0-0.1,0.1c-0.1,0.1-0.3,0.3-0.4,0.4c0,0,0,0,0,0c-0.1,0.1-0.3,0.3-0.4,0.5c0,0,0,0,0,0.1
					c-0.1,0.2-0.2,0.3-0.4,0.5c0,0,0,0,0,0.1c-0.1,0.2-0.2,0.3-0.3,0.5c0,0,0,0.1-0.1,0.1c-0.1,0.2-0.2,0.3-0.3,0.5
					c-0.1,0.2-0.2,0.4-0.3,0.6c-0.1,0.2-0.2,0.3-0.3,0.5c0,0,0,0,0,0.1c-0.1,0.2-0.2,0.3-0.2,0.5c0,0,0,0,0,0
					c-0.1,0.2-0.1,0.4-0.2,0.5c0,0,0,0,0,0c-0.1,0.2-0.1,0.4-0.2,0.5c0,0,0,0,0,0c0,0.2-0.1,0.4-0.1,0.5c0,0,0,0,0,0
					c0,0.2-0.1,0.3-0.1,0.5c0,0,0,0,0,0c0,0.2,0,0.3,0,0.5l0.1,38.6c0,0.1,0,0.3,0,0.4c0,0,0,0,0,0c0,0.1,0,0.2,0,0.3c0,0,0,0,0,0
					c0,0.1,0,0.2,0.1,0.3c0,0,0,0,0,0.1c0,0.1,0.1,0.2,0.1,0.3c0,0,0,0.1,0,0.1c0,0.1,0.1,0.1,0.1,0.2c0,0,0,0.1,0.1,0.1
					c0,0.1,0.1,0.1,0.1,0.2c0,0,0,0.1,0.1,0.1c0,0,0.1,0.1,0.1,0.1c0,0,0,0,0.1,0.1c0.1,0.1,0.1,0.1,0.2,0.2l-4.3-2.9
					c-0.1,0-0.1-0.1-0.2-0.2c0,0,0,0-0.1-0.1c0,0-0.1-0.1-0.1-0.1c0,0,0-0.1-0.1-0.1c0,0-0.1-0.1-0.1-0.2c0,0,0-0.1-0.1-0.1
					c0,0,0,0,0,0c0,0,0-0.1-0.1-0.1c0,0,0-0.1,0-0.1c0,0,0,0,0,0c0-0.1-0.1-0.1-0.1-0.2c0,0,0,0,0,0c0,0,0,0,0-0.1c0,0,0-0.1,0-0.1
					c0-0.1,0-0.1,0-0.2c0,0,0,0,0,0c0,0,0,0,0,0c0,0,0-0.1,0-0.1c0-0.1,0-0.1,0-0.2c0,0,0,0,0-0.1c0,0,0,0,0,0c0,0,0,0,0-0.1
					c0-0.1,0-0.1,0-0.2c0-0.1,0-0.1,0-0.2c0,0,0,0,0,0L116.6,61C116.6,61,116.6,60.9,116.6,60.9z"/>
				<path class="st8" d="M125.8,55.7c-2.7,1.8-4.8,5.5-4.8,8.2l0.1,38.6c0,2.8,2.2,3.5,4.9,1.8l0.1-0.1c2.7-1.8,4.8-5.5,4.8-8.2
					l-0.1-38.6C130.7,54.6,128.6,53.8,125.8,55.7L125.8,55.7z"/>
			</g>
		</g>
	</g>
	<g>
		<g>
			<g>
				<g>
					<g>
						<rect x="162.5" y="137.9" class="st9" width="92.1" height="120.7"/>
					</g>
				</g>
				<g>
					<g>
						<rect x="149" y="170.1" class="st10" width="100.7" height="39.8"/>
					</g>
				</g>
				<g>
					<g>
						<rect x="153.5" y="178.2" class="st9" width="19.8" height="4.9"/>
					</g>
				</g>
				<g>
					<g>
						<rect x="153.5" y="186.6" class="st9" width="19.8" height="4.9"/>
					</g>
				</g>
				<g>
					<g>
						<rect x="153.5" y="195.2" class="st9" width="19.8" height="4.9"/>
					</g>
				</g>
				<g>
					<g>
						<g>
							<g>
								<path class="st9" d="M181.1,181.2c0,1-0.5,1.8-1.1,1.8c-0.6,0-1.1-0.8-1.1-1.8c0-1,0.5-1.8,1.1-1.8
									C180.6,179.4,181.1,180.2,181.1,181.2z"/>
							</g>
						</g>
						<g>
							<g>
								<path class="st9" d="M186.2,181.2c0,1-0.5,1.8-1.1,1.8c-0.6,0-1.1-0.8-1.1-1.8c0-1,0.5-1.8,1.1-1.8
									C185.7,179.4,186.2,180.2,186.2,181.2z"/>
							</g>
						</g>
						<g>
							<g>
								<path class="st9" d="M191.2,181.2c0,1-0.5,1.8-1.1,1.8c-0.6,0-1.1-0.8-1.1-1.8c0-1,0.5-1.8,1.1-1.8
									C190.7,179.4,191.2,180.2,191.2,181.2z"/>
							</g>
						</g>
						<g>
							<g>
								<path class="st9" d="M196.2,181.2c0,1-0.5,1.8-1.1,1.8c-0.6,0-1.1-0.8-1.1-1.8c0-1,0.5-1.8,1.1-1.8
									C195.7,179.4,196.2,180.2,196.2,181.2z"/>
							</g>
						</g>
						<g>
							<g>
								<path class="st9" d="M235.1,181.2c0,1-0.5,1.8-1.1,1.8c-0.6,0-1.1-0.8-1.1-1.8c0-1,0.5-1.8,1.1-1.8
									C234.6,179.4,235.1,180.2,235.1,181.2z"/>
							</g>
						</g>
						<g>
							<g>
								<path class="st9" d="M240.2,181.2c0,1-0.5,1.8-1.1,1.8c-0.6,0-1.1-0.8-1.1-1.8c0-1,0.5-1.8,1.1-1.8
									C239.7,179.4,240.2,180.2,240.2,181.2z"/>
							</g>
						</g>
						<g>
							<g>
								<path class="st9" d="M201.2,181.2c0,1-0.5,1.8-1.1,1.8c-0.6,0-1.1-0.8-1.1-1.8c0-1,0.5-1.8,1.1-1.8
									C200.7,179.4,201.2,180.2,201.2,181.2z"/>
							</g>
						</g>
						<g>
							<g>
								<path class="st9" d="M225.9,181.2c0,1-0.5,1.8-1.1,1.8c-0.6,0-1.1-0.8-1.1-1.8c0-1,0.5-1.8,1.1-1.8
									C225.4,179.4,225.9,180.2,225.9,181.2z"/>
							</g>
						</g>
						<g>
							<g>
								<path class="st11" d="M206.3,181.2c0,1-0.5,1.8-1.1,1.8c-0.6,0-1.1-0.8-1.1-1.8c0-1,0.5-1.8,1.1-1.8
									C205.7,179.4,206.3,180.2,206.3,181.2z"/>
							</g>
						</g>
						<g>
							<g>
								<path class="st11" d="M211.3,181.2c0,1-0.5,1.8-1.1,1.8c-0.6,0-1.1-0.8-1.1-1.8c0-1,0.5-1.8,1.1-1.8
									C210.8,179.4,211.3,180.2,211.3,181.2z"/>
							</g>
						</g>
						<g>
							<g>
								<path class="st11" d="M221.5,181.2c0,1-0.5,1.8-1.1,1.8c-0.6,0-1.1-0.8-1.1-1.8c0-1,0.5-1.8,1.1-1.8
									C220.9,179.4,221.5,180.2,221.5,181.2z"/>
							</g>
						</g>
						<g>
							<g>
								<path class="st11" d="M244.4,181.2c0,1-0.5,1.8-1.1,1.8c-0.6,0-1.1-0.8-1.1-1.8c0-1,0.5-1.8,1.1-1.8
									C243.9,179.4,244.4,180.2,244.4,181.2z"/>
							</g>
						</g>
						<g>
							<g>
								<path class="st12" d="M216.3,181.2c0,1-0.5,1.8-1.1,1.8c-0.6,0-1.1-0.8-1.1-1.8c0-1,0.5-1.8,1.1-1.8
									C215.8,179.4,216.3,180.2,216.3,181.2z"/>
							</g>
						</g>
						<g>
							<g>
								<path class="st12" d="M230.7,181.2c0,1-0.5,1.8-1.1,1.8c-0.6,0-1.1-0.8-1.1-1.8c0-1,0.5-1.8,1.1-1.8
									C230.2,179.4,230.7,180.2,230.7,181.2z"/>
							</g>
						</g>
					</g>
					<g>
						<g>
							<g>
								<path class="st9" d="M242.1,189.9c0-1,0.5-1.8,1.1-1.8c0.6,0,1.1,0.8,1.1,1.8s-0.5,1.8-1.1,1.8
									C242.6,191.7,242.1,190.9,242.1,189.9z"/>
							</g>
						</g>
						<g>
							<g>
								<ellipse class="st9" cx="238.2" cy="189.9" rx="1.1" ry="1.8"/>
							</g>
						</g>
						<g>
							<g>
								<path class="st9" d="M232.1,189.9c0-1,0.5-1.8,1.1-1.8c0.6,0,1.1,0.8,1.1,1.8s-0.5,1.8-1.1,1.8
									C232.6,191.7,232.1,190.9,232.1,189.9z"/>
							</g>
						</g>
						<g>
							<g>
								<ellipse class="st9" cx="228.2" cy="189.9" rx="1.1" ry="1.8"/>
							</g>
						</g>
						<g>
							<g>
								<ellipse class="st9" cx="189.3" cy="189.9" rx="1.1" ry="1.8"/>
							</g>
						</g>
						<g>
							<g>
								<path class="st9" d="M183,189.9c0-1,0.5-1.8,1.1-1.8c0.6,0,1.1,0.8,1.1,1.8s-0.5,1.8-1.1,1.8
									C183.5,191.7,183,190.9,183,189.9z"/>
							</g>
						</g>
						<g>
							<g>
								<path class="st9" d="M222,189.9c0-1,0.5-1.8,1.1-1.8c0.6,0,1.1,0.8,1.1,1.8s-0.5,1.8-1.1,1.8
									C222.6,191.7,222,190.9,222,189.9z"/>
							</g>
						</g>
						<g>
							<g>
								<path class="st9" d="M197.4,189.9c0-1,0.5-1.8,1.1-1.8c0.6,0,1.1,0.8,1.1,1.8s-0.5,1.8-1.1,1.8
									C197.9,191.7,197.4,190.9,197.4,189.9z"/>
							</g>
						</g>
						<g>
							<g>
								<path class="st11" d="M217,189.9c0-1,0.5-1.8,1.1-1.8c0.6,0,1.1,0.8,1.1,1.8s-0.5,1.8-1.1,1.8
									C217.5,191.7,217,190.9,217,189.9z"/>
							</g>
						</g>
						<g>
							<g>
								<path class="st11" d="M212,189.9c0-1,0.5-1.8,1.1-1.8c0.6,0,1.1,0.8,1.1,1.8s-0.5,1.8-1.1,1.8
									C212.5,191.7,212,190.9,212,189.9z"/>
							</g>
						</g>
						<g>
							<g>
								<path class="st11" d="M201.8,189.9c0-1,0.5-1.8,1.1-1.8c0.6,0,1.1,0.8,1.1,1.8s-0.5,1.8-1.1,1.8
									C202.3,191.7,201.8,190.9,201.8,189.9z"/>
							</g>
						</g>
						<g>
							<g>
								<ellipse class="st11" cx="180" cy="189.9" rx="1.1" ry="1.8"/>
							</g>
						</g>
						<g>
							<g>
								<path class="st12" d="M207,189.9c0-1,0.5-1.8,1.1-1.8c0.6,0,1.1,0.8,1.1,1.8s-0.5,1.8-1.1,1.8
									C207.5,191.7,207,190.9,207,189.9z"/>
							</g>
						</g>
						<g>
							<g>
								<ellipse class="st12" cx="193.7" cy="189.9" rx="1.1" ry="1.8"/>
							</g>
						</g>
					</g>
					<g>
						<g>
							<g>
								<ellipse class="st9" cx="180" cy="197.7" rx="1.1" ry="1.8"/>
							</g>
						</g>
						<g>
							<g>
								<path class="st9" d="M186.2,197.7c0,1-0.5,1.8-1.1,1.8c-0.6,0-1.1-0.8-1.1-1.8c0-1,0.5-1.8,1.1-1.8
									C185.7,195.9,186.2,196.7,186.2,197.7z"/>
							</g>
						</g>
						<g>
							<g>
								<ellipse class="st9" cx="190.1" cy="197.7" rx="1.1" ry="1.8"/>
							</g>
						</g>
						<g>
							<g>
								<path class="st9" d="M196.2,197.7c0,1-0.5,1.8-1.1,1.8c-0.6,0-1.1-0.8-1.1-1.8c0-1,0.5-1.8,1.1-1.8
									C195.7,195.9,196.2,196.7,196.2,197.7z"/>
							</g>
						</g>
						<g>
							<g>
								<path class="st9" d="M235.1,197.7c0,1-0.5,1.8-1.1,1.8c-0.6,0-1.1-0.8-1.1-1.8c0-1,0.5-1.8,1.1-1.8
									C234.6,195.9,235.1,196.7,235.1,197.7z"/>
							</g>
						</g>
						<g>
							<g>
								<ellipse class="st9" cx="239.1" cy="197.7" rx="1.1" ry="1.8"/>
							</g>
						</g>
						<g>
							<g>
								<ellipse class="st9" cx="200.1" cy="197.7" rx="1.1" ry="1.8"/>
							</g>
						</g>
						<g>
							<g>
								<ellipse class="st9" cx="224.7" cy="197.7" rx="1.1" ry="1.8"/>
							</g>
						</g>
						<g>
							<g>
								<path class="st11" d="M206.3,197.7c0,1-0.5,1.8-1.1,1.8c-0.6,0-1.1-0.8-1.1-1.8c0-1,0.5-1.8,1.1-1.8
									C205.7,195.9,206.3,196.7,206.3,197.7z"/>
							</g>
						</g>
						<g>
							<g>
								<path class="st11" d="M211.3,197.7c0,1-0.5,1.8-1.1,1.8c-0.6,0-1.1-0.8-1.1-1.8c0-1,0.5-1.8,1.1-1.8
									C210.8,195.9,211.3,196.7,211.3,197.7z"/>
							</g>
						</g>
						<g>
							<g>
								<ellipse class="st11" cx="220.3" cy="197.7" rx="1.1" ry="1.8"/>
							</g>
						</g>
						<g>
							<g>
								<path class="st11" d="M244.4,197.7c0,1-0.5,1.8-1.1,1.8c-0.6,0-1.1-0.8-1.1-1.8c0-1,0.5-1.8,1.1-1.8
									C243.9,195.9,244.4,196.7,244.4,197.7z"/>
							</g>
						</g>
						<g>
							<g>
								<ellipse class="st12" cx="215.2" cy="197.7" rx="1.1" ry="1.8"/>
							</g>
						</g>
						<g>
							<g>
								<path class="st12" d="M230.7,197.7c0,1-0.5,1.8-1.1,1.8c-0.6,0-1.1-0.8-1.1-1.8c0-1,0.5-1.8,1.1-1.8
									C230.2,195.9,230.7,196.7,230.7,197.7z"/>
							</g>
						</g>
					</g>
				</g>
				<g>
					<g>
						<rect x="149" y="219.1" class="st10" width="100.7" height="39.8"/>
					</g>
				</g>
				<g>
					<g>
						<g>
							<g>
								<ellipse class="st9" cx="179.8" cy="229.9" rx="1.1" ry="1.8"/>
							</g>
						</g>
						<g>
							<g>
								<path class="st9" d="M185.9,229.9c0,1-0.5,1.8-1.1,1.8c-0.6,0-1.1-0.8-1.1-1.8c0-1,0.5-1.8,1.1-1.8
									C185.4,228.1,185.9,228.9,185.9,229.9z"/>
							</g>
						</g>
						<g>
							<g>
								<ellipse class="st9" cx="189.8" cy="229.9" rx="1.1" ry="1.8"/>
							</g>
						</g>
						<g>
							<g>
								<path class="st9" d="M196,229.9c0,1-0.5,1.8-1.1,1.8c-0.6,0-1.1-0.8-1.1-1.8c0-1,0.5-1.8,1.1-1.8
									C195.5,228.1,196,228.9,196,229.9z"/>
							</g>
						</g>
						<g>
							<g>
								<path class="st9" d="M234.9,229.9c0,1-0.5,1.8-1.1,1.8c-0.6,0-1.1-0.8-1.1-1.8c0-1,0.5-1.8,1.1-1.8
									C234.4,228.1,234.9,228.9,234.9,229.9z"/>
							</g>
						</g>
						<g>
							<g>
								<ellipse class="st9" cx="238.8" cy="229.9" rx="1.1" ry="1.8"/>
							</g>
						</g>
						<g>
							<g>
								<ellipse class="st9" cx="199.8" cy="229.9" rx="1.1" ry="1.8"/>
							</g>
						</g>
						<g>
							<g>
								<ellipse class="st9" cx="224.5" cy="229.9" rx="1.1" ry="1.8"/>
							</g>
						</g>
						<g>
							<g>
								<path class="st11" d="M206,229.9c0,1-0.5,1.8-1.1,1.8c-0.6,0-1.1-0.8-1.1-1.8c0-1,0.5-1.8,1.1-1.8
									C205.5,228.1,206,228.9,206,229.9z"/>
							</g>
						</g>
						<g>
							<g>
								<ellipse class="st11" cx="209.9" cy="229.9" rx="1.1" ry="1.8"/>
							</g>
						</g>
						<g>
							<g>
								<ellipse class="st11" cx="220.1" cy="229.9" rx="1.1" ry="1.8"/>
							</g>
						</g>
						<g>
							<g>
								<path class="st11" d="M244.1,229.9c0,1-0.5,1.8-1.1,1.8c-0.6,0-1.1-0.8-1.1-1.8c0-1,0.5-1.8,1.1-1.8
									C243.6,228.1,244.1,228.9,244.1,229.9z"/>
							</g>
						</g>
						<g>
							<g>
								<path class="st12" d="M216,229.9c0,1-0.5,1.8-1.1,1.8c-0.6,0-1.1-0.8-1.1-1.8c0-1,0.5-1.8,1.1-1.8
									C215.5,228.1,216,228.9,216,229.9z"/>
							</g>
						</g>
						<g>
							<g>
								<path class="st12" d="M230.4,229.9c0,1-0.5,1.8-1.1,1.8c-0.6,0-1.1-0.8-1.1-1.8c0-1,0.5-1.8,1.1-1.8
									C229.9,228.1,230.4,228.9,230.4,229.9z"/>
							</g>
						</g>
					</g>
					<g>
						<g>
							<g>
								<path class="st9" d="M241.9,238.6c0-1,0.5-1.8,1.1-1.8c0.6,0,1.1,0.8,1.1,1.8c0,1-0.5,1.8-1.1,1.8
									C242.4,240.4,241.9,239.6,241.9,238.6z"/>
							</g>
						</g>
						<g>
							<g>
								<path class="st9" d="M236.9,238.6c0-1,0.5-1.8,1.1-1.8c0.6,0,1.1,0.8,1.1,1.8c0,1-0.5,1.8-1.1,1.8
									C237.4,240.4,236.9,239.6,236.9,238.6z"/>
							</g>
						</g>
						<g>
							<g>
								<path class="st9" d="M231.8,238.6c0-1,0.5-1.8,1.1-1.8s1.1,0.8,1.1,1.8c0,1-0.5,1.8-1.1,1.8S231.8,239.6,231.8,238.6z"/>
							</g>
						</g>
						<g>
							<g>
								<path class="st9" d="M226.8,238.6c0-1,0.5-1.8,1.1-1.8c0.6,0,1.1,0.8,1.1,1.8c0,1-0.5,1.8-1.1,1.8
									C227.3,240.4,226.8,239.6,226.8,238.6z"/>
							</g>
						</g>
						<g>
							<g>
								<path class="st9" d="M187.9,238.6c0-1,0.5-1.8,1.1-1.8s1.1,0.8,1.1,1.8c0,1-0.5,1.8-1.1,1.8S187.9,239.6,187.9,238.6z"/>
							</g>
						</g>
						<g>
							<g>
								<path class="st9" d="M182.8,238.6c0-1,0.5-1.8,1.1-1.8c0.6,0,1.1,0.8,1.1,1.8c0,1-0.5,1.8-1.1,1.8
									C183.3,240.4,182.8,239.6,182.8,238.6z"/>
							</g>
						</g>
						<g>
							<g>
								<path class="st9" d="M221.8,238.6c0-1,0.5-1.8,1.1-1.8c0.6,0,1.1,0.8,1.1,1.8c0,1-0.5,1.8-1.1,1.8
									C222.3,240.4,221.8,239.6,221.8,238.6z"/>
							</g>
						</g>
						<g>
							<g>
								<path class="st9" d="M197.1,238.6c0-1,0.5-1.8,1.1-1.8c0.6,0,1.1,0.8,1.1,1.8c0,1-0.5,1.8-1.1,1.8
									C197.6,240.4,197.1,239.6,197.1,238.6z"/>
							</g>
						</g>
						<g>
							<g>
								<path class="st11" d="M216.8,238.6c0-1,0.5-1.8,1.1-1.8c0.6,0,1.1,0.8,1.1,1.8c0,1-0.5,1.8-1.1,1.8
									C217.3,240.4,216.8,239.6,216.8,238.6z"/>
							</g>
						</g>
						<g>
							<g>
								<path class="st11" d="M211.8,238.6c0-1,0.5-1.8,1.1-1.8s1.1,0.8,1.1,1.8c0,1-0.5,1.8-1.1,1.8S211.8,239.6,211.8,238.6z"/>
							</g>
						</g>
						<g>
							<g>
								<path class="st11" d="M201.6,238.6c0-1,0.5-1.8,1.1-1.8c0.6,0,1.1,0.8,1.1,1.8c0,1-0.5,1.8-1.1,1.8
									C202.1,240.4,201.6,239.6,201.6,238.6z"/>
							</g>
						</g>
						<g>
							<g>
								<path class="st11" d="M178.6,238.6c0-1,0.5-1.8,1.1-1.8c0.6,0,1.1,0.8,1.1,1.8c0,1-0.5,1.8-1.1,1.8
									C179.1,240.4,178.6,239.6,178.6,238.6z"/>
							</g>
						</g>
						<g>
							<g>
								<path class="st12" d="M206.7,238.6c0-1,0.5-1.8,1.1-1.8c0.6,0,1.1,0.8,1.1,1.8c0,1-0.5,1.8-1.1,1.8
									C207.2,240.4,206.7,239.6,206.7,238.6z"/>
							</g>
						</g>
						<g>
							<g>
								<path class="st12" d="M192.4,238.6c0-1,0.5-1.8,1.1-1.8c0.6,0,1.1,0.8,1.1,1.8c0,1-0.5,1.8-1.1,1.8
									C192.9,240.4,192.4,239.6,192.4,238.6z"/>
							</g>
						</g>
					</g>
					<g>
						<g>
							<g>
								<path class="st9" d="M180.9,246.4c0,1-0.5,1.8-1.1,1.8c-0.6,0-1.1-0.8-1.1-1.8c0-1,0.5-1.8,1.1-1.8
									C180.4,244.6,180.9,245.4,180.9,246.4z"/>
							</g>
						</g>
						<g>
							<g>
								<path class="st9" d="M185.9,246.4c0,1-0.5,1.8-1.1,1.8c-0.6,0-1.1-0.8-1.1-1.8c0-1,0.5-1.8,1.1-1.8
									C185.4,244.6,185.9,245.4,185.9,246.4z"/>
							</g>
						</g>
						<g>
							<g>
								<path class="st9" d="M190.9,246.4c0,1-0.5,1.8-1.1,1.8c-0.6,0-1.1-0.8-1.1-1.8c0-1,0.5-1.8,1.1-1.8
									C190.4,244.6,190.9,245.4,190.9,246.4z"/>
							</g>
						</g>
						<g>
							<g>
								<path class="st9" d="M196,246.4c0,1-0.5,1.8-1.1,1.8c-0.6,0-1.1-0.8-1.1-1.8c0-1,0.5-1.8,1.1-1.8
									C195.5,244.6,196,245.4,196,246.4z"/>
							</g>
						</g>
						<g>
							<g>
								<path class="st9" d="M234.9,246.4c0,1-0.5,1.8-1.1,1.8c-0.6,0-1.1-0.8-1.1-1.8c0-1,0.5-1.8,1.1-1.8
									C234.4,244.6,234.9,245.4,234.9,246.4z"/>
							</g>
						</g>
						<g>
							<g>
								<path class="st9" d="M240,246.4c0,1-0.5,1.8-1.1,1.8c-0.6,0-1.1-0.8-1.1-1.8c0-1,0.5-1.8,1.1-1.8
									C239.5,244.6,240,245.4,240,246.4z"/>
							</g>
						</g>
						<g>
							<g>
								<path class="st9" d="M201,246.4c0,1-0.5,1.8-1.1,1.8c-0.6,0-1.1-0.8-1.1-1.8c0-1,0.5-1.8,1.1-1.8
									C200.5,244.6,201,245.4,201,246.4z"/>
							</g>
						</g>
						<g>
							<g>
								<path class="st9" d="M225.6,246.4c0,1-0.5,1.8-1.1,1.8c-0.6,0-1.1-0.8-1.1-1.8c0-1,0.5-1.8,1.1-1.8
									C225.1,244.6,225.6,245.4,225.6,246.4z"/>
							</g>
						</g>
						<g>
							<g>
								<path class="st11" d="M206,246.4c0,1-0.5,1.8-1.1,1.8c-0.6,0-1.1-0.8-1.1-1.8c0-1,0.5-1.8,1.1-1.8
									C205.5,244.6,206,245.4,206,246.4z"/>
							</g>
						</g>
						<g>
							<g>
								<path class="st11" d="M211,246.4c0,1-0.5,1.8-1.1,1.8c-0.6,0-1.1-0.8-1.1-1.8c0-1,0.5-1.8,1.1-1.8
									C210.5,244.6,211,245.4,211,246.4z"/>
							</g>
						</g>
						<g>
							<g>
								<path class="st11" d="M221.2,246.4c0,1-0.5,1.8-1.1,1.8c-0.6,0-1.1-0.8-1.1-1.8c0-1,0.5-1.8,1.1-1.8
									C220.7,244.6,221.2,245.4,221.2,246.4z"/>
							</g>
						</g>
						<g>
							<g>
								<path class="st11" d="M244.1,246.4c0,1-0.5,1.8-1.1,1.8c-0.6,0-1.1-0.8-1.1-1.8c0-1,0.5-1.8,1.1-1.8
									C243.6,244.6,244.1,245.4,244.1,246.4z"/>
							</g>
						</g>
						<g>
							<g>
								<path class="st12" d="M216,246.4c0,1-0.5,1.8-1.1,1.8c-0.6,0-1.1-0.8-1.1-1.8c0-1,0.5-1.8,1.1-1.8
									C215.5,244.6,216,245.4,216,246.4z"/>
							</g>
						</g>
						<g>
							<g>
								<path class="st12" d="M230.4,246.4c0,1-0.5,1.8-1.1,1.8c-0.6,0-1.1-0.8-1.1-1.8c0-1,0.5-1.8,1.1-1.8
									C229.9,244.6,230.4,245.4,230.4,246.4z"/>
							</g>
						</g>
					</g>
				</g>
				<g>
					<g>
						<rect x="153.5" y="227.3" class="st9" width="19.8" height="4.9"/>
					</g>
				</g>
				<g>
					<g>
						<rect x="153.5" y="235.7" class="st9" width="19.8" height="4.9"/>
					</g>
				</g>
				<g>
					<g>
						<rect x="153.5" y="244.3" class="st9" width="19.8" height="4.9"/>
					</g>
				</g>
			</g>
			<g>
				<g>
					<polygon class="st9" points="264.9,209.8 249.7,209.8 249.7,170.1 264.9,170 					"/>
				</g>
			</g>
			<g>
				<g>
					<polygon class="st9" points="264.9,161.4 249.7,161.5 249.7,121.7 264.9,121.6 					"/>
				</g>
			</g>
			<g>
				<g>
					<polygon class="st9" points="264.9,258.5 249.7,258.6 249.7,218.8 264.9,218.8 					"/>
				</g>
			</g>
		</g>
		<g>
			<g>
				<rect x="149.7" y="121.3" class="st10" width="100.7" height="39.8"/>
			</g>
		</g>
		<g>
			<g>
				<rect x="154.2" y="129.5" class="st9" width="19.8" height="4.9"/>
			</g>
		</g>
		<g>
			<g>
				<rect x="154.2" y="137.9" class="st9" width="19.8" height="4.9"/>
			</g>
		</g>
		<g>
			<g>
				<rect x="154.2" y="146.5" class="st9" width="19.8" height="4.9"/>
			</g>
		</g>
		<g>
			<g>
				<g>
					<g>
						<path class="st9" d="M181.9,132.4c0,1-0.5,1.8-1.1,1.8c-0.6,0-1.1-0.8-1.1-1.8s0.5-1.8,1.1-1.8
							C181.4,130.6,181.9,131.4,181.9,132.4z"/>
					</g>
				</g>
				<g>
					<g>
						<ellipse class="st9" cx="185.8" cy="132.4" rx="1.1" ry="1.8"/>
					</g>
				</g>
				<g>
					<g>
						<path class="st9" d="M191.9,132.4c0,1-0.5,1.8-1.1,1.8c-0.6,0-1.1-0.8-1.1-1.8s0.5-1.8,1.1-1.8
							C191.4,130.6,191.9,131.4,191.9,132.4z"/>
					</g>
				</g>
				<g>
					<g>
						<ellipse class="st9" cx="195.8" cy="132.4" rx="1.1" ry="1.8"/>
					</g>
				</g>
				<g>
					<g>
						<path class="st9" d="M235.8,132.4c0,1-0.5,1.8-1.1,1.8c-0.6,0-1.1-0.8-1.1-1.8s0.5-1.8,1.1-1.8
							C235.3,130.6,235.8,131.4,235.8,132.4z"/>
					</g>
				</g>
				<g>
					<g>
						<ellipse class="st9" cx="239.8" cy="132.4" rx="1.1" ry="1.8"/>
					</g>
				</g>
				<g>
					<g>
						<path class="st9" d="M202,132.4c0,1-0.5,1.8-1.1,1.8c-0.6,0-1.1-0.8-1.1-1.8s0.5-1.8,1.1-1.8C201.5,130.6,202,131.4,202,132.4
							z"/>
					</g>
				</g>
				<g>
					<g>
						<ellipse class="st9" cx="225.5" cy="132.4" rx="1.1" ry="1.8"/>
					</g>
				</g>
				<g>
					<g>
						<path class="st11" d="M207,132.4c0,1-0.5,1.8-1.1,1.8c-0.6,0-1.1-0.8-1.1-1.8s0.5-1.8,1.1-1.8
							C206.5,130.6,207,131.4,207,132.4z"/>
					</g>
				</g>
				<g>
					<g>
						<path class="st11" d="M212,132.4c0,1-0.5,1.8-1.1,1.8c-0.6,0-1.1-0.8-1.1-1.8s0.5-1.8,1.1-1.8
							C211.5,130.6,212,131.4,212,132.4z"/>
					</g>
				</g>
				<g>
					<g>
						<path class="st11" d="M222.2,132.4c0,1-0.5,1.8-1.1,1.8c-0.6,0-1.1-0.8-1.1-1.8s0.5-1.8,1.1-1.8
							C221.7,130.6,222.2,131.4,222.2,132.4z"/>
					</g>
				</g>
				<g>
					<g>
						<path class="st11" d="M245.1,132.4c0,1-0.5,1.8-1.1,1.8c-0.6,0-1.1-0.8-1.1-1.8s0.5-1.8,1.1-1.8
							C244.6,130.6,245.1,131.4,245.1,132.4z"/>
					</g>
				</g>
				<g>
					<g>
						<path class="st12" d="M217,132.4c0,1-0.5,1.8-1.1,1.8c-0.6,0-1.1-0.8-1.1-1.8s0.5-1.8,1.1-1.8
							C216.5,130.6,217,131.4,217,132.4z"/>
					</g>
				</g>
				<g>
					<g>
						<ellipse class="st12" cx="230.3" cy="132.4" rx="1.1" ry="1.8"/>
					</g>
				</g>
			</g>
			<g>
				<g>
					<g>
						<path class="st9" d="M242.9,141.2c0-1,0.5-1.8,1.1-1.8c0.6,0,1.1,0.8,1.1,1.8s-0.5,1.8-1.1,1.8
							C243.4,143,242.9,142.2,242.9,141.2z"/>
					</g>
				</g>
				<g>
					<g>
						<path class="st9" d="M237.8,141.2c0-1,0.5-1.8,1.1-1.8s1.1,0.8,1.1,1.8s-0.5,1.8-1.1,1.8S237.8,142.2,237.8,141.2z"/>
					</g>
				</g>
				<g>
					<g>
						<path class="st9" d="M232.8,141.2c0-1,0.5-1.8,1.1-1.8c0.6,0,1.1,0.8,1.1,1.8s-0.5,1.8-1.1,1.8
							C233.3,143,232.8,142.2,232.8,141.2z"/>
					</g>
				</g>
				<g>
					<g>
						<path class="st9" d="M227.8,141.2c0-1,0.5-1.8,1.1-1.8c0.6,0,1.1,0.8,1.1,1.8s-0.5,1.8-1.1,1.8
							C228.3,143,227.8,142.2,227.8,141.2z"/>
					</g>
				</g>
				<g>
					<g>
						<path class="st9" d="M188.9,141.2c0-1,0.5-1.8,1.1-1.8c0.6,0,1.1,0.8,1.1,1.8s-0.5,1.8-1.1,1.8
							C189.4,143,188.9,142.2,188.9,141.2z"/>
					</g>
				</g>
				<g>
					<g>
						<path class="st9" d="M183.8,141.2c0-1,0.5-1.8,1.1-1.8c0.6,0,1.1,0.8,1.1,1.8s-0.5,1.8-1.1,1.8
							C184.3,143,183.8,142.2,183.8,141.2z"/>
					</g>
				</g>
				<g>
					<g>
						<path class="st9" d="M222.8,141.2c0-1,0.5-1.8,1.1-1.8c0.6,0,1.1,0.8,1.1,1.8s-0.5,1.8-1.1,1.8
							C223.3,143,222.8,142.2,222.8,141.2z"/>
					</g>
				</g>
				<g>
					<g>
						<path class="st9" d="M198.1,141.2c0-1,0.5-1.8,1.1-1.8c0.6,0,1.1,0.8,1.1,1.8s-0.5,1.8-1.1,1.8
							C198.6,143,198.1,142.2,198.1,141.2z"/>
					</g>
				</g>
				<g>
					<g>
						<path class="st11" d="M217.7,141.2c0-1,0.5-1.8,1.1-1.8c0.6,0,1.1,0.8,1.1,1.8s-0.5,1.8-1.1,1.8
							C218.3,143,217.7,142.2,217.7,141.2z"/>
					</g>
				</g>
				<g>
					<g>
						<path class="st11" d="M212.7,141.2c0-1,0.5-1.8,1.1-1.8c0.6,0,1.1,0.8,1.1,1.8s-0.5,1.8-1.1,1.8
							C213.2,143,212.7,142.2,212.7,141.2z"/>
					</g>
				</g>
				<g>
					<g>
						<path class="st11" d="M202.5,141.2c0-1,0.5-1.8,1.1-1.8c0.6,0,1.1,0.8,1.1,1.8s-0.5,1.8-1.1,1.8
							C203.1,143,202.5,142.2,202.5,141.2z"/>
					</g>
				</g>
				<g>
					<g>
						<path class="st11" d="M179.6,141.2c0-1,0.5-1.8,1.1-1.8c0.6,0,1.1,0.8,1.1,1.8s-0.5,1.8-1.1,1.8
							C180.1,143,179.6,142.2,179.6,141.2z"/>
					</g>
				</g>
				<g>
					<g>
						<path class="st12" d="M207.7,141.2c0-1,0.5-1.8,1.1-1.8c0.6,0,1.1,0.8,1.1,1.8s-0.5,1.8-1.1,1.8
							C208.2,143,207.7,142.2,207.7,141.2z"/>
					</g>
				</g>
				<g>
					<g>
						<path class="st12" d="M193.3,141.2c0-1,0.5-1.8,1.1-1.8c0.6,0,1.1,0.8,1.1,1.8s-0.5,1.8-1.1,1.8
							C193.8,143,193.3,142.2,193.3,141.2z"/>
					</g>
				</g>
			</g>
			<g>
				<g>
					<g>
						<path class="st9" d="M181.9,148.9c0,1-0.5,1.8-1.1,1.8c-0.6,0-1.1-0.8-1.1-1.8c0-1,0.5-1.8,1.1-1.8
							C181.4,147.1,181.9,147.9,181.9,148.9z"/>
					</g>
				</g>
				<g>
					<g>
						<path class="st9" d="M186.9,148.9c0,1-0.5,1.8-1.1,1.8c-0.6,0-1.1-0.8-1.1-1.8c0-1,0.5-1.8,1.1-1.8
							C186.4,147.1,186.9,147.9,186.9,148.9z"/>
					</g>
				</g>
				<g>
					<g>
						<path class="st9" d="M191.9,148.9c0,1-0.5,1.8-1.1,1.8c-0.6,0-1.1-0.8-1.1-1.8c0-1,0.5-1.8,1.1-1.8
							C191.4,147.1,191.9,147.9,191.9,148.9z"/>
					</g>
				</g>
				<g>
					<g>
						<path class="st9" d="M196.9,148.9c0,1-0.5,1.8-1.1,1.8s-1.1-0.8-1.1-1.8c0-1,0.5-1.8,1.1-1.8S196.9,147.9,196.9,148.9z"/>
					</g>
				</g>
				<g>
					<g>
						<path class="st9" d="M235.8,148.9c0,1-0.5,1.8-1.1,1.8c-0.6,0-1.1-0.8-1.1-1.8c0-1,0.5-1.8,1.1-1.8
							C235.3,147.1,235.8,147.9,235.8,148.9z"/>
					</g>
				</g>
				<g>
					<g>
						<path class="st9" d="M241,148.9c0,1-0.5,1.8-1.1,1.8s-1.1-0.8-1.1-1.8c0-1,0.5-1.8,1.1-1.8S241,147.9,241,148.9z"/>
					</g>
				</g>
				<g>
					<g>
						<path class="st9" d="M202,148.9c0,1-0.5,1.8-1.1,1.8c-0.6,0-1.1-0.8-1.1-1.8c0-1,0.5-1.8,1.1-1.8
							C201.5,147.1,202,147.9,202,148.9z"/>
					</g>
				</g>
				<g>
					<g>
						<path class="st9" d="M226.6,148.9c0,1-0.5,1.8-1.1,1.8c-0.6,0-1.1-0.8-1.1-1.8c0-1,0.5-1.8,1.1-1.8
							C226.1,147.1,226.6,147.9,226.6,148.9z"/>
					</g>
				</g>
				<g>
					<g>
						<path class="st11" d="M207,148.9c0,1-0.5,1.8-1.1,1.8c-0.6,0-1.1-0.8-1.1-1.8c0-1,0.5-1.8,1.1-1.8
							C206.5,147.1,207,147.9,207,148.9z"/>
					</g>
				</g>
				<g>
					<g>
						<path class="st11" d="M212,148.9c0,1-0.5,1.8-1.1,1.8c-0.6,0-1.1-0.8-1.1-1.8c0-1,0.5-1.8,1.1-1.8
							C211.5,147.1,212,147.9,212,148.9z"/>
					</g>
				</g>
				<g>
					<g>
						<path class="st11" d="M222.2,148.9c0,1-0.5,1.8-1.1,1.8c-0.6,0-1.1-0.8-1.1-1.8c0-1,0.5-1.8,1.1-1.8
							C221.7,147.1,222.2,147.9,222.2,148.9z"/>
					</g>
				</g>
				<g>
					<g>
						<path class="st11" d="M245.1,148.9c0,1-0.5,1.8-1.1,1.8c-0.6,0-1.1-0.8-1.1-1.8c0-1,0.5-1.8,1.1-1.8
							C244.6,147.1,245.1,147.9,245.1,148.9z"/>
					</g>
				</g>
				<g>
					<g>
						<path class="st12" d="M217,148.9c0,1-0.5,1.8-1.1,1.8c-0.6,0-1.1-0.8-1.1-1.8c0-1,0.5-1.8,1.1-1.8
							C216.5,147.1,217,147.9,217,148.9z"/>
					</g>
				</g>
				<g>
					<g>
						<path class="st12" d="M231.4,148.9c0,1-0.5,1.8-1.1,1.8c-0.6,0-1.1-0.8-1.1-1.8c0-1,0.5-1.8,1.1-1.8
							C230.9,147.1,231.4,147.9,231.4,148.9z"/>
					</g>
				</g>
			</g>
		</g>
	</g>
</g>
<g id="Shadow_1_">
</g>
<g id="Servers">
</g>
<g id="Desk_2_">
</g>
<g id="Character">
</g>
</svg>
