<?xml version="1.0" encoding="utf-8"?>
<!-- Generator: Adobe Illustrator 24.0.2, SVG Export Plug-In . SVG Version: 6.00 Build 0)  -->
<svg version="1.1" xmlns="http://www.w3.org/2000/svg" xmlns:xlink="http://www.w3.org/1999/xlink" x="0px" y="0px"
	 viewBox="0 0 252 208" style="enable-background:new 0 0 252 208;" xml:space="preserve">
<style type="text/css">
	.st0{enable-background:new    ;}
	.st1{fill:#507FB5;}
	.st2{fill:#5F96D7;}
	.st3{fill:#2A2A2A;}
	.st4{fill:#F1CB30;}
	.st5{fill:#476271;}
	.st6{fill:#4F6E7F;}
</style>
<g id="Floor">
	<g>
		<g>
			<g>
				<g class="st0">
					<polygon class="st1" points="61.1,60.6 61,74.9 60.8,145.5 102.1,125.8 102.3,55.2 102.4,40.9 					"/>
					<g>
						<polygon class="st1" points="17.8,40.1 59.1,20.4 102.4,40.9 61.1,60.6 						"/>
					</g>
					<g>
						<polygon class="st2" points="61.1,60.6 61,74.9 60.8,145.5 17.5,125 17.6,95.2 17.8,40.1 						"/>
					</g>
				</g>
			</g>
			<g>
				<g class="st0">
					<g>
						<polygon class="st3" points="54.9,119 54.9,126.4 22.3,110.9 22.3,103.6 						"/>
					</g>
					<g>
						<polygon class="st3" points="54.9,109 54.9,116.3 22.3,100.9 22.4,93.5 						"/>
					</g>
					<g>
						<polygon class="st3" points="55,98.9 54.9,106.3 22.4,90.8 22.4,83.5 						"/>
					</g>
					<g>
						<polygon class="st3" points="55,88.9 55,96.2 22.4,80.8 22.4,73.4 						"/>
					</g>
					<g>
						<polygon class="st3" points="55,78.8 55,86.2 22.4,70.8 22.5,63.4 						"/>
					</g>
					<g>
						<polygon class="st3" points="55.1,68.8 55,76.2 22.5,60.7 22.5,53.4 						"/>
					</g>
				</g>
			</g>
			<g>
				<g>
					<polygon class="st4" points="26.9,122.1 26.8,124.4 24.1,123.1 24.1,120.8 					"/>
				</g>
				<g>
					<polygon class="st4" points="32.1,124.6 32.1,126.9 29.4,125.6 29.4,123.3 					"/>
				</g>
				<g>
					<polygon class="st4" points="37.4,127.1 37.4,129.4 34.7,128.1 34.7,125.8 					"/>
				</g>
				<g>
					<polygon class="st4" points="42.7,129.6 42.7,131.9 40,130.6 40,128.3 					"/>
				</g>
				<g>
					<polygon class="st4" points="48,132.1 48,134.4 45.3,133.1 45.3,130.8 					"/>
				</g>
				<g>
					<polygon class="st4" points="53.3,134.6 53.2,136.9 50.5,135.7 50.5,133.3 					"/>
				</g>
			</g>
		</g>
		<g>
			<g>
				<g class="st0">
					<polygon class="st5" points="124,62.2 123.9,81.2 123.6,174.9 178.5,148.7 178.8,55 178.8,36.1 					"/>
					<g>
						<polygon class="st5" points="66.6,35 121.4,8.8 178.8,36.1 124,62.2 						"/>
					</g>
					<g>
						<polygon class="st6" points="124,62.2 123.9,81.2 123.6,174.9 66.2,147.7 66.3,108.2 66.6,35 						"/>
					</g>
				</g>
			</g>
			<g>
				<g class="st0">
					<g>
						<polygon class="st3" points="115.8,139.8 115.8,149.6 72.6,129.1 72.6,119.3 						"/>
					</g>
					<g>
						<polygon class="st3" points="115.9,126.5 115.8,136.2 72.6,115.7 72.6,106 						"/>
					</g>
					<g>
						<polygon class="st3" points="115.9,113.1 115.9,122.9 72.6,102.4 72.7,92.6 						"/>
					</g>
					<g>
						<polygon class="st3" points="116,99.8 115.9,109.6 72.7,89.1 72.7,79.3 						"/>
					</g>
					<g>
						<polygon class="st3" points="116,86.5 116,96.2 72.7,75.7 72.8,66 						"/>
					</g>
					<g>
						<polygon class="st3" points="116,73.1 116,82.9 72.8,62.4 72.8,52.6 						"/>
					</g>
				</g>
			</g>
			<g>
				<g>
					<polygon class="st4" points="78.6,143.9 78.6,147 75,145.3 75,142.2 					"/>
				</g>
				<g>
					<polygon class="st4" points="85.6,147.2 85.6,150.3 82,148.6 82,145.5 					"/>
				</g>
				<g>
					<polygon class="st4" points="92.6,150.5 92.6,153.6 89,151.9 89,148.8 					"/>
				</g>
				<g>
					<polygon class="st4" points="99.6,153.8 99.6,157 96,155.2 96,152.1 					"/>
				</g>
				<g>
					<polygon class="st4" points="106.6,157.2 106.6,160.3 103,158.6 103,155.5 					"/>
				</g>
				<g>
					<polygon class="st4" points="113.6,160.5 113.6,163.6 110,161.9 110,158.8 					"/>
				</g>
			</g>
		</g>
		<g>
			<g>
				<g class="st0">
					<polygon class="st1" points="174.7,112.8 174.6,127.1 174.4,197.7 215.7,178 215.9,107.4 216,93.1 					"/>
					<g>
						<polygon class="st1" points="131.4,92.3 172.7,72.6 216,93.1 174.7,112.8 						"/>
					</g>
					<g>
						<polygon class="st2" points="174.7,112.8 174.6,127.1 174.4,197.7 131.1,177.1 131.2,147.4 131.4,92.3 						"/>
					</g>
				</g>
			</g>
			<g>
				<g class="st0">
					<g>
						<polygon class="st3" points="168.5,171.2 168.5,178.6 135.9,163.1 136,155.8 						"/>
					</g>
					<g>
						<polygon class="st3" points="168.6,161.2 168.5,168.5 136,153.1 136,145.7 						"/>
					</g>
					<g>
						<polygon class="st3" points="168.6,151.1 168.6,158.5 136,143 136,135.7 						"/>
					</g>
					<g>
						<polygon class="st3" points="168.6,141.1 168.6,148.4 136,133 136.1,125.6 						"/>
					</g>
					<g>
						<polygon class="st3" points="168.7,131 168.6,138.4 136.1,123 136.1,115.6 						"/>
					</g>
					<g>
						<polygon class="st3" points="168.7,121 168.7,128.4 136.1,112.9 136.1,105.6 						"/>
					</g>
				</g>
			</g>
			<g>
				<g>
					<polygon class="st4" points="140.5,174.3 140.5,176.6 137.7,175.3 137.8,173 					"/>
				</g>
				<g>
					<polygon class="st4" points="145.7,176.8 145.7,179.1 143,177.8 143,175.5 					"/>
				</g>
				<g>
					<polygon class="st4" points="151,179.3 151,181.6 148.3,180.3 148.3,178 					"/>
				</g>
				<g>
					<polygon class="st4" points="156.3,181.8 156.3,184.1 153.6,182.8 153.6,180.5 					"/>
				</g>
				<g>
					<polygon class="st4" points="161.6,184.3 161.6,186.6 158.9,185.3 158.9,183 					"/>
				</g>
				<g>
					<polygon class="st4" points="166.9,186.8 166.9,189.1 164.1,187.8 164.2,185.5 					"/>
				</g>
			</g>
		</g>
	</g>
</g>
<g id="Shadow_1_">
</g>
<g id="Servers">
</g>
<g id="Desk_2_">
</g>
<g id="Character">
</g>
</svg>
