<?xml version="1.0" encoding="utf-8"?>
<!-- Generator: Adobe Illustrator 24.0.2, SVG Export Plug-In . SVG Version: 6.00 Build 0)  -->
<svg version="1.1" id="Capa_1" xmlns="http://www.w3.org/2000/svg" xmlns:xlink="http://www.w3.org/1999/xlink" x="0px" y="0px"
	 viewBox="0 0 1366 406" style="enable-background:new 0 0 1366 406;" xml:space="preserve">
<style type="text/css">
	.st0{fill:#FAFAFA;}
	.st1{fill:#F5F5F5;}
	.st2{fill:#E1E1E1;}
	.st3{fill:#ECECEC;}
	.st4{fill:#1A2E35;}
	.st5{fill:#FFAAA8;}
	.st6{fill:#2B454E;}
	.st7{fill:#375A64;}
	.st8{fill:#F0F0F0;}
	.st9{fill:#00DFBF;}
	.st10{opacity:0.1;}
	.st11{fill:#FF9090;}
	.st12{opacity:0.4;fill:#FFFFFF;}
	.st13{opacity:0.2;}
	.st14{fill:#E7E7E7;}
	.st15{fill:none;stroke:#00DFBF;stroke-miterlimit:10;}
	.st16{opacity:0.75;}
	.st17{fill:#FFFFFF;}
	.st18{fill:#2B2B2B;}
	.st19{enable-background:new    ;}
	.st20{fill:#212121;}
	.st21{fill:#252525;}
	.st22{fill:#171717;}
	.st23{fill:#FFA800;}
	.st24{fill:#262626;}
	.st25{fill:#FFCD02;}
	.st26{fill:#ECEFF0;}
	.st27{fill-rule:evenodd;clip-rule:evenodd;fill:#FFFFFF;}
	.st28{fill:none;stroke:#2F528F;stroke-width:6;stroke-miterlimit:8;}
	.st29{fill:none;stroke:#ED7D31;stroke-width:6;stroke-miterlimit:8;}
	.st30{fill-rule:evenodd;clip-rule:evenodd;fill:#ED7D31;}
	.st31{fill:#2980B9;}
	.st32{fill:#3498DB;}
	.st33{fill:#356272;}
	.st34{fill:#3A6F81;}
	.st35{fill:#E8505B;}
	.st36{font-family:'MyriadPro-Regular';}
	.st37{font-size:18px;}
	.st38{font-size:36px;}
</style>
<g id="XMLID_432_">
	<g id="XMLID_435_">
		<path id="XMLID_436_" class="st0" d="M396.9,149.9v82.4c0,0.6-0.5,1.4-1.1,1.7l-92.9,45.5c-0.6,0.3-1.7,0.3-2.3,0l-3.1-1.5
			c-0.6-0.3-1.1-1.1-1.1-1.7v-82.4c0-0.6,0.6-1.1,1.3-1.1l97.9-44C396.3,148.8,396.9,149.3,396.9,149.9z"/>
	</g>
	<g id="XMLID_433_">
		<path id="XMLID_434_" class="st1" d="M297.7,192.8h2.7c0.7,0,1.3,0.5,1.3,1.1l0,85c0,0.6-0.5,0.9-1.1,0.6l-3.1-1.5
			c-0.6-0.3-1.1-1.1-1.1-1.7v-82.4C296.3,193.3,296.9,192.8,297.7,192.8z"/>
	</g>
</g>
<g id="XMLID_427_">
	<g id="XMLID_430_">
		<path id="XMLID_431_" class="st2" d="M211.9,55.5v82.4c0,0.6-0.5,1.4-1.1,1.7l-96.6,47.3c-0.6,0.3-1.7,0.3-2.3,0l-3.1-1.5
			c-0.6-0.3-1.1-1.1-1.1-1.7v-82.4c0-0.6,0.6-1.1,1.3-1.1l101.6-45.8C211.3,54.4,211.9,54.9,211.9,55.5z"/>
	</g>
	<g id="XMLID_428_">
		<path id="XMLID_429_" class="st3" d="M109,100.2h2.7c0.7,0,1.3,0.5,1.3,1.1l0,85c0,0.6-0.5,0.9-1.1,0.6l-3.1-1.5
			c-0.6-0.3-1.1-1.1-1.1-1.7v-82.4C107.7,100.7,108.3,100.2,109,100.2z"/>
	</g>
</g>
<g id="XMLID_425_">
	<path id="XMLID_426_" class="st1" d="M406,147.3v-0.8c0-1.2-1-2.8-2.3-3.4L208.8,47.6c-1.3-0.6-3.3-0.6-4.6,0L101,98.2
		c-1.3,0.6-2.3,2.1-2.3,3.4v0.8c0,1.2,1,2.8,2.3,3.4l194.9,95.6c1.3,0.6,3.3,0.6,4.6,0l103.2-50.6C405,150.1,406,148.6,406,147.3z"
		/>
</g>
<g id="XMLID_423_">
	<path id="XMLID_424_" class="st3" d="M298.2,196.5v5.3c0.8,0,1.7-0.2,2.3-0.5l103.2-50.6c1.3-0.6,2.3-2.1,2.3-3.4v-0.8
		c0-1.1-0.8-2.4-1.9-3.1c0.8,0.6,0.7,1.4-0.4,2l-103.2,50.6C299.8,196.4,299,196.5,298.2,196.5z"/>
</g>
<g id="XMLID_421_">
	<path id="XMLID_422_" class="st0" d="M403.7,145.4l-103.2,50.6c-1.3,0.6-3.3,0.6-4.6,0L101,100.5c-1.3-0.6-1.3-1.6,0-2.3
		l103.2-50.6c1.3-0.6,3.3-0.6,4.6,0l194.9,95.6C405,143.8,405,144.8,403.7,145.4z"/>
</g>
<g id="XMLID_1317_">
	<g id="Legs">
		<g id="XMLID_1365_">
			<g id="XMLID_1370_">
				<path id="XMLID_1389_" class="st4" d="M133.3,239c-0.7,0.8-0.8,2.5-1.5,4.9c-0.7,2.4-0.9,4.2-0.5,5.4c0.5,1.2,3.5,3.8,7.1,4.7
					c3.7,1,8.2,0.2,12.6-2.1c4.4-2.2,7.7-4.9,13.9-6.4c6.2-1.5,9.4-2.7,12.3-4.7c3.5-2.4,5.7-5.9-0.9-7.4
					c-6.7-1.5-18.6,0.8-31.7,1.3L133.3,239z"/>
			</g>
			<g id="XMLID_1368_">
				<path id="XMLID_1369_" class="st5" d="M133.3,232.1v8.3c0,0,1.3,2.8,6.9,2.9c3.4,0.1,5.9-1.2,7.4-3v-8.3H133.3z"/>
			</g>
			<g id="XMLID_1366_">
				<path id="XMLID_1367_" class="st6" d="M152.1,177.6c0.1,10.4-3.4,58.2-3.4,58.2s-5,5.4-15.8,0l-3.7-53L152.1,177.6z"/>
			</g>
		</g>
		<g id="XMLID_1353_">
			<g id="XMLID_1356_">
				<path id="XMLID_28704_" class="st4" d="M162.8,255.3c-0.7,0.8-0.8,2.5-1.5,4.9c-0.7,2.4-0.9,4.2-0.5,5.4
					c0.5,1.2,3.5,3.8,7.1,4.7c3.7,1,8.2,0.2,12.6-2.1c4.4-2.2,7.7-4.9,13.9-6.4c6.2-1.5,9.4-2.7,12.3-4.7c3.5-2.4,5.7-5.9-0.9-7.4
					c-6.7-1.5-18.6,0.8-31.7,1.3L162.8,255.3z"/>
			</g>
			<g id="XMLID_1355_">
				<path id="XMLID_28702_" class="st5" d="M162.8,248.4v8.3c0,0,1.3,2.8,6.9,2.9c3.4,0.1,5.9-1.2,7.4-3v-8.3H162.8z"/>
			</g>
			<g id="XMLID_1354_">
				<path id="XMLID_28700_" class="st6" d="M181.5,193.9c0.1,10.4-3.4,58.2-3.4,58.2s-5,5.4-15.8,0l-3.7-53L181.5,193.9z"/>
			</g>
		</g>
	</g>
	<g id="Chair">
		<g id="XMLID_42935_">
			<g id="XMLID_42937_">
				<g id="XMLID_42942_">
					<g id="XMLID_42944_">
						<g id="XMLID_42975_">
							<path id="XMLID_42977_" class="st7" d="M143.6,292.2c0,0.4-0.1,0.8-0.1,1.2c-0.2,0.7-0.6,1.3-1.2,1.6l0,0
								c-1,0.5-2.3,0.5-3.8-0.3c-2.9-1.4-5.2-4.9-5.2-7.7c0-1.4,0.6-2.3,1.5-2.8l0,0l0.3-0.1h0c0.6-0.2,1.4-0.3,2.2-0.1
								c0.4,0.1,0.8,0.3,1.3,0.5C141.2,286,143.6,289.4,143.6,292.2z"/>
							<path id="XMLID_42976_" class="st4" d="M142.1,282.7c-0.8-0.4-1.6-0.6-2.3-0.6c-0.5,0-1,0.1-1.5,0.4l-0.1,0.1l-3.4,1.7
								c0.6-0.2,1.4-0.3,2.2-0.1c0.4,0.1,0.8,0.3,1.3,0.5c2.9,1.4,5.2,4.9,5.2,7.7c0,0.4-0.1,0.8-0.1,1.2c-0.2,0.7-0.6,1.3-1.2,1.6
								l3.5-1.7l0.1,0l0.3-0.1c0,0,0.1,0,0.1-0.1c0.8-0.5,1.3-1.5,1.3-2.7C147.4,287.5,145,284.1,142.1,282.7z"/>
						</g>
						<g id="XMLID_42972_">
							<path id="XMLID_42974_" class="st7" d="M87.1,266.4c0,0.4-0.1,0.8-0.1,1.2c-0.2,0.7-0.6,1.3-1.2,1.6l0,0
								c-1,0.5-2.3,0.5-3.8-0.3c-2.9-1.4-5.2-4.9-5.2-7.7c0-1.4,0.6-2.3,1.5-2.8l0,0l0.3-0.1h0c0.6-0.2,1.4-0.3,2.2-0.1
								c0.4,0.1,0.8,0.3,1.3,0.5C84.7,260.1,87.1,263.6,87.1,266.4z"/>
							<path id="XMLID_42973_" class="st4" d="M85.6,256.9c-0.8-0.4-1.6-0.6-2.3-0.6c-0.5,0-1,0.1-1.5,0.4l-0.1,0.1l-3.4,1.7
								c0.6-0.2,1.4-0.3,2.2-0.1c0.4,0.1,0.8,0.3,1.3,0.5c2.9,1.4,5.2,4.9,5.2,7.7c0,0.4-0.1,0.8-0.1,1.2c-0.2,0.7-0.6,1.3-1.2,1.6
								l3.5-1.7l0.1,0l0.3-0.1c0,0,0.1,0,0.1-0.1c0.8-0.5,1.3-1.5,1.3-2.7C90.8,261.7,88.5,258.3,85.6,256.9z"/>
						</g>
						<g id="XMLID_42969_">
							<path id="XMLID_42971_" class="st7" d="M97.1,302.3c0,0.4,0.1,0.8,0.1,1.2c0.2,0.7,0.6,1.3,1.2,1.6l0,0
								c1,0.5,2.3,0.5,3.8-0.3c2.9-1.4,5.2-4.9,5.2-7.7c0-1.4-0.6-2.3-1.5-2.8l0,0l-0.3-0.1h0c-0.6-0.2-1.4-0.3-2.2-0.1
								c-0.4,0.1-0.8,0.3-1.3,0.5C99.5,296,97.1,299.5,97.1,302.3z"/>
							<path id="XMLID_42970_" class="st4" d="M98.6,292.8c0.8-0.4,1.6-0.6,2.3-0.6c0.5,0,1,0.1,1.5,0.4l0.1,0.1l3.4,1.7
								c-0.6-0.2-1.4-0.3-2.2-0.1c-0.4,0.1-0.8,0.3-1.3,0.5c-2.9,1.4-5.2,4.9-5.2,7.7c0,0.4,0.1,0.8,0.1,1.2
								c0.2,0.7,0.6,1.3,1.2,1.6l-3.5-1.7l-0.1,0l-0.3-0.2c0,0-0.1,0-0.1-0.1c-0.8-0.5-1.3-1.5-1.3-2.7
								C93.3,297.6,95.7,294.2,98.6,292.8z"/>
						</g>
						<g id="XMLID_42966_">
							<path id="XMLID_42968_" class="st7" d="M60.4,287c0,0.4,0.1,0.8,0.1,1.2c0.2,0.7,0.6,1.3,1.2,1.6l0,0c1,0.5,2.3,0.5,3.8-0.3
								c2.9-1.4,5.2-4.9,5.2-7.7c0-1.4-0.6-2.3-1.5-2.8l0,0l-0.3-0.1h0c-0.6-0.2-1.4-0.3-2.2-0.1c-0.4,0.1-0.8,0.3-1.3,0.5
								C62.8,280.8,60.4,284.2,60.4,287z"/>
							<path id="XMLID_42967_" class="st4" d="M61.9,277.5c0.8-0.4,1.6-0.6,2.3-0.6c0.5,0,1,0.1,1.5,0.4l0.1,0.1l3.4,1.7
								c-0.6-0.2-1.4-0.3-2.2-0.1c-0.4,0.1-0.8,0.3-1.3,0.5c-2.9,1.4-5.2,4.9-5.2,7.7c0,0.4,0.1,0.8,0.1,1.2
								c0.2,0.7,0.6,1.3,1.2,1.6l-3.5-1.7l-0.1,0l-0.3-0.1c0,0-0.1,0-0.1-0.1c-0.8-0.5-1.3-1.5-1.3-2.7
								C56.6,282.3,59,278.9,61.9,277.5z"/>
						</g>
						<g id="XMLID_42963_">
							<path id="XMLID_42965_" class="st7" d="M131.4,268.3c0,0.4,0.1,0.8,0.1,1.2c0.2,0.7,0.6,1.3,1.2,1.6l0,0
								c1,0.5,2.3,0.5,3.8-0.3c2.9-1.4,5.2-4.9,5.2-7.7c0-1.4-0.6-2.3-1.5-2.8l0,0l-0.3-0.1h0c-0.6-0.2-1.4-0.3-2.2-0.1
								c-0.4,0.1-0.8,0.3-1.3,0.5C133.7,262,131.4,265.5,131.4,268.3z"/>
							<path id="XMLID_42964_" class="st4" d="M132.8,258.8c0.8-0.4,1.6-0.6,2.3-0.6c0.5,0,1,0.1,1.5,0.3l0.1,0.1l3.4,1.7
								c-0.6-0.2-1.4-0.3-2.2-0.1c-0.4,0.1-0.8,0.3-1.3,0.5c-2.9,1.4-5.2,4.9-5.2,7.7c0,0.4,0.1,0.8,0.1,1.2
								c0.2,0.7,0.6,1.3,1.2,1.6l-3.5-1.7l-0.1,0l-0.3-0.2c0,0-0.1,0-0.1,0c-0.8-0.5-1.3-1.5-1.3-2.7
								C127.6,263.6,129.9,260.2,132.8,258.8z"/>
						</g>
						<g id="XMLID_42960_">
							<polygon id="XMLID_42962_" class="st1" points="100.2,258.9 81.5,254.4 81.5,257.8 100.2,266.9 							"/>
							<polygon id="XMLID_42961_" class="st0" points="100.2,258.9 102,258 83.3,253.6 81.5,254.4 							"/>
						</g>
						<g id="XMLID_42957_">
							<polygon id="XMLID_42959_" class="st1" points="108.2,269 134.7,260.6 134.7,257.2 108.2,259.2 							"/>
							<polygon id="XMLID_42958_" class="st0" points="134.7,257.2 132.7,256.7 106.7,258.2 108.2,259.2 							"/>
						</g>
						<path id="XMLID_42956_" class="st0" d="M109,267.9c0,2.5-9.2,2.5-9.2,0v-22.2h9.2V267.9z"/>
						<g id="XMLID_42952_">
							<path id="XMLID_42955_" class="st0" d="M102.1,262.2L97,290.1h3.5l4.7-27.9C104,262.4,103,262.4,102.1,262.2z"/>
							<polygon id="XMLID_42954_" class="st1" points="105.2,262.2 105.2,269.8 100.5,294.8 100.5,290.1 							"/>
							<rect id="XMLID_42953_" x="97" y="290.1" class="st3" width="3.5" height="4.7"/>
						</g>
						<g id="XMLID_42948_">
							<polygon id="XMLID_42951_" class="st1" points="106.8,269.6 140.9,284.8 140.9,280.1 106.8,262.2 							"/>
							<path id="XMLID_42950_" class="st0" d="M106.8,262.2c0.8-0.1,1.6-0.3,2.2-0.8l34,17.5l-2.1,1.2L106.8,262.2z"/>
							<polygon id="XMLID_42949_" class="st3" points="140.9,284.8 140.9,280.1 143,278.9 143,283.4 							"/>
						</g>
						<polygon id="XMLID_42947_" class="st1" points="63.8,279.4 100.2,268.8 100.2,261.9 63.8,274.7 						"/>
						<path id="XMLID_42946_" class="st0" d="M100.2,261.9c-0.3-0.1-0.4-0.5-0.4-1.2l-37.1,13.7l1.1,0.4L100.2,261.9z"/>
						<polygon id="XMLID_42945_" class="st3" points="62.7,274.4 62.7,278.9 63.8,279.4 63.8,274.7 						"/>
					</g>
					<path id="XMLID_42943_" class="st8" d="M96.6,207h15.6v45.8c0,3.8-15.6,3.8-15.6,0L96.6,207z"/>
				</g>
				<g id="XMLID_42938_">
					<path id="XMLID_42941_" class="st9" d="M164.3,211.1L164.3,211.1c0-2.4-1.5-4.5-3.9-5.7l-54.5-26.7c-2.4-1.2-5.4-1.2-7.8,0
						l-54.5,26.7c-2.4,1.2-3.9,3.4-3.9,5.7l0,0l62.3,30.6L164.3,211.1z"/>
					<path id="XMLID_42940_" class="st0" d="M164.3,211.1v3.8l-58.4,28.7c-1.2,0.6-2.5,0.9-3.8,0.9c-1.3,0-2.7-0.3-3.9-0.9
						l-58.4-28.7v-3.8l58.4,28.7c1.2,0.6,2.5,0.9,3.9,0.9c1.3,0,2.6-0.3,3.8-0.9L164.3,211.1z"/>
					<path id="XMLID_42939_" class="st1" d="M164.3,211.1v3.8l-58.4,28.7c-1.2,0.6-2.5,0.9-3.8,0.9v-3.8c1.3,0,2.6-0.3,3.8-0.9
						L164.3,211.1z"/>
				</g>
			</g>
			<path id="XMLID_42936_" class="st10" d="M164.3,211.1c0-1-0.3-2-0.8-2.9L104.6,237c-1.6,0.8-3.5,0.8-5.1,0l-58.9-28.9
				c-0.5,0.9-0.8,1.9-0.8,2.9l62.3,30.6L164.3,211.1L164.3,211.1z"/>
		</g>
	</g>
	<g id="Character_2_">
		<g id="XMLID_1371_">
			<g id="XMLID_1387_">
				<path id="XMLID_1388_" class="st4" d="M58.6,190.3c0,0,50.6-13,59.3-15c8.8-2,25.6-5.5,30.6-3.6c4.9,1.9,7.4,4,7.9,10.1
					c0.1,1.1,0,6.7,0,6.7s-24.4,6.4-44.5,6.4C92,194.8,58.6,190.3,58.6,190.3z"/>
			</g>
			<g id="XMLID_1385_">
				<polygon id="XMLID_1386_" class="st5" points="101.8,117.3 98.5,132.7 79.9,134.5 82.6,113.2 				"/>
			</g>
			<g id="XMLID_14575_">
				<g id="XMLID_1383_">
					<path id="XMLID_1384_" class="st11" d="M119.2,105c0,0,2.4,6.4,1.7,6.7c-0.7,0.4-4.1,0.2-4.1,0.2L119.2,105z"/>
				</g>
				<g id="XMLID_1381_">
					<path id="XMLID_1382_" class="st5" d="M114.4,84.6c3.2,2.9,6.2,7.7,4.9,19.8c-1.5,13.3-6.1,16.8-8.1,17.6
						c-2.9,1.2-13-0.9-16.2-2.9c-4.1-2.6-11.8-8.9-13.8-16.7c-2.4-9.2,0.7-19.7,8.6-21.8C100.9,77.6,111.7,82.2,114.4,84.6z"/>
				</g>
				<g id="XMLID_14583_">
					<path id="XMLID_1380_" class="st4" d="M121.7,91.1c-1.9,3-5.5,10.6-15.7,12.8c0,0-0.6-5.2-5.6-5.2c-5.1-0.1-6.8,5.2-4.3,8.9
						c2.5,3.7,5.6,2.8,5.6,2.8s-0.5,7.3-6.7,9.8c0,0-7.4,2.9-14.1-0.8c-3-1.6-6.5-8.8-8.4-14.5c-3.8-12.1-3.1-21.4,5.9-23.3
						c1.9-5.1,5-6.7,10.7-7c12.3-0.7,20.2,7,30.4,7C125,81.7,123.9,87.7,121.7,91.1z"/>
				</g>
				<g id="XMLID_1378_">
					<path id="XMLID_1379_" class="st4" d="M78.8,82.5l-6.1-2.2c0.7-1.4,2.7-2.1,4.4-1.5C78.8,79.4,79.5,81.1,78.8,82.5z"/>
				</g>
			</g>
			<g id="XMLID_1376_">
				<path id="XMLID_1377_" class="st6" d="M58.8,185.1c0,8.3-0.9,16.8,3.1,22.9c3.9,5.8,22.4,18.5,43.1,15.5
					c13.5-1.9,57.1-16.1,57.1-16.1s19.3-6.1,19.4-10.4c0-1.1,0.1-2.2,0.1-3.3c-0.4-5.7-3.1-11.9-17.3-11.6
					c-15.4,0.3-61.2,6.7-61.2,6.7L58.8,185.1z"/>
			</g>
			<g id="XMLID_1374_">
				<path id="XMLID_1375_" class="st7" d="M62.3,131.8c1.7-4.3,8.1-9,14.5-8c11.8,1.9,24.8,5.1,28.2,6l0,0c0,0-1.5,22.1,11.8,28.9
					l1.8,28.2c0,0-3.3,5.6-8.4,8.4c-5.5,3-13.2,7.5-27.1,6.5c-16.5-1.2-24.5-11.4-24.5-11.4s0.2-26.7,0.7-38.6
					C59.8,141.5,61.2,134.7,62.3,131.8z"/>
			</g>
			<g id="XMLID_1372_">
				<path id="XMLID_1373_" class="st6" d="M117.3,164.1c0,0-7-6.2-9.4-13.3c0,0,0,10.5,9.6,16.1L117.3,164.1z"/>
			</g>
		</g>
		<g id="XMLID_1357_">
			<g id="XMLID_1362_">
				<path id="XMLID_1363_" class="st5" d="M105.1,129.8c7.3,1.9,11.7,2.2,19.8,12.7c8.1,10.5,25.7,31.5,27.5,34
					c2.4,3.5,3.5,7.7,1.4,10.9c-2,3-7.7,1.7-15.7-4.3C130.4,177.3,115,161,115,161S107,146.1,105.1,129.8z"/>
			</g>
			<g id="XMLID_1358_">
				<path id="XMLID_1359_" class="st7" d="M105.1,129.8c0,0,6.5,1.2,10.6,2.8c1.2,0.5,5.3,1.9,8,5.6c5.6,8,13.7,19.3,13.7,19.3
					s1.4,9.9-12.7,13.3l-7.5-6.9c-3.1-2.8-5.6-6-7.5-9.5C106.4,148.5,102.8,139.1,105.1,129.8z"/>
			</g>
		</g>
		<path id="XMLID_1361_" class="st5" d="M151.3,188.8c6.8-0.7,21.9-18.3,26.9-23.9s9.3-8.9,13.8-11.1c4.6-2.1,8.5-5.5,9.7-12.2
			c1.2-6.3-5.7-10.3-11.4-4c-3.6,4-7.2,6.5-7.4,5.9c-0.2-0.7,1.1-3.5,1.1-6.4c0-3.5-2.9-1.2-3.8,0s-1.9,3.2-3,5.8
			c-1.4,3.1-0.8,6.3-2.6,8.4c-1.8,2.1-25.3,21.3-25.3,21.3L151.3,188.8z"/>
	</g>
	<g id="XMLID_42855_">
		<polygon id="XMLID_42863_" class="st9" points="36.8,134.7 36.8,193.8 92,221.1 92,161.9 		"/>
		<polygon id="XMLID_1352_" class="st10" points="36.8,134.7 36.8,193.8 92,221.1 92,161.9 		"/>
		<path id="XMLID_42862_" class="st9" d="M97,218.6l-5,2.5c0,0,0-46.6,0-54.2c0-2.6-0.9-3.8-2.1-4.4c-4.2-2.2-9.8,2.5-9.8,2.5l0-3.9
			l-53.4-26.3c5-2.5,8.3-4.1,18.5,0.8c10.1,4.9,39.9,19.5,44.6,22c3.8,2,7.3,4.3,7.3,9.7C97,176.4,97,218.6,97,218.6z"/>
		<path id="XMLID_42861_" class="st12" d="M89.7,157.5c-4.6-2.6-34.4-17.1-44.6-22c-10.1-4.9-13.4-3.3-18.5-0.8L80.1,161
			C81.9,159.3,85.5,157.4,89.7,157.5z"/>
		<polygon id="XMLID_42860_" class="st9" points="80.1,164.9 26.7,138.5 26.7,134.7 80.1,161 		"/>
		<polygon id="XMLID_1364_" class="st13" points="80.1,164.9 26.7,138.5 26.7,134.7 80.1,161 		"/>
		<g id="XMLID_42858_">
			<path id="XMLID_42859_" class="st14" d="M79.3,239.9c-0.8,0-1.7-0.2-2.4-0.6c-1.5-0.7-2.4-2.1-2.4-3.6v-31c0-1.2,1.1-2.1,2.5-2.1
				c1.4,0,2.5,0.9,2.5,2.1v30.9l3.9-1.9c1.2-0.6,2.7-0.2,3.4,0.8c0.7,1,0.3,2.3-0.9,2.9l-4.1,2C81,239.7,80.1,239.9,79.3,239.9z"/>
		</g>
		<g id="XMLID_42856_">
			<path id="XMLID_42857_" class="st14" d="M49.1,224.9c-0.8,0-1.7-0.2-2.4-0.6c-1.5-0.7-2.4-2.1-2.4-3.6v-31c0-1.2,1.1-2.1,2.5-2.1
				c1.4,0,2.5,0.9,2.5,2.1v30.9l3.9-1.9c1.2-0.6,2.7-0.2,3.4,0.8c0.7,1,0.3,2.3-0.9,2.9l-4.1,2C50.8,224.7,49.9,224.9,49.1,224.9z"
				/>
		</g>
	</g>
</g>
<g id="XMLID_1318_">
	<path id="XMLID_4_" class="st15" d="M265.4,132l22.1,7.2c2.6,0.9,7,1.1,9.7,0.6"/>
	<path id="XMLID_3_" class="st15" d="M256.2,133.7l31.1,10.1c2.6,0.9,7,1.1,9.7,0.6"/>
	<path id="XMLID_2_" class="st15" d="M296.7,149.1c-2.7,0.5-7.1,0.3-9.7-0.6l-40-13"/>
	<path id="XMLID_1_" class="st15" d="M296.4,153.8c-2.7,0.5-7.1,0.3-9.7-0.6l-49-15.9"/>
</g>
<g>
	<g>
		<defs>
			<polygon id="SVGID_1_" points="716.1,-17.6 982.4,-17.6 982.4,289 716.1,289 716.1,-17.6 			"/>
		</defs>
		<clipPath id="SVGID_2_">
			<use xlink:href="#SVGID_1_"  style="overflow:visible;"/>
		</clipPath>
	</g>
</g>
<g>
	<g>
		<defs>
			<polygon id="SVGID_3_" points="265,92 367,92 367,189 265,189 265,92 			"/>
		</defs>
		<clipPath id="SVGID_4_">
			<use xlink:href="#SVGID_3_"  style="overflow:visible;"/>
		</clipPath>
		<g style="clip-path:url(#SVGID_4_);">
			
				<image style="overflow:visible;" width="608" height="700" xlink:href="252A1D86.png"  transform="matrix(0.1678 0 0 0.1386 265 92)">
			</image>
		</g>
	</g>
</g>
<g id="Laptop_3_">
	<path id="XMLID_656_" class="st6" d="M236.9,117.4c0,0.7-0.5,1.5-1.1,1.9l-31,18.4c-0.6,0.4-1.6,0.4-2.2,0l-42.9-24.2
		c-0.6-0.3-1.1-1.2-1.1-1.8c0-0.7,0.5-1.5,1.1-1.9l31-18.4c0.6-0.4,1.6-0.4,2.2,0l42.9,24.2C236.4,115.9,236.9,116.8,236.9,117.4z"
		/>
	<path id="XMLID_655_" class="st4" d="M203.7,135.6l0,2.4c0.4,0,0.8-0.1,1.1-0.3l31-18.4c0.6-0.4,1.1-1.2,1.1-1.9
		c0-0.6-0.5-1.4-1-1.8c0.5,0.4,0.5,0.9-0.1,1.2l-31,18.4C204.5,135.5,204.1,135.6,203.7,135.6z"/>
	<path id="XMLID_654_" class="st7" d="M238,115.6c0.6-0.3,1-1.2,1-1.9l-0.3-37.3c0-0.7-0.5-1.6-1.1-1.9l-42.9-24.2
		c-0.6-0.3-1.6-0.4-2.2,0c-0.6,0.3-1,1.2-1,1.9l0.3,37.3c0,0.7,0.5,1.6,1.1,1.9l42.9,24.2C236.4,115.9,237.4,116,238,115.6z"/>
	<path id="XMLID_653_" class="st4" d="M235.9,115.7c0.6,0.3,1.5,0.3,2-0.1c0.6-0.3,1-1.2,1-1.9l-0.3-37.3c0-0.4-0.1-0.7-0.3-1.1
		l-2.1,1.2l0,0c0.2,0.3,0.3,0.7,0.3,1.1l0.3,37.3C236.9,115.6,236.5,115.9,235.9,115.7z"/>
	<path id="XMLID_652_" class="st6" d="M236.6,77.7l0.3,37.3c0,0.7-0.5,1-1.1,0.7l-42.9-24.2c-0.6-0.3-1.1-1.2-1.1-1.9l-0.3-37.3
		c0-0.7,0.5-1,1.1-0.7l42.9,24.2C236.1,76.1,236.6,76.9,236.6,77.7z"/>
	<path id="XMLID_651_" class="st7" d="M235.8,116.9l-31,18.4c-0.6,0.4-1.6,0.4-2.2,0l-42.9-24.2c-0.6-0.3-0.6-0.9,0-1.3l31-18.4
		c0.6-0.4,1.6-0.4,2.2,0l42.9,24.2C236.4,115.9,236.4,116.5,235.8,116.9z"/>
	<path id="XMLID_649_" class="st0" d="M234.9,77.8l-41.3-23.3c-0.4-0.2-0.7,0-0.7,0.4l0.3,32.3c0,0.4,0.3,0.9,0.7,1.2l41.3,23.3
		c0.4,0.2,0.7,0,0.7-0.4L235.6,79C235.5,78.5,235.2,78,234.9,77.8z"/>
	<path id="XMLID_648_" class="st9" d="M232.2,116l-39.8-22.4c-0.3-0.2-0.8-0.2-1.1,0l-2,1.2c-0.3,0.2-0.3,0.5,0,0.6l39.8,22.4
		c0.3,0.2,0.8,0.2,1.1,0l2-1.2C232.5,116.4,232.5,116.1,232.2,116z"/>
	<path id="XMLID_647_" class="st4" d="M232.2,116l-39.8-22.4c-0.3-0.2-0.8-0.2-1.1,0l-2,1.2c-0.3,0.2-0.3,0.5,0,0.6l39.8,22.4
		c0.3,0.2,0.8,0.2,1.1,0l2-1.2C232.5,116.4,232.5,116.1,232.2,116z"/>
	<path id="XMLID_646_" class="st4" d="M227,119l-39.8-22.4c-0.3-0.2-0.8-0.2-1.1,0l-12.4,7.4c-0.3,0.2-0.3,0.5,0,0.6l39.8,22.4
		c0.3,0.2,0.8,0.2,1.1,0l12.4-7.3C227.3,119.5,227.3,119.2,227,119z"/>
	<path id="XMLID_558_" class="st9" d="M191.6,106.9l1.4-0.8c0.1,0,0.1-0.1,0-0.1l-1.2-0.7c-0.1,0-0.1,0-0.2,0l-1.4,0.8
		c-0.1,0-0.1,0.1,0,0.1l1.2,0.7C191.5,106.9,191.5,106.9,191.6,106.9z M193.6,104l-1.4,0.8c-0.1,0-0.1,0.1,0,0.1l1.2,0.7
		c0.1,0,0.1,0,0.2,0l1.4-0.8c0.1,0,0.1-0.1,0-0.1l-1.2-0.7C193.8,104,193.7,104,193.6,104z M197.7,106.3l-1.4,0.8
		c-0.1,0-0.1,0.1,0,0.1l2.1,1.2c0.1,0,0.1,0,0.2,0l1.4-0.8c0.1,0,0.1-0.1,0-0.1l-2.1-1.2C197.8,106.2,197.7,106.2,197.7,106.3z
		 M195.5,105l-1.4,0.8c-0.1,0-0.1,0.1,0,0.1l1.2,0.7c0.1,0,0.1,0,0.2,0l1.4-0.8c0.1,0,0.1-0.1,0-0.1l-1.2-0.7
		C195.6,105,195.5,105,195.5,105z M200.3,107.8l-1.4,0.8c-0.1,0-0.1,0.1,0,0.1l1.2,0.7c0.1,0,0.1,0,0.2,0l1.4-0.8
		c0.1,0,0.1-0.1,0-0.1l-1.2-0.7C200.5,107.7,200.4,107.8,200.3,107.8z M202.2,108.8l-1.4,0.8c-0.1,0-0.1,0.1,0,0.1l1.2,0.7
		c0.1,0,0.1,0,0.2,0l1.4-0.8c0.1,0,0.1-0.1,0-0.1l-1.2-0.7C202.3,108.8,202.2,108.8,202.2,108.8z M196.9,112.2l1.4-0.8
		c0.1,0,0.1-0.1,0-0.1l-1.2-0.7c-0.1,0-0.1,0-0.2,0l-1.4,0.8c-0.1,0-0.1,0.1,0,0.1l1.2,0.7C196.8,112.3,196.9,112.3,196.9,112.2z
		 M198.8,113.3l1.4-0.8c0.1,0,0.1-0.1,0-0.1l-1.2-0.7c-0.1,0-0.1,0-0.2,0l-1.4,0.8c-0.1,0-0.1,0.1,0,0.1l1.2,0.7
		C198.6,113.3,198.7,113.3,198.8,113.3z M200.6,114.3l1.4-0.8c0.1,0,0.1-0.1,0-0.1l-1.2-0.7c-0.1,0-0.1,0-0.2,0l-1.4,0.8
		c-0.1,0-0.1,0.1,0,0.1l1.2,0.7C200.4,114.3,200.5,114.3,200.6,114.3z M202.4,115.3l1.4-0.8c0.1,0,0.1-0.1,0-0.1l-1.2-0.7
		c-0.1,0-0.1,0-0.2,0l-1.4,0.8c-0.1,0-0.1,0.1,0,0.1l1.2,0.7C202.3,115.4,202.4,115.4,202.4,115.3z M193.4,107.9l1.4-0.8
		c0.1,0,0.1-0.1,0-0.1l-1.2-0.7c-0.1,0-0.1,0-0.2,0l-1.4,0.8c-0.1,0-0.1,0.1,0,0.1l1.2,0.7C193.3,107.9,193.4,107.9,193.4,107.9z
		 M195.1,111.2l1.4-0.8c0.1,0,0.1-0.1,0-0.1l-1.2-0.6c-0.1,0-0.1-0.1,0-0.1l1.8-1.1c0.1,0,0.1-0.1,0-0.1l-1.4-0.8
		c-0.1,0-0.1,0-0.2,0l-3.5,2.1c-0.1,0-0.1,0.1,0,0.1l2.8,1.6C195,111.3,195.1,111.2,195.1,111.2z M204,109.8l-1.4,0.8
		c-0.1,0-0.1,0.1,0,0.1l1.2,0.7c0.1,0,0.1,0,0.2,0l1.4-0.8c0.1,0,0.1-0.1,0-0.1l-1.2-0.7C204.1,109.8,204,109.8,204,109.8z
		 M205.8,110.9l-1.4,0.8c-0.1,0-0.1,0.1,0,0.1l1.2,0.7c0.1,0,0.1,0,0.2,0l1.4-0.8c0.1,0,0.1-0.1,0-0.1l-1.2-0.7
		C205.9,110.8,205.9,110.8,205.8,110.9z M216.6,121.7c0.1,0,0.1-0.1,0-0.1l-1.2-0.7c-0.1,0-0.1,0-0.2,0l-1.4,0.8
		c-0.1,0-0.1,0.1,0,0.1l1.2,0.7c0.1,0,0.1,0,0.2,0L216.6,121.7z M220.4,119.1l-1.4,0.8c-0.1,0-0.1,0.1,0,0.1l1.2,0.7
		c0.1,0,0.1,0,0.2,0l1.4-0.8c0.1,0,0.1-0.1,0-0.1l-1.2-0.7C220.5,119,220.4,119,220.4,119.1z M219.1,120.7c0.1,0,0.1-0.1,0-0.1
		l-1.2-0.7c-0.1,0-0.1,0-0.2,0l-1.4,0.8c-0.1,0-0.1,0.1,0,0.1l1.2,0.7c0.1,0,0.1,0,0.2,0L219.1,120.7z M212.2,123.2l1.4-0.8
		c0.1,0,0.1-0.1,0-0.1l-1.2-0.7c-0.1,0-0.1,0-0.2,0l-1.4,0.8c-0.1,0-0.1,0.1,0,0.1l1.2,0.7C212,123.2,212.1,123.2,212.2,123.2z
		 M215.4,123.4c0.1,0,0.1-0.1,0-0.1l-1.2-0.7c-0.1,0-0.1,0-0.2,0l-1.4,0.8c-0.1,0-0.1,0.1,0,0.1l1.2,0.7c0.1,0,0.1,0,0.2,0
		L215.4,123.4z M218.6,118l-1.4,0.8c-0.1,0-0.1,0.1,0,0.1l1.2,0.7c0.1,0,0.1,0,0.2,0l1.4-0.8c0.1,0,0.1-0.1,0-0.1l-1.2-0.7
		C218.7,118,218.6,118,218.6,118z M209.4,112.9l-1.4,0.8c-0.1,0-0.1,0.1,0,0.1l1.2,0.7c0.1,0,0.1,0,0.2,0l1.4-0.8
		c0.1,0,0.1-0.1,0-0.1l-1.2-0.7C209.6,112.9,209.5,112.9,209.4,112.9z M216.7,117l-1.4,0.8c-0.1,0-0.1,0.1,0,0.1l1.2,0.7
		c0.1,0,0.1,0,0.2,0l1.4-0.8c0.1,0,0.1-0.1,0-0.1l-1.2-0.7C216.9,117,216.8,117,216.7,117z M207.6,111.9l-1.4,0.8
		c-0.1,0-0.1,0.1,0,0.1l1.2,0.7c0.1,0,0.1,0,0.2,0l1.4-0.8c0.1,0,0.1-0.1,0-0.1l-1.2-0.7C207.8,111.9,207.7,111.9,207.6,111.9z
		 M211.3,113.9l-1.4,0.8c-0.1,0-0.1,0.1,0,0.1l1.2,0.7c0.1,0,0.1,0,0.2,0l1.4-0.8c0.1,0,0.1-0.1,0-0.1l-1.2-0.7
		C211.4,113.9,211.3,113.9,211.3,113.9z M213.1,115l-1.4,0.8c-0.1,0-0.1,0.1,0,0.1l1.2,0.7c0.1,0,0.1,0,0.2,0l1.4-0.8
		c0.1,0,0.1-0.1,0-0.1l-1.2-0.7C213.2,114.9,213.1,114.9,213.1,115z M214.9,116l-1.4,0.8c-0.1,0-0.1,0.1,0,0.1l1.2,0.7
		c0.1,0,0.1,0,0.2,0l1.4-0.8c0.1,0,0.1-0.1,0-0.1l-1.2-0.7C215.1,116,215,116,214.9,116z M206.1,117.4l1.4-0.8c0.1,0,0.1-0.1,0-0.1
		l-1.2-0.7c-0.1,0-0.1,0-0.2,0l-1.4,0.8c-0.1,0-0.1,0.1,0,0.1l1.2,0.7C205.9,117.4,206,117.4,206.1,117.4z M189.6,101.7l-1.4,0.8
		c-0.1,0-0.1,0.1,0,0.1l1.2,0.7c0.1,0,0.1,0,0.2,0l1.4-0.8c0.1,0,0.1-0.1,0-0.1l-1.2-0.7C189.7,101.7,189.7,101.7,189.6,101.7z
		 M191.8,103l-1.4,0.8c-0.1,0-0.1,0.1,0,0.1l1.2,0.7c0.1,0,0.1,0,0.2,0l1.4-0.8c0.1,0,0.1-0.1,0-0.1L192,103
		C192,102.9,191.9,102.9,191.8,103z M187.8,100.7l-1.4,0.8c-0.1,0-0.1,0.1,0,0.1l1.2,0.7c0.1,0,0.1,0,0.2,0l1.4-0.8
		c0.1,0,0.1-0.1,0-0.1l-1.2-0.7C187.9,100.7,187.8,100.7,187.8,100.7z M197.6,110.3l1.4-0.8c0.1,0,0.1-0.1,0-0.1l-1.2-0.7
		c-0.1,0-0.1,0-0.2,0l-1.4,0.8c-0.1,0-0.1,0.1,0,0.1l1.2,0.7C197.5,110.3,197.6,110.3,197.6,110.3z M184.5,100.5
		c-0.1,0-0.1,0.1,0,0.1l1.2,0.7c0.1,0,0.1,0,0.2,0l1.4-0.8c0.1,0,0.1-0.1,0-0.1l-1.2-0.7c-0.1,0-0.1,0-0.2,0L184.5,100.5z
		 M204.2,116.3l1.4-0.8c0.1,0,0.1-0.1,0-0.1l-1.2-0.7c-0.1,0-0.1,0-0.2,0l-1.4,0.8c-0.1,0-0.1,0.1,0,0.1l1.2,0.7
		C204.1,116.4,204.2,116.4,204.2,116.3z M181.9,103.8l1.4-0.8c0.1,0,0.1-0.1,0-0.1l-1.2-0.7c-0.1,0-0.1,0-0.2,0l-1.4,0.8
		c-0.1,0-0.1,0.1,0,0.1l1.2,0.7C181.8,103.8,181.8,103.8,181.9,103.8z M185.8,103.6l1.4-0.8c0.1,0,0.1-0.1,0-0.1l-1.2-0.7
		c-0.1,0-0.1,0-0.2,0l-1.4,0.8c-0.1,0-0.1,0.1,0,0.1l1.2,0.7C185.6,103.6,185.7,103.6,185.8,103.6z M182.5,101.7
		c-0.1,0-0.1,0.1,0,0.1l1.2,0.7c0.1,0,0.1,0,0.2,0l1.4-0.8c0.1,0,0.1-0.1,0-0.1l-1.2-0.7c-0.1,0-0.1,0-0.2,0L182.5,101.7z
		 M183.5,100.6l-1.2-0.7c-0.1,0-0.1,0-0.2,0l-3.5,2.1c-0.1,0-0.1,0.1,0,0.1l1.2,0.7c0.1,0,0.1,0,0.2,0l3.5-2.1
		C183.6,100.6,183.6,100.6,183.5,100.6z M187.6,102.9l-1.4,0.8c-0.1,0-0.1,0.1,0,0.1l1.2,0.7c0.1,0,0.1,0,0.2,0l1.4-0.8
		c0.1,0,0.1-0.1,0-0.1l-1.2-0.7C187.7,102.9,187.6,102.9,187.6,102.9z M201.3,110.7l-1.4,0.8c-0.1,0-0.1,0.1,0,0.1l1.2,0.7
		c0.1,0,0.1,0,0.2,0l1.4-0.8c0.1,0,0.1-0.1,0-0.1l-1.2-0.7C201.4,110.6,201.3,110.6,201.3,110.7z M185.1,103.9c0.1,0,0.1-0.1,0-0.1
		l-1.2-0.7c-0.1,0-0.1,0-0.2,0l-1.4,0.8c-0.1,0-0.1,0.1,0,0.1l1.2,0.7c0.1,0,0.1,0,0.2,0L185.1,103.9z M199.5,109.6l-1.4,0.8
		c-0.1,0-0.1,0.1,0,0.1l1.2,0.7c0.1,0,0.1,0,0.2,0l1.4-0.8c0.1,0,0.1-0.1,0-0.1l-1.2-0.7C199.6,109.6,199.5,109.6,199.5,109.6z
		 M214.8,120.6c0.1,0,0.1-0.1,0-0.1l-1.2-0.7c-0.1,0-0.1,0-0.2,0l-1.4,0.8c-0.1,0-0.1,0.1,0,0.1l1.2,0.7c0.1,0,0.1,0,0.2,0
		L214.8,120.6z M215.8,118.9l-1.4,0.8c-0.1,0-0.1,0.1,0,0.1l1.2,0.7c0.1,0,0.1,0,0.2,0l1.4-0.8c0.1,0,0.1-0.1,0-0.1l-1.2-0.7
		C216,118.8,215.9,118.8,215.8,118.9z M211.5,120.5l1.4-0.8c0.1,0,0.1-0.1,0-0.1l-1.2-0.7c-0.1,0-0.1,0-0.2,0l-1.4,0.8
		c-0.1,0-0.1,0.1,0,0.1l1.2,0.7C211.4,120.5,211.5,120.5,211.5,120.5z M209.7,119.4l1.4-0.8c0.1,0,0.1-0.1,0-0.1l-1.2-0.7
		c-0.1,0-0.1,0-0.2,0l-1.4,0.8c-0.1,0-0.1,0.1,0,0.1l1.2,0.7C209.6,119.5,209.6,119.5,209.7,119.4z M207.9,118.4l1.4-0.8
		c0.1,0,0.1-0.1,0-0.1l-1.2-0.7c-0.1,0-0.1,0-0.2,0l-1.4,0.8c-0.1,0-0.1,0.1,0,0.1l1.2,0.7C207.7,118.4,207.8,118.4,207.9,118.4z
		 M214,117.9l-1.4,0.8c-0.1,0-0.1,0.1,0,0.1l1.2,0.7c0.1,0,0.1,0,0.2,0l1.4-0.8c0.1,0,0.1-0.1,0-0.1l-1.2-0.7
		C214.2,117.8,214.1,117.8,214,117.9z M212.2,116.8l-1.4,0.8c-0.1,0-0.1,0.1,0,0.1l1.2,0.7c0.1,0,0.1,0,0.2,0l1.4-0.8
		c0.1,0,0.1-0.1,0-0.1l-1.2-0.7C212.3,116.8,212.3,116.8,212.2,116.8z M204.9,112.7l-1.4,0.8c-0.1,0-0.1,0.1,0,0.1l1.2,0.7
		c0.1,0,0.1,0,0.2,0l1.4-0.8c0.1,0,0.1-0.1,0-0.1l-1.2-0.7C205.1,112.7,205,112.7,204.9,112.7z M206.7,113.7l-1.4,0.8
		c-0.1,0-0.1,0.1,0,0.1l1.2,0.7c0.1,0,0.1,0,0.2,0l1.4-0.8c0.1,0,0.1-0.1,0-0.1l-1.2-0.7C206.9,113.7,206.8,113.7,206.7,113.7z
		 M203.1,111.7l-1.4,0.8c-0.1,0-0.1,0.1,0,0.1l1.2,0.7c0.1,0,0.1,0,0.2,0l1.4-0.8c0.1,0,0.1-0.1,0-0.1l-1.2-0.7
		C203.2,111.7,203.2,111.7,203.1,111.7z M210.4,115.8l-1.4,0.8c-0.1,0-0.1,0.1,0,0.1l1.2,0.7c0.1,0,0.1,0,0.2,0l1.4-0.8
		c0.1,0,0.1-0.1,0-0.1l-1.2-0.7C210.5,115.8,210.4,115.8,210.4,115.8z M208.6,114.8l-1.4,0.8c-0.1,0-0.1,0.1,0,0.1l1.2,0.7
		c0.1,0,0.1,0,0.2,0l1.4-0.8c0.1,0,0.1-0.1,0-0.1l-1.2-0.7C208.7,114.7,208.6,114.7,208.6,114.8z M210.3,122.1l1.4-0.8
		c0.1,0,0.1-0.1,0-0.1l-1.2-0.7c-0.1,0-0.1,0-0.2,0l-1.4,0.8c-0.1,0-0.1,0.1,0,0.1l1.2,0.7C210.2,122.2,210.3,122.2,210.3,122.1z
		 M220.8,121.1l1.2,0.7c0.1,0,0.1,0,0.2,0l1.4-0.8c0.1,0,0.1-0.1,0-0.1l-1.2-0.7c-0.1,0-0.1,0-0.2,0l-1.4,0.8
		C220.7,121,220.7,121,220.8,121.1z M218.1,121.9l1.9,1.1c0.1,0,0.1,0,0.2,0l1.4-0.8c0.1,0,0.1-0.1,0-0.1l-1.9-1.1
		c-0.1,0-0.1,0-0.2,0l-1.4,0.8C218,121.8,218,121.9,218.1,121.9z M222.9,119.4l1.5,0.9c0.1,0,0.1,0,0.2,0l1.4-0.8
		c0.1,0,0.1-0.1,0-0.1l-1.5-0.9c-0.1,0-0.1,0-0.2,0l-1.4,0.8C222.9,119.4,222.9,119.4,222.9,119.4z M223.2,117.8
		c0.1,0,0.1-0.1,0-0.1L222,117c-0.1,0-0.1,0-0.2,0l-1.4,0.8c-0.1,0-0.1,0.1,0,0.1l1.2,0.7c0.1,0,0.1,0,0.2,0L223.2,117.8z
		 M215.5,122.8l2.4,1.4c0.1,0,0.1,0,0.2,0l1.4-0.8c0.1,0,0.1-0.1,0-0.1l-2.4-1.4c-0.1,0-0.1,0-0.2,0l-1.4,0.8
		C215.5,122.8,215.5,122.8,215.5,122.8z M214.4,124.5l1.5,0.9c0.1,0,0.1,0,0.2,0l1.4-0.8c0.1,0,0.1-0.1,0-0.1l-1.5-0.9
		c-0.1,0-0.1,0-0.2,0l-1.4,0.8C214.3,124.4,214.3,124.5,214.4,124.5z M209.7,110.2c0.1,0,0.1-0.1,0-0.1l-1.2-0.7c-0.1,0-0.1,0-0.2,0
		l-1.4,0.8c-0.1,0-0.1,0.1,0,0.1l1.2,0.7c0.1,0,0.1,0,0.2,0L209.7,110.2z M213.3,112.2c0.1,0,0.1-0.1,0-0.1l-1.2-0.7
		c-0.1,0-0.1,0-0.2,0l-1.4,0.8c-0.1,0-0.1,0.1,0,0.1l1.2,0.7c0.1,0,0.1,0,0.2,0L213.3,112.2z M221.4,116.8c0.1,0,0.1-0.1,0-0.1
		l-1.2-0.7c-0.1,0-0.1,0-0.2,0l-1.4,0.8c-0.1,0-0.1,0.1,0,0.1l1.2,0.7c0.1,0,0.1,0,0.2,0L221.4,116.8z M211.5,111.2
		c0.1,0,0.1-0.1,0-0.1l-1.2-0.7c-0.1,0-0.1,0-0.2,0l-1.4,0.8c-0.1,0-0.1,0.1,0,0.1l1.2,0.7c0.1,0,0.1,0,0.2,0L211.5,111.2z
		 M215.1,113.3c0.1,0,0.1-0.1,0-0.1l-1.2-0.7c-0.1,0-0.1,0-0.2,0l-1.4,0.8c-0.1,0-0.1,0.1,0,0.1l1.2,0.7c0.1,0,0.1,0,0.2,0
		L215.1,113.3z M211.9,125.4c-0.1,0-0.1,0.1,0,0.1l1.9,1.1c0.1,0,0.1,0,0.2,0l1.4-0.8c0.1,0,0.1-0.1,0-0.1l-1.9-1.1
		c-0.1,0-0.1,0-0.2,0L211.9,125.4z M217.7,114.7c0.1,0,0.1-0.1,0-0.1l-1.2-0.7c-0.1,0-0.1,0-0.2,0l-1.4,0.8c-0.1,0-0.1,0.1,0,0.1
		l1.2,0.7c0.1,0,0.1,0,0.2,0L217.7,114.7z M219.6,115.8c0.1,0,0.1-0.1,0-0.1l-1.2-0.7c-0.1,0-0.1,0-0.2,0l-1.4,0.8
		c-0.1,0-0.1,0.1,0,0.1l1.2,0.7c0.1,0,0.1,0,0.2,0L219.6,115.8z M178.2,106.4c-0.1,0-0.1,0.1,0,0.1l3.1,1.7c0.1,0,0.1,0,0.2,0
		l1.4-0.8c0.1,0,0.1-0.1,0-0.1l-3.1-1.7c-0.1,0-0.1,0-0.2,0L178.2,106.4z M182.2,108.7c-0.1,0-0.1,0.1,0,0.1l1.2,0.7
		c0.1,0,0.1,0,0.2,0l1.4-0.8c0.1,0,0.1-0.1,0-0.1l-1.2-0.7c-0.1,0-0.1,0-0.2,0L182.2,108.7z M208.5,121.1l1.4-0.8
		c0.1,0,0.1-0.1,0-0.1l-1.2-0.7c-0.1,0-0.1,0-0.2,0l-1.4,0.8c-0.1,0-0.1,0.1,0,0.1l1.2,0.7C208.4,121.2,208.5,121.2,208.5,121.1z
		 M185.9,110.7c-0.1,0-0.1,0.1,0,0.1l1.2,0.7c0.1,0,0.1,0,0.2,0l1.4-0.8c0.1,0,0.1-0.1,0-0.1l-1.2-0.7c-0.1,0-0.1,0-0.2,0
		L185.9,110.7z M176.4,105.4c-0.1,0-0.1,0.1,0,0.1l1.2,0.7c0.1,0,0.1,0,0.2,0l1.4-0.8c0.1,0,0.1-0.1,0-0.1l-1.2-0.7
		c-0.1,0-0.1,0-0.2,0L176.4,105.4z M174.6,104.5l1.2,0.7c0.1,0,0.1,0,0.2,0l3.5-2.1c0.1,0,0.1-0.1,0-0.1l-1.2-0.7
		c-0.1,0-0.1,0-0.2,0l-3.5,2.1C174.5,104.4,174.5,104.4,174.6,104.5z M192.7,114.6c-0.1,0-0.1,0.1,0,0.1l1.5,0.9c0.1,0,0.1,0,0.2,0
		l1.4-0.8c0.1,0,0.1-0.1,0-0.1l-1.5-0.9c-0.1,0-0.1,0-0.2,0L192.7,114.6z M188.1,112c-0.1,0-0.1,0.1,0,0.1l1.9,1.1
		c0.1,0,0.1,0,0.2,0l1.4-0.8c0.1,0,0.1-0.1,0-0.1l-1.9-1.1c-0.1,0-0.1,0-0.2,0L188.1,112z M196.9,116.9c-0.1,0-0.1,0.1,0,0.1
		l10.3,5.8c0.1,0,0.1,0,0.2,0l1.4-0.8c0.1,0,0.1-0.1,0-0.1l-10.3-5.8c-0.1,0-0.1,0-0.2,0L196.9,116.9z M207.7,123
		c-0.1,0-0.1,0.1,0,0.1l1.5,0.9c0.1,0,0.1,0,0.2,0l1.4-0.8c0.1,0,0.1-0.1,0-0.1l-1.5-0.9c-0.1,0-0.1,0-0.2,0L207.7,123z
		 M194.8,115.7c-0.1,0-0.1,0.1,0,0.1l1.5,0.9c0.1,0,0.1,0,0.2,0l1.4-0.8c0.1,0,0.1-0.1,0-0.1l-1.5-0.9c-0.1,0-0.1,0-0.2,0
		L194.8,115.7z M209.8,124.2c-0.1,0-0.1,0.1,0,0.1l1.5,0.9c0.1,0,0.1,0,0.2,0l1.4-0.8c0.1,0,0.1-0.1,0-0.1l-1.5-0.9
		c-0.1,0-0.1,0-0.2,0L209.8,124.2z M190.6,113.4c-0.1,0-0.1,0.1,0,0.1l1.5,0.9c0.1,0,0.1,0,0.2,0l1.4-0.8c0.1,0,0.1-0.1,0-0.1
		l-1.5-0.9c-0.1,0-0.1,0-0.2,0L190.6,113.4z M184.1,109.7c-0.1,0-0.1,0.1,0,0.1l1.2,0.7c0.1,0,0.1,0,0.2,0l1.4-0.8
		c0.1,0,0.1-0.1,0-0.1l-1.2-0.7c-0.1,0-0.1,0-0.2,0L184.1,109.7z M181.7,106l1.4-0.8c0.1,0,0.1-0.1,0-0.1l-1.2-0.7
		c-0.1,0-0.1,0-0.2,0l-1.4,0.8c-0.1,0-0.1,0.1,0,0.1l1.2,0.7C181.5,106,181.6,106,181.7,106z M189.8,105.8l1.4-0.8
		c0.1,0,0.1-0.1,0-0.1l-1.2-0.7c-0.1,0-0.1,0-0.2,0l-1.4,0.8c-0.1,0-0.1,0.1,0,0.1l1.2,0.7C189.6,105.9,189.7,105.9,189.8,105.8z
		 M194,112.9l1.4-0.8c0.1,0,0.1-0.1,0-0.1l-3.6-2.1c-0.1,0-0.1,0-0.2,0l-1.4,0.8c-0.1,0-0.1,0.1,0,0.1l3.6,2.1
		C193.8,112.9,193.9,112.9,194,112.9z M184.9,106.2c0.1,0,0.1-0.1,0-0.1l-1.2-0.7c-0.1,0-0.1,0-0.2,0l-1.4,0.8c-0.1,0-0.1,0.1,0,0.1
		l1.2,0.7c0.1,0,0.1,0,0.2,0L184.9,106.2z M185.5,105.8l1.4-0.8c0.1,0,0.1-0.1,0-0.1l-1.2-0.7c-0.1,0-0.1,0-0.2,0l-1.4,0.8
		c-0.1,0-0.1,0.1,0,0.1l1.2,0.7C185.4,105.8,185.5,105.8,185.5,105.8z M195.8,113.9l1.4-0.8c0.1,0,0.1-0.1,0-0.1l-1.2-0.7
		c-0.1,0-0.1,0-0.2,0l-1.4,0.8c-0.1,0-0.1,0.1,0,0.1l1.2,0.7C195.6,114,195.7,114,195.8,113.9z M189,108.4c0.1,0,0.1-0.1,0-0.1
		l-1.2-0.7c-0.1,0-0.1,0-0.2,0l-1.4,0.8c-0.1,0-0.1,0.1,0,0.1l1.2,0.7c0.1,0,0.1,0,0.2,0L189,108.4z M204.9,119.1l1.4-0.8
		c0.1,0,0.1-0.1,0-0.1l-1.2-0.7c-0.1,0-0.1,0-0.2,0l-1.4,0.8c-0.1,0-0.1,0.1,0,0.1l1.2,0.7C204.7,119.1,204.8,119.1,204.9,119.1z
		 M203.1,118l1.4-0.8c0.1,0,0.1-0.1,0-0.1l-1.2-0.7c-0.1,0-0.1,0-0.2,0l-1.4,0.8c-0.1,0-0.1,0.1,0,0.1l1.2,0.7
		C202.9,118.1,203,118.1,203.1,118z M206.7,120.1l1.4-0.8c0.1,0,0.1-0.1,0-0.1l-1.2-0.7c-0.1,0-0.1,0-0.2,0l-1.4,0.8
		c-0.1,0-0.1,0.1,0,0.1l1.2,0.7C206.6,120.1,206.6,120.1,206.7,120.1z M199.4,116l1.4-0.8c0.1,0,0.1-0.1,0-0.1l-1.2-0.7
		c-0.1,0-0.1,0-0.2,0l-1.4,0.8c-0.1,0-0.1,0.1,0,0.1l1.2,0.7C199.3,116,199.4,116,199.4,116z M201.2,117l1.4-0.8
		c0.1,0,0.1-0.1,0-0.1l-1.2-0.7c-0.1,0-0.1,0-0.2,0l-1.4,0.8c-0.1,0-0.1,0.1,0,0.1l1.2,0.7C201.1,117.1,201.2,117,201.2,117z
		 M197.6,115l1.4-0.8c0.1,0,0.1-0.1,0-0.1l-1.2-0.7c-0.1,0-0.1,0-0.2,0l-1.4,0.8c-0.1,0-0.1,0.1,0,0.1l1.2,0.7
		C197.4,115,197.5,115,197.6,115z M189.3,99.3c0.1,0,0.1-0.1,0-0.1l-1.2-0.7c-0.1,0-0.1,0-0.2,0l-0.4,0.2c-0.1,0-0.1,0.1,0,0.1
		l1.2,0.7c0.1,0,0.1,0,0.2,0L189.3,99.3z M199.4,104.4c0.1,0,0.1-0.1,0-0.1l-1.2-0.7c-0.1,0-0.1,0-0.2,0l-1.4,0.8
		c-0.1,0-0.1,0.1,0,0.1l1.2,0.7c0.1,0,0.1,0,0.2,0L199.4,104.4z M195.7,102.3c0.1,0,0.1-0.1,0-0.1l-1.2-0.7c-0.1,0-0.1,0-0.2,0
		l-1.4,0.8c-0.1,0-0.1,0.1,0,0.1l1.2,0.7c0.1,0,0.1,0,0.2,0L195.7,102.3z M201.6,105.6c0.1,0,0.1-0.1,0-0.1l-1.2-0.7
		c-0.1,0-0.1,0-0.2,0l-1.4,0.8c-0.1,0-0.1,0.1,0,0.1l1.2,0.7c0.1,0,0.1,0,0.2,0L201.6,105.6z M197.5,103.3c0.1,0,0.1-0.1,0-0.1
		l-1.2-0.7c-0.1,0-0.1,0-0.2,0l-1.4,0.8c-0.1,0-0.1,0.1,0,0.1l1.2,0.7c0.1,0,0.1,0,0.2,0L197.5,103.3z M205.2,107.7
		c0.1,0,0.1-0.1,0-0.1l-1.2-0.7c-0.1,0-0.1,0-0.2,0l-1.4,0.8c-0.1,0-0.1,0.1,0,0.1l1.2,0.7c0.1,0,0.1,0,0.2,0L205.2,107.7z
		 M203.4,106.7c0.1,0,0.1-0.1,0-0.1l-1.2-0.7c-0.1,0-0.1,0-0.2,0l-1.4,0.8c-0.1,0-0.1,0.1,0,0.1l1.2,0.7c0.1,0,0.1,0,0.2,0
		L203.4,106.7z M193,101.4c0.1,0,0.1-0.1,0-0.1l-1.2-0.7c-0.1,0-0.1,0-0.2,0l-0.4,0.2c-0.1,0-0.1,0.1,0,0.1l1.2,0.7
		c0.1,0,0.1,0,0.2,0L193,101.4z M187.5,98.3c0.1,0,0.1-0.1,0-0.1l-1.2-0.7c-0.1,0-0.1,0-0.2,0l-0.4,0.2c-0.1,0-0.1,0.1,0,0.1
		l1.2,0.7c0.1,0,0.1,0,0.2,0L187.5,98.3z M185.6,99.5c0.1,0,0.1-0.1,0-0.1l-1.2-0.7c-0.1,0-0.1,0-0.2,0l-1.4,0.8
		c-0.1,0-0.1,0.1,0,0.1l1.2,0.7c0.1,0,0.1,0,0.2,0L185.6,99.5z M179.9,105l1.4-0.8c0.1,0,0.1-0.1,0-0.1l-1.2-0.7c-0.1,0-0.1,0-0.2,0
		l-1.4,0.8c-0.1,0-0.1,0.1,0,0.1l1.2,0.7C179.7,105,179.8,105,179.9,105z M191.2,100.4c0.1,0,0.1-0.1,0-0.1l-1.2-0.7
		c-0.1,0-0.1,0-0.2,0l-0.4,0.2c-0.1,0-0.1,0.1,0,0.1l1.2,0.7c0.1,0,0.1,0,0.2,0L191.2,100.4z M207,108.7c0.1,0,0.1-0.1,0-0.1
		l-1.2-0.7c-0.1,0-0.1,0-0.2,0l-1.4,0.8c-0.1,0-0.1,0.1,0,0.1l1.2,0.7c0.1,0,0.1,0,0.2,0L207,108.7z"/>
	<path id="XMLID_457_" class="st7" d="M191.6,106.9l1.4-0.8c0.1,0,0.1-0.1,0-0.1l-1.2-0.7c-0.1,0-0.1,0-0.2,0l-1.4,0.8
		c-0.1,0-0.1,0.1,0,0.1l1.2,0.7C191.5,106.9,191.5,106.9,191.6,106.9z M193.6,104l-1.4,0.8c-0.1,0-0.1,0.1,0,0.1l1.2,0.7
		c0.1,0,0.1,0,0.2,0l1.4-0.8c0.1,0,0.1-0.1,0-0.1l-1.2-0.7C193.8,104,193.7,104,193.6,104z M197.7,106.3l-1.4,0.8
		c-0.1,0-0.1,0.1,0,0.1l2.1,1.2c0.1,0,0.1,0,0.2,0l1.4-0.8c0.1,0,0.1-0.1,0-0.1l-2.1-1.2C197.8,106.2,197.7,106.2,197.7,106.3z
		 M195.5,105l-1.4,0.8c-0.1,0-0.1,0.1,0,0.1l1.2,0.7c0.1,0,0.1,0,0.2,0l1.4-0.8c0.1,0,0.1-0.1,0-0.1l-1.2-0.7
		C195.6,105,195.5,105,195.5,105z M200.3,107.8l-1.4,0.8c-0.1,0-0.1,0.1,0,0.1l1.2,0.7c0.1,0,0.1,0,0.2,0l1.4-0.8
		c0.1,0,0.1-0.1,0-0.1l-1.2-0.7C200.5,107.7,200.4,107.8,200.3,107.8z M202.2,108.8l-1.4,0.8c-0.1,0-0.1,0.1,0,0.1l1.2,0.7
		c0.1,0,0.1,0,0.2,0l1.4-0.8c0.1,0,0.1-0.1,0-0.1l-1.2-0.7C202.3,108.8,202.2,108.8,202.2,108.8z M196.9,112.2l1.4-0.8
		c0.1,0,0.1-0.1,0-0.1l-1.2-0.7c-0.1,0-0.1,0-0.2,0l-1.4,0.8c-0.1,0-0.1,0.1,0,0.1l1.2,0.7C196.8,112.3,196.9,112.3,196.9,112.2z
		 M198.8,113.3l1.4-0.8c0.1,0,0.1-0.1,0-0.1l-1.2-0.7c-0.1,0-0.1,0-0.2,0l-1.4,0.8c-0.1,0-0.1,0.1,0,0.1l1.2,0.7
		C198.6,113.3,198.7,113.3,198.8,113.3z M200.6,114.3l1.4-0.8c0.1,0,0.1-0.1,0-0.1l-1.2-0.7c-0.1,0-0.1,0-0.2,0l-1.4,0.8
		c-0.1,0-0.1,0.1,0,0.1l1.2,0.7C200.4,114.3,200.5,114.3,200.6,114.3z M202.4,115.3l1.4-0.8c0.1,0,0.1-0.1,0-0.1l-1.2-0.7
		c-0.1,0-0.1,0-0.2,0l-1.4,0.8c-0.1,0-0.1,0.1,0,0.1l1.2,0.7C202.3,115.4,202.4,115.4,202.4,115.3z M193.4,107.9l1.4-0.8
		c0.1,0,0.1-0.1,0-0.1l-1.2-0.7c-0.1,0-0.1,0-0.2,0l-1.4,0.8c-0.1,0-0.1,0.1,0,0.1l1.2,0.7C193.3,107.9,193.4,107.9,193.4,107.9z
		 M195.1,111.2l1.4-0.8c0.1,0,0.1-0.1,0-0.1l-1.2-0.6c-0.1,0-0.1-0.1,0-0.1l1.8-1.1c0.1,0,0.1-0.1,0-0.1l-1.4-0.8
		c-0.1,0-0.1,0-0.2,0l-3.5,2.1c-0.1,0-0.1,0.1,0,0.1l2.8,1.6C195,111.3,195.1,111.2,195.1,111.2z M204,109.8l-1.4,0.8
		c-0.1,0-0.1,0.1,0,0.1l1.2,0.7c0.1,0,0.1,0,0.2,0l1.4-0.8c0.1,0,0.1-0.1,0-0.1l-1.2-0.7C204.1,109.8,204,109.8,204,109.8z
		 M205.8,110.9l-1.4,0.8c-0.1,0-0.1,0.1,0,0.1l1.2,0.7c0.1,0,0.1,0,0.2,0l1.4-0.8c0.1,0,0.1-0.1,0-0.1l-1.2-0.7
		C205.9,110.8,205.9,110.8,205.8,110.9z M216.6,121.7c0.1,0,0.1-0.1,0-0.1l-1.2-0.7c-0.1,0-0.1,0-0.2,0l-1.4,0.8
		c-0.1,0-0.1,0.1,0,0.1l1.2,0.7c0.1,0,0.1,0,0.2,0L216.6,121.7z M220.4,119.1l-1.4,0.8c-0.1,0-0.1,0.1,0,0.1l1.2,0.7
		c0.1,0,0.1,0,0.2,0l1.4-0.8c0.1,0,0.1-0.1,0-0.1l-1.2-0.7C220.5,119,220.4,119,220.4,119.1z M219.1,120.7c0.1,0,0.1-0.1,0-0.1
		l-1.2-0.7c-0.1,0-0.1,0-0.2,0l-1.4,0.8c-0.1,0-0.1,0.1,0,0.1l1.2,0.7c0.1,0,0.1,0,0.2,0L219.1,120.7z M212.2,123.2l1.4-0.8
		c0.1,0,0.1-0.1,0-0.1l-1.2-0.7c-0.1,0-0.1,0-0.2,0l-1.4,0.8c-0.1,0-0.1,0.1,0,0.1l1.2,0.7C212,123.2,212.1,123.2,212.2,123.2z
		 M215.4,123.4c0.1,0,0.1-0.1,0-0.1l-1.2-0.7c-0.1,0-0.1,0-0.2,0l-1.4,0.8c-0.1,0-0.1,0.1,0,0.1l1.2,0.7c0.1,0,0.1,0,0.2,0
		L215.4,123.4z M218.6,118l-1.4,0.8c-0.1,0-0.1,0.1,0,0.1l1.2,0.7c0.1,0,0.1,0,0.2,0l1.4-0.8c0.1,0,0.1-0.1,0-0.1l-1.2-0.7
		C218.7,118,218.6,118,218.6,118z M209.4,112.9l-1.4,0.8c-0.1,0-0.1,0.1,0,0.1l1.2,0.7c0.1,0,0.1,0,0.2,0l1.4-0.8
		c0.1,0,0.1-0.1,0-0.1l-1.2-0.7C209.6,112.9,209.5,112.9,209.4,112.9z M216.7,117l-1.4,0.8c-0.1,0-0.1,0.1,0,0.1l1.2,0.7
		c0.1,0,0.1,0,0.2,0l1.4-0.8c0.1,0,0.1-0.1,0-0.1l-1.2-0.7C216.9,117,216.8,117,216.7,117z M207.6,111.9l-1.4,0.8
		c-0.1,0-0.1,0.1,0,0.1l1.2,0.7c0.1,0,0.1,0,0.2,0l1.4-0.8c0.1,0,0.1-0.1,0-0.1l-1.2-0.7C207.8,111.9,207.7,111.9,207.6,111.9z
		 M211.3,113.9l-1.4,0.8c-0.1,0-0.1,0.1,0,0.1l1.2,0.7c0.1,0,0.1,0,0.2,0l1.4-0.8c0.1,0,0.1-0.1,0-0.1l-1.2-0.7
		C211.4,113.9,211.3,113.9,211.3,113.9z M213.1,115l-1.4,0.8c-0.1,0-0.1,0.1,0,0.1l1.2,0.7c0.1,0,0.1,0,0.2,0l1.4-0.8
		c0.1,0,0.1-0.1,0-0.1l-1.2-0.7C213.2,114.9,213.1,114.9,213.1,115z M214.9,116l-1.4,0.8c-0.1,0-0.1,0.1,0,0.1l1.2,0.7
		c0.1,0,0.1,0,0.2,0l1.4-0.8c0.1,0,0.1-0.1,0-0.1l-1.2-0.7C215.1,116,215,116,214.9,116z M206.1,117.4l1.4-0.8c0.1,0,0.1-0.1,0-0.1
		l-1.2-0.7c-0.1,0-0.1,0-0.2,0l-1.4,0.8c-0.1,0-0.1,0.1,0,0.1l1.2,0.7C205.9,117.4,206,117.4,206.1,117.4z M189.6,101.7l-1.4,0.8
		c-0.1,0-0.1,0.1,0,0.1l1.2,0.7c0.1,0,0.1,0,0.2,0l1.4-0.8c0.1,0,0.1-0.1,0-0.1l-1.2-0.7C189.7,101.7,189.7,101.7,189.6,101.7z
		 M191.8,103l-1.4,0.8c-0.1,0-0.1,0.1,0,0.1l1.2,0.7c0.1,0,0.1,0,0.2,0l1.4-0.8c0.1,0,0.1-0.1,0-0.1L192,103
		C192,102.9,191.9,102.9,191.8,103z M187.8,100.7l-1.4,0.8c-0.1,0-0.1,0.1,0,0.1l1.2,0.7c0.1,0,0.1,0,0.2,0l1.4-0.8
		c0.1,0,0.1-0.1,0-0.1l-1.2-0.7C187.9,100.7,187.8,100.7,187.8,100.7z M197.6,110.3l1.4-0.8c0.1,0,0.1-0.1,0-0.1l-1.2-0.7
		c-0.1,0-0.1,0-0.2,0l-1.4,0.8c-0.1,0-0.1,0.1,0,0.1l1.2,0.7C197.5,110.3,197.6,110.3,197.6,110.3z M184.5,100.5
		c-0.1,0-0.1,0.1,0,0.1l1.2,0.7c0.1,0,0.1,0,0.2,0l1.4-0.8c0.1,0,0.1-0.1,0-0.1l-1.2-0.7c-0.1,0-0.1,0-0.2,0L184.5,100.5z
		 M204.2,116.3l1.4-0.8c0.1,0,0.1-0.1,0-0.1l-1.2-0.7c-0.1,0-0.1,0-0.2,0l-1.4,0.8c-0.1,0-0.1,0.1,0,0.1l1.2,0.7
		C204.1,116.4,204.2,116.4,204.2,116.3z M181.9,103.8l1.4-0.8c0.1,0,0.1-0.1,0-0.1l-1.2-0.7c-0.1,0-0.1,0-0.2,0l-1.4,0.8
		c-0.1,0-0.1,0.1,0,0.1l1.2,0.7C181.8,103.8,181.8,103.8,181.9,103.8z M185.8,103.6l1.4-0.8c0.1,0,0.1-0.1,0-0.1l-1.2-0.7
		c-0.1,0-0.1,0-0.2,0l-1.4,0.8c-0.1,0-0.1,0.1,0,0.1l1.2,0.7C185.6,103.6,185.7,103.6,185.8,103.6z M182.5,101.7
		c-0.1,0-0.1,0.1,0,0.1l1.2,0.7c0.1,0,0.1,0,0.2,0l1.4-0.8c0.1,0,0.1-0.1,0-0.1l-1.2-0.7c-0.1,0-0.1,0-0.2,0L182.5,101.7z
		 M183.5,100.6l-1.2-0.7c-0.1,0-0.1,0-0.2,0l-3.5,2.1c-0.1,0-0.1,0.1,0,0.1l1.2,0.7c0.1,0,0.1,0,0.2,0l3.5-2.1
		C183.6,100.6,183.6,100.6,183.5,100.6z M187.6,102.9l-1.4,0.8c-0.1,0-0.1,0.1,0,0.1l1.2,0.7c0.1,0,0.1,0,0.2,0l1.4-0.8
		c0.1,0,0.1-0.1,0-0.1l-1.2-0.7C187.7,102.9,187.6,102.9,187.6,102.9z M201.3,110.7l-1.4,0.8c-0.1,0-0.1,0.1,0,0.1l1.2,0.7
		c0.1,0,0.1,0,0.2,0l1.4-0.8c0.1,0,0.1-0.1,0-0.1l-1.2-0.7C201.4,110.6,201.3,110.6,201.3,110.7z M185.1,103.9c0.1,0,0.1-0.1,0-0.1
		l-1.2-0.7c-0.1,0-0.1,0-0.2,0l-1.4,0.8c-0.1,0-0.1,0.1,0,0.1l1.2,0.7c0.1,0,0.1,0,0.2,0L185.1,103.9z M199.5,109.6l-1.4,0.8
		c-0.1,0-0.1,0.1,0,0.1l1.2,0.7c0.1,0,0.1,0,0.2,0l1.4-0.8c0.1,0,0.1-0.1,0-0.1l-1.2-0.7C199.6,109.6,199.5,109.6,199.5,109.6z
		 M214.8,120.6c0.1,0,0.1-0.1,0-0.1l-1.2-0.7c-0.1,0-0.1,0-0.2,0l-1.4,0.8c-0.1,0-0.1,0.1,0,0.1l1.2,0.7c0.1,0,0.1,0,0.2,0
		L214.8,120.6z M215.8,118.9l-1.4,0.8c-0.1,0-0.1,0.1,0,0.1l1.2,0.7c0.1,0,0.1,0,0.2,0l1.4-0.8c0.1,0,0.1-0.1,0-0.1l-1.2-0.7
		C216,118.8,215.9,118.8,215.8,118.9z M211.5,120.5l1.4-0.8c0.1,0,0.1-0.1,0-0.1l-1.2-0.7c-0.1,0-0.1,0-0.2,0l-1.4,0.8
		c-0.1,0-0.1,0.1,0,0.1l1.2,0.7C211.4,120.5,211.5,120.5,211.5,120.5z M209.7,119.4l1.4-0.8c0.1,0,0.1-0.1,0-0.1l-1.2-0.7
		c-0.1,0-0.1,0-0.2,0l-1.4,0.8c-0.1,0-0.1,0.1,0,0.1l1.2,0.7C209.6,119.5,209.6,119.5,209.7,119.4z M207.9,118.4l1.4-0.8
		c0.1,0,0.1-0.1,0-0.1l-1.2-0.7c-0.1,0-0.1,0-0.2,0l-1.4,0.8c-0.1,0-0.1,0.1,0,0.1l1.2,0.7C207.7,118.4,207.8,118.4,207.9,118.4z
		 M214,117.9l-1.4,0.8c-0.1,0-0.1,0.1,0,0.1l1.2,0.7c0.1,0,0.1,0,0.2,0l1.4-0.8c0.1,0,0.1-0.1,0-0.1l-1.2-0.7
		C214.2,117.8,214.1,117.8,214,117.9z M212.2,116.8l-1.4,0.8c-0.1,0-0.1,0.1,0,0.1l1.2,0.7c0.1,0,0.1,0,0.2,0l1.4-0.8
		c0.1,0,0.1-0.1,0-0.1l-1.2-0.7C212.3,116.8,212.3,116.8,212.2,116.8z M204.9,112.7l-1.4,0.8c-0.1,0-0.1,0.1,0,0.1l1.2,0.7
		c0.1,0,0.1,0,0.2,0l1.4-0.8c0.1,0,0.1-0.1,0-0.1l-1.2-0.7C205.1,112.7,205,112.7,204.9,112.7z M206.7,113.7l-1.4,0.8
		c-0.1,0-0.1,0.1,0,0.1l1.2,0.7c0.1,0,0.1,0,0.2,0l1.4-0.8c0.1,0,0.1-0.1,0-0.1l-1.2-0.7C206.9,113.7,206.8,113.7,206.7,113.7z
		 M203.1,111.7l-1.4,0.8c-0.1,0-0.1,0.1,0,0.1l1.2,0.7c0.1,0,0.1,0,0.2,0l1.4-0.8c0.1,0,0.1-0.1,0-0.1l-1.2-0.7
		C203.2,111.7,203.2,111.7,203.1,111.7z M210.4,115.8l-1.4,0.8c-0.1,0-0.1,0.1,0,0.1l1.2,0.7c0.1,0,0.1,0,0.2,0l1.4-0.8
		c0.1,0,0.1-0.1,0-0.1l-1.2-0.7C210.5,115.8,210.4,115.8,210.4,115.8z M208.6,114.8l-1.4,0.8c-0.1,0-0.1,0.1,0,0.1l1.2,0.7
		c0.1,0,0.1,0,0.2,0l1.4-0.8c0.1,0,0.1-0.1,0-0.1l-1.2-0.7C208.7,114.7,208.6,114.7,208.6,114.8z M210.3,122.1l1.4-0.8
		c0.1,0,0.1-0.1,0-0.1l-1.2-0.7c-0.1,0-0.1,0-0.2,0l-1.4,0.8c-0.1,0-0.1,0.1,0,0.1l1.2,0.7C210.2,122.2,210.3,122.2,210.3,122.1z
		 M220.8,121.1l1.2,0.7c0.1,0,0.1,0,0.2,0l1.4-0.8c0.1,0,0.1-0.1,0-0.1l-1.2-0.7c-0.1,0-0.1,0-0.2,0l-1.4,0.8
		C220.7,121,220.7,121,220.8,121.1z M218.1,121.9l1.9,1.1c0.1,0,0.1,0,0.2,0l1.4-0.8c0.1,0,0.1-0.1,0-0.1l-1.9-1.1
		c-0.1,0-0.1,0-0.2,0l-1.4,0.8C218,121.8,218,121.9,218.1,121.9z M222.9,119.4l1.5,0.9c0.1,0,0.1,0,0.2,0l1.4-0.8
		c0.1,0,0.1-0.1,0-0.1l-1.5-0.9c-0.1,0-0.1,0-0.2,0l-1.4,0.8C222.9,119.4,222.9,119.4,222.9,119.4z M223.2,117.8
		c0.1,0,0.1-0.1,0-0.1L222,117c-0.1,0-0.1,0-0.2,0l-1.4,0.8c-0.1,0-0.1,0.1,0,0.1l1.2,0.7c0.1,0,0.1,0,0.2,0L223.2,117.8z
		 M215.5,122.8l2.4,1.4c0.1,0,0.1,0,0.2,0l1.4-0.8c0.1,0,0.1-0.1,0-0.1l-2.4-1.4c-0.1,0-0.1,0-0.2,0l-1.4,0.8
		C215.5,122.8,215.5,122.8,215.5,122.8z M214.4,124.5l1.5,0.9c0.1,0,0.1,0,0.2,0l1.4-0.8c0.1,0,0.1-0.1,0-0.1l-1.5-0.9
		c-0.1,0-0.1,0-0.2,0l-1.4,0.8C214.3,124.4,214.3,124.5,214.4,124.5z M209.7,110.2c0.1,0,0.1-0.1,0-0.1l-1.2-0.7c-0.1,0-0.1,0-0.2,0
		l-1.4,0.8c-0.1,0-0.1,0.1,0,0.1l1.2,0.7c0.1,0,0.1,0,0.2,0L209.7,110.2z M213.3,112.2c0.1,0,0.1-0.1,0-0.1l-1.2-0.7
		c-0.1,0-0.1,0-0.2,0l-1.4,0.8c-0.1,0-0.1,0.1,0,0.1l1.2,0.7c0.1,0,0.1,0,0.2,0L213.3,112.2z M221.4,116.8c0.1,0,0.1-0.1,0-0.1
		l-1.2-0.7c-0.1,0-0.1,0-0.2,0l-1.4,0.8c-0.1,0-0.1,0.1,0,0.1l1.2,0.7c0.1,0,0.1,0,0.2,0L221.4,116.8z M211.5,111.2
		c0.1,0,0.1-0.1,0-0.1l-1.2-0.7c-0.1,0-0.1,0-0.2,0l-1.4,0.8c-0.1,0-0.1,0.1,0,0.1l1.2,0.7c0.1,0,0.1,0,0.2,0L211.5,111.2z
		 M215.1,113.3c0.1,0,0.1-0.1,0-0.1l-1.2-0.7c-0.1,0-0.1,0-0.2,0l-1.4,0.8c-0.1,0-0.1,0.1,0,0.1l1.2,0.7c0.1,0,0.1,0,0.2,0
		L215.1,113.3z M211.9,125.4c-0.1,0-0.1,0.1,0,0.1l1.9,1.1c0.1,0,0.1,0,0.2,0l1.4-0.8c0.1,0,0.1-0.1,0-0.1l-1.9-1.1
		c-0.1,0-0.1,0-0.2,0L211.9,125.4z M217.7,114.7c0.1,0,0.1-0.1,0-0.1l-1.2-0.7c-0.1,0-0.1,0-0.2,0l-1.4,0.8c-0.1,0-0.1,0.1,0,0.1
		l1.2,0.7c0.1,0,0.1,0,0.2,0L217.7,114.7z M219.6,115.8c0.1,0,0.1-0.1,0-0.1l-1.2-0.7c-0.1,0-0.1,0-0.2,0l-1.4,0.8
		c-0.1,0-0.1,0.1,0,0.1l1.2,0.7c0.1,0,0.1,0,0.2,0L219.6,115.8z M178.2,106.4c-0.1,0-0.1,0.1,0,0.1l3.1,1.7c0.1,0,0.1,0,0.2,0
		l1.4-0.8c0.1,0,0.1-0.1,0-0.1l-3.1-1.7c-0.1,0-0.1,0-0.2,0L178.2,106.4z M182.2,108.7c-0.1,0-0.1,0.1,0,0.1l1.2,0.7
		c0.1,0,0.1,0,0.2,0l1.4-0.8c0.1,0,0.1-0.1,0-0.1l-1.2-0.7c-0.1,0-0.1,0-0.2,0L182.2,108.7z M208.5,121.1l1.4-0.8
		c0.1,0,0.1-0.1,0-0.1l-1.2-0.7c-0.1,0-0.1,0-0.2,0l-1.4,0.8c-0.1,0-0.1,0.1,0,0.1l1.2,0.7C208.4,121.2,208.5,121.2,208.5,121.1z
		 M185.9,110.7c-0.1,0-0.1,0.1,0,0.1l1.2,0.7c0.1,0,0.1,0,0.2,0l1.4-0.8c0.1,0,0.1-0.1,0-0.1l-1.2-0.7c-0.1,0-0.1,0-0.2,0
		L185.9,110.7z M176.4,105.4c-0.1,0-0.1,0.1,0,0.1l1.2,0.7c0.1,0,0.1,0,0.2,0l1.4-0.8c0.1,0,0.1-0.1,0-0.1l-1.2-0.7
		c-0.1,0-0.1,0-0.2,0L176.4,105.4z M174.6,104.5l1.2,0.7c0.1,0,0.1,0,0.2,0l3.5-2.1c0.1,0,0.1-0.1,0-0.1l-1.2-0.7
		c-0.1,0-0.1,0-0.2,0l-3.5,2.1C174.5,104.4,174.5,104.4,174.6,104.5z M192.7,114.6c-0.1,0-0.1,0.1,0,0.1l1.5,0.9c0.1,0,0.1,0,0.2,0
		l1.4-0.8c0.1,0,0.1-0.1,0-0.1l-1.5-0.9c-0.1,0-0.1,0-0.2,0L192.7,114.6z M188.1,112c-0.1,0-0.1,0.1,0,0.1l1.9,1.1
		c0.1,0,0.1,0,0.2,0l1.4-0.8c0.1,0,0.1-0.1,0-0.1l-1.9-1.1c-0.1,0-0.1,0-0.2,0L188.1,112z M196.9,116.9c-0.1,0-0.1,0.1,0,0.1
		l10.3,5.8c0.1,0,0.1,0,0.2,0l1.4-0.8c0.1,0,0.1-0.1,0-0.1l-10.3-5.8c-0.1,0-0.1,0-0.2,0L196.9,116.9z M207.7,123
		c-0.1,0-0.1,0.1,0,0.1l1.5,0.9c0.1,0,0.1,0,0.2,0l1.4-0.8c0.1,0,0.1-0.1,0-0.1l-1.5-0.9c-0.1,0-0.1,0-0.2,0L207.7,123z
		 M194.8,115.7c-0.1,0-0.1,0.1,0,0.1l1.5,0.9c0.1,0,0.1,0,0.2,0l1.4-0.8c0.1,0,0.1-0.1,0-0.1l-1.5-0.9c-0.1,0-0.1,0-0.2,0
		L194.8,115.7z M209.8,124.2c-0.1,0-0.1,0.1,0,0.1l1.5,0.9c0.1,0,0.1,0,0.2,0l1.4-0.8c0.1,0,0.1-0.1,0-0.1l-1.5-0.9
		c-0.1,0-0.1,0-0.2,0L209.8,124.2z M190.6,113.4c-0.1,0-0.1,0.1,0,0.1l1.5,0.9c0.1,0,0.1,0,0.2,0l1.4-0.8c0.1,0,0.1-0.1,0-0.1
		l-1.5-0.9c-0.1,0-0.1,0-0.2,0L190.6,113.4z M184.1,109.7c-0.1,0-0.1,0.1,0,0.1l1.2,0.7c0.1,0,0.1,0,0.2,0l1.4-0.8
		c0.1,0,0.1-0.1,0-0.1l-1.2-0.7c-0.1,0-0.1,0-0.2,0L184.1,109.7z M181.7,106l1.4-0.8c0.1,0,0.1-0.1,0-0.1l-1.2-0.7
		c-0.1,0-0.1,0-0.2,0l-1.4,0.8c-0.1,0-0.1,0.1,0,0.1l1.2,0.7C181.5,106,181.6,106,181.7,106z M189.8,105.8l1.4-0.8
		c0.1,0,0.1-0.1,0-0.1l-1.2-0.7c-0.1,0-0.1,0-0.2,0l-1.4,0.8c-0.1,0-0.1,0.1,0,0.1l1.2,0.7C189.6,105.9,189.7,105.9,189.8,105.8z
		 M194,112.9l1.4-0.8c0.1,0,0.1-0.1,0-0.1l-3.6-2.1c-0.1,0-0.1,0-0.2,0l-1.4,0.8c-0.1,0-0.1,0.1,0,0.1l3.6,2.1
		C193.8,112.9,193.9,112.9,194,112.9z M184.9,106.2c0.1,0,0.1-0.1,0-0.1l-1.2-0.7c-0.1,0-0.1,0-0.2,0l-1.4,0.8c-0.1,0-0.1,0.1,0,0.1
		l1.2,0.7c0.1,0,0.1,0,0.2,0L184.9,106.2z M185.5,105.8l1.4-0.8c0.1,0,0.1-0.1,0-0.1l-1.2-0.7c-0.1,0-0.1,0-0.2,0l-1.4,0.8
		c-0.1,0-0.1,0.1,0,0.1l1.2,0.7C185.4,105.8,185.5,105.8,185.5,105.8z M195.8,113.9l1.4-0.8c0.1,0,0.1-0.1,0-0.1l-1.2-0.7
		c-0.1,0-0.1,0-0.2,0l-1.4,0.8c-0.1,0-0.1,0.1,0,0.1l1.2,0.7C195.6,114,195.7,114,195.8,113.9z M189,108.4c0.1,0,0.1-0.1,0-0.1
		l-1.2-0.7c-0.1,0-0.1,0-0.2,0l-1.4,0.8c-0.1,0-0.1,0.1,0,0.1l1.2,0.7c0.1,0,0.1,0,0.2,0L189,108.4z M204.9,119.1l1.4-0.8
		c0.1,0,0.1-0.1,0-0.1l-1.2-0.7c-0.1,0-0.1,0-0.2,0l-1.4,0.8c-0.1,0-0.1,0.1,0,0.1l1.2,0.7C204.7,119.1,204.8,119.1,204.9,119.1z
		 M203.1,118l1.4-0.8c0.1,0,0.1-0.1,0-0.1l-1.2-0.7c-0.1,0-0.1,0-0.2,0l-1.4,0.8c-0.1,0-0.1,0.1,0,0.1l1.2,0.7
		C202.9,118.1,203,118.1,203.1,118z M206.7,120.1l1.4-0.8c0.1,0,0.1-0.1,0-0.1l-1.2-0.7c-0.1,0-0.1,0-0.2,0l-1.4,0.8
		c-0.1,0-0.1,0.1,0,0.1l1.2,0.7C206.6,120.1,206.6,120.1,206.7,120.1z M199.4,116l1.4-0.8c0.1,0,0.1-0.1,0-0.1l-1.2-0.7
		c-0.1,0-0.1,0-0.2,0l-1.4,0.8c-0.1,0-0.1,0.1,0,0.1l1.2,0.7C199.3,116,199.4,116,199.4,116z M201.2,117l1.4-0.8
		c0.1,0,0.1-0.1,0-0.1l-1.2-0.7c-0.1,0-0.1,0-0.2,0l-1.4,0.8c-0.1,0-0.1,0.1,0,0.1l1.2,0.7C201.1,117.1,201.2,117,201.2,117z
		 M197.6,115l1.4-0.8c0.1,0,0.1-0.1,0-0.1l-1.2-0.7c-0.1,0-0.1,0-0.2,0l-1.4,0.8c-0.1,0-0.1,0.1,0,0.1l1.2,0.7
		C197.4,115,197.5,115,197.6,115z M189.3,99.3c0.1,0,0.1-0.1,0-0.1l-1.2-0.7c-0.1,0-0.1,0-0.2,0l-0.4,0.2c-0.1,0-0.1,0.1,0,0.1
		l1.2,0.7c0.1,0,0.1,0,0.2,0L189.3,99.3z M199.4,104.4c0.1,0,0.1-0.1,0-0.1l-1.2-0.7c-0.1,0-0.1,0-0.2,0l-1.4,0.8
		c-0.1,0-0.1,0.1,0,0.1l1.2,0.7c0.1,0,0.1,0,0.2,0L199.4,104.4z M195.7,102.3c0.1,0,0.1-0.1,0-0.1l-1.2-0.7c-0.1,0-0.1,0-0.2,0
		l-1.4,0.8c-0.1,0-0.1,0.1,0,0.1l1.2,0.7c0.1,0,0.1,0,0.2,0L195.7,102.3z M201.6,105.6c0.1,0,0.1-0.1,0-0.1l-1.2-0.7
		c-0.1,0-0.1,0-0.2,0l-1.4,0.8c-0.1,0-0.1,0.1,0,0.1l1.2,0.7c0.1,0,0.1,0,0.2,0L201.6,105.6z M197.5,103.3c0.1,0,0.1-0.1,0-0.1
		l-1.2-0.7c-0.1,0-0.1,0-0.2,0l-1.4,0.8c-0.1,0-0.1,0.1,0,0.1l1.2,0.7c0.1,0,0.1,0,0.2,0L197.5,103.3z M205.2,107.7
		c0.1,0,0.1-0.1,0-0.1l-1.2-0.7c-0.1,0-0.1,0-0.2,0l-1.4,0.8c-0.1,0-0.1,0.1,0,0.1l1.2,0.7c0.1,0,0.1,0,0.2,0L205.2,107.7z
		 M203.4,106.7c0.1,0,0.1-0.1,0-0.1l-1.2-0.7c-0.1,0-0.1,0-0.2,0l-1.4,0.8c-0.1,0-0.1,0.1,0,0.1l1.2,0.7c0.1,0,0.1,0,0.2,0
		L203.4,106.7z M193,101.4c0.1,0,0.1-0.1,0-0.1l-1.2-0.7c-0.1,0-0.1,0-0.2,0l-0.4,0.2c-0.1,0-0.1,0.1,0,0.1l1.2,0.7
		c0.1,0,0.1,0,0.2,0L193,101.4z M187.5,98.3c0.1,0,0.1-0.1,0-0.1l-1.2-0.7c-0.1,0-0.1,0-0.2,0l-0.4,0.2c-0.1,0-0.1,0.1,0,0.1
		l1.2,0.7c0.1,0,0.1,0,0.2,0L187.5,98.3z M185.6,99.5c0.1,0,0.1-0.1,0-0.1l-1.2-0.7c-0.1,0-0.1,0-0.2,0l-1.4,0.8
		c-0.1,0-0.1,0.1,0,0.1l1.2,0.7c0.1,0,0.1,0,0.2,0L185.6,99.5z M179.9,105l1.4-0.8c0.1,0,0.1-0.1,0-0.1l-1.2-0.7c-0.1,0-0.1,0-0.2,0
		l-1.4,0.8c-0.1,0-0.1,0.1,0,0.1l1.2,0.7C179.7,105,179.8,105,179.9,105z M191.2,100.4c0.1,0,0.1-0.1,0-0.1l-1.2-0.7
		c-0.1,0-0.1,0-0.2,0l-0.4,0.2c-0.1,0-0.1,0.1,0,0.1l1.2,0.7c0.1,0,0.1,0,0.2,0L191.2,100.4z M207,108.7c0.1,0,0.1-0.1,0-0.1
		l-1.2-0.7c-0.1,0-0.1,0-0.2,0l-1.4,0.8c-0.1,0-0.1,0.1,0,0.1l1.2,0.7c0.1,0,0.1,0,0.2,0L207,108.7z"/>
	<path id="XMLID_2611_" class="st9" d="M197.7,120.5l-12.3-6.9c-0.4-0.2-1-0.2-1.3,0l-7,4.1c-0.4,0.2-0.4,0.6,0,0.8l12.3,6.9
		c0.4,0.2,1,0.2,1.3,0l7-4.1C198.1,121.1,198.1,120.8,197.7,120.5z"/>
	<path id="XMLID_708_" class="st4" d="M197.7,120.5l-12.3-6.9c-0.4-0.2-1-0.2-1.3,0l-7,4.1c-0.4,0.2-0.4,0.6,0,0.8l12.3,6.9
		c0.4,0.2,1,0.2,1.3,0l7-4.1C198.1,121.1,198.1,120.8,197.7,120.5z"/>
	<path id="XMLID_2609_" class="st9" d="M238,115.6c-0.1,0.1-0.2,0.1-0.3,0.2C237.8,115.7,237.9,115.7,238,115.6c0,0,0.1,0,0.1-0.1
		C238,115.6,238,115.6,238,115.6z"/>
	<path id="XMLID_963_" class="st9" d="M236,115.7C236,115.7,236,115.7,236,115.7C236,115.7,236,115.7,236,115.7
		C236,115.7,236,115.7,236,115.7z"/>
</g>
<g id="Window_2_">
	<g id="XMLID_493_">
		<path class="st9" d="M234.2,107.5c0,0.5-0.4,0.7-0.8,0.5l-37.9-21.4c-0.5-0.3-0.8-0.9-0.8-1.4l-0.2-25.5L234,82L234.2,107.5z"/>
	</g>
	<g id="XMLID_284_" class="st16">
		<path class="st17" d="M234.2,107.5c0,0.5-0.4,0.7-0.8,0.5l-37.9-21.4c-0.5-0.3-0.8-0.9-0.8-1.4l-0.2-25.5L234,82L234.2,107.5z"/>
	</g>
	<g id="XMLID_2917_">
		<path id="XMLID_2957_" class="st9" d="M233.9,80.3c0-0.5-0.4-1.2-0.8-1.4l-37.9-21.4c-0.5-0.3-0.8,0-0.8,0.5l0,1.7L234,82
			L233.9,80.3z"/>
		<g id="XMLID_2937_">
			<g id="XMLID_2942_">
				<path id="XMLID_486_" class="st6" d="M199,60.6c0.2,0.1,0.4,0.4,0.4,0.7c0,0.2-0.2,0.3-0.4,0.2s-0.4-0.4-0.4-0.7
					C198.6,60.5,198.8,60.4,199,60.6z"/>
				<path id="XMLID_2946_" class="st6" d="M197.6,59.8c0.2,0.1,0.4,0.4,0.4,0.7c0,0.2-0.2,0.3-0.4,0.2c-0.2-0.1-0.4-0.4-0.4-0.7
					C197.3,59.8,197.4,59.7,197.6,59.8z"/>
				<path id="XMLID_2945_" class="st6" d="M196.3,59c0.2,0.1,0.4,0.4,0.4,0.7c0,0.2-0.2,0.3-0.4,0.2c-0.2-0.1-0.4-0.4-0.4-0.7
					C195.9,59,196.1,58.9,196.3,59z"/>
			</g>
		</g>
	</g>
</g>
<g>
	<g>
		<g>
			<g>
				<path class="st18" d="M699.5,78.4c0.3,0,0.6-0.3,0.6-0.7V35c0-0.4-0.3-0.7-0.6-0.7c-0.3,0-0.6,0.3-0.6,0.7v42.7
					C698.9,78.1,699.2,78.4,699.5,78.4z"/>
			</g>
			<g>
				<path class="st18" d="M697.7,30.4c0.2,0,0.4-0.1,0.5-0.4c0.2-0.3,0-0.8-0.3-1l-31-18.9c-0.3-0.2-0.7,0-0.8,0.3
					c-0.2,0.3,0,0.8,0.3,1l31,18.9C697.5,30.3,697.6,30.4,697.7,30.4z"/>
			</g>
			<g>
				<path class="st18" d="M670.7,57.7c0.1,0,0.3,0,0.4-0.1l27.2-23.9c0.3-0.2,0.3-0.7,0.1-1c-0.2-0.3-0.6-0.4-0.9-0.1l-27.2,23.9
					c-0.3,0.2-0.3,0.7-0.1,1C670.4,57.6,670.5,57.7,670.7,57.7z"/>
			</g>
			<g class="st19">
				<g>
					<polygon class="st20" points="700.3,31.6 704.6,34.5 704.6,27.7 700.2,24.9 					"/>
				</g>
				<g>
					<polygon class="st21" points="695.2,35 699.5,37.9 704.6,34.5 700.3,31.6 					"/>
				</g>
				<g>
					<polygon class="st22" points="700.3,31.6 700.2,24.9 695.1,28.2 695.2,35 					"/>
				</g>
			</g>
		</g>
		<path class="st23" d="M690.8,82.9c-2.4-0.1-5-0.8-7.8-2.2c-18.8-7-29.1-24.8-27.8-48.8c0-0.8-0.1-1.6-0.1-2.3
			c0-4.5,0.7-8.3,1.9-11.4c3.7-9.4,12.6-11.9,23-5c13.7,9.1,24.9,31.3,24.9,49.4C704.9,75.7,699.2,83.1,690.8,82.9z"/>
	</g>
	<g>
		<polygon class="st18" points="654.4,64.9 654.4,67.4 620.7,89.7 620.7,87.3 		"/>
		<polygon class="st18" points="654.4,46.1 654.4,48.5 620.7,70.9 620.7,68.4 		"/>
	</g>
	<g>
		<g>
			<g>
				<g>
					<path class="st18" d="M635.5,266.8l5.1-213.9l4.4-3.3L713,209l-1.5,5.4L638.4,269l-0.1,0l0,0.1L635.5,266.8z M644.9,63.9
						l-4.6,196.8l67.2-50.2L644.9,63.9z"/>
				</g>
				<g>
					<polygon class="st18" points="638.6,191.4 640.8,191.7 640.9,191.4 660.1,154 661.8,150.8 673.5,127.9 675.3,124.5 673,124.2 
											"/>
				</g>
				<g>
					<polygon class="st18" points="639.5,151.2 641.9,151.5 657.9,153.7 660.1,154 686.2,157.6 686.4,157.6 688.1,154.4 641.2,148 
											"/>
				</g>
				<g>
					<polygon class="st18" points="639.6,248.9 688.1,154.4 685.8,154.1 685.2,155.3 685.2,155.3 684.2,157.3 666.5,191.8 
						664.8,195 639.7,244 					"/>
				</g>
				<g>
					<polygon class="st18" points="640.2,188.2 638.6,191.4 704.5,200.5 703,196.8 668.7,192.1 666.5,191.8 642.5,188.5 641,188.3 
						641,188.3 					"/>
				</g>
				<g>
					<polygon class="st18" points="641.2,148 639.5,151.2 641.7,151.5 641.9,151.2 643.4,148.3 655.3,125.2 664.6,107 663.5,104.4 
						654.7,121.6 653,124.8 642,146.3 642,146.3 					"/>
				</g>
				<g>
					<polygon class="st18" points="642.5,123.4 655.3,125.2 671.4,127.4 673.4,127.7 673.6,127.7 675.3,124.5 673,124.2 671.9,124 
						656.9,121.9 654.7,121.6 642.6,120 					"/>
				</g>
			</g>
		</g>
		<g>
			<g>
				<g>
					<path class="st24" d="M633.2,268.9L633.2,268.9L633.2,268.9l-70.9-45.1l-1.3-5.2l75.3-166.1l4.2,2.7l-4.4,211.2L633.2,268.9z
						 M566.5,219.5l65.2,41.5l4-194.3L566.5,219.5z"/>
				</g>
				<g>
					<polygon class="st24" points="636.5,192.1 634.2,192.7 634.1,192.4 616.5,157.7 615,154.7 604.2,133.4 602.6,130.3 
						604.9,129.7 					"/>
				</g>
				<g>
					<polygon class="st24" points="637.3,152.4 634.9,153 618.7,157.1 616.5,157.7 590.1,164.5 589.9,164.5 588.4,161.5 
						635.8,149.4 					"/>
				</g>
				<g>
					<polygon class="st24" points="632.9,249.2 588.4,161.5 590.7,160.9 591.3,162 591.3,162.1 592.2,163.9 608.4,195.9 
						609.9,198.9 633,244.4 					"/>
				</g>
				<g>
					<polygon class="st24" points="634.9,189.1 636.5,192.1 569.9,209.1 571.6,205.3 606.1,196.5 608.4,195.9 632.7,189.7 
						634.1,189.3 634.1,189.3 					"/>
				</g>
				<g>
					<polygon class="st24" points="635.8,149.4 637.3,152.4 635,152.9 634.9,152.7 633.5,150 622.6,128.5 614.1,111.6 615.3,109 
						623.4,125 624.9,127.9 635,147.8 635,147.8 					"/>
				</g>
				<g>
					<polygon class="st24" points="635.4,125.2 622.6,128.5 606.4,132.7 604.3,133.2 604.1,133.3 602.6,130.3 604.9,129.7 
						606,129.4 621.1,125.5 623.4,125 635.5,121.9 					"/>
				</g>
			</g>
		</g>
		<polygon class="st18" points="640.5,56 647.3,51.5 640.5,47 633.7,51.5 		"/>
	</g>
	<g>
		<g class="st19">
			<polygon class="st18" points="601.4,81.3 620.7,68.4 620.7,70.9 602.8,82.8 602.8,99.2 620.7,87.3 620.7,89.7 602.4,101.9 
				601,101 600.9,82.2 			"/>
			<polygon class="st18" points="656.6,63.5 656.5,47.1 654.4,48.5 654.4,46.1 657,44.3 658.4,45.3 658.4,64.1 657.9,65 654.4,67.4 
				654.4,64.9 			"/>
			<path class="st18" d="M600.9,82.2l0,18.8l0.5,0.9l21.6,14.4l1.4-0.9l0-18.8l-0.5-0.9l-21.6-14.4L600.9,82.2z M602.8,84l19.7,13.2
				l0,16.4l-19.7-13.2L602.8,84z"/>
			<polygon class="st18" points="601.4,100.1 620.7,87.3 620.7,89.7 603.7,101 623.5,114.2 677.2,78.5 657.5,65.3 654.4,67.4 
				654.4,64.9 657,63.2 658,63.2 679.5,77.6 679.5,79.4 623.9,116.4 623,116.4 601.4,101.9 			"/>
			<path class="st18" d="M657,65l-0.5-0.9l0-18.8l1.4-0.9l21.6,14.4l0.5,0.9l0,18.8l-1.4,0.9L657,65z M658.4,47.1l0,16.4l19.7,13.2
				l0-16.4L658.4,47.1z"/>
			<polygon class="st18" points="601.4,81.3 620.7,68.4 620.7,70.9 603.7,82.2 623.4,95.4 677.2,59.7 657.4,46.5 654.4,48.5 
				654.4,46.1 657,44.3 657.9,44.3 679.5,58.8 679.5,60.6 623.9,97.5 623,97.5 601.4,83.1 			"/>
			<path class="st18" d="M622.5,96.6l0,18.8l1.4,0.9l55.6-36.9l0.5-0.9l0-18.8l-1.4-0.9L623,95.7L622.5,96.6z M624.3,97.2l53.8-35.7
				l0,16.4l-53.8,35.7L624.3,97.2z"/>
		</g>
	</g>
	<g>
		<path class="st25" d="M576.5,84.6c0,18.2,11.1,40.3,24.9,49.4c10.4,6.9,19.2,4.4,23-5c1-4.8,1.6-9.3,1.8-13.7
			c1.3-24.1-9-41.8-27.8-48.8c-2.5-0.9-5.1-1.6-7.8-2.2C582.3,64.1,576.5,71.5,576.5,84.6z"/>
		<path class="st23" d="M576.5,84.6c0,18.2,11.1,40.3,24.9,49.4c10.4,6.9,19.2,4.4,23-5c1.2-3.1,1.9-6.9,1.9-11.4
			c0-0.8,0-1.6-0.1-2.3c-0.9-17.7-11.7-38.3-24.8-47.1c-1-0.7-2-1.3-3-1.7c-2.8-1.4-5.4-2.1-7.8-2.2
			C582.3,64.1,576.5,71.5,576.5,84.6z"/>
		<path class="st26" d="M612.5,136.5c4.8,0,8.6-2.9,10.7-8.1c1.2-3,1.8-6.6,1.8-10.8c0-0.7,0-1.5-0.1-2.3
			c-0.9-17.3-11.5-37.5-24.2-45.9c-0.9-0.6-1.9-1.2-2.9-1.7c-2.6-1.3-5-2-7.3-2.1c-0.1,0-0.2,0-0.4,0c-7.7,0-12.5,7.2-12.5,18.9
			c0,17.7,10.9,39.3,24.3,48.2C605.7,135.2,609.3,136.5,612.5,136.5z"/>
		<g>
			<g>
				<path class="st18" d="M587.7,109.4c0.3,0,0.6-0.3,0.6-0.7V66c0-0.4-0.3-0.7-0.6-0.7c-0.3,0-0.6,0.3-0.6,0.7v42.7
					C587.1,109.1,587.4,109.4,587.7,109.4z"/>
			</g>
			<g>
				<path class="st18" d="M620.6,133.6c0.2,0,0.4-0.1,0.5-0.4c0.2-0.3,0-0.8-0.3-1l-31-18.9c-0.3-0.2-0.7,0-0.8,0.3
					c-0.2,0.3,0,0.8,0.3,1l31,18.9C620.4,133.6,620.5,133.6,620.6,133.6z"/>
			</g>
			<g>
				<path class="st18" d="M589.3,111.2c0.1,0,0.3,0,0.4-0.1l27.2-23.9c0.3-0.2,0.3-0.7,0.1-1c-0.2-0.3-0.6-0.4-0.9-0.1L589,110
					c-0.3,0.2-0.3,0.7-0.1,1C589,111.1,589.2,111.2,589.3,111.2z"/>
			</g>
			<g class="st19">
				<g>
					<polygon class="st20" points="587,112.1 582.7,109.2 582.7,115.9 587,118.8 					"/>
				</g>
				<g>
					<polygon class="st21" points="592.1,108.7 587.8,105.8 582.7,109.2 587,112.1 					"/>
				</g>
				<g>
					<polygon class="st22" points="587,112.1 587,118.8 592.1,115.4 592.1,108.7 					"/>
				</g>
			</g>
		</g>
	</g>
	<g>
		<g class="st19">
			<path class="st26" d="M628.4,79.1c0-0.1,0-0.1,0-0.2c0-0.1,0-0.1,0-0.2c0,0,0,0,0,0c0,0,0,0,0,0c0,0,0-0.1,0-0.1
				c0-0.1,0-0.1,0-0.2c0-0.1,0-0.1,0-0.2c0,0,0,0,0-0.1c0,0,0,0,0,0c0,0,0-0.1,0-0.1c0-0.1,0-0.1,0-0.2c0-0.1,0-0.1,0-0.2
				c0,0,0,0,0-0.1c0,0,0,0,0,0c0,0,0-0.1,0-0.1c0-0.1,0-0.1,0.1-0.2c0-0.1,0-0.1,0.1-0.2c0,0,0,0,0,0c0,0,0,0,0,0c0,0,0-0.1,0-0.1
				c0-0.1,0-0.1,0.1-0.2c0-0.1,0-0.1,0.1-0.2c0,0,0,0,0,0c0,0,0,0,0,0c0-0.1,0-0.1,0.1-0.2c0-0.1,0.1-0.1,0.1-0.2
				c0-0.1,0-0.1,0.1-0.2c0,0,0,0,0-0.1c0,0,0,0,0-0.1c0.1-0.1,0.1-0.3,0.2-0.4c0,0,0,0,0,0c0.1-0.2,0.2-0.4,0.3-0.6l0,0
				c0.1-0.1,0.2-0.3,0.3-0.4c0,0,0-0.1,0.1-0.1c0,0,0-0.1,0.1-0.1c0,0,0.1-0.1,0.1-0.1c0.1-0.1,0.1-0.2,0.2-0.3c0,0,0,0,0-0.1
				c0,0,0,0,0-0.1c0-0.1,0.1-0.1,0.1-0.2c0.1-0.1,0.1-0.2,0.2-0.3c0,0,0,0,0,0c0,0,0,0,0-0.1c0-0.1,0.1-0.1,0.1-0.2
				c0.1-0.1,0.2-0.2,0.2-0.3c0,0,0,0,0,0c0,0,0,0,0,0c0.1-0.1,0.2-0.2,0.2-0.2c0.1-0.1,0.1-0.1,0.2-0.2c0,0,0,0,0.1-0.1c0,0,0,0,0,0
				c0.1-0.1,0.2-0.2,0.3-0.3c0,0,0.1-0.1,0.1-0.1c0,0,0,0,0.1-0.1c0,0,0.1-0.1,0.1-0.1c0.1-0.1,0.2-0.1,0.3-0.2c0,0,0,0,0.1,0
				c0,0,0,0,0.1-0.1c0,0,0.1-0.1,0.1-0.1c0.1-0.1,0.2-0.1,0.3-0.2c0,0,0,0,0.1,0l0.1-0.1c0.1,0,0.1-0.1,0.2-0.1c0,0,0,0,0.1,0
				c0,0,0.1,0,0.1-0.1c0,0,0.1,0,0.1-0.1c0,0,0,0,0.1,0c0,0,0.1,0,0.1-0.1c0,0,0,0,0.1,0c0,0,0.1,0,0.1,0c0,0,0.1,0,0.1-0.1
				c0,0,0,0,0,0c0,0,0.1,0,0.1-0.1c0,0,0.1,0,0.1,0c0,0,0,0,0,0c0.1,0,0.1,0,0.2-0.1c0,0,0,0,0.1,0c0,0,0,0,0,0
				c0.1,0,0.2-0.1,0.2-0.1l0,0c0,0,0,0,0,0c0.1,0,0.1,0,0.2-0.1c0,0,0,0,0,0c0,0,0.1,0,0.1,0c0,0,0.1,0,0.1,0c0,0,0,0,0,0
				c0,0,0.1,0,0.1,0c0,0,0.1,0,0.1,0c0,0,0,0,0,0c0.1,0,0.1,0,0.2,0c0,0,0,0,0.1,0c0,0,0,0,0,0c0.1,0,0.2,0,0.2,0c0,0,0,0,0,0
				c0,0,0,0,0,0c0.1,0,0.1,0,0.2,0c0,0,0,0,0,0c0,0,0,0,0,0c0.1,0,0.2,0.1,0.3,0.1l0,0c0,0,0,0,0,0c0.1,0,0.2,0.1,0.3,0.2l4.3,2.9
				c-0.1-0.1-0.2-0.1-0.3-0.2c0,0,0,0,0,0c-0.1,0-0.2-0.1-0.3-0.1c0,0,0,0-0.1,0c-0.1,0-0.1,0-0.2,0c0,0,0,0,0,0c-0.1,0-0.2,0-0.2,0
				c0,0,0,0-0.1,0c-0.1,0-0.1,0-0.2,0c0,0-0.1,0-0.1,0c0,0-0.1,0-0.1,0c0,0-0.1,0-0.1,0c0,0-0.1,0-0.1,0c-0.1,0-0.1,0-0.2,0.1
				c0,0,0,0,0,0c-0.1,0-0.2,0.1-0.3,0.1c0,0,0,0-0.1,0c-0.1,0-0.1,0-0.2,0.1c0,0-0.1,0-0.1,0c-0.1,0-0.1,0-0.2,0.1
				c0,0-0.1,0-0.1,0.1c-0.1,0-0.1,0.1-0.2,0.1c0,0-0.1,0-0.1,0.1c-0.1,0-0.1,0.1-0.2,0.1c0,0-0.1,0-0.1,0.1
				c-0.1,0.1-0.2,0.1-0.2,0.2l-0.1,0.1c-0.2,0.1-0.3,0.2-0.5,0.3c0,0,0,0-0.1,0c-0.1,0.1-0.3,0.2-0.4,0.3c0,0-0.1,0-0.1,0.1
				c-0.1,0.1-0.3,0.2-0.4,0.4c0,0,0,0-0.1,0.1c-0.1,0.1-0.3,0.3-0.4,0.4c0,0,0,0,0,0c-0.1,0.1-0.3,0.3-0.4,0.5c0,0,0,0,0,0.1
				c-0.1,0.2-0.2,0.3-0.4,0.5c0,0,0,0,0,0.1c-0.1,0.2-0.2,0.3-0.3,0.5c0,0,0,0.1-0.1,0.1c-0.1,0.2-0.2,0.3-0.3,0.5
				c-0.1,0.2-0.2,0.4-0.3,0.6c-0.1,0.2-0.2,0.3-0.3,0.5c0,0,0,0,0,0.1c-0.1,0.2-0.2,0.3-0.2,0.5c0,0,0,0,0,0
				c-0.1,0.2-0.1,0.4-0.2,0.5c0,0,0,0,0,0c-0.1,0.2-0.1,0.4-0.2,0.5c0,0,0,0,0,0c0,0.2-0.1,0.4-0.1,0.5c0,0,0,0,0,0
				c0,0.2-0.1,0.3-0.1,0.5c0,0,0,0,0,0c0,0.2,0,0.3,0,0.5l0.1,38.6c0,0.1,0,0.3,0,0.4c0,0,0,0,0,0c0,0.1,0,0.2,0,0.3c0,0,0,0,0,0
				c0,0.1,0,0.2,0.1,0.3c0,0,0,0,0,0c0,0.1,0.1,0.2,0.1,0.3c0,0,0,0.1,0,0.1c0,0.1,0.1,0.1,0.1,0.2c0,0,0,0.1,0.1,0.1
				c0,0.1,0.1,0.1,0.1,0.2c0,0,0,0.1,0.1,0.1c0,0,0.1,0.1,0.1,0.1c0,0,0,0,0.1,0.1c0.1,0.1,0.1,0.1,0.2,0.2l-4.3-2.9
				c-0.1,0-0.1-0.1-0.2-0.2c0,0,0,0-0.1-0.1c0,0-0.1-0.1-0.1-0.1c0,0,0-0.1-0.1-0.1c0,0-0.1-0.1-0.1-0.2c0,0,0-0.1-0.1-0.1
				c0,0,0,0,0,0c0,0,0-0.1-0.1-0.1c0,0,0-0.1,0-0.1c0,0,0,0,0,0c0-0.1-0.1-0.1-0.1-0.2c0,0,0,0,0,0c0,0,0,0,0-0.1c0,0,0-0.1,0-0.1
				c0-0.1,0-0.1,0-0.2c0,0,0,0,0,0c0,0,0,0,0,0c0,0,0-0.1,0-0.1c0-0.1,0-0.1,0-0.2c0,0,0,0,0-0.1c0,0,0,0,0,0c0,0,0,0,0-0.1
				c0-0.1,0-0.1,0-0.2c0-0.1,0-0.1,0-0.2c0,0,0,0,0,0l-0.1-38.6C628.4,79.2,628.4,79.2,628.4,79.1z"/>
			<path class="st17" d="M637.6,73.9c-2.7,1.8-4.8,5.5-4.8,8.2l0.1,38.6c0,2.8,2.2,3.5,4.9,1.8l0.1-0.1c2.7-1.8,4.8-5.5,4.8-8.2
				l-0.1-38.6C642.5,72.9,640.3,72.1,637.6,73.9L637.6,73.9z"/>
		</g>
		<g class="st19">
			<path class="st26" d="M661.8,56.9c0-0.1,0-0.1,0-0.2c0-0.1,0-0.1,0-0.2c0,0,0,0,0,0c0,0,0,0,0,0c0,0,0-0.1,0-0.1
				c0-0.1,0-0.1,0-0.2c0-0.1,0-0.1,0-0.2c0,0,0,0,0-0.1c0,0,0,0,0,0c0,0,0-0.1,0-0.1c0-0.1,0-0.1,0-0.2c0-0.1,0-0.1,0-0.2
				c0,0,0,0,0,0c0,0,0,0,0,0c0,0,0-0.1,0-0.1c0-0.1,0-0.1,0.1-0.2c0-0.1,0-0.1,0.1-0.2c0,0,0,0,0,0c0,0,0,0,0,0c0,0,0-0.1,0-0.1
				c0-0.1,0-0.1,0.1-0.2c0-0.1,0-0.1,0.1-0.2c0,0,0,0,0,0c0,0,0,0,0,0c0-0.1,0-0.1,0.1-0.2c0-0.1,0.1-0.1,0.1-0.2
				c0-0.1,0-0.1,0.1-0.2c0,0,0,0,0-0.1c0,0,0,0,0-0.1c0.1-0.1,0.1-0.3,0.2-0.4c0,0,0,0,0,0c0.1-0.2,0.2-0.4,0.3-0.6l0,0
				c0.1-0.1,0.2-0.3,0.3-0.4c0,0,0-0.1,0.1-0.1c0,0,0-0.1,0.1-0.1c0,0,0.1-0.1,0.1-0.1c0.1-0.1,0.1-0.2,0.2-0.3c0,0,0,0,0-0.1
				c0,0,0,0,0-0.1c0-0.1,0.1-0.1,0.1-0.2c0.1-0.1,0.1-0.2,0.2-0.3c0,0,0,0,0,0c0,0,0,0,0-0.1c0-0.1,0.1-0.1,0.1-0.2
				c0.1-0.1,0.2-0.2,0.2-0.3c0,0,0,0,0,0c0,0,0,0,0,0c0.1-0.1,0.2-0.2,0.2-0.2c0.1-0.1,0.1-0.1,0.2-0.2c0,0,0,0,0.1-0.1c0,0,0,0,0,0
				c0.1-0.1,0.2-0.2,0.3-0.2c0,0,0.1-0.1,0.1-0.1c0,0,0,0,0.1-0.1c0,0,0.1-0.1,0.1-0.1c0.1-0.1,0.2-0.1,0.3-0.2c0,0,0,0,0.1,0
				c0,0,0,0,0.1-0.1c0,0,0.1-0.1,0.1-0.1c0.1-0.1,0.2-0.1,0.3-0.2c0,0,0,0,0.1,0l0.1-0.1c0.1,0,0.1-0.1,0.2-0.1c0,0,0,0,0.1,0
				c0,0,0.1,0,0.1-0.1c0,0,0.1,0,0.1-0.1c0,0,0,0,0.1,0c0,0,0.1,0,0.1-0.1c0,0,0,0,0.1,0c0,0,0.1,0,0.1,0c0,0,0.1,0,0.1-0.1
				c0,0,0,0,0,0c0,0,0.1,0,0.1-0.1c0,0,0.1,0,0.1,0c0,0,0,0,0,0c0.1,0,0.1,0,0.2-0.1c0,0,0.1,0,0.1,0c0,0,0,0,0,0
				c0.1,0,0.2-0.1,0.2-0.1l0,0c0,0,0,0,0,0c0.1,0,0.1,0,0.2-0.1c0,0,0,0,0,0c0,0,0.1,0,0.1,0c0,0,0.1,0,0.1,0c0,0,0,0,0,0
				c0,0,0.1,0,0.1,0c0,0,0.1,0,0.1,0c0,0,0,0,0,0c0.1,0,0.1,0,0.2,0c0,0,0,0,0.1,0c0,0,0,0,0,0c0.1,0,0.2,0,0.2,0c0,0,0,0,0,0
				c0,0,0,0,0,0c0.1,0,0.1,0,0.2,0c0,0,0,0,0,0c0,0,0,0,0,0c0.1,0,0.2,0.1,0.3,0.1c0,0,0,0,0,0c0,0,0,0,0,0c0.1,0,0.2,0.1,0.3,0.2
				l4.3,2.9c-0.1-0.1-0.2-0.1-0.3-0.2c0,0,0,0,0,0c-0.1,0-0.2-0.1-0.3-0.1c0,0,0,0-0.1,0c-0.1,0-0.1,0-0.2,0c0,0,0,0-0.1,0
				c-0.1,0-0.2,0-0.2,0c0,0,0,0-0.1,0c-0.1,0-0.1,0-0.2,0c0,0-0.1,0-0.1,0c0,0-0.1,0-0.1,0c0,0-0.1,0-0.1,0c0,0-0.1,0-0.1,0
				c-0.1,0-0.1,0-0.2,0.1c0,0,0,0,0,0c-0.1,0-0.2,0.1-0.3,0.1c0,0,0,0-0.1,0c-0.1,0-0.1,0-0.2,0.1c0,0-0.1,0-0.1,0
				c-0.1,0-0.1,0-0.2,0.1c0,0-0.1,0-0.1,0.1c-0.1,0-0.1,0.1-0.2,0.1c0,0-0.1,0-0.1,0.1c-0.1,0-0.1,0.1-0.2,0.1c0,0-0.1,0-0.1,0.1
				c-0.1,0.1-0.2,0.1-0.2,0.2l-0.1,0.1c-0.2,0.1-0.3,0.2-0.5,0.3c0,0,0,0-0.1,0.1c-0.1,0.1-0.3,0.2-0.4,0.3c0,0-0.1,0-0.1,0.1
				c-0.1,0.1-0.3,0.2-0.4,0.4c0,0,0,0-0.1,0.1c-0.1,0.1-0.3,0.3-0.4,0.4c0,0,0,0,0,0c-0.1,0.1-0.3,0.3-0.4,0.5c0,0,0,0,0,0.1
				c-0.1,0.2-0.2,0.3-0.4,0.5c0,0,0,0,0,0.1c-0.1,0.2-0.2,0.3-0.3,0.5c0,0,0,0.1-0.1,0.1c-0.1,0.2-0.2,0.3-0.3,0.5
				c-0.1,0.2-0.2,0.4-0.3,0.6c-0.1,0.2-0.2,0.3-0.3,0.5c0,0,0,0,0,0.1c-0.1,0.2-0.2,0.3-0.2,0.5c0,0,0,0,0,0
				c-0.1,0.2-0.1,0.4-0.2,0.5c0,0,0,0,0,0c-0.1,0.2-0.1,0.4-0.2,0.5c0,0,0,0,0,0c0,0.2-0.1,0.4-0.1,0.5c0,0,0,0,0,0
				c0,0.2-0.1,0.3-0.1,0.5c0,0,0,0,0,0c0,0.2,0,0.3,0,0.5l0.1,38.6c0,0.1,0,0.3,0,0.4c0,0,0,0,0,0c0,0.1,0,0.2,0,0.3c0,0,0,0,0,0
				c0,0.1,0,0.2,0.1,0.3c0,0,0,0,0,0.1c0,0.1,0.1,0.2,0.1,0.3c0,0,0,0.1,0,0.1c0,0.1,0.1,0.1,0.1,0.2c0,0,0,0.1,0.1,0.1
				c0,0.1,0.1,0.1,0.1,0.2c0,0,0,0.1,0.1,0.1c0,0,0.1,0.1,0.1,0.1c0,0,0,0,0.1,0.1c0.1,0.1,0.1,0.1,0.2,0.2l-4.3-2.9
				c-0.1,0-0.1-0.1-0.2-0.2c0,0,0,0-0.1-0.1c0,0-0.1-0.1-0.1-0.1c0,0,0-0.1-0.1-0.1c0,0-0.1-0.1-0.1-0.2c0,0,0-0.1-0.1-0.1
				c0,0,0,0,0,0c0,0,0-0.1-0.1-0.1c0,0,0-0.1,0-0.1c0,0,0,0,0,0c0-0.1-0.1-0.1-0.1-0.2c0,0,0,0,0,0c0,0,0,0,0-0.1c0,0,0-0.1,0-0.1
				c0-0.1,0-0.1,0-0.2c0,0,0,0,0,0c0,0,0,0,0,0c0,0,0-0.1,0-0.1c0-0.1,0-0.1,0-0.2c0,0,0,0,0-0.1c0,0,0,0,0,0c0,0,0,0,0-0.1
				c0-0.1,0-0.1,0-0.2c0-0.1,0-0.1,0-0.2c0,0,0,0,0,0l-0.1-38.6C661.8,57,661.8,57,661.8,56.9z"/>
			<path class="st17" d="M670.9,51.8c-2.7,1.8-4.8,5.5-4.8,8.2l0.1,38.6c0,2.8,2.2,3.5,4.9,1.8l0.1-0.1c2.7-1.8,4.8-5.5,4.8-8.2
				l-0.1-38.6C675.9,50.7,673.7,49.9,670.9,51.8L670.9,51.8z"/>
		</g>
	</g>
</g>
<g>
	<path class="st27" d="M735.4,160.1c-4.9-30.1,20.2-57.9,56.1-62c14.5-1.7,29.3,0.8,42,7c13.4-21.2,44.7-29.3,70-18
		c4.4,2,8.5,4.5,12,7.4c10.4-17.6,35.9-24.7,56.8-16c5.8,2.4,10.8,5.9,14.8,10.3c16.8-16.6,46.6-18.7,66.4-4.6
		c8.3,5.9,14,14.1,15.9,23.1c27.6,6.3,43.8,30.3,36.3,53.5c-0.6,2-1.4,3.9-2.4,5.7c22.1,24.2,16.7,58.9-12.1,77.4
		c-9,5.8-19.5,9.5-30.7,10.9c-0.2,26-25.6,47-56.6,46.7c-10.4-0.1-20.5-2.5-29.3-7.1c-10.5,29.2-47.1,45.7-81.7,36.8
		c-14.5-3.7-27.1-11.5-35.5-22.2c-35.5,18-81.5,8.3-102.8-21.6c-0.3-0.4-0.5-0.8-0.8-1.1c-23.2,2.3-44.2-11.6-46.9-31.1
		c-1.5-10.4,2.6-20.7,11.1-28.4c-20.1-9.9-26.8-31.8-15.1-48.7c6.8-9.8,18.7-16.3,32.1-17.4L735.4,160.1z"/>
	<path class="st28" d="M735.4,160.1c-4.9-30.1,20.2-57.9,56.1-62c14.5-1.7,29.3,0.8,42,7c13.4-21.2,44.7-29.3,70-18
		c4.4,2,8.5,4.5,12,7.4c10.4-17.6,35.9-24.7,56.8-16c5.8,2.4,10.8,5.9,14.8,10.3c16.8-16.6,46.6-18.7,66.4-4.6
		c8.3,5.9,14,14.1,15.9,23.1c27.6,6.3,43.8,30.3,36.3,53.5c-0.6,2-1.4,3.9-2.4,5.7c22.1,24.2,16.7,58.9-12.1,77.4
		c-9,5.8-19.5,9.5-30.7,10.9c-0.2,26-25.6,47-56.6,46.7c-10.4-0.1-20.5-2.5-29.3-7.1c-10.5,29.2-47.1,45.7-81.7,36.8
		c-14.5-3.7-27.1-11.5-35.5-22.2c-35.5,18-81.5,8.3-102.8-21.6c-0.3-0.4-0.5-0.8-0.8-1.1c-23.2,2.3-44.2-11.6-46.9-31.1
		c-1.5-10.4,2.6-20.7,11.1-28.4c-20.1-9.9-26.8-31.8-15.1-48.7c6.8-9.8,18.7-16.3,32.1-17.4L735.4,160.1z"/>
	<path class="st28" d="M743.1,230.9c-8.6,0.6-17.2-1.1-24.6-4.8 M764.8,283.1c-3.4,1.2-7.1,1.9-10.8,2.3 M857.4,308.2
		c-2.6-3.3-4.8-6.8-6.5-10.4 M977.3,282.2c-0.4,3.9-1.2,7.7-2.6,11.4 M1028.7,211.5c19.4,8,31.7,24.6,31.5,42.7 M1103.1,166
		c-3.1,6.2-8,11.7-14,16 M1069.4,106.6c0.5,2.5,0.8,5,0.7,7.6 M979.7,97.7c1.8-3.5,4.3-6.7,7.2-9.7 M912.4,102.3
		c0.7-2.9,1.9-5.7,3.5-8.3 M833.4,105.2c4.6,2.3,8.8,5,12.6,8.1 M737.6,168.6c-1-2.8-1.7-5.6-2.2-8.5"/>
</g>
<g>
	<line class="st29" x1="347.4" y1="141.4" x2="573.3" y2="137.8"/>
	<polygon class="st30" points="570.2,128.8 588.3,137.5 570.5,146.8 570.2,128.8 	"/>
	<polygon class="st30" points="350.5,150.4 332.4,141.7 350.2,132.4 350.5,150.4 	"/>
</g>
<g>
	<g>
		<g>
			<g class="st19">
				<polygon class="st31" points="1150.1,145.7 1150,160 1149.8,230.6 1191.1,210.9 1191.3,140.3 1191.4,126 				"/>
				<g>
					<polygon class="st31" points="1106.8,125.2 1148.1,105.5 1191.4,126 1150.1,145.7 					"/>
				</g>
				<g>
					<polygon class="st32" points="1150.1,145.7 1150,160 1149.8,230.6 1106.5,210.1 1106.6,180.4 1106.8,125.2 					"/>
				</g>
			</g>
		</g>
		<g>
			<g class="st19">
				<g>
					<polygon class="st24" points="1143.9,204.2 1143.9,211.5 1111.3,196.1 1111.3,188.7 					"/>
				</g>
				<g>
					<polygon class="st24" points="1143.9,194.1 1143.9,201.5 1111.4,186 1111.4,178.7 					"/>
				</g>
				<g>
					<polygon class="st24" points="1144,184.1 1144,191.4 1111.4,176 1111.4,168.6 					"/>
				</g>
				<g>
					<polygon class="st24" points="1144,174 1144,181.4 1111.4,166 1111.4,158.6 					"/>
				</g>
				<g>
					<polygon class="st24" points="1144,164 1144,171.4 1111.5,155.9 1111.5,148.6 					"/>
				</g>
				<g>
					<polygon class="st24" points="1144.1,154 1144.1,161.3 1111.5,145.9 1111.5,138.5 					"/>
				</g>
			</g>
		</g>
		<g>
			<g>
				<polygon class="st25" points="1115.9,207.2 1115.9,209.6 1113.1,208.3 1113.1,206 				"/>
			</g>
			<g>
				<polygon class="st25" points="1121.1,209.7 1121.1,212.1 1118.4,210.8 1118.4,208.5 				"/>
			</g>
			<g>
				<polygon class="st25" points="1126.4,212.2 1126.4,214.6 1123.7,213.3 1123.7,211 				"/>
			</g>
			<g>
				<polygon class="st25" points="1131.7,214.8 1131.7,217.1 1129,215.8 1129,213.5 				"/>
			</g>
			<g>
				<polygon class="st25" points="1137,217.3 1137,219.6 1134.3,218.3 1134.3,216 				"/>
			</g>
			<g>
				<polygon class="st25" points="1142.3,219.8 1142.3,222.1 1139.5,220.8 1139.5,218.5 				"/>
			</g>
		</g>
	</g>
	<g>
		<g>
			<g class="st19">
				<polygon class="st33" points="1213,147.4 1213,166.4 1212.6,260.1 1267.5,233.9 1267.8,140.2 1267.8,121.2 				"/>
				<g>
					<polygon class="st33" points="1155.6,120.2 1210.4,94 1267.8,121.2 1213,147.4 					"/>
				</g>
				<g>
					<polygon class="st34" points="1213,147.4 1213,166.4 1212.6,260.1 1155.2,232.8 1155.3,193.3 1155.6,120.2 					"/>
				</g>
			</g>
		</g>
		<g>
			<g class="st19">
				<g>
					<polygon class="st24" points="1204.8,224.9 1204.8,234.7 1161.6,214.2 1161.6,204.5 					"/>
				</g>
				<g>
					<polygon class="st24" points="1204.9,211.6 1204.8,221.4 1161.6,200.9 1161.6,191.1 					"/>
				</g>
				<g>
					<polygon class="st24" points="1204.9,198.3 1204.9,208.1 1161.7,187.6 1161.7,177.8 					"/>
				</g>
				<g>
					<polygon class="st24" points="1205,185 1204.9,194.7 1161.7,174.2 1161.7,164.5 					"/>
				</g>
				<g>
					<polygon class="st24" points="1205,171.6 1205,181.4 1161.7,160.9 1161.8,151.1 					"/>
				</g>
				<g>
					<polygon class="st24" points="1205.1,158.3 1205,168.1 1161.8,147.6 1161.8,137.8 					"/>
				</g>
			</g>
		</g>
		<g>
			<g>
				<polygon class="st25" points="1167.6,229 1167.6,232.1 1164,230.4 1164,227.3 				"/>
			</g>
			<g>
				<polygon class="st25" points="1174.6,232.4 1174.6,235.5 1171,233.8 1171,230.6 				"/>
			</g>
			<g>
				<polygon class="st25" points="1181.6,235.7 1181.6,238.8 1178,237.1 1178,234 				"/>
			</g>
			<g>
				<polygon class="st25" points="1188.6,239 1188.6,242.1 1185,240.4 1185,237.3 				"/>
			</g>
			<g>
				<polygon class="st25" points="1195.6,242.3 1195.6,245.4 1192,243.7 1192,240.6 				"/>
			</g>
			<g>
				<polygon class="st25" points="1202.6,245.6 1202.6,248.8 1199,247.1 1199,243.9 				"/>
			</g>
		</g>
	</g>
	<g>
		<g>
			<g class="st19">
				<polygon class="st31" points="1263.7,197.9 1263.6,212.2 1263.4,282.8 1304.7,263.1 1305,192.5 1305,178.2 				"/>
				<g>
					<polygon class="st31" points="1220.4,177.4 1261.7,157.7 1305,178.2 1263.7,197.9 					"/>
				</g>
				<g>
					<polygon class="st32" points="1263.7,197.9 1263.6,212.2 1263.4,282.8 1220.1,262.3 1220.2,232.6 1220.4,177.4 					"/>
				</g>
			</g>
		</g>
		<g>
			<g class="st19">
				<g>
					<polygon class="st24" points="1257.5,256.4 1257.5,263.7 1224.9,248.3 1225,240.9 					"/>
				</g>
				<g>
					<polygon class="st24" points="1257.6,246.3 1257.5,253.7 1225,238.2 1225,230.9 					"/>
				</g>
				<g>
					<polygon class="st24" points="1257.6,236.3 1257.6,243.6 1225,228.2 1225,220.8 					"/>
				</g>
				<g>
					<polygon class="st24" points="1257.6,226.2 1257.6,233.6 1225,218.2 1225.1,210.8 					"/>
				</g>
				<g>
					<polygon class="st24" points="1257.7,216.2 1257.6,223.6 1225.1,208.1 1225.1,200.8 					"/>
				</g>
				<g>
					<polygon class="st24" points="1257.7,206.2 1257.7,213.5 1225.1,198.1 1225.1,190.7 					"/>
				</g>
			</g>
		</g>
		<g>
			<g>
				<polygon class="st25" points="1229.5,259.4 1229.5,261.8 1226.8,260.5 1226.8,258.2 				"/>
			</g>
			<g>
				<polygon class="st25" points="1234.8,261.9 1234.7,264.3 1232,263 1232,260.7 				"/>
			</g>
			<g>
				<polygon class="st25" points="1240,264.4 1240,266.8 1237.3,265.5 1237.3,263.2 				"/>
			</g>
			<g>
				<polygon class="st25" points="1245.3,266.9 1245.3,269.3 1242.6,268 1242.6,265.7 				"/>
			</g>
			<g>
				<polygon class="st25" points="1250.6,269.5 1250.6,271.8 1247.9,270.5 1247.9,268.2 				"/>
			</g>
			<g>
				<polygon class="st25" points="1255.9,272 1255.9,274.3 1253.2,273 1253.2,270.7 				"/>
			</g>
		</g>
	</g>
</g>
<g>
	<g>
		<g>
			<g>
				<g>
					<rect x="684.6" y="125.9" class="st4" width="92.1" height="120.7"/>
				</g>
			</g>
			<g>
				<g>
					<rect x="671.1" y="158.1" class="st7" width="100.7" height="39.8"/>
				</g>
			</g>
			<g>
				<g>
					<rect x="675.6" y="166.3" class="st4" width="19.8" height="4.9"/>
				</g>
			</g>
			<g>
				<g>
					<rect x="675.6" y="174.7" class="st4" width="19.8" height="4.9"/>
				</g>
			</g>
			<g>
				<g>
					<rect x="675.6" y="183.3" class="st4" width="19.8" height="4.9"/>
				</g>
			</g>
			<g>
				<g>
					<g>
						<g>
							<path class="st4" d="M703.3,169.3c0,1-0.5,1.8-1.1,1.8c-0.6,0-1.1-0.8-1.1-1.8c0-1,0.5-1.8,1.1-1.8
								C702.8,167.4,703.3,168.3,703.3,169.3z"/>
						</g>
					</g>
					<g>
						<g>
							<path class="st4" d="M708.3,169.3c0,1-0.5,1.8-1.1,1.8c-0.6,0-1.1-0.8-1.1-1.8c0-1,0.5-1.8,1.1-1.8
								C707.8,167.4,708.3,168.3,708.3,169.3z"/>
						</g>
					</g>
					<g>
						<g>
							<path class="st4" d="M713.3,169.3c0,1-0.5,1.8-1.1,1.8s-1.1-0.8-1.1-1.8c0-1,0.5-1.8,1.1-1.8S713.3,168.3,713.3,169.3z"/>
						</g>
					</g>
					<g>
						<g>
							<path class="st4" d="M718.3,169.3c0,1-0.5,1.8-1.1,1.8c-0.6,0-1.1-0.8-1.1-1.8c0-1,0.5-1.8,1.1-1.8
								C717.8,167.4,718.3,168.3,718.3,169.3z"/>
						</g>
					</g>
					<g>
						<g>
							<path class="st4" d="M757.2,169.3c0,1-0.5,1.8-1.1,1.8c-0.6,0-1.1-0.8-1.1-1.8c0-1,0.5-1.8,1.1-1.8
								C756.7,167.4,757.2,168.3,757.2,169.3z"/>
						</g>
					</g>
					<g>
						<g>
							<path class="st4" d="M762.4,169.3c0,1-0.5,1.8-1.1,1.8c-0.6,0-1.1-0.8-1.1-1.8c0-1,0.5-1.8,1.1-1.8
								C761.9,167.4,762.4,168.3,762.4,169.3z"/>
						</g>
					</g>
					<g>
						<g>
							<path class="st4" d="M723.4,169.3c0,1-0.5,1.8-1.1,1.8c-0.6,0-1.1-0.8-1.1-1.8c0-1,0.5-1.8,1.1-1.8
								C722.9,167.4,723.4,168.3,723.4,169.3z"/>
						</g>
					</g>
					<g>
						<g>
							<path class="st4" d="M748,169.3c0,1-0.5,1.8-1.1,1.8c-0.6,0-1.1-0.8-1.1-1.8c0-1,0.5-1.8,1.1-1.8
								C747.5,167.4,748,168.3,748,169.3z"/>
						</g>
					</g>
					<g>
						<g>
							<path class="st1" d="M728.4,169.3c0,1-0.5,1.8-1.1,1.8c-0.6,0-1.1-0.8-1.1-1.8c0-1,0.5-1.8,1.1-1.8
								C727.9,167.4,728.4,168.3,728.4,169.3z"/>
						</g>
					</g>
					<g>
						<g>
							<path class="st1" d="M733.4,169.3c0,1-0.5,1.8-1.1,1.8c-0.6,0-1.1-0.8-1.1-1.8c0-1,0.5-1.8,1.1-1.8
								C732.9,167.4,733.4,168.3,733.4,169.3z"/>
						</g>
					</g>
					<g>
						<g>
							<path class="st1" d="M743.6,169.3c0,1-0.5,1.8-1.1,1.8c-0.6,0-1.1-0.8-1.1-1.8c0-1,0.5-1.8,1.1-1.8
								C743.1,167.4,743.6,168.3,743.6,169.3z"/>
						</g>
					</g>
					<g>
						<g>
							<path class="st1" d="M766.5,169.3c0,1-0.5,1.8-1.1,1.8c-0.6,0-1.1-0.8-1.1-1.8c0-1,0.5-1.8,1.1-1.8
								C766,167.4,766.5,168.3,766.5,169.3z"/>
						</g>
					</g>
					<g>
						<g>
							<path class="st35" d="M738.4,169.3c0,1-0.5,1.8-1.1,1.8c-0.6,0-1.1-0.8-1.1-1.8c0-1,0.5-1.8,1.1-1.8
								C737.9,167.4,738.4,168.3,738.4,169.3z"/>
						</g>
					</g>
					<g>
						<g>
							<path class="st35" d="M752.8,169.3c0,1-0.5,1.8-1.1,1.8c-0.6,0-1.1-0.8-1.1-1.8c0-1,0.5-1.8,1.1-1.8
								C752.3,167.4,752.8,168.3,752.8,169.3z"/>
						</g>
					</g>
				</g>
				<g>
					<g>
						<g>
							<path class="st4" d="M764.3,178c0-1,0.5-1.8,1.1-1.8c0.6,0,1.1,0.8,1.1,1.8c0,1-0.5,1.8-1.1,1.8
								C764.8,179.8,764.3,179,764.3,178z"/>
						</g>
					</g>
					<g>
						<g>
							<ellipse class="st4" cx="760.4" cy="178" rx="1.1" ry="1.8"/>
						</g>
					</g>
					<g>
						<g>
							<path class="st4" d="M754.2,178c0-1,0.5-1.8,1.1-1.8c0.6,0,1.1,0.8,1.1,1.8c0,1-0.5,1.8-1.1,1.8
								C754.7,179.8,754.2,179,754.2,178z"/>
						</g>
					</g>
					<g>
						<g>
							<ellipse class="st4" cx="750.3" cy="178" rx="1.1" ry="1.8"/>
						</g>
					</g>
					<g>
						<g>
							<ellipse class="st4" cx="711.4" cy="178" rx="1.1" ry="1.8"/>
						</g>
					</g>
					<g>
						<g>
							<path class="st4" d="M705.2,178c0-1,0.5-1.8,1.1-1.8c0.6,0,1.1,0.8,1.1,1.8c0,1-0.5,1.8-1.1,1.8
								C705.7,179.8,705.2,179,705.2,178z"/>
						</g>
					</g>
					<g>
						<g>
							<path class="st4" d="M744.2,178c0-1,0.5-1.8,1.1-1.8c0.6,0,1.1,0.8,1.1,1.8c0,1-0.5,1.8-1.1,1.8
								C744.7,179.8,744.2,179,744.2,178z"/>
						</g>
					</g>
					<g>
						<g>
							<path class="st4" d="M719.5,178c0-1,0.5-1.8,1.1-1.8c0.6,0,1.1,0.8,1.1,1.8c0,1-0.5,1.8-1.1,1.8
								C720,179.8,719.5,179,719.5,178z"/>
						</g>
					</g>
					<g>
						<g>
							<path class="st1" d="M739.2,178c0-1,0.5-1.8,1.1-1.8c0.6,0,1.1,0.8,1.1,1.8c0,1-0.5,1.8-1.1,1.8
								C739.7,179.8,739.2,179,739.2,178z"/>
						</g>
					</g>
					<g>
						<g>
							<path class="st1" d="M734.1,178c0-1,0.5-1.8,1.1-1.8c0.6,0,1.1,0.8,1.1,1.8c0,1-0.5,1.8-1.1,1.8
								C734.6,179.8,734.1,179,734.1,178z"/>
						</g>
					</g>
					<g>
						<g>
							<path class="st1" d="M723.9,178c0-1,0.5-1.8,1.1-1.8c0.6,0,1.1,0.8,1.1,1.8c0,1-0.5,1.8-1.1,1.8
								C724.5,179.8,723.9,179,723.9,178z"/>
						</g>
					</g>
					<g>
						<g>
							<ellipse class="st1" cx="702.1" cy="178" rx="1.1" ry="1.8"/>
						</g>
					</g>
					<g>
						<g>
							<path class="st35" d="M729.1,178c0-1,0.5-1.8,1.1-1.8c0.6,0,1.1,0.8,1.1,1.8c0,1-0.5,1.8-1.1,1.8
								C729.6,179.8,729.1,179,729.1,178z"/>
						</g>
					</g>
					<g>
						<g>
							<ellipse class="st35" cx="715.9" cy="178" rx="1.1" ry="1.8"/>
						</g>
					</g>
				</g>
				<g>
					<g>
						<g>
							<ellipse class="st4" cx="702.1" cy="185.8" rx="1.1" ry="1.8"/>
						</g>
					</g>
					<g>
						<g>
							<path class="st4" d="M708.3,185.8c0,1-0.5,1.8-1.1,1.8c-0.6,0-1.1-0.8-1.1-1.8c0-1,0.5-1.8,1.1-1.8
								C707.8,183.9,708.3,184.8,708.3,185.8z"/>
						</g>
					</g>
					<g>
						<g>
							<ellipse class="st4" cx="712.2" cy="185.8" rx="1.1" ry="1.8"/>
						</g>
					</g>
					<g>
						<g>
							<path class="st4" d="M718.3,185.8c0,1-0.5,1.8-1.1,1.8c-0.6,0-1.1-0.8-1.1-1.8c0-1,0.5-1.8,1.1-1.8
								C717.8,183.9,718.3,184.8,718.3,185.8z"/>
						</g>
					</g>
					<g>
						<g>
							<path class="st4" d="M757.2,185.8c0,1-0.5,1.8-1.1,1.8c-0.6,0-1.1-0.8-1.1-1.8c0-1,0.5-1.8,1.1-1.8
								C756.7,183.9,757.2,184.8,757.2,185.8z"/>
						</g>
					</g>
					<g>
						<g>
							<ellipse class="st4" cx="761.2" cy="185.8" rx="1.1" ry="1.8"/>
						</g>
					</g>
					<g>
						<g>
							<ellipse class="st4" cx="722.2" cy="185.8" rx="1.1" ry="1.8"/>
						</g>
					</g>
					<g>
						<g>
							<ellipse class="st4" cx="746.9" cy="185.8" rx="1.1" ry="1.8"/>
						</g>
					</g>
					<g>
						<g>
							<path class="st1" d="M728.4,185.8c0,1-0.5,1.8-1.1,1.8c-0.6,0-1.1-0.8-1.1-1.8c0-1,0.5-1.8,1.1-1.8
								C727.9,183.9,728.4,184.8,728.4,185.8z"/>
						</g>
					</g>
					<g>
						<g>
							<path class="st1" d="M733.4,185.8c0,1-0.5,1.8-1.1,1.8c-0.6,0-1.1-0.8-1.1-1.8c0-1,0.5-1.8,1.1-1.8
								C732.9,183.9,733.4,184.8,733.4,185.8z"/>
						</g>
					</g>
					<g>
						<g>
							<ellipse class="st1" cx="742.5" cy="185.8" rx="1.1" ry="1.8"/>
						</g>
					</g>
					<g>
						<g>
							<path class="st1" d="M766.5,185.8c0,1-0.5,1.8-1.1,1.8c-0.6,0-1.1-0.8-1.1-1.8c0-1,0.5-1.8,1.1-1.8
								C766,183.9,766.5,184.8,766.5,185.8z"/>
						</g>
					</g>
					<g>
						<g>
							<ellipse class="st35" cx="737.3" cy="185.8" rx="1.1" ry="1.8"/>
						</g>
					</g>
					<g>
						<g>
							<path class="st35" d="M752.8,185.8c0,1-0.5,1.8-1.1,1.8c-0.6,0-1.1-0.8-1.1-1.8c0-1,0.5-1.8,1.1-1.8
								C752.3,183.9,752.8,184.8,752.8,185.8z"/>
						</g>
					</g>
				</g>
			</g>
			<g>
				<g>
					<rect x="671.1" y="207.2" class="st7" width="100.7" height="39.8"/>
				</g>
			</g>
			<g>
				<g>
					<g>
						<g>
							<ellipse class="st4" cx="701.9" cy="218" rx="1.1" ry="1.8"/>
						</g>
					</g>
					<g>
						<g>
							<path class="st4" d="M708.1,218c0,1-0.5,1.8-1.1,1.8c-0.6,0-1.1-0.8-1.1-1.8c0-1,0.5-1.8,1.1-1.8
								C707.5,216.1,708.1,217,708.1,218z"/>
						</g>
					</g>
					<g>
						<g>
							<ellipse class="st4" cx="711.9" cy="218" rx="1.1" ry="1.8"/>
						</g>
					</g>
					<g>
						<g>
							<path class="st4" d="M718.1,218c0,1-0.5,1.8-1.1,1.8c-0.6,0-1.1-0.8-1.1-1.8c0-1,0.5-1.8,1.1-1.8
								C717.6,216.1,718.1,217,718.1,218z"/>
						</g>
					</g>
					<g>
						<g>
							<path class="st4" d="M757,218c0,1-0.5,1.8-1.1,1.8c-0.6,0-1.1-0.8-1.1-1.8c0-1,0.5-1.8,1.1-1.8C756.5,216.1,757,217,757,218z
								"/>
						</g>
					</g>
					<g>
						<g>
							<ellipse class="st4" cx="761" cy="218" rx="1.1" ry="1.8"/>
						</g>
					</g>
					<g>
						<g>
							<ellipse class="st4" cx="722" cy="218" rx="1.1" ry="1.8"/>
						</g>
					</g>
					<g>
						<g>
							<ellipse class="st4" cx="746.6" cy="218" rx="1.1" ry="1.8"/>
						</g>
					</g>
					<g>
						<g>
							<path class="st1" d="M728.1,218c0,1-0.5,1.8-1.1,1.8c-0.6,0-1.1-0.8-1.1-1.8c0-1,0.5-1.8,1.1-1.8
								C727.6,216.1,728.1,217,728.1,218z"/>
						</g>
					</g>
					<g>
						<g>
							<ellipse class="st1" cx="732" cy="218" rx="1.1" ry="1.8"/>
						</g>
					</g>
					<g>
						<g>
							<ellipse class="st1" cx="742.2" cy="218" rx="1.1" ry="1.8"/>
						</g>
					</g>
					<g>
						<g>
							<path class="st1" d="M766.3,218c0,1-0.5,1.8-1.1,1.8S764,219,764,218c0-1,0.5-1.8,1.1-1.8S766.3,217,766.3,218z"/>
						</g>
					</g>
					<g>
						<g>
							<path class="st35" d="M738.2,218c0,1-0.5,1.8-1.1,1.8c-0.6,0-1.1-0.8-1.1-1.8c0-1,0.5-1.8,1.1-1.8
								C737.7,216.1,738.2,217,738.2,218z"/>
						</g>
					</g>
					<g>
						<g>
							<path class="st35" d="M752.6,218c0,1-0.5,1.8-1.1,1.8c-0.6,0-1.1-0.8-1.1-1.8c0-1,0.5-1.8,1.1-1.8
								C752,216.1,752.6,217,752.6,218z"/>
						</g>
					</g>
				</g>
				<g>
					<g>
						<g>
							<path class="st4" d="M764,226.7c0-1,0.5-1.8,1.1-1.8s1.1,0.8,1.1,1.8c0,1-0.5,1.8-1.1,1.8S764,227.7,764,226.7z"/>
						</g>
					</g>
					<g>
						<g>
							<path class="st4" d="M759,226.7c0-1,0.5-1.8,1.1-1.8c0.6,0,1.1,0.8,1.1,1.8c0,1-0.5,1.8-1.1,1.8
								C759.5,228.5,759,227.7,759,226.7z"/>
						</g>
					</g>
					<g>
						<g>
							<path class="st4" d="M754,226.7c0-1,0.5-1.8,1.1-1.8c0.6,0,1.1,0.8,1.1,1.8c0,1-0.5,1.8-1.1,1.8
								C754.5,228.5,754,227.7,754,226.7z"/>
						</g>
					</g>
					<g>
						<g>
							<path class="st4" d="M748.9,226.7c0-1,0.5-1.8,1.1-1.8c0.6,0,1.1,0.8,1.1,1.8c0,1-0.5,1.8-1.1,1.8
								C749.5,228.5,748.9,227.7,748.9,226.7z"/>
						</g>
					</g>
					<g>
						<g>
							<path class="st4" d="M710,226.7c0-1,0.5-1.8,1.1-1.8c0.6,0,1.1,0.8,1.1,1.8c0,1-0.5,1.8-1.1,1.8
								C710.6,228.5,710,227.7,710,226.7z"/>
						</g>
					</g>
					<g>
						<g>
							<path class="st4" d="M704.9,226.7c0-1,0.5-1.8,1.1-1.8c0.6,0,1.1,0.8,1.1,1.8c0,1-0.5,1.8-1.1,1.8
								C705.4,228.5,704.9,227.7,704.9,226.7z"/>
						</g>
					</g>
					<g>
						<g>
							<path class="st4" d="M743.9,226.7c0-1,0.5-1.8,1.1-1.8c0.6,0,1.1,0.8,1.1,1.8c0,1-0.5,1.8-1.1,1.8
								C744.4,228.5,743.9,227.7,743.9,226.7z"/>
						</g>
					</g>
					<g>
						<g>
							<path class="st4" d="M719.3,226.7c0-1,0.5-1.8,1.1-1.8c0.6,0,1.1,0.8,1.1,1.8c0,1-0.5,1.8-1.1,1.8
								C719.8,228.5,719.3,227.7,719.3,226.7z"/>
						</g>
					</g>
					<g>
						<g>
							<path class="st1" d="M738.9,226.7c0-1,0.5-1.8,1.1-1.8c0.6,0,1.1,0.8,1.1,1.8c0,1-0.5,1.8-1.1,1.8
								C739.4,228.5,738.9,227.7,738.9,226.7z"/>
						</g>
					</g>
					<g>
						<g>
							<path class="st1" d="M733.9,226.7c0-1,0.5-1.8,1.1-1.8c0.6,0,1.1,0.8,1.1,1.8c0,1-0.5,1.8-1.1,1.8
								C734.4,228.5,733.9,227.7,733.9,226.7z"/>
						</g>
					</g>
					<g>
						<g>
							<path class="st1" d="M723.7,226.7c0-1,0.5-1.8,1.1-1.8c0.6,0,1.1,0.8,1.1,1.8c0,1-0.5,1.8-1.1,1.8
								C724.2,228.5,723.7,227.7,723.7,226.7z"/>
						</g>
					</g>
					<g>
						<g>
							<path class="st1" d="M700.8,226.7c0-1,0.5-1.8,1.1-1.8c0.6,0,1.1,0.8,1.1,1.8c0,1-0.5,1.8-1.1,1.8
								C701.3,228.5,700.8,227.7,700.8,226.7z"/>
						</g>
					</g>
					<g>
						<g>
							<path class="st35" d="M728.9,226.7c0-1,0.5-1.8,1.1-1.8c0.6,0,1.1,0.8,1.1,1.8c0,1-0.5,1.8-1.1,1.8
								C729.4,228.5,728.9,227.7,728.9,226.7z"/>
						</g>
					</g>
					<g>
						<g>
							<path class="st35" d="M714.5,226.7c0-1,0.5-1.8,1.1-1.8c0.6,0,1.1,0.8,1.1,1.8c0,1-0.5,1.8-1.1,1.8
								C715,228.5,714.5,227.7,714.5,226.7z"/>
						</g>
					</g>
				</g>
				<g>
					<g>
						<g>
							<path class="st4" d="M703,234.4c0,1-0.5,1.8-1.1,1.8c-0.6,0-1.1-0.8-1.1-1.8c0-1,0.5-1.8,1.1-1.8
								C702.5,232.6,703,233.4,703,234.4z"/>
						</g>
					</g>
					<g>
						<g>
							<path class="st4" d="M708.1,234.4c0,1-0.5,1.8-1.1,1.8c-0.6,0-1.1-0.8-1.1-1.8c0-1,0.5-1.8,1.1-1.8
								C707.5,232.6,708.1,233.4,708.1,234.4z"/>
						</g>
					</g>
					<g>
						<g>
							<path class="st4" d="M713.1,234.4c0,1-0.5,1.8-1.1,1.8c-0.6,0-1.1-0.8-1.1-1.8c0-1,0.5-1.8,1.1-1.8
								C712.6,232.6,713.1,233.4,713.1,234.4z"/>
						</g>
					</g>
					<g>
						<g>
							<path class="st4" d="M718.1,234.4c0,1-0.5,1.8-1.1,1.8c-0.6,0-1.1-0.8-1.1-1.8c0-1,0.5-1.8,1.1-1.8
								C717.6,232.6,718.1,233.4,718.1,234.4z"/>
						</g>
					</g>
					<g>
						<g>
							<path class="st4" d="M757,234.4c0,1-0.5,1.8-1.1,1.8c-0.6,0-1.1-0.8-1.1-1.8c0-1,0.5-1.8,1.1-1.8
								C756.5,232.6,757,233.4,757,234.4z"/>
						</g>
					</g>
					<g>
						<g>
							<path class="st4" d="M762.1,234.4c0,1-0.5,1.8-1.1,1.8c-0.6,0-1.1-0.8-1.1-1.8c0-1,0.5-1.8,1.1-1.8
								C761.6,232.6,762.1,233.4,762.1,234.4z"/>
						</g>
					</g>
					<g>
						<g>
							<path class="st4" d="M723.1,234.4c0,1-0.5,1.8-1.1,1.8c-0.6,0-1.1-0.8-1.1-1.8c0-1,0.5-1.8,1.1-1.8
								C722.6,232.6,723.1,233.4,723.1,234.4z"/>
						</g>
					</g>
					<g>
						<g>
							<path class="st4" d="M747.8,234.4c0,1-0.5,1.8-1.1,1.8c-0.6,0-1.1-0.8-1.1-1.8c0-1,0.5-1.8,1.1-1.8
								C747.3,232.6,747.8,233.4,747.8,234.4z"/>
						</g>
					</g>
					<g>
						<g>
							<path class="st1" d="M728.1,234.4c0,1-0.5,1.8-1.1,1.8c-0.6,0-1.1-0.8-1.1-1.8c0-1,0.5-1.8,1.1-1.8
								C727.6,232.6,728.1,233.4,728.1,234.4z"/>
						</g>
					</g>
					<g>
						<g>
							<path class="st1" d="M733.2,234.4c0,1-0.5,1.8-1.1,1.8c-0.6,0-1.1-0.8-1.1-1.8c0-1,0.5-1.8,1.1-1.8
								C732.6,232.6,733.2,233.4,733.2,234.4z"/>
						</g>
					</g>
					<g>
						<g>
							<path class="st1" d="M743.3,234.4c0,1-0.5,1.8-1.1,1.8c-0.6,0-1.1-0.8-1.1-1.8c0-1,0.5-1.8,1.1-1.8
								C742.8,232.6,743.3,233.4,743.3,234.4z"/>
						</g>
					</g>
					<g>
						<g>
							<path class="st1" d="M766.3,234.4c0,1-0.5,1.8-1.1,1.8s-1.1-0.8-1.1-1.8c0-1,0.5-1.8,1.1-1.8S766.3,233.4,766.3,234.4z"/>
						</g>
					</g>
					<g>
						<g>
							<path class="st35" d="M738.2,234.4c0,1-0.5,1.8-1.1,1.8c-0.6,0-1.1-0.8-1.1-1.8c0-1,0.5-1.8,1.1-1.8
								C737.7,232.6,738.2,233.4,738.2,234.4z"/>
						</g>
					</g>
					<g>
						<g>
							<path class="st35" d="M752.6,234.4c0,1-0.5,1.8-1.1,1.8c-0.6,0-1.1-0.8-1.1-1.8c0-1,0.5-1.8,1.1-1.8
								C752,232.6,752.6,233.4,752.6,234.4z"/>
						</g>
					</g>
				</g>
			</g>
			<g>
				<g>
					<rect x="675.6" y="215.4" class="st4" width="19.8" height="4.9"/>
				</g>
			</g>
			<g>
				<g>
					<rect x="675.6" y="223.8" class="st4" width="19.8" height="4.9"/>
				</g>
			</g>
			<g>
				<g>
					<rect x="675.6" y="232.4" class="st4" width="19.8" height="4.9"/>
				</g>
			</g>
		</g>
		<g>
			<g>
				<polygon class="st4" points="787,197.8 771.9,197.9 771.9,158.1 787,158.1 				"/>
			</g>
		</g>
		<g>
			<g>
				<polygon class="st4" points="787,149.5 771.9,149.5 771.9,109.8 787,109.7 				"/>
			</g>
		</g>
		<g>
			<g>
				<polygon class="st4" points="787,246.6 771.9,246.7 771.9,206.9 787,206.8 				"/>
			</g>
		</g>
	</g>
	<g>
		<g>
			<rect x="671.9" y="109.4" class="st7" width="100.7" height="39.8"/>
		</g>
	</g>
	<g>
		<g>
			<rect x="676.3" y="117.6" class="st4" width="19.8" height="4.9"/>
		</g>
	</g>
	<g>
		<g>
			<rect x="676.3" y="125.9" class="st4" width="19.8" height="4.9"/>
		</g>
	</g>
	<g>
		<g>
			<rect x="676.3" y="134.6" class="st4" width="19.8" height="4.9"/>
		</g>
	</g>
	<g>
		<g>
			<g>
				<g>
					<path class="st4" d="M704,120.5c0,1-0.5,1.8-1.1,1.8c-0.6,0-1.1-0.8-1.1-1.8s0.5-1.8,1.1-1.8C703.5,118.7,704,119.5,704,120.5z
						"/>
				</g>
			</g>
			<g>
				<g>
					<ellipse class="st4" cx="707.9" cy="120.5" rx="1.1" ry="1.8"/>
				</g>
			</g>
			<g>
				<g>
					<path class="st4" d="M714.1,120.5c0,1-0.5,1.8-1.1,1.8c-0.6,0-1.1-0.8-1.1-1.8s0.5-1.8,1.1-1.8
						C713.5,118.7,714.1,119.5,714.1,120.5z"/>
				</g>
			</g>
			<g>
				<g>
					<ellipse class="st4" cx="717.9" cy="120.5" rx="1.1" ry="1.8"/>
				</g>
			</g>
			<g>
				<g>
					<path class="st4" d="M758,120.5c0,1-0.5,1.8-1.1,1.8c-0.6,0-1.1-0.8-1.1-1.8s0.5-1.8,1.1-1.8C757.5,118.7,758,119.5,758,120.5z
						"/>
				</g>
			</g>
			<g>
				<g>
					<ellipse class="st4" cx="762" cy="120.5" rx="1.1" ry="1.8"/>
				</g>
			</g>
			<g>
				<g>
					<path class="st4" d="M724.1,120.5c0,1-0.5,1.8-1.1,1.8c-0.6,0-1.1-0.8-1.1-1.8s0.5-1.8,1.1-1.8
						C723.6,118.7,724.1,119.5,724.1,120.5z"/>
				</g>
			</g>
			<g>
				<g>
					<ellipse class="st4" cx="747.6" cy="120.5" rx="1.1" ry="1.8"/>
				</g>
			</g>
			<g>
				<g>
					<path class="st1" d="M729.1,120.5c0,1-0.5,1.8-1.1,1.8c-0.6,0-1.1-0.8-1.1-1.8s0.5-1.8,1.1-1.8
						C728.6,118.7,729.1,119.5,729.1,120.5z"/>
				</g>
			</g>
			<g>
				<g>
					<path class="st1" d="M734.1,120.5c0,1-0.5,1.8-1.1,1.8c-0.6,0-1.1-0.8-1.1-1.8s0.5-1.8,1.1-1.8
						C733.6,118.7,734.1,119.5,734.1,120.5z"/>
				</g>
			</g>
			<g>
				<g>
					<path class="st1" d="M744.3,120.5c0,1-0.5,1.8-1.1,1.8c-0.6,0-1.1-0.8-1.1-1.8s0.5-1.8,1.1-1.8
						C743.8,118.7,744.3,119.5,744.3,120.5z"/>
				</g>
			</g>
			<g>
				<g>
					<path class="st1" d="M767.3,120.5c0,1-0.5,1.8-1.1,1.8c-0.6,0-1.1-0.8-1.1-1.8s0.5-1.8,1.1-1.8
						C766.8,118.7,767.3,119.5,767.3,120.5z"/>
				</g>
			</g>
			<g>
				<g>
					<path class="st35" d="M739.2,120.5c0,1-0.5,1.8-1.1,1.8c-0.6,0-1.1-0.8-1.1-1.8s0.5-1.8,1.1-1.8
						C738.6,118.7,739.2,119.5,739.2,120.5z"/>
				</g>
			</g>
			<g>
				<g>
					<ellipse class="st35" cx="752.4" cy="120.5" rx="1.1" ry="1.8"/>
				</g>
			</g>
		</g>
		<g>
			<g>
				<g>
					<path class="st4" d="M765,129.3c0-1,0.5-1.8,1.1-1.8c0.6,0,1.1,0.8,1.1,1.8s-0.5,1.8-1.1,1.8C765.5,131.1,765,130.3,765,129.3z
						"/>
				</g>
			</g>
			<g>
				<g>
					<path class="st4" d="M760,129.3c0-1,0.5-1.8,1.1-1.8c0.6,0,1.1,0.8,1.1,1.8s-0.5,1.8-1.1,1.8C760.5,131.1,760,130.3,760,129.3z
						"/>
				</g>
			</g>
			<g>
				<g>
					<path class="st4" d="M754.9,129.3c0-1,0.5-1.8,1.1-1.8c0.6,0,1.1,0.8,1.1,1.8s-0.5,1.8-1.1,1.8
						C755.5,131.1,754.9,130.3,754.9,129.3z"/>
				</g>
			</g>
			<g>
				<g>
					<path class="st4" d="M749.9,129.3c0-1,0.5-1.8,1.1-1.8c0.6,0,1.1,0.8,1.1,1.8s-0.5,1.8-1.1,1.8
						C750.4,131.1,749.9,130.3,749.9,129.3z"/>
				</g>
			</g>
			<g>
				<g>
					<path class="st4" d="M711,129.3c0-1,0.5-1.8,1.1-1.8c0.6,0,1.1,0.8,1.1,1.8s-0.5,1.8-1.1,1.8C711.5,131.1,711,130.3,711,129.3z
						"/>
				</g>
			</g>
			<g>
				<g>
					<path class="st4" d="M705.9,129.3c0-1,0.5-1.8,1.1-1.8c0.6,0,1.1,0.8,1.1,1.8s-0.5,1.8-1.1,1.8
						C706.4,131.1,705.9,130.3,705.9,129.3z"/>
				</g>
			</g>
			<g>
				<g>
					<path class="st4" d="M744.9,129.3c0-1,0.5-1.8,1.1-1.8c0.6,0,1.1,0.8,1.1,1.8s-0.5,1.8-1.1,1.8
						C745.4,131.1,744.9,130.3,744.9,129.3z"/>
				</g>
			</g>
			<g>
				<g>
					<path class="st4" d="M720.3,129.3c0-1,0.5-1.8,1.1-1.8c0.6,0,1.1,0.8,1.1,1.8s-0.5,1.8-1.1,1.8
						C720.8,131.1,720.3,130.3,720.3,129.3z"/>
				</g>
			</g>
			<g>
				<g>
					<path class="st1" d="M739.9,129.3c0-1,0.5-1.8,1.1-1.8c0.6,0,1.1,0.8,1.1,1.8s-0.5,1.8-1.1,1.8
						C740.4,131.1,739.9,130.3,739.9,129.3z"/>
				</g>
			</g>
			<g>
				<g>
					<path class="st1" d="M734.9,129.3c0-1,0.5-1.8,1.1-1.8c0.6,0,1.1,0.8,1.1,1.8s-0.5,1.8-1.1,1.8
						C735.4,131.1,734.9,130.3,734.9,129.3z"/>
				</g>
			</g>
			<g>
				<g>
					<path class="st1" d="M724.7,129.3c0-1,0.5-1.8,1.1-1.8c0.6,0,1.1,0.8,1.1,1.8s-0.5,1.8-1.1,1.8
						C725.2,131.1,724.7,130.3,724.7,129.3z"/>
				</g>
			</g>
			<g>
				<g>
					<path class="st1" d="M701.7,129.3c0-1,0.5-1.8,1.1-1.8c0.6,0,1.1,0.8,1.1,1.8s-0.5,1.8-1.1,1.8
						C702.2,131.1,701.7,130.3,701.7,129.3z"/>
				</g>
			</g>
			<g>
				<g>
					<path class="st35" d="M729.8,129.3c0-1,0.5-1.8,1.1-1.8c0.6,0,1.1,0.8,1.1,1.8s-0.5,1.8-1.1,1.8
						C730.4,131.1,729.8,130.3,729.8,129.3z"/>
				</g>
			</g>
			<g>
				<g>
					<path class="st35" d="M715.5,129.3c0-1,0.5-1.8,1.1-1.8c0.6,0,1.1,0.8,1.1,1.8s-0.5,1.8-1.1,1.8
						C716,131.1,715.5,130.3,715.5,129.3z"/>
				</g>
			</g>
		</g>
		<g>
			<g>
				<g>
					<path class="st4" d="M704,137c0,1-0.5,1.8-1.1,1.8c-0.6,0-1.1-0.8-1.1-1.8c0-1,0.5-1.8,1.1-1.8C703.5,135.2,704,136,704,137z"
						/>
				</g>
			</g>
			<g>
				<g>
					<path class="st4" d="M709,137c0,1-0.5,1.8-1.1,1.8c-0.6,0-1.1-0.8-1.1-1.8c0-1,0.5-1.8,1.1-1.8C708.5,135.2,709,136,709,137z"
						/>
				</g>
			</g>
			<g>
				<g>
					<path class="st4" d="M714.1,137c0,1-0.5,1.8-1.1,1.8c-0.6,0-1.1-0.8-1.1-1.8c0-1,0.5-1.8,1.1-1.8
						C713.5,135.2,714.1,136,714.1,137z"/>
				</g>
			</g>
			<g>
				<g>
					<path class="st4" d="M719.1,137c0,1-0.5,1.8-1.1,1.8c-0.6,0-1.1-0.8-1.1-1.8c0-1,0.5-1.8,1.1-1.8
						C718.6,135.2,719.1,136,719.1,137z"/>
				</g>
			</g>
			<g>
				<g>
					<path class="st4" d="M758,137c0,1-0.5,1.8-1.1,1.8c-0.6,0-1.1-0.8-1.1-1.8c0-1,0.5-1.8,1.1-1.8C757.5,135.2,758,136,758,137z"
						/>
				</g>
			</g>
			<g>
				<g>
					<path class="st4" d="M763.1,137c0,1-0.5,1.8-1.1,1.8c-0.6,0-1.1-0.8-1.1-1.8c0-1,0.5-1.8,1.1-1.8
						C762.6,135.2,763.1,136,763.1,137z"/>
				</g>
			</g>
			<g>
				<g>
					<path class="st4" d="M724.1,137c0,1-0.5,1.8-1.1,1.8c-0.6,0-1.1-0.8-1.1-1.8c0-1,0.5-1.8,1.1-1.8
						C723.6,135.2,724.1,136,724.1,137z"/>
				</g>
			</g>
			<g>
				<g>
					<path class="st4" d="M748.7,137c0,1-0.5,1.8-1.1,1.8c-0.6,0-1.1-0.8-1.1-1.8c0-1,0.5-1.8,1.1-1.8
						C748.2,135.2,748.7,136,748.7,137z"/>
				</g>
			</g>
			<g>
				<g>
					<path class="st1" d="M729.1,137c0,1-0.5,1.8-1.1,1.8c-0.6,0-1.1-0.8-1.1-1.8c0-1,0.5-1.8,1.1-1.8
						C728.6,135.2,729.1,136,729.1,137z"/>
				</g>
			</g>
			<g>
				<g>
					<path class="st1" d="M734.1,137c0,1-0.5,1.8-1.1,1.8c-0.6,0-1.1-0.8-1.1-1.8c0-1,0.5-1.8,1.1-1.8
						C733.6,135.2,734.1,136,734.1,137z"/>
				</g>
			</g>
			<g>
				<g>
					<path class="st1" d="M744.3,137c0,1-0.5,1.8-1.1,1.8c-0.6,0-1.1-0.8-1.1-1.8c0-1,0.5-1.8,1.1-1.8
						C743.8,135.2,744.3,136,744.3,137z"/>
				</g>
			</g>
			<g>
				<g>
					<path class="st1" d="M767.3,137c0,1-0.5,1.8-1.1,1.8c-0.6,0-1.1-0.8-1.1-1.8c0-1,0.5-1.8,1.1-1.8
						C766.8,135.2,767.3,136,767.3,137z"/>
				</g>
			</g>
			<g>
				<g>
					<path class="st35" d="M739.2,137c0,1-0.5,1.8-1.1,1.8c-0.6,0-1.1-0.8-1.1-1.8c0-1,0.5-1.8,1.1-1.8
						C738.6,135.2,739.2,136,739.2,137z"/>
				</g>
			</g>
			<g>
				<g>
					<path class="st35" d="M753.5,137c0,1-0.5,1.8-1.1,1.8c-0.6,0-1.1-0.8-1.1-1.8c0-1,0.5-1.8,1.1-1.8
						C753,135.2,753.5,136,753.5,137z"/>
				</g>
			</g>
		</g>
	</g>
</g>
<text transform="matrix(1 0 0 1 69.1738 345.4785)" class="st36 st37">THIN CLIENT</text>
<text transform="matrix(1 0 0 1 553.75 345.0876)" class="st36 st37">CELLULAR NETWORK</text>
<text transform="matrix(1 0 0 1 1172.4946 345.0872)"><tspan x="0" y="0" class="st36 st37">CLOUD GAMING</tspan><tspan x="0" y="21.6" class="st36 st37">        SERVER</tspan></text>
<text transform="matrix(1 0 0 1 341.3911 104.1738)" class="st36 st37">CPE</text>
<text transform="matrix(1 0 0 1 825.5215 206.2173)" class="st36 st38">INTERNET</text>
</svg>
