<?xml version="1.0" encoding="utf-8"?>
<!-- Generator: Adobe Illustrator 24.0.2, SVG Export Plug-In . SVG Version: 6.00 Build 0)  -->
<svg version="1.1" xmlns="http://www.w3.org/2000/svg" xmlns:xlink="http://www.w3.org/1999/xlink" x="0px" y="0px"
	 viewBox="0 0 750 500" style="enable-background:new 0 0 750 500;" xml:space="preserve">
<style type="text/css">
	.st0{fill:url(#SVGID_1_);}
	.st1{fill:#FFFFFF;stroke:#CCE9F8;stroke-miterlimit:10;}
	.st2{fill:none;stroke:#CCE9F8;stroke-miterlimit:10;}
	.st3{clip-path:url(#SVGID_3_);}
	.st4{fill:#493435;}
	.st5{fill:#473DB1;}
	.st6{opacity:0.11;fill:#473DB1;}
	.st7{fill:url(#SVGID_4_);}
	.st8{fill:url(#SVGID_5_);}
	.st9{fill:url(#SVGID_6_);}
	.st10{fill:none;stroke:url(#SVGID_7_);stroke-miterlimit:10;}
	.st11{opacity:0.51;fill:#473DB1;}
	.st12{font-family:'Montserrat-Black';}
	.st13{font-size:25.0371px;}
	.st14{fill:#FFFFFF;}
	.st15{fill:none;stroke:#CBE8F8;stroke-miterlimit:10;}
	.st16{fill:#51B8F4;stroke:#CBE8F8;stroke-miterlimit:10;}
	.st17{fill:url(#SVGID_8_);}
	.st18{fill:url(#SVGID_9_);}
	.st19{fill:url(#SVGID_10_);}
	.st20{fill:url(#SVGID_11_);}
	.st21{fill:url(#SVGID_12_);}
	.st22{fill:url(#SVGID_13_);}
	.st23{fill:url(#SVGID_14_);}
	.st24{fill:url(#SVGID_15_);}
	.st25{clip-path:url(#SVGID_17_);}
	.st26{fill:url(#SVGID_18_);}
	.st27{fill:url(#SVGID_19_);}
	.st28{fill:url(#SVGID_20_);}
	.st29{fill:url(#SVGID_21_);}
	.st30{fill:url(#SVGID_22_);}
	.st31{fill:url(#SVGID_23_);}
	.st32{fill:url(#SVGID_24_);}
	.st33{fill:url(#SVGID_25_);}
	.st34{fill:url(#SVGID_26_);}
	.st35{clip-path:url(#SVGID_28_);}
	.st36{fill:url(#SVGID_29_);}
	.st37{fill:none;stroke:url(#SVGID_30_);stroke-miterlimit:10;}
	.st38{fill:url(#SVGID_31_);}
	.st39{font-size:21.9306px;}
	.st40{opacity:0.14;}
	.st41{opacity:0.32;}
	.st42{font-size:19px;}
	.st43{font-size:17px;}
	.st44{fill:url(#SVGID_32_);}
	.st45{fill:url(#SVGID_33_);}
	.st46{fill:url(#SVGID_34_);}
	.st47{fill:none;stroke:url(#SVGID_35_);stroke-miterlimit:10;}
	.st48{fill:none;stroke:url(#SVGID_36_);stroke-miterlimit:10;}
	.st49{fill:url(#SVGID_37_);}
	.st50{fill:url(#SVGID_38_);}
	.st51{fill:url(#SVGID_39_);}
	.st52{fill:none;stroke:url(#SVGID_40_);stroke-miterlimit:10;}
	.st53{fill:none;stroke:url(#SVGID_41_);stroke-miterlimit:10;}
	.st54{fill:url(#SVGID_42_);}
	.st55{fill:url(#SVGID_43_);}
	.st56{fill:url(#SVGID_44_);}
	.st57{fill:url(#SVGID_45_);}
	.st58{fill:url(#SVGID_46_);}
	.st59{fill:url(#SVGID_47_);}
	.st60{fill:url(#SVGID_48_);}
	.st61{fill:url(#SVGID_49_);}
	.st62{fill:url(#SVGID_50_);}
	.st63{fill:url(#SVGID_51_);}
	.st64{fill:url(#SVGID_52_);}
	.st65{fill:url(#SVGID_53_);}
	.st66{fill:url(#SVGID_54_);}
	.st67{fill:url(#SVGID_55_);}
	.st68{fill:none;stroke:url(#SVGID_56_);stroke-width:2;stroke-miterlimit:10;}
	.st69{fill:url(#SVGID_57_);}
	.st70{fill:url(#SVGID_58_);}
	.st71{fill:url(#SVGID_59_);}
	.st72{fill:url(#SVGID_60_);}
	.st73{fill:none;stroke:url(#SVGID_61_);stroke-miterlimit:10;}
	.st74{fill:none;stroke:url(#SVGID_62_);stroke-miterlimit:10;}
	.st75{fill:url(#SVGID_63_);}
	.st76{fill:none;stroke:url(#SVGID_64_);stroke-miterlimit:10;}
	.st77{opacity:0.82;}
	.st78{font-size:12.3404px;}
	.st79{fill:#FAFAFA;}
	.st80{fill:#F5F5F5;}
	.st81{fill:#E0E0E0;}
	.st82{fill:#EBEBEB;}
	.st83{fill:#263238;}
	.st84{fill:#EAA8A7;}
	.st85{fill:#37474F;}
	.st86{fill:#455A64;}
	.st87{fill:#F0F0F0;}
	.st88{fill:#7DDEBF;}
	.st89{opacity:0.1;}
	.st90{fill:#E68F8F;}
	.st91{opacity:0.4;fill:#FFFFFF;}
	.st92{opacity:0.2;}
	.st93{fill:#E6E6E6;}
	.st94{opacity:0.75;}
</style>
<g id="BACKGROUND">
	<radialGradient id="SVGID_1_" cx="361.7783" cy="270.0345" r="467.2079" gradientUnits="userSpaceOnUse">
		<stop  offset="0" style="stop-color:#51B8F4"/>
		<stop  offset="0.1158" style="stop-color:#50B0F0"/>
		<stop  offset="0.2959" style="stop-color:#4F9AE4"/>
		<stop  offset="0.5176" style="stop-color:#4C76D0"/>
		<stop  offset="0.7704" style="stop-color:#4845B5"/>
		<stop  offset="0.8066" style="stop-color:#473DB1"/>
	</radialGradient>
	<rect class="st0" width="750" height="500"/>
	<g>
		<g>
			<rect x="98.5" y="47.1" class="st1" width="99.5" height="128.2"/>
			<rect x="86.7" y="31.9" class="st2" width="123.1" height="158.7"/>
			<line class="st2" x1="197.9" y1="47.1" x2="209.8" y2="31.9"/>
			<line class="st2" x1="197.9" y1="175.3" x2="209.8" y2="190.6"/>
			<line class="st2" x1="86.7" y1="190.6" x2="98.5" y2="175.3"/>
			<line class="st2" x1="86.7" y1="31.9" x2="98.5" y2="47.1"/>
		</g>
		<g>
			<rect x="552.1" y="47.1" class="st1" width="99.5" height="128.2"/>
			<rect x="540.2" y="31.9" class="st2" width="123.1" height="158.7"/>
			<line class="st2" x1="651.5" y1="47.1" x2="663.3" y2="31.9"/>
			<line class="st2" x1="651.5" y1="175.3" x2="663.3" y2="190.6"/>
			<line class="st2" x1="540.2" y1="190.6" x2="552.1" y2="175.3"/>
			<line class="st2" x1="540.2" y1="31.9" x2="552.1" y2="47.1"/>
		</g>
		<g>
			<rect x="448.2" y="177.5" class="st1" width="69.2" height="106"/>
			<rect x="440" y="166.9" class="st2" width="85.6" height="127.2"/>
			<line class="st2" x1="517.4" y1="177.5" x2="525.6" y2="166.9"/>
			<line class="st2" x1="517.4" y1="283.4" x2="525.6" y2="294"/>
			<line class="st2" x1="440" y1="294" x2="448.2" y2="283.4"/>
			<line class="st2" x1="440" y1="166.9" x2="448.2" y2="177.5"/>
		</g>
		<g>
			<rect x="448.2" y="42.5" class="st1" width="69.2" height="106"/>
			<rect x="440" y="31.9" class="st2" width="85.6" height="127.2"/>
			<line class="st2" x1="517.4" y1="42.5" x2="525.6" y2="31.9"/>
			<line class="st2" x1="517.4" y1="148.4" x2="525.6" y2="159"/>
			<line class="st2" x1="440" y1="159" x2="448.2" y2="148.4"/>
			<line class="st2" x1="440" y1="31.9" x2="448.2" y2="42.5"/>
		</g>
		<g>
			
				<rect x="195.2" y="201.1" transform="matrix(-1.836970e-16 1 -1 -1.836970e-16 480.9309 13.8359)" class="st1" width="76.6" height="92.5"/>
			
				<rect x="186.1" y="190.1" transform="matrix(-1.836970e-16 1 -1 -1.836970e-16 480.931 13.8358)" class="st2" width="94.8" height="114.5"/>
			<line class="st2" x1="279.8" y1="285.7" x2="290.8" y2="294.8"/>
			<line class="st2" x1="187.3" y1="285.7" x2="176.3" y2="294.8"/>
			<line class="st2" x1="176.3" y1="200" x2="187.3" y2="209.1"/>
			<line class="st2" x1="290.8" y1="200" x2="279.8" y2="209.1"/>
		</g>
		<g>
			
				<rect x="324.6" y="201.1" transform="matrix(-1.836970e-16 1 -1 -1.836970e-16 610.3437 -115.5769)" class="st1" width="76.6" height="92.5"/>
			
				<rect x="315.5" y="190.1" transform="matrix(-1.836970e-16 1 -1 -1.836970e-16 610.3438 -115.577)" class="st2" width="94.8" height="114.5"/>
			<line class="st2" x1="409.2" y1="285.7" x2="420.2" y2="294.8"/>
			<line class="st2" x1="316.7" y1="285.7" x2="305.7" y2="294.8"/>
			<line class="st2" x1="305.7" y1="200" x2="316.7" y2="209.1"/>
			<line class="st2" x1="420.2" y1="200" x2="409.2" y2="209.1"/>
		</g>
		<g>
			
				<rect x="261.3" y="30.3" transform="matrix(-1.836970e-16 1 -1 -1.836970e-16 435.2805 -212.867)" class="st1" width="125.5" height="161.8"/>
			
				<rect x="246.4" y="11.1" transform="matrix(-1.836970e-16 1 -1 -1.836970e-16 435.2805 -212.867)" class="st2" width="155.4" height="200.3"/>
			<line class="st2" x1="405" y1="174" x2="424.2" y2="188.9"/>
			<line class="st2" x1="243.2" y1="174" x2="223.9" y2="188.9"/>
			<line class="st2" x1="223.9" y1="33.5" x2="243.2" y2="48.4"/>
			<line class="st2" x1="424.2" y1="33.5" x2="405" y2="48.4"/>
		</g>
		<g>
			<g>
				<g>
					<g>
						<path class="st2" d="M280.3,105.9l-6.4,0.1l0.1,6.4l-5.1,0l-0.1-6.4l-6.4,0.1l0-5.1l6.4-0.1l-0.1-6.4l5.1,0l0.1,6.4l6.4-0.1
							L280.3,105.9L280.3,105.9z M299,92.5c2,0,3.6,1.6,3.7,3.6c0,2-1.6,3.6-3.6,3.7c-2,0-3.6-1.6-3.7-3.6
							C295.4,94.1,297,92.5,299,92.5z M292,106.9c-2,0-3.6-1.6-3.7-3.6c0-2,1.6-3.6,3.6-3.7c2,0,3.6,1.6,3.7,3.6
							C295.7,105.3,294,106.9,292,106.9z M299.2,114c-2,0-3.6-1.6-3.7-3.6c0-2,1.6-3.6,3.6-3.7c2,0,3.6,1.6,3.7,3.6
							C302.8,112.3,301.2,113.9,299.2,114z M306.2,106.8c-2,0-3.6-1.6-3.7-3.6c0-2,1.6-3.6,3.6-3.7c2,0,3.6,1.6,3.7,3.6
							C309.9,105.1,308.3,106.8,306.2,106.8z"/>
					</g>
				</g>
				<g>
					<path class="st2" d="M261.5,126.3c-3.9-1.6-6.7-5.6-6.7-10.1l-0.1-11.4c0-0.2,0-0.4,0-0.6l0-0.2c0-0.1,0-0.3,0-0.4
						c-0.1-9.1,7.2-16.6,16.3-16.8c0,0,0.1,0,0.1,0l28-0.2c0,0,0.1,0,0.1,0c9.1,0,16.5,7.4,16.6,16.5c0,0,0,0,0,0c0,0.2,0,0.3,0,0.5
						l0,0.2c0,0.2,0,0.3,0,0.5l0.1,11.4c0.1,5.7-4.2,10.6-9.8,11c-5,0.4-9.5-2.6-11.1-7.3c-0.4-0.1-0.8-0.2-1.2-0.3
						c-5.5-1.8-11.6-1.8-17,0.1c-0.4,0.1-0.8,0.3-1.2,0.4c-1.5,4.7-5.9,7.8-10.9,7.5C263.6,127,262.5,126.7,261.5,126.3z M271.2,89
						C271.2,89,271.2,89,271.2,89c-8,0.1-14.4,6.7-14.3,14.6c0,0.1,0,0.2,0,0.3l0,0.3c0,0,0,0.1,0,0.1l0,0.1c0,0.1,0,0.3,0,0.4
						l0.1,11.4c0,4.6,3.5,8.4,7.9,8.7c4.1,0.3,7.8-2.4,8.8-6.5c0.1-0.4,0.4-0.7,0.8-0.8c0.5-0.1,1.1-0.3,1.6-0.5
						c5.9-2.1,12.5-2.1,18.5-0.2c0.5,0.2,1,0.3,1.6,0.4c0.4,0.1,0.7,0.4,0.8,0.8c1,4,4.8,6.7,8.9,6.3c4.4-0.4,7.8-4.2,7.7-8.8
						l-0.1-11.4c0-0.1,0-0.2,0-0.4l0-0.2c0,0,0-0.1,0-0.1l0-0.2c0-0.1,0-0.2,0-0.3c-0.1-7.9-6.6-14.3-14.5-14.3c0,0-0.1,0-0.1,0
						L271.2,89z"/>
				</g>
			</g>
			<g>
				<g>
					<path class="st2" d="M503.7,219.7c-4,1.5-9.4-5-11.4-7.7l-18.5-0.5c-2.2,2.7-8.1,9.1-12,7l0,0c-4.5-2.4-1.8-14.6,2.1-22
						c1.9-3.7,4-5.9,6.3-6.9c2-0.9,4.2-0.6,6.5,0.5c1.1,0.6,2,1.3,2.7,2.1l8.6,0.2c0.7-0.8,1.7-1.4,2.8-1.9c2.3-1.1,4.5-1.1,6.5-0.2
						c2.3,1.1,4.2,3.4,5.9,7.2c3.5,7.6,5.6,20,0.9,22.1C503.8,219.7,503.8,219.7,503.7,219.7z M472.9,209.3c0.1,0,0.3-0.1,0.4-0.1
						l19.6,0.5c0.3,0,0.7,0.2,0.9,0.5c4,5.6,7.7,8,9.2,7.4c0,0,0,0,0.1,0c2.6-1.2,1.5-11.6-2-19.2c-1.5-3.2-3.1-5.3-4.8-6.1
						c-1.4-0.6-2.9-0.6-4.6,0.2c-1,0.5-1.8,1-2.4,1.7c-0.2,0.3-0.5,0.4-0.9,0.4l-9.6-0.3c-0.3,0-0.7-0.2-0.9-0.5
						c-0.5-0.7-1.3-1.3-2.3-1.9c-1.7-0.9-3.2-1-4.6-0.5c-1.8,0.7-3.5,2.7-5.2,5.8c-3.9,7.4-5.5,17.8-3,19.1c1.4,0.7,5.2-1.5,9.6-6.9
						C472.5,209.5,472.7,209.4,472.9,209.3z"/>
				</g>
				<g>
					<path class="st2" d="M489,202.2l0-1.8c0-0.3,0.3-0.5,0.6-0.5l2.6,0.1l0.1-2.7c0-0.3,0.3-0.5,0.6-0.5l0.9,0l0.9,0
						c0.3,0,0.5,0.3,0.5,0.6l-0.1,2.7l2.6,0.1c0.3,0,0.5,0.3,0.5,0.6l0,1.8c0,0.3-0.3,0.5-0.6,0.5l-2.6-0.1l-0.1,2.7
						c0,0.3-0.3,0.5-0.6,0.5l-0.9,0l-0.9,0c-0.3,0-0.5-0.3-0.5-0.6l0.1-2.7l-2.6-0.1C489.2,202.8,489,202.5,489,202.2L489,202.2z
						 M473.7,195.5c0.9,0,1.7,0.8,1.6,1.7c0,0.9-0.8,1.7-1.7,1.6c-0.9,0-1.7-0.8-1.6-1.7C472,196.3,472.8,195.5,473.7,195.5z
						 M475.4,200.8c0-0.9,0.8-1.7,1.7-1.6c0.9,0,1.7,0.8,1.6,1.7c0,0.9-0.8,1.7-1.7,1.6C476.1,202.5,475.4,201.7,475.4,200.8z
						 M468.4,200.6c0-0.9,0.8-1.7,1.7-1.6c0.9,0,1.7,0.8,1.6,1.7c0,0.9-0.8,1.7-1.7,1.6C469.1,202.3,468.4,201.5,468.4,200.6z
						 M471.8,204.1c0-0.9,0.8-1.7,1.7-1.6c0.9,0,1.7,0.8,1.6,1.7c0,0.9-0.8,1.7-1.7,1.6C472.5,205.8,471.8,205.1,471.8,204.1z"/>
				</g>
			</g>
			<g>
				<g>
					<g>
						<path class="st2" d="M495.8,83.9c0-0.4,0.4-0.8,0.8-0.7l2.5,0.1l0.1-2.5c0-0.4,0.4-0.8,0.8-0.7l1.1,0c0.4,0,0.8,0.4,0.7,0.8
							l-0.1,2.5l2.5,0.1c0.4,0,0.8,0.4,0.7,0.8l0,1.1c0,0.4-0.4,0.8-0.8,0.7l-2.5-0.1l-0.1,2.5c0,0.4-0.4,0.8-0.8,0.7l-1.1,0
							c-0.4,0-0.8-0.4-0.7-0.8L499,86l-2.5-0.1c-0.4,0-0.8-0.4-0.7-0.8L495.8,83.9z M473,82.2c0.8,0,1.5,0.7,1.4,1.6
							c0,0.8-0.7,1.5-1.6,1.4c-0.8,0-1.5-0.7-1.4-1.6C471.4,82.8,472.1,82.2,473,82.2z M469.6,78.8c0.8,0,1.5,0.7,1.4,1.6
							c0,0.8-0.7,1.5-1.6,1.4c-0.8,0-1.5-0.7-1.4-1.6C468.1,79.5,468.8,78.8,469.6,78.8z M469.4,85.6c0.8,0,1.5,0.7,1.4,1.6
							c0,0.8-0.7,1.5-1.6,1.4c-0.8,0-1.5-0.7-1.4-1.6C467.8,86.2,468.5,85.6,469.4,85.6z M466,82c0.8,0,1.5,0.7,1.4,1.6
							c0,0.8-0.7,1.5-1.6,1.4c-0.8,0-1.5-0.7-1.4-1.6C464.5,82.6,465.2,81.9,466,82z"/>
					</g>
				</g>
				<g>
					<path class="st2" d="M503.3,109.4c-0.9,0.5-1.9,0.8-3,0.7c-9.2-0.3-11-11-11.4-14.1l-9.6-0.3c-0.6,3-3.2,13.6-12.4,13.2
						c-1.6-0.1-3.1-0.8-4.3-2.1c-4.3-4.7-4.2-16.7-3.8-23.5c0-0.3,0-0.7,0-1c0-0.7,0.1-1.3,0.3-2c0-0.1,0-0.1,0-0.2
						c1.3-5.5,6.3-9.4,11.9-9.2c2.7,0.1,5.2,1.1,7.3,2.8l13.1,0.5c2.1-1.6,4.8-2.4,7.4-2.3c5.7,0.2,10.4,4.4,11.3,10
						c0,0.1,0,0.1,0,0.2c0.1,0.7,0.1,1.4,0.1,2c0,0.3,0,0.7-0.1,1c-0.1,6.8-0.9,18.7-5.5,23.1C504.3,108.8,503.8,109.1,503.3,109.4z
						 M478.1,94c0.1-0.1,0.3-0.1,0.5-0.1l11.2,0.4c0.5,0,0.8,0.4,0.9,0.8c0,0.1,0.7,12.9,9.8,13.2c1.2,0,2.2-0.4,3.1-1.3
						c4.3-4.1,4.9-16.7,5-21.9c0,0,0-0.1,0-0.1c0-0.3,0.1-0.6,0.1-0.9c0-0.5,0-1.1-0.1-1.7c0,0,0,0,0-0.1c0,0,0,0,0,0
						c-0.7-4.8-4.7-8.4-9.6-8.6c-2.4-0.1-4.7,0.7-6.6,2.1c-0.2,0.1-0.4,0.2-0.6,0.2l-13.7-0.5c-0.2,0-0.4-0.1-0.6-0.2
						c-1.8-1.6-4-2.5-6.4-2.6c-4.9-0.2-9.1,3.1-10.2,7.9c0,0,0,0,0,0.1c-0.1,0.7-0.2,1.2-0.2,1.7c0,0.3,0,0.6,0,0.9c0,0,0,0.1,0,0.1
						c-0.3,5.2-0.6,17.8,3.4,22.2c0.9,0.9,1.8,1.4,3,1.5c9,0.3,10.7-12.3,10.7-12.5C477.7,94.4,477.9,94.1,478.1,94z M459.7,83.4
						L459.7,83.4L459.7,83.4z"/>
				</g>
			</g>
		</g>
	</g>
</g>
<g id="OBJECTS">
	<g>
		<defs>
			<rect id="SVGID_2_" y="184.8" width="750" height="315.2"/>
		</defs>
		<clipPath id="SVGID_3_">
			<use xlink:href="#SVGID_2_"  style="overflow:visible;"/>
		</clipPath>
		<g class="st3">
			<g>
				<path class="st4" d="M94.9,651.5L94.9,651.5c-9.8,0-18.3-6.6-20.8-16.1l-9.3-35.6h51.7V630C116.4,641.9,106.7,651.5,94.9,651.5z
					"/>
				<path class="st4" d="M647.7,651.5L647.7,651.5c9.8,0,18.3-6.6,20.8-16.1l9.3-35.6h-51.7V630
					C626.2,641.9,635.8,651.5,647.7,651.5z"/>
			</g>
			<path class="st5" d="M122.2,586.5L122.2,586.5c-85.6,0-155-69.4-155-155V316h155V586.5z"/>
			<path class="st5" d="M122.2,586.5L122.2,586.5c-85.6,0-155-69.4-155-155V316h155V586.5z"/>
			<path class="st5" d="M122.2,586.5L122.2,586.5c-85.6,0-155-69.4-155-155V316h155V586.5z"/>
			<path class="st5" d="M-41.4,319.4L-41.4,319.4c33.2,0,60.1,26.9,60.1,60.1v210.3l0,0c-66.4,0-120.3-53.8-120.3-120.3v-90
				C-101.5,346.3-74.6,319.4-41.4,319.4z"/>
			<path class="st5" d="M627.8,586.5h89.7c36,0,65.2-29.2,65.2-65.2V316h-155V586.5z"/>
			<path class="st5" d="M627.8,586.5h89.7c36,0,65.2-29.2,65.2-65.2V316h-155V586.5z"/>
			<path class="st5" d="M627.8,586.5h89.7c36,0,65.2-29.2,65.2-65.2V316h-155V586.5z"/>
			<path class="st5" d="M677.5,327.4v130.2H68.3V327.4c0-15.8,3.7-30.7,10.1-44.1c17-34.7,53.4-58.8,95.4-58.8h398.1
				c42.1,0,78.4,24,95.4,58.8C673.8,296.7,677.5,311.7,677.5,327.4z"/>
			<path class="st5" d="M377,324v133.7h-8.3V324c0-16.2,0-31.5,0.1-45.2c0.2-35.6,0.7-60.3,1.3-60.3h5.5c0.6,0,1.1,24.7,1.3,60.3
				C377,292.5,377,307.8,377,324z"/>
			<path class="st5" d="M722.6,482.5v114.9H26.5V482.5c0-17.1,7-32.6,18.2-43.9c11.2-11.1,26.6-18,43.6-18h572.4
				c22.1,0,41.4,11.6,52.3,28.9C719.1,459.1,722.6,470.4,722.6,482.5z"/>
			<path class="st5" d="M789.4,319.2L789.4,319.2c-33.2,0-60.1,26.9-60.1,60.1v210.3h0c66.4,0,120.3-53.8,120.3-120.3v-90
				C849.5,346.1,822.6,319.2,789.4,319.2z"/>
			<path class="st4" d="M694.2,621.1H55c-15.7,0-28.4-12.7-28.4-28.4v3.5h696.1v-3.5C722.6,608.4,709.9,621.1,694.2,621.1z"/>
			<path class="st5" d="M713.1,449.6c-57.5,17.9-179.8,30.2-321.3,30.2c-168.8,0-310.2-17.5-347.1-41.2c11.2-11.1,26.6-18,43.6-18
				h572.4C682.8,420.7,702.2,432.2,713.1,449.6z"/>
			<path class="st5" d="M678.6,318.1c-1.2-1.2-2.8-1-4,0c-9.6,8.1-17.4,18.3-22.8,29.7c-5.5,11.4-8.7,23.9-9.2,36.6
				c-0.3,7.2,0.3,14.3,1.8,21.3c0.3,1.5,2.1,2.4,3.5,2c1.6-0.4,2.3-2,2-3.5c-2.4-11.5-2.1-23.6,0.5-35c2.7-11.7,7.6-22.8,14.7-32.5
				c3.9-5.3,8.5-10.3,13.6-14.5C679.8,321.1,679.6,319.1,678.6,318.1z"/>
			<path class="st5" d="M107.1,366.5c-4.7-12.2-11.2-23.6-19.3-33.9c-4.5-5.7-9.5-10.9-15-15.7c-1.2-1-2.9-1.1-4,0c-1,1-1.2,3,0,4
				c9.4,8.1,17.4,17.7,23.7,28.4c6.4,10.7,11.1,22.3,14,34.5c1.6,6.8,2.5,13.6,2.9,20.6c0.1,1.5,1.2,2.8,2.8,2.8
				c1.5,0,2.9-1.3,2.8-2.8C114.4,391.4,111.7,378.6,107.1,366.5z"/>
			<path class="st6" d="M335.7,391.9c-7.8-2.2-15.4-4.9-22.9-7.9c-13.1-5.4-25.6-12.1-37.4-19.8c-5.6-3.7-11.2-7.5-16.2-12.1
				c-4.3-4-7.8-8.6-8.8-14.4c4.3-6.1,9-11.8,14.1-17.2c9.7-10.1,20.9-18.9,33-26c12.1-7.1,25.1-12.4,38.7-15.8
				c3.5-0.9,2-6.3-1.5-5.5c-8,2-15.8,4.7-23.4,8c-13.4,5.8-25.8,13.4-37.1,22.6c-10.2,8.3-19.3,17.9-27.1,28.6
				c-7.8-10.6-16.9-20.3-27.1-28.6c-11.3-9.2-23.7-16.9-37.1-22.6c-7.6-3.3-15.4-6-23.4-8c-3.5-0.9-5,4.6-1.5,5.5
				c13.6,3.4,26.6,8.8,38.7,15.8c12.1,7.1,23.3,15.8,33,26c5.1,5.4,9.9,11.1,14.1,17.2c-0.9,5.8-4.5,10.5-8.8,14.4
				c-4.9,4.6-10.6,8.4-16.2,12.1c-11.8,7.8-24.3,14.5-37.4,19.8c-7.5,3.1-15.1,5.7-22.9,7.9c-3.5,1-2,6.5,1.5,5.5
				c14.2-4.1,28.1-9.6,41.3-16.4c6.5-3.4,12.8-7.1,19-11.1c6-3.9,12-8,17.4-12.8c3.6-3.2,7-6.9,9.2-11.3c2.2,4.3,5.6,8.1,9.2,11.3
				c5.4,4.7,11.4,8.9,17.4,12.8c6.1,4,12.5,7.7,19,11.1c13.2,6.8,27,12.3,41.3,16.4C337.7,398.3,339.2,392.9,335.7,391.9z"/>
			<path class="st6" d="M597.7,391.9c-7.8-2.2-15.4-4.9-22.9-7.9c-13.1-5.4-25.6-12.1-37.4-19.8c-5.6-3.7-11.2-7.5-16.2-12.1
				c-4.3-4-7.8-8.6-8.8-14.4c4.3-6.1,9-11.8,14.1-17.2c9.7-10.1,20.9-18.9,33-26c12.1-7.1,25.1-12.4,38.7-15.8
				c3.5-0.9,2-6.3-1.5-5.5c-8,2-15.8,4.7-23.4,8c-13.4,5.8-25.8,13.4-37.1,22.6c-10.2,8.3-19.3,17.9-27.1,28.6
				c-7.8-10.6-16.9-20.3-27.1-28.6c-11.3-9.2-23.7-16.9-37.1-22.6c-7.6-3.3-15.4-6-23.4-8c-3.5-0.9-5,4.6-1.5,5.5
				c13.6,3.4,26.6,8.8,38.7,15.8c12.1,7.1,23.3,15.8,33,26c5.1,5.4,9.9,11.1,14.1,17.2c-0.9,5.8-4.5,10.5-8.8,14.4
				c-4.9,4.6-10.6,8.4-16.2,12.1c-11.8,7.8-24.3,14.5-37.4,19.8c-7.5,3.1-15.1,5.7-22.9,7.9c-3.5,1-2,6.5,1.5,5.5
				c14.2-4.1,28.1-9.6,41.3-16.4c6.5-3.4,12.8-7.1,19-11.1c6-3.9,12-8,17.4-12.8c3.6-3.2,7-6.9,9.2-11.3c2.2,4.3,5.6,8.1,9.2,11.3
				c5.4,4.7,11.4,8.9,17.4,12.8c6.1,4,12.5,7.7,19,11.1c13.2,6.8,27,12.3,41.3,16.4C599.7,398.3,601.1,392.9,597.7,391.9z"/>
		</g>
	</g>
	<g>
		
			<image style="overflow:visible;" width="3228" height="2212" xlink:href="84AC7BD2.png"  transform="matrix(0.24 0 0 0.24 -12.4398 -15.52)">
		</image>
	</g>
	<g>
		<g>
			<linearGradient id="SVGID_4_" gradientUnits="userSpaceOnUse" x1="41.5445" y1="286.4165" x2="41.5445" y2="136.8866">
				<stop  offset="0" style="stop-color:#51B8F4"/>
				<stop  offset="0.2549" style="stop-color:#83CCF6"/>
				<stop  offset="0.5882" style="stop-color:#CBE8F8"/>
			</linearGradient>
			<path class="st7" d="M52.9,479.3H30.2c-3.6,0-6.5-2.9-6.5-6.5V27.2c0-3.6,2.9-6.5,6.5-6.5h22.6c3.6,0,6.5,2.9,6.5,6.5
				c0,3.6-2.9,6.5-6.5,6.5H36.7v432.6h16.1c3.6,0,6.5,2.9,6.5,6.5C59.4,476.4,56.5,479.3,52.9,479.3z"/>
		</g>
		<g>
			<linearGradient id="SVGID_5_" gradientUnits="userSpaceOnUse" x1="708.4556" y1="286.4165" x2="708.4556" y2="136.8866">
				<stop  offset="0" style="stop-color:#51B8F4"/>
				<stop  offset="0.2549" style="stop-color:#83CCF6"/>
				<stop  offset="0.5882" style="stop-color:#CBE8F8"/>
			</linearGradient>
			<path class="st8" d="M697.1,479.3h22.6c3.6,0,6.5-2.9,6.5-6.5V27.2c0-3.6-2.9-6.5-6.5-6.5h-22.6c-3.6,0-6.5,2.9-6.5,6.5
				c0,3.6,2.9,6.5,6.5,6.5h16.1v432.6h-16.1c-3.6,0-6.5,2.9-6.5,6.5C690.6,476.4,693.5,479.3,697.1,479.3z"/>
		</g>
	</g>
	<g>
		<linearGradient id="SVGID_6_" gradientUnits="userSpaceOnUse" x1="612.7268" y1="255.7696" x2="609.4088" y2="81.9078">
			<stop  offset="0" style="stop-color:#51B8F4"/>
			<stop  offset="0.2549" style="stop-color:#83CCF6"/>
			<stop  offset="0.5882" style="stop-color:#CBE8F8"/>
		</linearGradient>
		<rect x="538.4" y="101.4" class="st9" width="145.2" height="125.5"/>
		<linearGradient id="SVGID_7_" gradientUnits="userSpaceOnUse" x1="612.3194" y1="234.4221" x2="609.637" y2="93.8671">
			<stop  offset="0" style="stop-color:#51B8F4"/>
			<stop  offset="0.2549" style="stop-color:#83CCF6"/>
			<stop  offset="0.5882" style="stop-color:#CBE8F8"/>
		</linearGradient>
		<rect x="532" y="95.9" class="st10" width="158" height="136.6"/>
		<text transform="matrix(1 0 0 1 571.8968 126.3718)" class="st11 st12 st13">Mision</text>
		<g>
			<rect x="551.8" y="189.8" class="st14" width="118.4" height="5.1"/>
			<rect x="551.8" y="214.4" class="st14" width="96.4" height="5.1"/>
			<rect x="551.8" y="201" class="st14" width="75.9" height="5.1"/>
		</g>
		<g>
			<g id="_x36_pMByr.tif_1_">
				<g>
					<path class="st15" d="M608.9,136c1.4,0,2.8,0,4.2,0c1,0.1,1.6,0.8,2.1,1.6c0.8,1.2,1.7,2.4,2.4,3.7c0.5,0.9,1.2,1.2,2.3,1.2
						c2.7-0.1,2.3-0.3,4.3,1.7c0.2,0.2,0.5,0.3,0.8,0.3c2.3,0,4.6,0,6.8,0c0.7,0,1.2,0.2,1.8,0.6c2.7,2,5.3,4,8,6
						c0.6,0.5,0.9,1,1,1.8c0.7,4.7,1.3,9.4,2,14.1c0.1,0.5,0,1.1-0.1,1.5c-1.3,4-2.6,7.9-4,11.9c-0.5,1.4-1,1.8-2.5,1.8
						c-11,0-21.9,0-32.9,0c-1.6,0-2.3-0.8-2.3-2.4c0-0.6,0-1.2,0-1.8c-1.4,0-2.8,0-4.2,0c-1.1,0-1.8-0.6-2.1-1.7
						c-0.3-1.2-0.6-2.4-0.9-3.6c-0.3-1.1-0.5-2.1-0.8-3.2c-0.4,0-0.8,0-1.2,0c-0.5,0-0.8,0.1-1.1,0.5c-3.1,3.1-6.2,6.2-9.3,9.3
						c-0.4,0.4-0.8,0.7-1.4,0.7c-0.6,0-1.1,0-1.7,0c-1.2,0.1-2.1-0.4-2.6-1.6c0-3.1,0-6.2,0-9.2c0.1-0.3,0.3-0.6,0.4-0.9
						c1.2-2.4,2.4-4.7,3.5-7.1c0.1-0.3,0.2-0.6,0.2-1c0-1.7,0-3.3,0-5c0-0.8,0.3-1.4,0.8-2c0.7-0.6,1.3-1.3,2-2
						c0.6-0.6,0.7-1.1,0.2-1.8c-0.8-1.2-1.6-2.5-2.5-3.7c-0.8-1.2-0.7-2,0.3-3c1.3-1.3,2.5-2.5,3.8-3.7c1.1-1.1,2.1-1.1,3.2,0
						c1.7,1.7,3.5,3.5,5.2,5.2c0.2,0.2,0.5,0.3,0.7,0.3c1.6,0,3.3,0,4.9,0c0.8,0,1.3-0.2,1.5-0.9c0.3-0.8,1-1.2,1.9-1.2
						c0.4,0,0.8,0,1.2,0c0.3,0,0.5-0.1,0.6-0.4c0.4-1.3,0.9-2.6,1.3-4C607.1,137,607.7,136.2,608.9,136z"/>
				</g>
			</g>
			<rect x="594" y="149.3" class="st15" width="7" height="7"/>
			<rect x="625.1" y="169.1" class="st15" width="7" height="7"/>
			<rect x="625.1" y="152.8" class="st16" width="7" height="7"/>
		</g>
	</g>
	<g>
		<g>
			<linearGradient id="SVGID_8_" gradientUnits="userSpaceOnUse" x1="127.788" y1="167.552" x2="127.788" y2="36.8474">
				<stop  offset="0" style="stop-color:#51B8F4"/>
				<stop  offset="0.2549" style="stop-color:#83CCF6"/>
				<stop  offset="0.5882" style="stop-color:#CBE8F8"/>
			</linearGradient>
			<path class="st17" d="M188.8,162.3H66.8c-3.7,0-6.6-3-6.6-6.6V119c0-3.7,3-6.6,6.6-6.6h122.1c3.7,0,6.6,3,6.6,6.6v36.6
				C195.4,159.3,192.5,162.3,188.8,162.3z"/>
			<g>
				<g>
					<linearGradient id="SVGID_9_" gradientUnits="userSpaceOnUse" x1="91.6388" y1="123.1064" x2="102.5602" y2="123.1064">
						<stop  offset="0" style="stop-color:#51B8F4"/>
						<stop  offset="0.2549" style="stop-color:#83CCF6"/>
						<stop  offset="0.5882" style="stop-color:#CBE8F8"/>
					</linearGradient>
					<polygon class="st18" points="97.1,117.9 98.8,121.3 102.6,121.9 99.8,124.5 100.5,128.3 97.1,126.5 93.7,128.3 94.4,124.5 
						91.6,121.9 95.4,121.3 					"/>
				</g>
				<g>
					<linearGradient id="SVGID_10_" gradientUnits="userSpaceOnUse" x1="104.2814" y1="123.1064" x2="115.2028" y2="123.1064">
						<stop  offset="0" style="stop-color:#51B8F4"/>
						<stop  offset="0.2549" style="stop-color:#83CCF6"/>
						<stop  offset="0.5882" style="stop-color:#CBE8F8"/>
					</linearGradient>
					<polygon class="st19" points="109.7,117.9 111.4,121.3 115.2,121.9 112.5,124.5 113.1,128.3 109.7,126.5 106.4,128.3 
						107,124.5 104.3,121.9 108.1,121.3 					"/>
				</g>
				<g>
					<linearGradient id="SVGID_11_" gradientUnits="userSpaceOnUse" x1="116.924" y1="123.1064" x2="127.8454" y2="123.1064">
						<stop  offset="0" style="stop-color:#51B8F4"/>
						<stop  offset="0.2549" style="stop-color:#83CCF6"/>
						<stop  offset="0.5882" style="stop-color:#CBE8F8"/>
					</linearGradient>
					<polygon class="st20" points="122.4,117.9 124.1,121.3 127.8,121.9 125.1,124.5 125.8,128.3 122.4,126.5 119,128.3 
						119.7,124.5 116.9,121.9 120.7,121.3 					"/>
				</g>
				<g>
					<polygon class="st14" points="135,117.9 136.7,121.3 140.5,121.9 137.8,124.5 138.4,128.3 135,126.5 131.7,128.3 132.3,124.5 
						129.6,121.9 133.3,121.3 					"/>
				</g>
			</g>
			<polygon class="st14" points="147.6,117.9 149.2,121.3 153,121.9 150.3,124.5 150.9,128.3 147.6,126.5 144.2,128.3 144.8,124.5 
				142.1,121.9 145.9,121.3 			"/>
			<g>
				<linearGradient id="SVGID_12_" gradientUnits="userSpaceOnUse" x1="92.4408" y1="132.9556" x2="189.1389" y2="132.9556">
					<stop  offset="0" style="stop-color:#51B8F4"/>
					<stop  offset="0.2549" style="stop-color:#83CCF6"/>
					<stop  offset="0.5882" style="stop-color:#CBE8F8"/>
				</linearGradient>
				<path class="st21" d="M188.2,134.1H93.4c-0.5,0-1-0.4-1-1v-0.4c0-0.5,0.4-1,1-1h94.8c0.5,0,1,0.4,1,1v0.4
					C189.1,133.7,188.7,134.1,188.2,134.1z"/>
				<linearGradient id="SVGID_13_" gradientUnits="userSpaceOnUse" x1="92.4408" y1="137.9014" x2="189.1389" y2="137.9014">
					<stop  offset="0" style="stop-color:#51B8F4"/>
					<stop  offset="0.2549" style="stop-color:#83CCF6"/>
					<stop  offset="0.5882" style="stop-color:#CBE8F8"/>
				</linearGradient>
				<path class="st22" d="M188.2,139H93.4c-0.5,0-1-0.4-1-1v-0.4c0-0.5,0.4-1,1-1h94.8c0.5,0,1,0.4,1,1v0.4
					C189.1,138.6,188.7,139,188.2,139z"/>
				<linearGradient id="SVGID_14_" gradientUnits="userSpaceOnUse" x1="92.4408" y1="142.2062" x2="161.9373" y2="142.2062">
					<stop  offset="0" style="stop-color:#51B8F4"/>
					<stop  offset="0.2549" style="stop-color:#83CCF6"/>
					<stop  offset="0.5882" style="stop-color:#CBE8F8"/>
				</linearGradient>
				<path class="st23" d="M161,143.4H93.4c-0.5,0-1-0.4-1-1V142c0-0.5,0.4-1,1-1H161c0.5,0,1,0.4,1,1v0.4
					C161.9,142.9,161.5,143.4,161,143.4z"/>
			</g>
			<g>
				<path class="st14" d="M175.6,155.5c0-0.5-0.4-0.8-0.8-0.8c0.5,0,0.9-0.4,0.8-0.9c0-0.4-0.4-0.7-0.8-0.7l-3.1,0
					c0.2-0.7,0.3-1.4,0.3-2.1c-0.1-1-0.4-1.5-1-1.6c-0.3-0.1-0.6,0.2-0.6,0.6c0,1-0.2,1.9-0.7,2.8l-0.6,1.1
					c-0.2,0.3-0.5,0.6-0.8,0.8c-0.1-0.3-0.3-0.5-0.6-0.5l-1.7,0c-0.4,0-0.7,0.3-0.7,0.7l0,3.9c0,0.4,0.3,0.7,0.7,0.7l1.7,0
					c0.3,0,0.6-0.2,0.6-0.5c0.7,0.2,1.3,0.3,2,0.3l3.3,0c0.5,0,0.8-0.4,0.8-0.8c0-0.2-0.1-0.4-0.2-0.6c0.4,0,0.8-0.4,0.8-0.8
					c0-0.2-0.1-0.4-0.3-0.6l0,0C175.3,156.3,175.6,156,175.6,155.5z"/>
				<path class="st14" d="M188.5,149.4l-1.7,0c-0.3,0-0.6,0.2-0.6,0.5c-0.7-0.2-1.3-0.3-2-0.3l-3.3,0c-0.5,0-0.8,0.4-0.8,0.8
					c0,0.2,0.1,0.4,0.2,0.6c-0.4,0-0.8,0.4-0.8,0.8c0,0.2,0.1,0.4,0.3,0.6l0,0c-0.5,0-0.8,0.4-0.8,0.8c0,0.5,0.4,0.8,0.8,0.8
					c-0.5,0-0.9,0.4-0.8,0.9c0,0.4,0.4,0.7,0.8,0.7l3.1,0c-0.2,0.7-0.3,1.4-0.3,2.1c0.1,1,0.4,1.5,1,1.6c0.3,0.1,0.6-0.2,0.6-0.6
					c0-1,0.2-1.9,0.7-2.8l0.6-1.1c0.2-0.3,0.5-0.6,0.8-0.8c0.1,0.3,0.3,0.5,0.6,0.5l1.7,0c0.4,0,0.7-0.3,0.7-0.7l0-3.9
					C189.1,149.7,188.8,149.4,188.5,149.4z"/>
			</g>
			<linearGradient id="SVGID_15_" gradientUnits="userSpaceOnUse" x1="65.1415" y1="136.5728" x2="89.3963" y2="136.5728">
				<stop  offset="0" style="stop-color:#51B8F4"/>
				<stop  offset="0.2549" style="stop-color:#83CCF6"/>
				<stop  offset="0.5882" style="stop-color:#CBE8F8"/>
			</linearGradient>
			<path class="st24" d="M89.4,136.6c0,6.7-5.4,12.1-12.1,12.1c-6.7,0-12.1-5.4-12.1-12.1c0-6.7,5.4-12.1,12.1-12.1
				C84,124.4,89.4,129.9,89.4,136.6z"/>
			<g>
				<defs>
					<path id="SVGID_16_" d="M89.4,136.6c0,6.7-5.4,12.1-12.1,12.1c-6.7,0-12.1-5.4-12.1-12.1c0-6.7,5.4-12.1,12.1-12.1
						C84,124.4,89.4,129.9,89.4,136.6z"/>
				</defs>
				<clipPath id="SVGID_17_">
					<use xlink:href="#SVGID_16_"  style="overflow:visible;"/>
				</clipPath>
				<g class="st25">
					<g>
						<linearGradient id="SVGID_18_" gradientUnits="userSpaceOnUse" x1="66.7369" y1="151.4755" x2="94.7307" y2="151.4755">
							<stop  offset="0" style="stop-color:#51B8F4"/>
							<stop  offset="0.2549" style="stop-color:#83CCF6"/>
							<stop  offset="0.5882" style="stop-color:#CBE8F8"/>
						</linearGradient>
						<path class="st26" d="M82.2,157.2l1.1-2c0.5-1,0.9-2.1,1.1-3.2c0.3,0.4,0.6,0.9,1,1.4l5.9,10.9l3.4-2c0,0-8.1-17.4-11.6-19.3
							c-0.3-0.2-0.6-0.2-0.9-0.2c-0.6-0.1-1.2-0.1-1.9-0.1l0,0l0,0c0,0,0,0,0,0l0,0l-0.1,0.1l-0.5-0.1c-0.4,0-0.7-0.4-0.7-0.7
							c0-0.4,0-0.7,0-1.1l0-0.3c0.5-0.3,1-0.7,1.4-1.1c0.1-0.1,0.3-0.3,0.4-0.5c0.3-0.4,0.6-0.8,0.9-1.3c-0.2,0.5-0.4,1-0.7,1.5
							c0.9-0.4,1.5-1.3,1.9-2.2c0.5-0.3,0.8-0.7,1-1.4c0.2-0.8,0-1.7-0.5-2c0,0,0,0,0,0c-0.1-1.9-0.8-3.8-1.9-5.5
							c-1.3-2-4.8-1.4-6.6-0.4c-1.8,1-3,3.4-3,5.4c0,0.2,0,0.3,0,0.4c-0.1,0-0.2,0-0.2,0c-0.8,0.1-1,1.3-0.8,2.2
							c0.2,0.9,0.8,1.4,1.5,1.6c0.5,1.7,1.4,1.9,1.8,2.5c0-0.2-0.1-0.4-0.1-0.6c0.1,0.1,0.2,0.2,0.3,0.3c0.3,0.4,0.7,0.7,1.2,1
							c0.1,0.3,0.1,0.7,0,1.2c0,0,0,0,0,0c-0.2,0.7-0.5,1-1,1.2l0,0l-0.6,0.1l0,0c-1,0-2,0.1-2.7,0.3l0,0.1c-0.1,0-0.3,0.1-0.4,0.2
							c-2,1.9-2.5,15.2-2.5,15.2l-1.5,6.2h3.8l-3.5,8.2c6.4,4.5,13.6,4.2,18.4-1l-3.9-10.4c-0.2-0.3-0.3-0.7-0.3-1
							c0-0.2,0-0.4,0-0.6c0-0.4,0-0.8,0.2-1.2L82.2,157.2z M72.3,160.8l-1.2,2.7c1.1-4.4,1.1-4.6,1.1-4.8c0.1-0.4,0.1-0.9,0.2-1.4
							c0.1,0.4,0.2,0.8,0.2,1.2C72.7,159.3,72.6,160.1,72.3,160.8z"/>
					</g>
				</g>
			</g>
		</g>
		<g>
			<linearGradient id="SVGID_19_" gradientUnits="userSpaceOnUse" x1="127.788" y1="218.73" x2="127.788" y2="88.0256">
				<stop  offset="0" style="stop-color:#51B8F4"/>
				<stop  offset="0.2549" style="stop-color:#83CCF6"/>
				<stop  offset="0.5882" style="stop-color:#CBE8F8"/>
			</linearGradient>
			<path class="st27" d="M188.8,229H66.8c-3.7,0-6.6-3-6.6-6.6v-36.6c0-3.7,3-6.6,6.6-6.6h122.1c3.7,0,6.6,3,6.6,6.6v36.6
				C195.4,226,192.5,229,188.8,229z"/>
			<g>
				<g>
					<linearGradient id="SVGID_20_" gradientUnits="userSpaceOnUse" x1="91.6388" y1="189.8481" x2="102.5602" y2="189.8481">
						<stop  offset="0" style="stop-color:#51B8F4"/>
						<stop  offset="0.2549" style="stop-color:#83CCF6"/>
						<stop  offset="0.5882" style="stop-color:#CBE8F8"/>
					</linearGradient>
					<polygon class="st28" points="97.1,184.7 98.8,188.1 102.6,188.6 99.8,191.3 100.5,195 97.1,193.3 93.7,195 94.4,191.3 
						91.6,188.6 95.4,188.1 					"/>
				</g>
				<g>
					<linearGradient id="SVGID_21_" gradientUnits="userSpaceOnUse" x1="104.2814" y1="189.8481" x2="115.2028" y2="189.8481">
						<stop  offset="0" style="stop-color:#51B8F4"/>
						<stop  offset="0.2549" style="stop-color:#83CCF6"/>
						<stop  offset="0.5882" style="stop-color:#CBE8F8"/>
					</linearGradient>
					<polygon class="st29" points="109.7,184.7 111.4,188.1 115.2,188.6 112.5,191.3 113.1,195 109.7,193.3 106.4,195 107,191.3 
						104.3,188.6 108.1,188.1 					"/>
				</g>
				<g>
					<linearGradient id="SVGID_22_" gradientUnits="userSpaceOnUse" x1="116.924" y1="189.8481" x2="127.8454" y2="189.8481">
						<stop  offset="0" style="stop-color:#51B8F4"/>
						<stop  offset="0.2549" style="stop-color:#83CCF6"/>
						<stop  offset="0.5882" style="stop-color:#CBE8F8"/>
					</linearGradient>
					<polygon class="st30" points="122.4,184.7 124.1,188.1 127.8,188.6 125.1,191.3 125.8,195 122.4,193.3 119,195 119.7,191.3 
						116.9,188.6 120.7,188.1 					"/>
				</g>
				<g>
					<polygon class="st14" points="135,184.7 136.7,188.1 140.5,188.6 137.8,191.3 138.4,195 135,193.3 131.7,195 132.3,191.3 
						129.6,188.6 133.3,188.1 					"/>
				</g>
			</g>
			<polygon class="st14" points="147.6,184.7 149.2,188.1 153,188.6 150.3,191.3 150.9,195 147.6,193.3 144.2,195 144.8,191.3 
				142.1,188.6 145.9,188.1 			"/>
			<g>
				<linearGradient id="SVGID_23_" gradientUnits="userSpaceOnUse" x1="92.4408" y1="199.6973" x2="189.1389" y2="199.6973">
					<stop  offset="0" style="stop-color:#51B8F4"/>
					<stop  offset="0.2549" style="stop-color:#83CCF6"/>
					<stop  offset="0.5882" style="stop-color:#CBE8F8"/>
				</linearGradient>
				<path class="st31" d="M188.2,200.8H93.4c-0.5,0-1-0.4-1-1v-0.4c0-0.5,0.4-1,1-1h94.8c0.5,0,1,0.4,1,1v0.4
					C189.1,200.4,188.7,200.8,188.2,200.8z"/>
				<linearGradient id="SVGID_24_" gradientUnits="userSpaceOnUse" x1="92.4408" y1="204.6431" x2="189.1389" y2="204.6431">
					<stop  offset="0" style="stop-color:#51B8F4"/>
					<stop  offset="0.2549" style="stop-color:#83CCF6"/>
					<stop  offset="0.5882" style="stop-color:#CBE8F8"/>
				</linearGradient>
				<path class="st32" d="M188.2,205.8H93.4c-0.5,0-1-0.4-1-1v-0.4c0-0.5,0.4-1,1-1h94.8c0.5,0,1,0.4,1,1v0.4
					C189.1,205.4,188.7,205.8,188.2,205.8z"/>
				<linearGradient id="SVGID_25_" gradientUnits="userSpaceOnUse" x1="92.4408" y1="208.948" x2="161.9373" y2="208.948">
					<stop  offset="0" style="stop-color:#51B8F4"/>
					<stop  offset="0.2549" style="stop-color:#83CCF6"/>
					<stop  offset="0.5882" style="stop-color:#CBE8F8"/>
				</linearGradient>
				<path class="st33" d="M161,210.1H93.4c-0.5,0-1-0.4-1-1v-0.4c0-0.5,0.4-1,1-1H161c0.5,0,1,0.4,1,1v0.4
					C161.9,209.7,161.5,210.1,161,210.1z"/>
			</g>
			<g>
				<path class="st14" d="M175.6,222.3c0-0.5-0.4-0.8-0.8-0.8c0.5,0,0.9-0.4,0.8-0.9c0-0.4-0.4-0.7-0.8-0.7l-3.1,0
					c0.2-0.7,0.3-1.4,0.3-2.1c-0.1-1-0.4-1.5-1-1.6c-0.3-0.1-0.6,0.2-0.6,0.6c0,1-0.2,1.9-0.7,2.8l-0.6,1.1
					c-0.2,0.3-0.5,0.6-0.8,0.8c-0.1-0.3-0.3-0.5-0.6-0.5l-1.7,0c-0.4,0-0.7,0.3-0.7,0.7l0,3.9c0,0.4,0.3,0.7,0.7,0.7l1.7,0
					c0.3,0,0.6-0.2,0.6-0.5c0.7,0.2,1.3,0.3,2,0.3l3.3,0c0.5,0,0.8-0.4,0.8-0.8c0-0.2-0.1-0.4-0.2-0.6c0.4,0,0.8-0.4,0.8-0.8
					c0-0.2-0.1-0.4-0.3-0.6l0,0C175.3,223.1,175.6,222.7,175.6,222.3z"/>
				<path class="st14" d="M188.5,216.1l-1.7,0c-0.3,0-0.6,0.2-0.6,0.5c-0.7-0.2-1.3-0.3-2-0.3l-3.3,0c-0.5,0-0.8,0.4-0.8,0.8
					c0,0.2,0.1,0.4,0.2,0.6c-0.4,0-0.8,0.4-0.8,0.8c0,0.2,0.1,0.4,0.3,0.6l0,0c-0.5,0-0.8,0.4-0.8,0.8c0,0.5,0.4,0.8,0.8,0.8
					c-0.5,0-0.9,0.4-0.8,0.9c0,0.4,0.4,0.7,0.8,0.7l3.1,0c-0.2,0.7-0.3,1.4-0.3,2.1c0.1,1,0.4,1.5,1,1.6c0.3,0.1,0.6-0.2,0.6-0.6
					c0-1,0.2-1.9,0.7-2.8l0.6-1.1c0.2-0.3,0.5-0.6,0.8-0.8c0.1,0.3,0.3,0.5,0.6,0.5l1.7,0c0.4,0,0.7-0.3,0.7-0.7l0-3.9
					C189.1,216.4,188.8,216.1,188.5,216.1z"/>
			</g>
			<linearGradient id="SVGID_26_" gradientUnits="userSpaceOnUse" x1="65.1415" y1="203.3146" x2="89.3963" y2="203.3146">
				<stop  offset="0" style="stop-color:#51B8F4"/>
				<stop  offset="0.2549" style="stop-color:#83CCF6"/>
				<stop  offset="0.5882" style="stop-color:#CBE8F8"/>
			</linearGradient>
			<circle class="st34" cx="77.3" cy="203.3" r="12.1"/>
			<g>
				<defs>
					
						<ellipse id="SVGID_27_" transform="matrix(0.2443 -0.9697 0.9697 0.2443 -138.8948 228.4092)" cx="77.1" cy="203.3" rx="12.2" ry="12.2"/>
				</defs>
				<clipPath id="SVGID_28_">
					<use xlink:href="#SVGID_27_"  style="overflow:visible;"/>
				</clipPath>
				<g class="st35">
					<linearGradient id="SVGID_29_" gradientUnits="userSpaceOnUse" x1="65.5905" y1="214.0688" x2="89.8071" y2="214.0688">
						<stop  offset="0" style="stop-color:#51B8F4"/>
						<stop  offset="0.2549" style="stop-color:#83CCF6"/>
						<stop  offset="0.5882" style="stop-color:#CBE8F8"/>
					</linearGradient>
					<path class="st36" d="M89.8,220.7l-3.3-9.5c-0.2-0.7-0.5-1.3-1-1.8c-0.9-1.2-2.4-1.9-3.9-2c0,0,0,0,0,0c0,0,0,0,0,0s0,0,0,0
						c-0.1,0-1.3,0-2,0c-0.4,0-0.3-0.3-0.4-0.6l-0.1-0.5l0,0l0,0c0-0.1,0-0.3,0-0.4c0-0.2,0-0.4-0.1-0.7l-0.1-0.4
						c0.4-0.3,0.8-0.6,1.1-1c0.4-0.5,0.8-1.1,1.1-1.6c0,0,0,0,0,0s0.1-0.1,0.3-0.3c0.7-0.2,1.4-0.6,1.5-1.5c0.1-0.8-0.1-1.8-0.8-1.9
						c0,0,0,0,0,0c-0.2-5-3.5-5.8-4.4-5.9c-1.9-0.3-3.5,0.4-4.7,1.9c-0.9,1.1-0.8,2.3-0.8,3.7c0,0.2,0,0.4,0,0.7c0,0-0.1,0-0.1,0
						c-0.7,0.1-0.8,1.1-0.6,1.9c0.3,0.9,1,1.2,1.7,1.4c0.1,0.2,0.3,0.4,0.4,0.6c0,0,0,0,0,0c0.3,0.5,0.7,0.9,1.1,1.3
						c0.4,0.4,0.8,0.7,1.3,0.9l0.2,1.3c0,0,0,0,0,0c0,0,0,0,0,0l0,0.5c0,0.2-0.5,0.4-0.7,0.4h-1h-0.5l0,0H74c0,0,0,0,0,0h-0.6
						c0,0,0,0,0,0c-1.4,0.2-2.6,0.9-3.5,1.9c-0.4,0.5-0.8,1.2-1,1.8l-3.3,11.1l3.1,1l3-8.8c-0.1,1,0.1,1.9,0.5,2.9
						c0.6,1.2,1,2.5,1.2,3.9c0.3,2.8-1,5.4-2,7.9c-0.9,2.3-1.4,4.7-1.4,4.7c4,1.3,8.4,2.2,12.1,1.3c1.4-0.3,2.7-0.9,3.8-1.7
						c0,0-1.5-5.3-3-9.3c-0.3-0.6-0.4-1.7-0.4-2.4c0.1-2.2,1.1-3.9,1.4-6c0-0.2,0-0.4,0-0.7l2.5,7.4L89.8,220.7z"/>
				</g>
			</g>
		</g>
	</g>
	<g>
		<linearGradient id="SVGID_30_" gradientUnits="userSpaceOnUse" x1="59.5093" y1="336.2708" x2="198.9274" y2="336.2708">
			<stop  offset="0" style="stop-color:#51B8F4"/>
			<stop  offset="0.2549" style="stop-color:#83CCF6"/>
			<stop  offset="0.5882" style="stop-color:#CBE8F8"/>
		</linearGradient>
		<rect x="60" y="268.4" class="st37" width="138.4" height="135.7"/>
		<linearGradient id="SVGID_31_" gradientUnits="userSpaceOnUse" x1="66.4369" y1="336.2708" x2="191.9997" y2="336.2708">
			<stop  offset="0" style="stop-color:#51B8F4"/>
			<stop  offset="0.2549" style="stop-color:#83CCF6"/>
			<stop  offset="0.5882" style="stop-color:#CBE8F8"/>
		</linearGradient>
		<rect x="66.4" y="275.8" class="st38" width="125.6" height="121"/>
		<text transform="matrix(1 0 0 1 98.6041 300.3486)" class="st12 st39">SCORE</text>
		<text transform="matrix(1 0 0 1 98.6041 300.3486)" class="st40 st12 st39">SCORE</text>
		<text transform="matrix(1 0 0 1 95.105 333.6329)" class="st41 st12 st42">0000234</text>
		<text transform="matrix(1 0 0 1 101.9249 356.7027)" class="st14 st12 st43">Level 5</text>
		<g>
			<g>
				<linearGradient id="SVGID_32_" gradientUnits="userSpaceOnUse" x1="81.0887" y1="375.4257" x2="97.433" y2="375.4257">
					<stop  offset="0" style="stop-color:#51B8F4"/>
					<stop  offset="0.2549" style="stop-color:#83CCF6"/>
					<stop  offset="0.5882" style="stop-color:#CBE8F8"/>
				</linearGradient>
				<polygon class="st44" points="89.3,367.7 91.8,372.8 97.4,373.6 93.3,377.6 94.3,383.2 89.3,380.5 84.2,383.2 85.2,377.6 
					81.1,373.6 86.7,372.8 				"/>
				<linearGradient id="SVGID_33_" gradientUnits="userSpaceOnUse" x1="101.0675" y1="375.4257" x2="117.4117" y2="375.4257">
					<stop  offset="0" style="stop-color:#51B8F4"/>
					<stop  offset="0.2549" style="stop-color:#83CCF6"/>
					<stop  offset="0.5882" style="stop-color:#CBE8F8"/>
				</linearGradient>
				<polygon class="st45" points="109.2,367.7 111.8,372.8 117.4,373.6 113.3,377.6 114.3,383.2 109.2,380.5 104.2,383.2 
					105.2,377.6 101.1,373.6 106.7,372.8 				"/>
				<linearGradient id="SVGID_34_" gradientUnits="userSpaceOnUse" x1="121.0462" y1="375.4257" x2="137.3905" y2="375.4257">
					<stop  offset="0" style="stop-color:#51B8F4"/>
					<stop  offset="0.2549" style="stop-color:#83CCF6"/>
					<stop  offset="0.5882" style="stop-color:#CBE8F8"/>
				</linearGradient>
				<polygon class="st46" points="129.2,367.7 131.7,372.8 137.4,373.6 133.3,377.6 134.3,383.2 129.2,380.5 124.2,383.2 
					125.1,377.6 121,373.6 126.7,372.8 				"/>
				<linearGradient id="SVGID_35_" gradientUnits="userSpaceOnUse" x1="139.9504" y1="375.3178" x2="158.4437" y2="375.3178">
					<stop  offset="0" style="stop-color:#51B8F4"/>
					<stop  offset="0.2549" style="stop-color:#83CCF6"/>
					<stop  offset="0.5882" style="stop-color:#CBE8F8"/>
				</linearGradient>
				<polygon class="st47" points="149.2,367.7 151.7,372.8 157.4,373.6 153.3,377.6 154.2,383.2 149.2,380.5 144.1,383.2 
					145.1,377.6 141,373.6 146.7,372.8 				"/>
				<linearGradient id="SVGID_36_" gradientUnits="userSpaceOnUse" x1="159.9291" y1="375.3178" x2="178.4224" y2="375.3178">
					<stop  offset="0" style="stop-color:#51B8F4"/>
					<stop  offset="0.2549" style="stop-color:#83CCF6"/>
					<stop  offset="0.5882" style="stop-color:#CBE8F8"/>
				</linearGradient>
				<polygon class="st48" points="169.2,367.7 171.7,372.8 177.3,373.6 173.3,377.6 174.2,383.2 169.2,380.5 164.1,383.2 
					165.1,377.6 161,373.6 166.7,372.8 				"/>
			</g>
			<g>
				<linearGradient id="SVGID_37_" gradientUnits="userSpaceOnUse" x1="81.0887" y1="375.4257" x2="97.433" y2="375.4257">
					<stop  offset="0" style="stop-color:#51B8F4"/>
					<stop  offset="0.2549" style="stop-color:#83CCF6"/>
					<stop  offset="0.5882" style="stop-color:#CBE8F8"/>
				</linearGradient>
				<polygon class="st49" points="89.3,367.7 91.8,372.8 97.4,373.6 93.3,377.6 94.3,383.2 89.3,380.5 84.2,383.2 85.2,377.6 
					81.1,373.6 86.7,372.8 				"/>
				<linearGradient id="SVGID_38_" gradientUnits="userSpaceOnUse" x1="101.0675" y1="375.4257" x2="117.4117" y2="375.4257">
					<stop  offset="0" style="stop-color:#51B8F4"/>
					<stop  offset="0.2549" style="stop-color:#83CCF6"/>
					<stop  offset="0.5882" style="stop-color:#CBE8F8"/>
				</linearGradient>
				<polygon class="st50" points="109.2,367.7 111.8,372.8 117.4,373.6 113.3,377.6 114.3,383.2 109.2,380.5 104.2,383.2 
					105.2,377.6 101.1,373.6 106.7,372.8 				"/>
				<linearGradient id="SVGID_39_" gradientUnits="userSpaceOnUse" x1="121.0462" y1="375.4257" x2="137.3905" y2="375.4257">
					<stop  offset="0" style="stop-color:#51B8F4"/>
					<stop  offset="0.2549" style="stop-color:#83CCF6"/>
					<stop  offset="0.5882" style="stop-color:#CBE8F8"/>
				</linearGradient>
				<polygon class="st51" points="129.2,367.7 131.7,372.8 137.4,373.6 133.3,377.6 134.3,383.2 129.2,380.5 124.2,383.2 
					125.1,377.6 121,373.6 126.7,372.8 				"/>
				<linearGradient id="SVGID_40_" gradientUnits="userSpaceOnUse" x1="139.9504" y1="375.3178" x2="158.4437" y2="375.3178">
					<stop  offset="0" style="stop-color:#51B8F4"/>
					<stop  offset="0.2549" style="stop-color:#83CCF6"/>
					<stop  offset="0.5882" style="stop-color:#CBE8F8"/>
				</linearGradient>
				<polygon class="st52" points="149.2,367.7 151.7,372.8 157.4,373.6 153.3,377.6 154.2,383.2 149.2,380.5 144.1,383.2 
					145.1,377.6 141,373.6 146.7,372.8 				"/>
				<linearGradient id="SVGID_41_" gradientUnits="userSpaceOnUse" x1="159.9291" y1="375.3178" x2="178.4224" y2="375.3178">
					<stop  offset="0" style="stop-color:#51B8F4"/>
					<stop  offset="0.2549" style="stop-color:#83CCF6"/>
					<stop  offset="0.5882" style="stop-color:#CBE8F8"/>
				</linearGradient>
				<polygon class="st53" points="169.2,367.7 171.7,372.8 177.3,373.6 173.3,377.6 174.2,383.2 169.2,380.5 164.1,383.2 
					165.1,377.6 161,373.6 166.7,372.8 				"/>
			</g>
		</g>
	</g>
	<g>
		<g>
			<g>
				
					<linearGradient id="SVGID_42_" gradientUnits="userSpaceOnUse" x1="85.7496" y1="-121.2633" x2="112.957" y2="-203.5491" gradientTransform="matrix(0 1 -1 0 464.4162 219.6326)">
					<stop  offset="0" style="stop-color:#51B8F4"/>
					<stop  offset="0.2549" style="stop-color:#83CCF6"/>
					<stop  offset="0.5882" style="stop-color:#CBE8F8"/>
				</linearGradient>
				<polygon class="st54" points="637.2,333.1 637.2,317 653.2,317 653.2,333.1 				"/>
				
					<linearGradient id="SVGID_43_" gradientUnits="userSpaceOnUse" x1="74.4708" y1="-124.9926" x2="101.678" y2="-207.278" gradientTransform="matrix(0 1 -1 0 464.4162 219.6326)">
					<stop  offset="0" style="stop-color:#51B8F4"/>
					<stop  offset="0.2549" style="stop-color:#83CCF6"/>
					<stop  offset="0.5882" style="stop-color:#CBE8F8"/>
				</linearGradient>
				<polygon class="st55" points="618.2,314.3 618.2,298.2 634.2,298.2 634.2,314.3 				"/>
				
					<linearGradient id="SVGID_44_" gradientUnits="userSpaceOnUse" x1="91.4197" y1="-119.3887" x2="118.6269" y2="-201.6741" gradientTransform="matrix(0 1 -1 0 464.4162 219.6326)">
					<stop  offset="0" style="stop-color:#51B8F4"/>
					<stop  offset="0.2549" style="stop-color:#83CCF6"/>
					<stop  offset="0.5882" style="stop-color:#CBE8F8"/>
				</linearGradient>
				<polygon class="st56" points="618.2,333.1 618.2,317 634.2,317 634.2,333.1 				"/>
				<linearGradient id="SVGID_45_" gradientUnits="userSpaceOnUse" x1="618.4417" y1="349.2871" x2="628.8766" y2="352.7373">
					<stop  offset="0" style="stop-color:#51B8F4"/>
					<stop  offset="0.2549" style="stop-color:#83CCF6"/>
					<stop  offset="0.5882" style="stop-color:#CBE8F8"/>
				</linearGradient>
				<circle class="st57" cx="623.7" cy="351" r="5.5"/>
				<linearGradient id="SVGID_46_" gradientUnits="userSpaceOnUse" x1="605.9611" y1="292.3446" x2="616.3959" y2="295.7949">
					<stop  offset="0" style="stop-color:#51B8F4"/>
					<stop  offset="0.2549" style="stop-color:#83CCF6"/>
					<stop  offset="0.5882" style="stop-color:#CBE8F8"/>
				</linearGradient>
				<path class="st58" d="M616.7,294.1c0,3-2.5,5.5-5.5,5.5c-3,0-5.5-2.5-5.5-5.5c0-3,2.5-5.5,5.5-5.5
					C614.2,288.6,616.7,291,616.7,294.1z"/>
			</g>
			<g>
				
					<linearGradient id="SVGID_47_" gradientUnits="userSpaceOnUse" x1="67.4182" y1="-77.4343" x2="94.6256" y2="-159.7201" gradientTransform="matrix(0 1 -1 0 464.4162 219.6326)">
					<stop  offset="0" style="stop-color:#51B8F4"/>
					<stop  offset="0.2549" style="stop-color:#83CCF6"/>
					<stop  offset="0.5882" style="stop-color:#CBE8F8"/>
				</linearGradient>
				<polygon class="st59" points="587.8,312.9 587.8,296.9 603.8,296.9 603.8,312.9 				"/>
				
					<linearGradient id="SVGID_48_" gradientUnits="userSpaceOnUse" x1="73.0882" y1="-75.5596" x2="100.2956" y2="-157.8454" gradientTransform="matrix(0 1 -1 0 464.4162 219.6326)">
					<stop  offset="0" style="stop-color:#51B8F4"/>
					<stop  offset="0.2549" style="stop-color:#83CCF6"/>
					<stop  offset="0.5882" style="stop-color:#CBE8F8"/>
				</linearGradient>
				<polygon class="st60" points="568.7,312.9 568.7,296.9 584.8,296.9 584.8,312.9 				"/>
				
					<linearGradient id="SVGID_49_" gradientUnits="userSpaceOnUse" x1="90.0371" y1="-69.9556" x2="117.2445" y2="-152.2414" gradientTransform="matrix(0 1 -1 0 464.4162 219.6326)">
					<stop  offset="0" style="stop-color:#51B8F4"/>
					<stop  offset="0.2549" style="stop-color:#83CCF6"/>
					<stop  offset="0.5882" style="stop-color:#CBE8F8"/>
				</linearGradient>
				<polygon class="st61" points="568.7,331.7 568.7,315.7 584.8,315.7 584.8,331.7 				"/>
			</g>
			<g>
				
					<linearGradient id="SVGID_50_" gradientUnits="userSpaceOnUse" x1="114.4074" y1="-77.4343" x2="141.6148" y2="-159.7201" gradientTransform="matrix(0 1 -1 0 464.4162 219.6326)">
					<stop  offset="0" style="stop-color:#51B8F4"/>
					<stop  offset="0.2549" style="stop-color:#83CCF6"/>
					<stop  offset="0.5882" style="stop-color:#CBE8F8"/>
				</linearGradient>
				<polygon class="st62" points="587.8,359.9 587.8,343.9 603.8,343.9 603.8,359.9 				"/>
				
					<linearGradient id="SVGID_51_" gradientUnits="userSpaceOnUse" x1="120.0774" y1="-75.5596" x2="147.2848" y2="-157.8454" gradientTransform="matrix(0 1 -1 0 464.4162 219.6326)">
					<stop  offset="0" style="stop-color:#51B8F4"/>
					<stop  offset="0.2549" style="stop-color:#83CCF6"/>
					<stop  offset="0.5882" style="stop-color:#CBE8F8"/>
				</linearGradient>
				<polygon class="st63" points="568.7,359.9 568.7,343.9 584.8,343.9 584.8,359.9 				"/>
				
					<linearGradient id="SVGID_52_" gradientUnits="userSpaceOnUse" x1="137.0263" y1="-69.9556" x2="164.2337" y2="-152.2414" gradientTransform="matrix(0 1 -1 0 464.4162 219.6326)">
					<stop  offset="0" style="stop-color:#51B8F4"/>
					<stop  offset="0.2549" style="stop-color:#83CCF6"/>
					<stop  offset="0.5882" style="stop-color:#CBE8F8"/>
				</linearGradient>
				<polygon class="st64" points="568.7,378.7 568.7,362.7 584.8,362.7 584.8,378.7 				"/>
			</g>
			<g>
				
					<linearGradient id="SVGID_53_" gradientUnits="userSpaceOnUse" x1="114.4074" y1="-125.3741" x2="141.6148" y2="-207.6599" gradientTransform="matrix(0 1 -1 0 464.4162 219.6326)">
					<stop  offset="0" style="stop-color:#51B8F4"/>
					<stop  offset="0.2549" style="stop-color:#83CCF6"/>
					<stop  offset="0.5882" style="stop-color:#CBE8F8"/>
				</linearGradient>
				<polygon class="st65" points="635.7,359.9 635.7,343.9 651.7,343.9 651.7,359.9 				"/>
				
					<linearGradient id="SVGID_54_" gradientUnits="userSpaceOnUse" x1="131.3563" y1="-119.7702" x2="158.5637" y2="-202.056" gradientTransform="matrix(0 1 -1 0 464.4162 219.6326)">
					<stop  offset="0" style="stop-color:#51B8F4"/>
					<stop  offset="0.2549" style="stop-color:#83CCF6"/>
					<stop  offset="0.5882" style="stop-color:#CBE8F8"/>
				</linearGradient>
				<polygon class="st66" points="635.7,378.7 635.7,362.7 651.7,362.7 651.7,378.7 				"/>
				
					<linearGradient id="SVGID_55_" gradientUnits="userSpaceOnUse" x1="137.0263" y1="-117.8954" x2="164.2337" y2="-200.1812" gradientTransform="matrix(0 1 -1 0 464.4162 219.6326)">
					<stop  offset="0" style="stop-color:#51B8F4"/>
					<stop  offset="0.2549" style="stop-color:#83CCF6"/>
					<stop  offset="0.5882" style="stop-color:#CBE8F8"/>
				</linearGradient>
				<polygon class="st67" points="616.7,378.7 616.7,362.7 632.7,362.7 632.7,378.7 				"/>
			</g>
		</g>
		<linearGradient id="SVGID_56_" gradientUnits="userSpaceOnUse" x1="540.3803" y1="333.6329" x2="681.5773" y2="333.6329">
			<stop  offset="0" style="stop-color:#51B8F4"/>
			<stop  offset="0.2549" style="stop-color:#83CCF6"/>
			<stop  offset="0.5882" style="stop-color:#CBE8F8"/>
		</linearGradient>
		<circle class="st68" cx="611" cy="333.6" r="69.6"/>
	</g>
	<g>
		<linearGradient id="SVGID_57_" gradientUnits="userSpaceOnUse" x1="64.017" y1="61.7223" x2="87.2619" y2="61.7223">
			<stop  offset="0" style="stop-color:#51B8F4"/>
			<stop  offset="0.2549" style="stop-color:#83CCF6"/>
			<stop  offset="0.5882" style="stop-color:#CBE8F8"/>
		</linearGradient>
		<path class="st69" d="M87.3,58.1c0.1-3.5-2.6-6.5-6.1-6.5c-2.5,0-4.6,1.5-5.5,3.7c0,0,0,0,0,0c-0.9-2.2-3.1-3.7-5.6-3.7
			c-3.6,0-6.3,3.1-6,6.7c0.6,7.5,11.4,13.3,11.6,13.4c0,0,0,0,0,0C75.7,71.7,86.9,66.6,87.3,58.1z"/>
		<linearGradient id="SVGID_58_" gradientUnits="userSpaceOnUse" x1="92.659" y1="61.7223" x2="115.9038" y2="61.7223">
			<stop  offset="0" style="stop-color:#51B8F4"/>
			<stop  offset="0.2549" style="stop-color:#83CCF6"/>
			<stop  offset="0.5882" style="stop-color:#CBE8F8"/>
		</linearGradient>
		<path class="st70" d="M115.9,58.1c0.1-3.5-2.6-6.5-6.1-6.5c-2.5,0-4.6,1.5-5.5,3.7c0,0,0,0,0,0c-0.9-2.2-3.1-3.7-5.6-3.7
			c-3.6,0-6.3,3.1-6,6.7c0.6,7.5,11.4,13.3,11.6,13.4c0,0,0,0,0,0C104.4,71.7,115.5,66.6,115.9,58.1z"/>
		<linearGradient id="SVGID_59_" gradientUnits="userSpaceOnUse" x1="121.301" y1="61.7223" x2="144.5458" y2="61.7223">
			<stop  offset="0" style="stop-color:#51B8F4"/>
			<stop  offset="0.2549" style="stop-color:#83CCF6"/>
			<stop  offset="0.5882" style="stop-color:#CBE8F8"/>
		</linearGradient>
		<path class="st71" d="M144.5,58.1c0.1-3.5-2.6-6.5-6.1-6.5c-2.5,0-4.6,1.5-5.5,3.7c0,0,0,0,0,0c-0.9-2.2-3.1-3.7-5.6-3.7
			c-3.6,0-6.3,3.1-6,6.7c0.6,7.5,11.4,13.3,11.6,13.4c0,0,0,0,0,0C133,71.7,144.2,66.6,144.5,58.1z"/>
		<linearGradient id="SVGID_60_" gradientUnits="userSpaceOnUse" x1="149.9429" y1="61.7223" x2="173.1878" y2="61.7223">
			<stop  offset="0" style="stop-color:#51B8F4"/>
			<stop  offset="0.2549" style="stop-color:#83CCF6"/>
			<stop  offset="0.5882" style="stop-color:#CBE8F8"/>
		</linearGradient>
		<path class="st72" d="M173.2,58.1c0.1-3.5-2.6-6.5-6.1-6.5c-2.5,0-4.6,1.5-5.5,3.7c0,0,0,0,0,0c-0.9-2.2-3.1-3.7-5.6-3.7
			c-3.6,0-6.3,3.1-6,6.7c0.6,7.5,11.4,13.3,11.6,13.4c0,0,0,0,0,0C161.7,71.7,172.8,66.6,173.2,58.1z"/>
		<linearGradient id="SVGID_61_" gradientUnits="userSpaceOnUse" x1="180.4106" y1="61.7498" x2="204.6555" y2="61.7498">
			<stop  offset="0" style="stop-color:#51B8F4"/>
			<stop  offset="0.2549" style="stop-color:#83CCF6"/>
			<stop  offset="0.5882" style="stop-color:#CBE8F8"/>
		</linearGradient>
		<path class="st73" d="M204.2,58.1c0.1-3.5-2.6-6.5-6.1-6.5c-2.5,0-4.6,1.5-5.5,3.7c0,0,0,0,0,0c-0.9-2.2-3.1-3.7-5.6-3.7
			c-3.6,0-6.3,3.1-6,6.7c0.6,7.5,11.4,13.3,11.6,13.4c0,0,0,0,0,0C192.6,71.7,203.8,66.6,204.2,58.1z"/>
		<linearGradient id="SVGID_62_" gradientUnits="userSpaceOnUse" x1="211.3783" y1="61.7498" x2="235.6231" y2="61.7498">
			<stop  offset="0" style="stop-color:#51B8F4"/>
			<stop  offset="0.2549" style="stop-color:#83CCF6"/>
			<stop  offset="0.5882" style="stop-color:#CBE8F8"/>
		</linearGradient>
		<path class="st74" d="M235.1,58.1c0.1-3.5-2.6-6.5-6.1-6.5c-2.5,0-4.6,1.5-5.5,3.7c0,0,0,0,0,0c-0.9-2.2-3.1-3.7-5.6-3.7
			c-3.6,0-6.3,3.1-6,6.7c0.6,7.5,11.4,13.3,11.6,13.4c0,0,0,0,0,0C223.6,71.7,234.8,66.6,235.1,58.1z"/>
	</g>
	<g>
		<g>
			<linearGradient id="SVGID_63_" gradientUnits="userSpaceOnUse" x1="557.9076" y1="55.7985" x2="690.6343" y2="55.7985">
				<stop  offset="0" style="stop-color:#51B8F4"/>
				<stop  offset="0.2549" style="stop-color:#83CCF6"/>
				<stop  offset="0.5882" style="stop-color:#CBE8F8"/>
			</linearGradient>
			<path class="st75" d="M681.5,65H557.9V46.6h123.6c5.1,0,9.2,4.1,9.2,9.2l0,0C690.6,60.9,686.5,65,681.5,65z"/>
			<linearGradient id="SVGID_64_" gradientUnits="userSpaceOnUse" x1="509.8204" y1="55.7985" x2="691.1343" y2="55.7985">
				<stop  offset="0" style="stop-color:#51B8F4"/>
				<stop  offset="0.2549" style="stop-color:#83CCF6"/>
				<stop  offset="0.5882" style="stop-color:#CBE8F8"/>
			</linearGradient>
			<path class="st76" d="M681.5,65H521.8l-11.1-18.3h170.8c5.1,0,9.2,4.1,9.2,9.2l0,0C690.6,60.9,686.5,65,681.5,65z"/>
		</g>
		<g class="st77">
			<text transform="matrix(1 0 0 1 625.9846 59.9155)" class="st5 st12 st78">Stamina</text>
		</g>
	</g>
	<g id="XMLID_432_">
		<g id="XMLID_435_">
			<path id="XMLID_436_" class="st79" d="M501.6,286.6v54c0,0.4-0.4,0.9-0.8,1.1l-68.6,29.9c-0.5,0.2-1.2,0.2-1.7,0l-2.3-1
				c-0.5-0.2-0.8-0.7-0.8-1.1v-54c0-0.4,0.4-0.7,1-0.7l72.3-28.9C501.1,285.9,501.6,286.2,501.6,286.6z"/>
		</g>
		<g id="XMLID_433_">
			<path id="XMLID_434_" class="st80" d="M428.3,314.7h2c0.5,0,1,0.3,1,0.7l0,55.7c0,0.4-0.4,0.6-0.8,0.4l-2.3-1
				c-0.5-0.2-0.8-0.7-0.8-1.1v-54C427.3,315.1,427.7,314.7,428.3,314.7z"/>
		</g>
	</g>
	<g id="XMLID_427_">
		<g id="XMLID_430_">
			<path id="XMLID_431_" class="st81" d="M364.9,224.7v54c0,0.4-0.4,0.9-0.8,1.1l-71.3,31c-0.5,0.2-1.2,0.2-1.7,0l-2.3-1
				c-0.5-0.2-0.8-0.7-0.8-1.1v-54c0-0.4,0.4-0.7,1-0.7l75.1-30C364.5,224,364.9,224.3,364.9,224.7z"/>
		</g>
		<g id="XMLID_428_">
			<path id="XMLID_429_" class="st82" d="M288.9,254.1h2c0.5,0,1,0.3,1,0.7l0,55.7c0,0.4-0.4,0.6-0.8,0.4l-2.3-1
				c-0.5-0.2-0.8-0.7-0.8-1.1v-54C287.9,254.4,288.3,254.1,288.9,254.1z"/>
		</g>
	</g>
	<g id="XMLID_425_">
		<path id="XMLID_426_" class="st80" d="M508.3,284.9v-0.5c0-0.8-0.8-1.8-1.7-2.2l-144-62.7c-0.9-0.4-2.5-0.4-3.4,0L283,252.7
			c-0.9,0.4-1.7,1.4-1.7,2.2v0.5c0,0.8,0.8,1.8,1.7,2.2l144,62.7c0.9,0.4,2.5,0.4,3.4,0l76.3-33.2
			C507.5,286.7,508.3,285.8,508.3,284.9z"/>
	</g>
	<g id="XMLID_423_">
		<path id="XMLID_424_" class="st82" d="M428.6,317.2v3.5c0.6,0,1.2-0.1,1.7-0.3l76.3-33.2c0.9-0.4,1.7-1.4,1.7-2.2v-0.5
			c0-0.7-0.6-1.6-1.4-2.1c0.6,0.4,0.5,0.9-0.3,1.3l-76.3,33.2C429.9,317.1,429.2,317.2,428.6,317.2z"/>
	</g>
	<g id="XMLID_421_">
		<path id="XMLID_422_" class="st79" d="M506.6,283.7l-76.3,33.2c-0.9,0.4-2.5,0.4-3.4,0l-144-62.7c-0.9-0.4-0.9-1.1,0-1.5
			l76.3-33.2c0.9-0.4,2.5-0.4,3.4,0l144,62.7C507.5,282.6,507.5,283.3,506.6,283.7z"/>
	</g>
	<g id="XMLID_1317_">
		<g id="Legs">
			<g id="XMLID_1365_">
				<g id="XMLID_1370_">
					<path id="XMLID_1389_" class="st83" d="M306.9,345.1c-0.5,0.5-0.6,1.6-1.1,3.2c-0.5,1.6-0.7,2.8-0.3,3.5
						c0.3,0.8,2.6,2.5,5.3,3.1c2.7,0.6,6.1,0.1,9.3-1.4c3.2-1.5,5.7-3.2,10.3-4.2c4.6-1,6.9-1.8,9.1-3.1c2.6-1.5,4.2-3.9-0.7-4.9
						c-4.9-1-13.8,0.5-23.4,0.9L306.9,345.1z"/>
				</g>
				<g id="XMLID_1368_">
					<path id="XMLID_1369_" class="st84" d="M306.9,340.5v5.5c0,0,1,1.8,5.1,1.9c2.5,0.1,4.4-0.8,5.5-2v-5.4H306.9z"/>
				</g>
				<g id="XMLID_1366_">
					<path id="XMLID_1367_" class="st85" d="M320.7,304.8c0.1,6.8-2.5,38.1-2.5,38.1s-3.7,3.5-11.7,0l-2.7-34.8L320.7,304.8z"/>
				</g>
			</g>
			<g id="XMLID_1353_">
				<g id="XMLID_1356_">
					<path id="XMLID_28704_" class="st83" d="M328.6,355.8c-0.5,0.5-0.6,1.6-1.1,3.2c-0.5,1.6-0.7,2.8-0.3,3.5
						c0.3,0.8,2.6,2.5,5.3,3.1c2.7,0.6,6.1,0.1,9.3-1.4c3.2-1.5,5.7-3.2,10.3-4.2c4.6-1,6.9-1.8,9.1-3.1c2.6-1.5,4.2-3.9-0.7-4.9
						c-4.9-1-13.8,0.5-23.4,0.9L328.6,355.8z"/>
				</g>
				<g id="XMLID_1355_">
					<path id="XMLID_28702_" class="st84" d="M328.6,351.2v5.5c0,0,1,1.8,5.1,1.9c2.5,0.1,4.4-0.8,5.5-2v-5.4H328.6z"/>
				</g>
				<g id="XMLID_1354_">
					<path id="XMLID_28700_" class="st85" d="M342.4,315.5c0.1,6.8-2.5,38.1-2.5,38.1s-3.7,3.5-11.7,0l-2.7-34.8L342.4,315.5z"/>
				</g>
			</g>
		</g>
		<g id="Chair">
			<g id="XMLID_42935_">
				<g id="XMLID_42937_">
					<g id="XMLID_42942_">
						<g id="XMLID_42944_">
							<g id="XMLID_42975_">
								<path id="XMLID_42977_" class="st86" d="M314.4,380c0,0.3,0,0.5-0.1,0.8c-0.2,0.5-0.5,0.8-0.9,1.1l0,0
									c-0.7,0.3-1.7,0.3-2.8-0.2c-2.1-0.9-3.9-3.2-3.9-5c0-0.9,0.4-1.5,1.1-1.8l0,0l0.2-0.1h0c0.5-0.2,1-0.2,1.6,0
									c0.3,0.1,0.6,0.2,0.9,0.3C312.7,375.9,314.4,378.1,314.4,380z"/>
								<path id="XMLID_42976_" class="st83" d="M313.4,373.7c-0.6-0.3-1.2-0.4-1.7-0.4c-0.4,0-0.8,0.1-1.1,0.2l-0.1,0l-2.5,1.1
									c0.5-0.2,1-0.2,1.6,0c0.3,0.1,0.6,0.2,0.9,0.3c2.1,0.9,3.9,3.2,3.9,5c0,0.3,0,0.5-0.1,0.8c-0.2,0.5-0.5,0.8-0.9,1.1l2.6-1.1
									l0,0l0.2-0.1c0,0,0,0,0.1,0c0.6-0.3,0.9-1,0.9-1.8C317.2,376.9,315.5,374.6,313.4,373.7z"/>
							</g>
							<g id="XMLID_42972_">
								<path id="XMLID_42974_" class="st86" d="M272.7,363c0,0.3,0,0.5-0.1,0.8c-0.2,0.5-0.5,0.8-0.9,1.1l0,0
									c-0.7,0.3-1.7,0.3-2.8-0.2c-2.1-0.9-3.9-3.2-3.9-5c0-0.9,0.4-1.5,1.1-1.8l0,0l0.2-0.1h0c0.5-0.2,1-0.2,1.6,0
									c0.3,0.1,0.6,0.2,0.9,0.3C271,358.9,272.7,361.2,272.7,363z"/>
								<path id="XMLID_42973_" class="st83" d="M271.6,356.8c-0.6-0.3-1.2-0.4-1.7-0.4c-0.4,0-0.8,0.1-1.1,0.2l-0.1,0l-2.5,1.1
									c0.5-0.2,1-0.2,1.6,0c0.3,0.1,0.6,0.2,0.9,0.3c2.1,0.9,3.9,3.2,3.9,5c0,0.3,0,0.5-0.1,0.8c-0.2,0.5-0.5,0.8-0.9,1.1l2.6-1.1
									l0,0l0.2-0.1c0,0,0,0,0.1,0c0.6-0.3,0.9-1,0.9-1.8C275.5,359.9,273.8,357.7,271.6,356.8z"/>
							</g>
							<g id="XMLID_42969_">
								<path id="XMLID_42971_" class="st86" d="M280.1,386.6c0,0.3,0,0.5,0.1,0.8c0.2,0.5,0.5,0.8,0.9,1.1l0,0
									c0.7,0.3,1.7,0.3,2.8-0.2c2.1-0.9,3.9-3.2,3.9-5c0-0.9-0.4-1.5-1.1-1.8l0,0l-0.2-0.1h0c-0.5-0.2-1-0.2-1.6,0
									c-0.3,0.1-0.6,0.2-0.9,0.3C281.9,382.5,280.1,384.7,280.1,386.6z"/>
								<path id="XMLID_42970_" class="st83" d="M281.2,380.3c0.6-0.3,1.2-0.4,1.7-0.4c0.4,0,0.8,0.1,1.1,0.2l0.1,0l2.5,1.1
									c-0.5-0.2-1-0.2-1.6,0c-0.3,0.1-0.6,0.2-0.9,0.3c-2.1,0.9-3.9,3.2-3.9,5c0,0.3,0,0.5,0.1,0.8c0.2,0.5,0.5,0.8,0.9,1.1
									l-2.6-1.1l0,0l-0.2-0.1c0,0,0,0-0.1,0c-0.6-0.3-0.9-1-0.9-1.8C277.3,383.5,279.1,381.2,281.2,380.3z"/>
							</g>
							<g id="XMLID_42966_">
								<path id="XMLID_42968_" class="st86" d="M253,376.6c0,0.3,0,0.5,0.1,0.8c0.2,0.5,0.5,0.8,0.9,1.1l0,0
									c0.7,0.3,1.7,0.3,2.8-0.2c2.1-0.9,3.9-3.2,3.9-5c0-0.9-0.4-1.5-1.1-1.8l0,0l-0.2-0.1h0c-0.5-0.2-1-0.2-1.6,0
									c-0.3,0.1-0.6,0.2-0.9,0.3C254.8,372.5,253,374.7,253,376.6z"/>
								<path id="XMLID_42967_" class="st83" d="M254.1,370.3c0.6-0.3,1.2-0.4,1.7-0.4c0.4,0,0.8,0.1,1.1,0.2l0.1,0l2.5,1.1
									c-0.5-0.2-1-0.2-1.6,0c-0.3,0.1-0.6,0.2-0.9,0.3c-2.1,0.9-3.9,3.2-3.9,5c0,0.3,0,0.5,0.1,0.8c0.2,0.5,0.5,0.8,0.9,1.1
									l-2.6-1.1l0,0l-0.2-0.1c0,0,0,0-0.1,0c-0.6-0.3-0.9-1-0.9-1.8C250.2,373.5,252,371.2,254.1,370.3z"/>
							</g>
							<g id="XMLID_42963_">
								<path id="XMLID_42965_" class="st86" d="M305.4,364.3c0,0.3,0,0.5,0.1,0.8c0.2,0.5,0.5,0.8,0.9,1.1l0,0
									c0.7,0.3,1.7,0.3,2.8-0.2c2.1-0.9,3.9-3.2,3.9-5c0-0.9-0.4-1.5-1.1-1.8l0,0l-0.2-0.1h0c-0.5-0.2-1-0.2-1.6,0
									c-0.3,0.1-0.6,0.2-0.9,0.3C307.1,360.2,305.4,362.4,305.4,364.3z"/>
								<path id="XMLID_42964_" class="st83" d="M306.5,358c0.6-0.3,1.2-0.4,1.7-0.4c0.4,0,0.8,0.1,1.1,0.2l0.1,0l2.5,1.1
									c-0.5-0.2-1-0.2-1.6,0c-0.3,0.1-0.6,0.2-0.9,0.3c-2.1,0.9-3.9,3.2-3.9,5c0,0.3,0,0.5,0.1,0.8c0.2,0.5,0.5,0.8,0.9,1.1
									l-2.6-1.1l0,0l-0.2-0.1c0,0,0,0-0.1,0c-0.6-0.3-0.9-1-0.9-1.8C302.6,361.2,304.3,358.9,306.5,358z"/>
							</g>
							<g id="XMLID_42960_">
								<polygon id="XMLID_42962_" class="st80" points="282.4,358.1 268.6,355.1 268.6,357.4 282.4,363.4 								"/>
								<polygon id="XMLID_42961_" class="st79" points="282.4,358.1 283.7,357.5 269.9,354.6 268.6,355.1 								"/>
							</g>
							<g id="XMLID_42957_">
								<polygon id="XMLID_42959_" class="st80" points="288.3,364.7 307.9,359.2 307.9,357 288.3,358.3 								"/>
								<polygon id="XMLID_42958_" class="st79" points="307.9,357 306.4,356.7 287.2,357.6 288.3,358.3 								"/>
							</g>
							<path id="XMLID_42956_" class="st79" d="M288.9,364c0,1.7-6.8,1.7-6.8,0v-14.6h6.8V364z"/>
							<g id="XMLID_42952_">
								<path id="XMLID_42955_" class="st79" d="M283.8,360.2l-3.7,18.3h2.6l3.5-18.3C285.2,360.4,284.5,360.4,283.8,360.2z"/>
								<polygon id="XMLID_42954_" class="st80" points="286.1,360.2 286.1,365.3 282.6,381.6 282.6,378.5 								"/>
								<rect id="XMLID_42953_" x="280" y="378.5" class="st82" width="2.6" height="3.1"/>
							</g>
							<g id="XMLID_42948_">
								<polygon id="XMLID_42951_" class="st80" points="287.2,365.1 312.4,375.1 312.4,372 287.2,360.3 								"/>
								<path id="XMLID_42950_" class="st79" d="M287.2,360.3c0.6-0.1,1.2-0.2,1.6-0.6l25.1,11.5l-1.6,0.8L287.2,360.3z"/>
								<polygon id="XMLID_42949_" class="st82" points="312.4,375.1 312.4,372 314,371.2 314,374.2 								"/>
							</g>
							<polygon id="XMLID_42947_" class="st80" points="255.5,371.6 282.4,364.6 282.4,360.1 255.5,368.5 							"/>
							<path id="XMLID_42946_" class="st79" d="M282.4,360.1c-0.2,0-0.3-0.3-0.3-0.8l-27.4,9l0.8,0.2L282.4,360.1z"/>
							<polygon id="XMLID_42945_" class="st82" points="254.7,368.3 254.7,371.2 255.5,371.6 255.5,368.5 							"/>
						</g>
						<path id="XMLID_42943_" class="st87" d="M279.7,324.1h11.5v30.1c0,2.5-11.5,2.5-11.5,0L279.7,324.1z"/>
					</g>
					<g id="XMLID_42938_">
						<path id="XMLID_42941_" class="st88" d="M329.8,326.8L329.8,326.8c0-1.6-1.1-3-2.9-3.8l-40.3-17.5c-1.8-0.8-4-0.8-5.7,0
							L240.6,323c-1.8,0.8-2.9,2.2-2.9,3.8l0,0l46,20L329.8,326.8z"/>
						<path id="XMLID_42940_" class="st79" d="M329.8,326.8v2.5l-43.2,18.8c-0.9,0.4-1.9,0.6-2.8,0.6c-1,0-2-0.2-2.8-0.6l-43.2-18.8
							v-2.5l43.2,18.8c0.9,0.4,1.9,0.6,2.8,0.6c1,0,2-0.2,2.8-0.6L329.8,326.8z"/>
						<path id="XMLID_42939_" class="st80" d="M329.8,326.8v2.5l-43.2,18.8c-0.9,0.4-1.9,0.6-2.8,0.6v-2.5c1,0,2-0.2,2.8-0.6
							L329.8,326.8z"/>
					</g>
				</g>
				<path id="XMLID_42936_" class="st89" d="M329.8,326.8c0-0.7-0.2-1.3-0.6-1.9l-43.5,18.9c-1.2,0.5-2.6,0.5-3.8,0l-43.5-18.9
					c-0.4,0.6-0.6,1.2-0.6,1.9l46,20L329.8,326.8L329.8,326.8z"/>
			</g>
		</g>
		<g id="Character_2_">
			<g id="XMLID_1371_">
				<g id="XMLID_1387_">
					<path id="XMLID_1388_" class="st83" d="M251.7,313.1c0,0,37.3-8.5,43.8-9.8c6.5-1.3,18.9-3.6,22.6-2.4c3.6,1.2,5.5,2.7,5.8,6.6
						c0.1,0.7,0,4.4,0,4.4s-18,4.2-32.8,4.2C276.3,316.1,251.7,313.1,251.7,313.1z"/>
				</g>
				<g id="XMLID_1385_">
					<polygon id="XMLID_1386_" class="st84" points="283.6,265.2 281.1,275.3 267.4,276.5 269.4,262.6 					"/>
				</g>
				<g id="XMLID_14575_">
					<g id="XMLID_1383_">
						<path id="XMLID_1384_" class="st90" d="M296.4,257.2c0,0,1.8,4.2,1.3,4.4c-0.6,0.3-3,0.1-3,0.1L296.4,257.2z"/>
					</g>
					<g id="XMLID_1381_">
						<path id="XMLID_1382_" class="st84" d="M292.9,243.8c2.4,1.9,4.6,5,3.6,13c-1.1,8.7-4.5,11-6,11.6c-2.2,0.8-9.6-0.6-12-1.9
							c-3-1.7-8.7-5.8-10.2-11c-1.7-6,0.5-12.9,6.3-14.3C282.9,239.2,290.9,242.2,292.9,243.8z"/>
					</g>
					<g id="XMLID_14583_">
						<path id="XMLID_1380_" class="st83" d="M298.3,248.1c-1.4,2-4.1,7-11.6,8.4c0,0-0.4-3.4-4.1-3.4c-3.7,0-5,3.4-3.1,5.8
							c1.8,2.4,4.2,1.9,4.2,1.9s-0.4,4.8-4.9,6.5c0,0-5.5,1.9-10.5-0.5c-2.2-1.1-4.8-5.8-6.2-9.5c-2.8-8-2.3-14,4.4-15.3
							c1.4-3.3,3.7-4.4,7.9-4.6c9.1-0.5,14.9,4.6,22.5,4.6C300.8,241.9,299.9,245.8,298.3,248.1z"/>
					</g>
					<g id="XMLID_1378_">
						<path id="XMLID_1379_" class="st83" d="M266.6,242.5l-4.5-1.5c0.5-0.9,2-1.4,3.2-1C266.6,240.4,267.1,241.5,266.6,242.5z"/>
					</g>
				</g>
				<g id="XMLID_1376_">
					<path id="XMLID_1377_" class="st85" d="M251.8,309.7c0,5.4-0.7,11,2.3,15c2.9,3.8,16.5,12.1,31.8,10.2
						c10-1.3,42.2-10.5,42.2-10.5s14.3-4,14.3-6.8c0-0.7,0.1-1.4,0-2.2c-0.3-3.8-2.3-7.8-12.8-7.6c-11.4,0.2-45.2,4.4-45.2,4.4
						L251.8,309.7z"/>
				</g>
				<g id="XMLID_1374_">
					<path id="XMLID_1375_" class="st86" d="M254.4,274.7c1.2-2.8,6-5.9,10.7-5.2c8.7,1.2,18.3,3.4,20.8,3.9l0,0
						c0,0-1.1,14.5,8.7,18.9l1.3,18.5c0,0-2.4,3.7-6.2,5.5c-4.1,2-9.8,4.9-20,4.2c-12.2-0.8-18.1-7.5-18.1-7.5s0.1-17.5,0.5-25.3
						C252.5,281.2,253.6,276.7,254.4,274.7z"/>
				</g>
				<g id="XMLID_1372_">
					<path id="XMLID_1373_" class="st85" d="M295,295.9c0,0-5.2-4-7-8.7c0,0,0,6.9,7.1,10.6L295,295.9z"/>
				</g>
			</g>
			<g id="XMLID_1357_">
				<g id="XMLID_1362_">
					<path id="XMLID_1363_" class="st84" d="M286,273.4c5.4,1.2,8.7,1.4,14.6,8.4c6,6.9,19,20.6,20.3,22.3c1.8,2.3,2.6,5,1,7.1
						c-1.4,2-5.7,1.1-11.6-2.8c-5.7-3.8-17.1-14.5-17.1-14.5S287.4,284.1,286,273.4z"/>
				</g>
				<g id="XMLID_1358_">
					<path id="XMLID_1359_" class="st86" d="M286,273.4c0,0,4.8,0.8,7.8,1.9c0.9,0.3,4,1.2,5.9,3.7c4.2,5.2,10.1,12.7,10.1,12.7
						s1,6.5-9.4,8.7l-5.5-4.5c-2.3-1.8-4.2-3.9-5.5-6.2C287,285.7,284.3,279.5,286,273.4z"/>
				</g>
			</g>
			<path id="XMLID_1361_" class="st84" d="M320.2,312.2c5-0.5,16.2-12,19.9-15.7c3.7-3.7,6.8-5.9,10.2-7.2c3.4-1.4,6.3-3.6,7.2-8
				c0.9-4.1-4.2-6.8-8.4-2.6c-2.6,2.6-5.3,4.3-5.5,3.9c-0.1-0.4,0.8-2.3,0.8-4.2c0-2.3-2.2-0.8-2.8,0c-0.6,0.8-1.4,2.1-2.3,3.8
				c-1.1,2.1-0.6,4.1-1.9,5.5c-1.3,1.4-18.7,14-18.7,14L320.2,312.2z"/>
		</g>
		<g id="XMLID_42855_">
			<polygon id="XMLID_42863_" class="st88" points="235.5,276.7 235.5,315.5 276.3,333.3 276.3,294.5 			"/>
			<polygon id="XMLID_1352_" class="st89" points="235.5,276.7 235.5,315.5 276.3,333.3 276.3,294.5 			"/>
			<path id="XMLID_42862_" class="st88" d="M280.1,331.7l-3.7,1.6c0,0,0-30.6,0-35.6c0-1.7-0.7-2.5-1.6-2.9
				c-3.1-1.4-7.2,1.6-7.2,1.6l0-2.6l-39.4-17.2c3.7-1.6,6.1-2.7,13.6,0.5c7.5,3.2,29.5,12.8,32.9,14.4c2.8,1.3,5.4,2.8,5.4,6.3
				C280.1,304,280.1,331.7,280.1,331.7z"/>
			<path id="XMLID_42861_" class="st91" d="M274.7,291.6c-3.4-1.7-25.4-11.2-32.9-14.4c-7.5-3.2-9.9-2.1-13.6-0.5l39.4,17.2
				C268.9,292.8,271.6,291.6,274.7,291.6z"/>
			<polygon id="XMLID_42860_" class="st88" points="267.6,296.5 228.1,279.2 228.1,276.7 267.5,293.9 			"/>
			<polygon id="XMLID_1364_" class="st92" points="267.6,296.5 228.1,279.2 228.1,276.7 267.5,293.9 			"/>
			<g id="XMLID_42858_">
				<path id="XMLID_42859_" class="st93" d="M267,345.6c-0.6,0-1.2-0.1-1.8-0.4c-1.1-0.5-1.8-1.4-1.8-2.3v-20.3
					c0-0.8,0.8-1.4,1.8-1.4c1,0,1.8,0.6,1.8,1.4v20.2l2.9-1.3c0.9-0.4,2-0.2,2.5,0.5c0.5,0.7,0.2,1.5-0.7,1.9l-3,1.3
					C268.2,345.5,267.6,345.6,267,345.6z"/>
			</g>
			<g id="XMLID_42856_">
				<path id="XMLID_42857_" class="st93" d="M244.6,335.8c-0.6,0-1.2-0.1-1.8-0.4c-1.1-0.5-1.8-1.4-1.8-2.3v-20.3
					c0-0.8,0.8-1.4,1.8-1.4c1,0,1.8,0.6,1.8,1.4V333l2.9-1.3c0.9-0.4,2-0.2,2.5,0.5c0.5,0.7,0.2,1.5-0.7,1.9l-3,1.3
					C245.9,335.7,245.3,335.8,244.6,335.8z"/>
			</g>
		</g>
	</g>
	<g id="Laptop_3_">
		<path id="XMLID_656_" class="st85" d="M383.4,265.3c0,0.4-0.4,1-0.8,1.2l-22.9,12.1c-0.5,0.2-1.2,0.2-1.6,0l-31.7-15.8
			c-0.5-0.2-0.8-0.8-0.8-1.2c0-0.4,0.4-1,0.8-1.2l22.9-12.1c0.5-0.2,1.2-0.2,1.6,0l31.7,15.8C383,264.4,383.4,264.9,383.4,265.3z"/>
		<path id="XMLID_655_" class="st83" d="M358.9,277.2l0,1.6c0.3,0,0.6-0.1,0.8-0.2l22.9-12.1c0.5-0.2,0.8-0.8,0.8-1.2
			c0-0.4-0.3-0.9-0.8-1.2c0.4,0.2,0.3,0.6-0.1,0.8l-22.9,12.1C359.4,277.2,359.2,277.2,358.9,277.2z"/>
		<path id="XMLID_654_" class="st86" d="M384.2,264.1c0.4-0.2,0.8-0.8,0.8-1.2l-0.2-24.4c0-0.5-0.4-1-0.8-1.3l-31.7-15.8
			c-0.5-0.2-1.2-0.2-1.6,0s-0.8,0.8-0.8,1.2l0.2,24.4c0,0.5,0.4,1,0.8,1.3l31.7,15.8C383,264.4,383.7,264.4,384.2,264.1z"/>
		<path id="XMLID_653_" class="st83" d="M382.7,264.2c0.5,0.2,1.1,0.2,1.5,0c0.4-0.2,0.8-0.8,0.8-1.2l-0.2-24.5
			c0-0.2-0.1-0.5-0.2-0.7l-1.5,0.8l0,0c0.2,0.2,0.2,0.5,0.2,0.7l0.2,24.5C383.4,264.1,383.1,264.3,382.7,264.2z"/>
		<path id="XMLID_652_" class="st85" d="M383.1,239.3l0.2,24.4c0,0.5-0.4,0.7-0.8,0.4l-31.7-15.8c-0.5-0.2-0.8-0.8-0.8-1.3
			l-0.2-24.4c0-0.5,0.4-0.7,0.8-0.4l31.7,15.8C382.8,238.2,383.1,238.8,383.1,239.3z"/>
		<path id="XMLID_651_" class="st86" d="M382.6,265l-22.9,12.1c-0.5,0.2-1.2,0.2-1.6,0l-31.7-15.8c-0.5-0.2-0.5-0.6,0-0.8l22.9-12.1
			c0.5-0.2,1.2-0.2,1.6,0l31.7,15.8C383,264.4,383,264.7,382.6,265z"/>
		<path id="XMLID_649_" class="st79" d="M381.9,239.4l-30.5-15.3c-0.3-0.1-0.5,0-0.5,0.3l0.2,21.2c0,0.3,0.2,0.6,0.5,0.8l30.5,15.3
			c0.3,0.1,0.5,0,0.5-0.3l-0.2-21.2C382.4,239.8,382.2,239.5,381.9,239.4z"/>
		<path id="XMLID_648_" class="st88" d="M379.9,264.4l-29.4-14.7c-0.2-0.1-0.6-0.1-0.8,0l-1.5,0.8c-0.2,0.1-0.2,0.3,0,0.4l29.4,14.7
			c0.2,0.1,0.6,0.1,0.8,0l1.5-0.8C380.1,264.7,380.1,264.5,379.9,264.4z"/>
		<path id="XMLID_647_" class="st83" d="M379.9,264.4l-29.4-14.7c-0.2-0.1-0.6-0.1-0.8,0l-1.5,0.8c-0.2,0.1-0.2,0.3,0,0.4l29.4,14.7
			c0.2,0.1,0.6,0.1,0.8,0l1.5-0.8C380.1,264.7,380.1,264.5,379.9,264.4z"/>
		<path id="XMLID_646_" class="st83" d="M376.1,266.4l-29.4-14.7c-0.2-0.1-0.6-0.1-0.8,0l-9.2,4.8c-0.2,0.1-0.2,0.3,0,0.4l29.4,14.7
			c0.2,0.1,0.6,0.1,0.8,0l9.2-4.8C376.3,266.7,376.3,266.5,376.1,266.4z"/>
		<path id="XMLID_558_" class="st88" d="M349.9,258.4l1.1-0.6c0,0,0-0.1,0-0.1l-0.9-0.5c0,0-0.1,0-0.1,0l-1.1,0.6c0,0,0,0.1,0,0.1
			l0.9,0.5C349.8,258.4,349.9,258.4,349.9,258.4z M351.4,256.5l-1.1,0.6c0,0,0,0.1,0,0.1l0.9,0.5c0,0,0.1,0,0.1,0l1.1-0.6
			c0,0,0-0.1,0-0.1l-0.9-0.5C351.5,256.5,351.5,256.5,351.4,256.5z M354.4,258l-1.1,0.6c0,0,0,0.1,0,0.1l1.6,0.8c0,0,0.1,0,0.1,0
			l1.1-0.6c0,0,0-0.1,0-0.1l-1.6-0.8C354.5,258,354.4,258,354.4,258z M352.8,257.2l-1.1,0.6c0,0,0,0.1,0,0.1l0.9,0.5
			c0,0,0.1,0,0.1,0l1.1-0.6c0,0,0-0.1,0-0.1l-0.9-0.5C352.9,257.2,352.8,257.2,352.8,257.2z M356.4,259l-1.1,0.6c0,0,0,0.1,0,0.1
			l0.9,0.5c0,0,0.1,0,0.1,0l1.1-0.6c0,0,0-0.1,0-0.1l-0.9-0.5C356.5,259,356.4,259,356.4,259z M357.7,259.7l-1.1,0.6
			c0,0,0,0.1,0,0.1l0.9,0.5c0,0,0.1,0,0.1,0l1.1-0.6c0,0,0-0.1,0-0.1l-0.9-0.5C357.8,259.7,357.8,259.7,357.7,259.7z M353.9,261.9
			l1.1-0.6c0,0,0-0.1,0-0.1l-0.9-0.5c0,0-0.1,0-0.1,0l-1.1,0.6c0,0,0,0.1,0,0.1l0.9,0.5C353.8,262,353.8,262,353.9,261.9z
			 M355.2,262.6l1.1-0.6c0,0,0-0.1,0-0.1l-0.9-0.5c0,0-0.1,0-0.1,0l-1.1,0.6c0,0,0,0.1,0,0.1l0.9,0.5
			C355.1,262.6,355.2,262.6,355.2,262.6z M356.6,263.3l1.1-0.6c0,0,0-0.1,0-0.1l-0.9-0.5c0,0-0.1,0-0.1,0l-1.1,0.6c0,0,0,0.1,0,0.1
			l0.9,0.5C356.4,263.3,356.5,263.3,356.6,263.3z M357.9,264l1.1-0.6c0,0,0-0.1,0-0.1l-0.9-0.5c0,0-0.1,0-0.1,0l-1.1,0.6
			c0,0,0,0.1,0,0.1l0.9,0.5C357.8,264,357.9,264,357.9,264z M351.3,259.1l1.1-0.6c0,0,0-0.1,0-0.1l-0.9-0.5c0,0-0.1,0-0.1,0
			l-1.1,0.6c0,0,0,0.1,0,0.1l0.9,0.5C351.2,259.1,351.2,259.1,351.3,259.1z M352.5,261.3l1.1-0.6c0,0,0-0.1,0-0.1l-0.8-0.4
			c0,0,0-0.1,0-0.1l1.4-0.7c0,0,0-0.1,0-0.1l-1.1-0.5c0,0-0.1,0-0.1,0l-2.6,1.3c0,0,0,0.1,0,0.1l2.1,1
			C352.4,261.3,352.5,261.3,352.5,261.3z M359.1,260.4l-1.1,0.6c0,0,0,0.1,0,0.1l0.9,0.5c0,0,0.1,0,0.1,0l1.1-0.6c0,0,0-0.1,0-0.1
			l-0.9-0.5C359.2,260.3,359.1,260.3,359.1,260.4z M360.4,261l-1.1,0.6c0,0,0,0.1,0,0.1l0.9,0.5c0,0,0.1,0,0.1,0l1.1-0.6
			c0,0,0-0.1,0-0.1l-0.9-0.5C360.5,261,360.4,261,360.4,261z M368.4,268.1C368.4,268.1,368.4,268.1,368.4,268.1l-0.9-0.5
			c0,0-0.1,0-0.1,0l-1.1,0.6c0,0,0,0.1,0,0.1l0.9,0.5c0,0,0.1,0,0.1,0L368.4,268.1z M371.2,266.4l-1.1,0.6c0,0,0,0.1,0,0.1l0.9,0.5
			c0,0,0.1,0,0.1,0l1.1-0.6c0,0,0-0.1,0-0.1l-0.9-0.5C371.3,266.4,371.2,266.4,371.2,266.4z M370.2,267.5
			C370.3,267.5,370.3,267.4,370.2,267.5l-0.9-0.5c0,0-0.1,0-0.1,0l-1.1,0.6c0,0,0,0.1,0,0.1l0.9,0.5c0,0,0.1,0,0.1,0L370.2,267.5z
			 M365.1,269.1l1.1-0.6c0,0,0-0.1,0-0.1l-0.9-0.5c0,0-0.1,0-0.1,0l-1.1,0.6c0,0,0,0.1,0,0.1l0.9,0.5
			C365,269.1,365.1,269.1,365.1,269.1z M367.5,269.2C367.5,269.2,367.5,269.2,367.5,269.2l-0.9-0.5c0,0-0.1,0-0.1,0l-1.1,0.6
			c0,0,0,0.1,0,0.1l0.9,0.5c0,0,0.1,0,0.1,0L367.5,269.2z M369.8,265.7l-1.1,0.6c0,0,0,0.1,0,0.1l0.9,0.5c0,0,0.1,0,0.1,0l1.1-0.6
			c0,0,0-0.1,0-0.1l-0.9-0.5C369.9,265.7,369.9,265.7,369.8,265.7z M363.1,262.4l-1.1,0.6c0,0,0,0.1,0,0.1l0.9,0.5c0,0,0.1,0,0.1,0
			l1.1-0.6c0,0,0-0.1,0-0.1l-0.9-0.5C363.2,262.4,363.1,262.4,363.1,262.4z M368.5,265.1l-1.1,0.6c0,0,0,0.1,0,0.1l0.9,0.5
			c0,0,0.1,0,0.1,0l1.1-0.6c0,0,0-0.1,0-0.1l-0.9-0.5C368.6,265,368.5,265,368.5,265.1z M361.7,261.7l-1.1,0.6c0,0,0,0.1,0,0.1
			l0.9,0.5c0,0,0.1,0,0.1,0l1.1-0.6c0,0,0-0.1,0-0.1l-0.9-0.5C361.9,261.7,361.8,261.7,361.7,261.7z M364.4,263.1l-1.1,0.6
			c0,0,0,0.1,0,0.1l0.9,0.5c0,0,0.1,0,0.1,0l1.1-0.6c0,0,0-0.1,0-0.1l-0.9-0.5C364.5,263,364.5,263,364.4,263.1z M365.8,263.7
			l-1.1,0.6c0,0,0,0.1,0,0.1l0.9,0.5c0,0,0.1,0,0.1,0l1.1-0.6c0,0,0-0.1,0-0.1l-0.9-0.5C365.9,263.7,365.8,263.7,365.8,263.7z
			 M367.1,264.4l-1.1,0.6c0,0,0,0.1,0,0.1l0.9,0.5c0,0,0.1,0,0.1,0l1.1-0.6c0,0,0-0.1,0-0.1l-0.9-0.5
			C367.2,264.4,367.2,264.4,367.1,264.4z M360.6,265.3l1.1-0.6c0,0,0-0.1,0-0.1l-0.9-0.5c0,0-0.1,0-0.1,0l-1.1,0.6c0,0,0,0.1,0,0.1
			l0.9,0.5C360.5,265.3,360.5,265.3,360.6,265.3z M348.4,255l-1.1,0.6c0,0,0,0.1,0,0.1l0.9,0.5c0,0,0.1,0,0.1,0l1.1-0.6
			c0,0,0-0.1,0-0.1l-0.9-0.5C348.5,255,348.5,255,348.4,255z M350.1,255.9l-1.1,0.6c0,0,0,0.1,0,0.1l0.9,0.5c0,0,0.1,0,0.1,0
			l1.1-0.6c0,0,0-0.1,0-0.1l-0.9-0.5C350.2,255.8,350.1,255.8,350.1,255.9z M347.1,254.4l-1.1,0.6c0,0,0,0.1,0,0.1l0.9,0.5
			c0,0,0.1,0,0.1,0l1.1-0.6c0,0,0-0.1,0-0.1l-0.9-0.5C347.2,254.3,347.1,254.3,347.1,254.4z M354.4,260.6l1.1-0.6c0,0,0-0.1,0-0.1
			l-0.9-0.5c0,0-0.1,0-0.1,0l-1.1,0.6c0,0,0,0.1,0,0.1l0.9,0.5C354.3,260.7,354.3,260.7,354.4,260.6z M344.7,254.3
			C344.6,254.3,344.6,254.3,344.7,254.3l0.9,0.5c0,0,0.1,0,0.1,0l1.1-0.6c0,0,0-0.1,0-0.1l-0.9-0.5c0,0-0.1,0-0.1,0L344.7,254.3z
			 M359.2,264.6l1.1-0.6c0,0,0-0.1,0-0.1l-0.9-0.5c0,0-0.1,0-0.1,0l-1.1,0.6c0,0,0,0.1,0,0.1l0.9,0.5
			C359.1,264.6,359.2,264.6,359.2,264.6z M342.7,256.4l1.1-0.6c0,0,0-0.1,0-0.1l-0.9-0.5c0,0-0.1,0-0.1,0l-1.1,0.6c0,0,0,0.1,0,0.1
			l0.9,0.5C342.6,256.4,342.7,256.4,342.7,256.4z M345.6,256.3l1.1-0.6c0,0,0-0.1,0-0.1l-0.9-0.5c0,0-0.1,0-0.1,0l-1.1,0.6
			c0,0,0,0.1,0,0.1l0.9,0.5C345.5,256.3,345.6,256.3,345.6,256.3z M343.2,255C343.1,255.1,343.1,255.1,343.2,255l0.9,0.5
			c0,0,0.1,0,0.1,0l1.1-0.6c0,0,0-0.1,0-0.1l-0.9-0.5c0,0-0.1,0-0.1,0L343.2,255z M344,254.3l-0.9-0.5c0,0-0.1,0-0.1,0l-2.6,1.3
			c0,0,0,0.1,0,0.1l0.9,0.5c0,0,0.1,0,0.1,0L344,254.3C344,254.3,344,254.3,344,254.3z M346.9,255.8l-1.1,0.6c0,0,0,0.1,0,0.1
			l0.9,0.5c0,0,0.1,0,0.1,0l1.1-0.6c0,0,0-0.1,0-0.1l-0.9-0.5C347,255.8,347,255.8,346.9,255.8z M357.1,260.9l-1.1,0.6
			c0,0,0,0.1,0,0.1l0.9,0.5c0,0,0.1,0,0.1,0l1.1-0.6c0,0,0-0.1,0-0.1l-0.9-0.5C357.2,260.9,357.1,260.9,357.1,260.9z M345.1,256.5
			C345.2,256.5,345.2,256.4,345.1,256.5l-0.9-0.5c0,0-0.1,0-0.1,0l-1.1,0.6c0,0,0,0.1,0,0.1l0.9,0.5c0,0,0.1,0,0.1,0L345.1,256.5z
			 M355.7,260.2l-1.1,0.6c0,0,0,0.1,0,0.1l0.9,0.5c0,0,0.1,0,0.1,0l1.1-0.6c0,0,0-0.1,0-0.1l-0.9-0.5
			C355.8,260.2,355.8,260.2,355.7,260.2z M367,267.4C367.1,267.4,367.1,267.4,367,267.4l-0.9-0.5c0,0-0.1,0-0.1,0l-1.1,0.6
			c0,0,0,0.1,0,0.1l0.9,0.5c0,0,0.1,0,0.1,0L367,267.4z M367.8,266.3l-1.1,0.6c0,0,0,0.1,0,0.1l0.9,0.5c0,0,0.1,0,0.1,0l1.1-0.6
			c0,0,0-0.1,0-0.1l-0.9-0.5C367.9,266.3,367.9,266.3,367.8,266.3z M364.6,267.3l1.1-0.6c0,0,0-0.1,0-0.1l-0.9-0.5c0,0-0.1,0-0.1,0
			l-1.1,0.6c0,0,0,0.1,0,0.1l0.9,0.5C364.5,267.3,364.6,267.3,364.6,267.3z M363.3,266.6l1.1-0.6c0,0,0-0.1,0-0.1l-0.9-0.5
			c0,0-0.1,0-0.1,0l-1.1,0.6c0,0,0,0.1,0,0.1l0.9,0.5C363.2,266.7,363.2,266.7,363.3,266.6z M361.9,266l1.1-0.6c0,0,0-0.1,0-0.1
			l-0.9-0.5c0,0-0.1,0-0.1,0l-1.1,0.6c0,0,0,0.1,0,0.1l0.9,0.5C361.8,266,361.9,266,361.9,266z M366.5,265.6l-1.1,0.6
			c0,0,0,0.1,0,0.1l0.9,0.5c0,0,0.1,0,0.1,0l1.1-0.6c0,0,0-0.1,0-0.1l-0.9-0.5C366.6,265.6,366.5,265.6,366.5,265.6z M365.1,264.9
			l-1.1,0.6c0,0,0,0.1,0,0.1l0.9,0.5c0,0,0.1,0,0.1,0l1.1-0.6c0,0,0-0.1,0-0.1l-0.9-0.5C365.2,264.9,365.2,264.9,365.1,264.9z
			 M359.7,262.2l-1.1,0.6c0,0,0,0.1,0,0.1l0.9,0.5c0,0,0.1,0,0.1,0l1.1-0.6c0,0,0-0.1,0-0.1l-0.9-0.5
			C359.9,262.2,359.8,262.2,359.7,262.2z M361.1,262.9l-1.1,0.6c0,0,0,0.1,0,0.1l0.9,0.5c0,0,0.1,0,0.1,0l1.1-0.6c0,0,0-0.1,0-0.1
			l-0.9-0.5C361.2,262.9,361.1,262.9,361.1,262.9z M358.4,261.6l-1.1,0.6c0,0,0,0.1,0,0.1l0.9,0.5c0,0,0.1,0,0.1,0l1.1-0.6
			c0,0,0-0.1,0-0.1l-0.9-0.5C358.5,261.6,358.4,261.6,358.4,261.6z M363.8,264.3l-1.1,0.6c0,0,0,0.1,0,0.1l0.9,0.5c0,0,0.1,0,0.1,0
			l1.1-0.6c0,0,0-0.1,0-0.1l-0.9-0.5C363.9,264.2,363.8,264.2,363.8,264.3z M362.4,263.6l-1.1,0.6c0,0,0,0.1,0,0.1l0.9,0.5
			c0,0,0.1,0,0.1,0l1.1-0.6c0,0,0-0.1,0-0.1l-0.9-0.5C362.5,263.6,362.5,263.6,362.4,263.6z M363.8,268.4l1.1-0.6c0,0,0-0.1,0-0.1
			l-0.9-0.5c0,0-0.1,0-0.1,0l-1.1,0.6c0,0,0,0.1,0,0.1l0.9,0.5C363.6,268.5,363.7,268.5,363.8,268.4z M371.5,267.7l0.9,0.5
			c0,0,0.1,0,0.1,0l1.1-0.6c0,0,0-0.1,0-0.1l-0.9-0.5c0,0-0.1,0-0.1,0L371.5,267.7C371.4,267.7,371.4,267.7,371.5,267.7z
			 M369.5,268.3l1.4,0.7c0,0,0.1,0,0.1,0l1.1-0.6c0,0,0-0.1,0-0.1l-1.4-0.7c0,0-0.1,0-0.1,0L369.5,268.3
			C369.4,268.2,369.4,268.2,369.5,268.3z M373.1,266.6l1.1,0.6c0,0,0.1,0,0.1,0l1.1-0.6c0,0,0-0.1,0-0.1l-1.1-0.6c0,0-0.1,0-0.1,0
			L373.1,266.6C373,266.6,373,266.6,373.1,266.6z M373.3,265.6C373.3,265.6,373.3,265.5,373.3,265.6l-0.9-0.5c0,0-0.1,0-0.1,0
			l-1.1,0.6c0,0,0,0.1,0,0.1l0.9,0.5c0,0,0.1,0,0.1,0L373.3,265.6z M367.6,268.9l1.8,0.9c0,0,0.1,0,0.1,0l1.1-0.6c0,0,0-0.1,0-0.1
			l-1.8-0.9c0,0-0.1,0-0.1,0L367.6,268.9C367.6,268.8,367.6,268.9,367.6,268.9z M366.7,270l1.1,0.6c0,0,0.1,0,0.1,0l1.1-0.6
			c0,0,0-0.1,0-0.1l-1.1-0.6c0,0-0.1,0-0.1,0L366.7,270C366.7,269.9,366.7,270,366.7,270z M363.3,260.6
			C363.3,260.6,363.3,260.5,363.3,260.6l-0.9-0.5c0,0-0.1,0-0.1,0l-1.1,0.6c0,0,0,0.1,0,0.1l0.9,0.5c0,0,0.1,0,0.1,0L363.3,260.6z
			 M365.9,261.9C366,261.9,366,261.9,365.9,261.9l-0.9-0.5c0,0-0.1,0-0.1,0l-1.1,0.6c0,0,0,0.1,0,0.1l0.9,0.5c0,0,0.1,0,0.1,0
			L365.9,261.9z M371.9,264.9C371.9,264.9,372,264.9,371.9,264.9l-0.9-0.5c0,0-0.1,0-0.1,0l-1.1,0.6c0,0,0,0.1,0,0.1l0.9,0.5
			c0,0,0.1,0,0.1,0L371.9,264.9z M364.6,261.3C364.6,261.2,364.6,261.2,364.6,261.3l-0.9-0.5c0,0-0.1,0-0.1,0l-1.1,0.6
			c0,0,0,0.1,0,0.1l0.9,0.5c0,0,0.1,0,0.1,0L364.6,261.3z M367.3,262.6C367.3,262.6,367.3,262.5,367.3,262.6l-0.9-0.5
			c0,0-0.1,0-0.1,0l-1.1,0.6c0,0,0,0.1,0,0.1l0.9,0.5c0,0,0.1,0,0.1,0L367.3,262.6z M364.9,270.6
			C364.9,270.6,364.9,270.6,364.9,270.6l1.4,0.8c0,0,0.1,0,0.1,0l1.1-0.6c0,0,0-0.1,0-0.1l-1.4-0.7c0,0-0.1,0-0.1,0L364.9,270.6z
			 M369.2,263.6C369.3,263.5,369.3,263.5,369.2,263.6l-0.9-0.5c0,0-0.1,0-0.1,0l-1.1,0.6c0,0,0,0.1,0,0.1l0.9,0.5c0,0,0.1,0,0.1,0
			L369.2,263.6z M370.6,264.2C370.6,264.2,370.6,264.2,370.6,264.2l-0.9-0.5c0,0-0.1,0-0.1,0l-1.1,0.6c0,0,0,0.1,0,0.1l0.9,0.5
			c0,0,0.1,0,0.1,0L370.6,264.2z M340,258.1C340,258.1,340,258.2,340,258.1l2.3,1.2c0,0,0.1,0,0.1,0l1.1-0.6c0,0,0-0.1,0-0.1
			l-2.3-1.1c0,0-0.1,0-0.1,0L340,258.1z M343,259.6C343,259.6,342.9,259.6,343,259.6l0.9,0.5c0,0,0.1,0,0.1,0l1.1-0.6
			c0,0,0-0.1,0-0.1l-0.9-0.5c0,0-0.1,0-0.1,0L343,259.6z M362.4,267.8l1.1-0.6c0,0,0-0.1,0-0.1l-0.9-0.5c0,0-0.1,0-0.1,0l-1.1,0.6
			c0,0,0,0.1,0,0.1l0.9,0.5C362.3,267.8,362.4,267.8,362.4,267.8z M345.7,260.9C345.6,261,345.6,261,345.7,260.9l0.9,0.5
			c0,0,0.1,0,0.1,0l1.1-0.6c0,0,0-0.1,0-0.1l-0.9-0.5c0,0-0.1,0-0.1,0L345.7,260.9z M338.7,257.4
			C338.6,257.4,338.6,257.5,338.7,257.4l0.9,0.5c0,0,0.1,0,0.1,0l1.1-0.6c0,0,0-0.1,0-0.1l-0.9-0.5c0,0-0.1,0-0.1,0L338.7,257.4z
			 M337.3,256.8l0.9,0.5c0,0,0.1,0,0.1,0l2.6-1.3c0,0,0-0.1,0-0.1l-0.9-0.5c0,0-0.1,0-0.1,0L337.3,256.8
			C337.3,256.8,337.3,256.8,337.3,256.8z M350.7,263.4C350.7,263.5,350.7,263.5,350.7,263.4l1.1,0.6c0,0,0.1,0,0.1,0l1.1-0.6
			c0,0,0-0.1,0-0.1l-1.1-0.6c0,0-0.1,0-0.1,0L350.7,263.4z M347.3,261.7C347.3,261.8,347.3,261.8,347.3,261.7l1.4,0.8
			c0,0,0.1,0,0.1,0l1.1-0.6c0,0,0-0.1,0-0.1l-1.4-0.7c0,0-0.1,0-0.1,0L347.3,261.7z M353.8,265C353.8,265,353.8,265.1,353.8,265
			l7.6,3.9c0,0,0.1,0,0.1,0l1.1-0.6c0,0,0-0.1,0-0.1l-7.6-3.8c0,0-0.1,0-0.1,0L353.8,265z M361.8,269
			C361.8,269,361.8,269.1,361.8,269l1.1,0.6c0,0,0.1,0,0.1,0l1.1-0.6c0,0,0-0.1,0-0.1l-1.1-0.6c0,0-0.1,0-0.1,0L361.8,269z
			 M352.3,264.2C352.2,264.3,352.2,264.3,352.3,264.2l1.1,0.6c0,0,0.1,0,0.1,0l1.1-0.6c0,0,0-0.1,0-0.1l-1.1-0.6c0,0-0.1,0-0.1,0
			L352.3,264.2z M363.4,269.8C363.3,269.8,363.3,269.8,363.4,269.8l1.1,0.6c0,0,0.1,0,0.1,0l1.1-0.6c0,0,0-0.1,0-0.1l-1.1-0.6
			c0,0-0.1,0-0.1,0L363.4,269.8z M349.2,262.7C349.1,262.7,349.1,262.7,349.2,262.7l1.1,0.6c0,0,0.1,0,0.1,0l1.1-0.6
			c0,0,0-0.1,0-0.1l-1.1-0.6c0,0-0.1,0-0.1,0L349.2,262.7z M344.3,260.3C344.3,260.3,344.3,260.3,344.3,260.3l0.9,0.5
			c0,0,0.1,0,0.1,0l1.1-0.6c0,0,0-0.1,0-0.1l-0.9-0.5c0,0-0.1,0-0.1,0L344.3,260.3z M342.6,257.8l1.1-0.6c0,0,0-0.1,0-0.1l-0.9-0.5
			c0,0-0.1,0-0.1,0l-1.1,0.6c0,0,0,0.1,0,0.1l0.9,0.5C342.5,257.9,342.5,257.9,342.6,257.8z M348.6,257.7l1.1-0.6c0,0,0-0.1,0-0.1
			l-0.9-0.5c0,0-0.1,0-0.1,0l-1.1,0.6c0,0,0,0.1,0,0.1l0.9,0.5C348.5,257.8,348.5,257.8,348.6,257.7z M351.6,262.4l1.1-0.6
			c0,0,0-0.1,0-0.1l-2.7-1.3c0,0-0.1,0-0.1,0l-1.1,0.6c0,0,0,0.1,0,0.1l2.7,1.3C351.5,262.4,351.6,262.4,351.6,262.4z M345,258
			C345,257.9,345,257.9,345,258l-0.9-0.5c0,0-0.1,0-0.1,0l-1.1,0.6c0,0,0,0.1,0,0.1l0.9,0.5c0,0,0.1,0,0.1,0L345,258z M345.4,257.7
			l1.1-0.6c0,0,0-0.1,0-0.1l-0.9-0.5c0,0-0.1,0-0.1,0l-1.1,0.6c0,0,0,0.1,0,0.1l0.9,0.5C345.3,257.7,345.4,257.7,345.4,257.7z
			 M353,263l1.1-0.6c0,0,0-0.1,0-0.1l-0.9-0.5c0,0-0.1,0-0.1,0l-1.1,0.6c0,0,0,0.1,0,0.1l0.9,0.5C352.9,263.1,353,263.1,353,263z
			 M348,259.4C348,259.4,348,259.4,348,259.4l-0.9-0.5c0,0-0.1,0-0.1,0l-1.1,0.6c0,0,0,0.1,0,0.1l0.9,0.5c0,0,0.1,0,0.1,0L348,259.4
			z M359.7,266.4l1.1-0.6c0,0,0-0.1,0-0.1l-0.9-0.5c0,0-0.1,0-0.1,0l-1.1,0.6c0,0,0,0.1,0,0.1l0.9,0.5
			C359.6,266.4,359.7,266.4,359.7,266.4z M358.4,265.7l1.1-0.6c0,0,0-0.1,0-0.1l-0.9-0.5c0,0-0.1,0-0.1,0l-1.1,0.6c0,0,0,0.1,0,0.1
			l0.9,0.5C358.3,265.8,358.3,265.8,358.4,265.7z M361.1,267.1l1.1-0.6c0,0,0-0.1,0-0.1l-0.9-0.5c0,0-0.1,0-0.1,0l-1.1,0.6
			c0,0,0,0.1,0,0.1l0.9,0.5C361,267.1,361,267.1,361.1,267.1z M355.7,264.4l1.1-0.6c0,0,0-0.1,0-0.1l-0.9-0.5c0,0-0.1,0-0.1,0
			l-1.1,0.6c0,0,0,0.1,0,0.1l0.9,0.5C355.6,264.4,355.6,264.4,355.7,264.4z M357,265.1l1.1-0.6c0,0,0-0.1,0-0.1l-0.9-0.5
			c0,0-0.1,0-0.1,0l-1.1,0.6c0,0,0,0.1,0,0.1l0.9,0.5C356.9,265.1,357,265.1,357,265.1z M354.3,263.7l1.1-0.6c0,0,0-0.1,0-0.1
			l-0.9-0.5c0,0-0.1,0-0.1,0l-1.1,0.6c0,0,0,0.1,0,0.1l0.9,0.5C354.2,263.7,354.3,263.7,354.3,263.7z M348.2,253.5
			C348.3,253.4,348.3,253.4,348.2,253.5l-0.9-0.5c0,0-0.1,0-0.1,0l-0.3,0.1c0,0,0,0.1,0,0.1l0.9,0.5c0,0,0.1,0,0.1,0L348.2,253.5z
			 M355.6,256.8C355.7,256.8,355.7,256.7,355.6,256.8l-0.9-0.5c0,0-0.1,0-0.1,0l-1.1,0.6c0,0,0,0.1,0,0.1l0.9,0.5c0,0,0.1,0,0.1,0
			L355.6,256.8z M353,255.4C353,255.4,353,255.4,353,255.4l-0.9-0.5c0,0-0.1,0-0.1,0l-1.1,0.6c0,0,0,0.1,0,0.1l0.9,0.5
			c0,0,0.1,0,0.1,0L353,255.4z M357.3,257.6C357.3,257.6,357.3,257.5,357.3,257.6l-0.9-0.5c0,0-0.1,0-0.1,0l-1.1,0.6
			c0,0,0,0.1,0,0.1l0.9,0.5c0,0,0.1,0,0.1,0L357.3,257.6z M354.3,256.1C354.3,256.1,354.3,256,354.3,256.1l-0.9-0.5c0,0-0.1,0-0.1,0
			l-1.1,0.6c0,0,0,0.1,0,0.1l0.9,0.5c0,0,0.1,0,0.1,0L354.3,256.1z M360,258.9C360,258.9,360,258.9,360,258.9l-0.9-0.5
			c0,0-0.1,0-0.1,0l-1.1,0.6c0,0,0,0.1,0,0.1l0.9,0.5c0,0,0.1,0,0.1,0L360,258.9z M358.6,258.3C358.7,258.2,358.7,258.2,358.6,258.3
			l-0.9-0.5c0,0-0.1,0-0.1,0l-1.1,0.6c0,0,0,0.1,0,0.1l0.9,0.5c0,0,0.1,0,0.1,0L358.6,258.3z M350.9,254.8
			C351,254.8,351,254.8,350.9,254.8l-0.9-0.5c0,0-0.1,0-0.1,0l-0.3,0.1c0,0,0,0.1,0,0.1l0.9,0.5c0,0,0.1,0,0.1,0L350.9,254.8z
			 M346.9,252.8C346.9,252.8,346.9,252.7,346.9,252.8l-0.9-0.5c0,0-0.1,0-0.1,0l-0.3,0.1c0,0,0,0.1,0,0.1l0.9,0.5c0,0,0.1,0,0.1,0
			L346.9,252.8z M345.5,253.6C345.5,253.5,345.5,253.5,345.5,253.6l-0.9-0.5c0,0-0.1,0-0.1,0l-1.1,0.6c0,0,0,0.1,0,0.1l0.9,0.5
			c0,0,0.1,0,0.1,0L345.5,253.6z M341.2,257.2l1.1-0.6c0,0,0-0.1,0-0.1l-0.9-0.5c0,0-0.1,0-0.1,0l-1.1,0.6c0,0,0,0.1,0,0.1l0.9,0.5
			C341.1,257.2,341.2,257.2,341.2,257.2z M349.6,254.1C349.6,254.1,349.6,254.1,349.6,254.1l-0.9-0.5c0,0-0.1,0-0.1,0l-0.3,0.1
			c0,0,0,0.1,0,0.1l0.9,0.5c0,0,0.1,0,0.1,0L349.6,254.1z M361.3,259.6C361.4,259.6,361.4,259.6,361.3,259.6l-0.9-0.5
			c0,0-0.1,0-0.1,0l-1.1,0.6c0,0,0,0.1,0,0.1l0.9,0.5c0,0,0.1,0,0.1,0L361.3,259.6z"/>
		<path id="XMLID_457_" class="st86" d="M349.9,258.4l1.1-0.6c0,0,0-0.1,0-0.1l-0.9-0.5c0,0-0.1,0-0.1,0l-1.1,0.6c0,0,0,0.1,0,0.1
			l0.9,0.5C349.8,258.4,349.9,258.4,349.9,258.4z M351.4,256.5l-1.1,0.6c0,0,0,0.1,0,0.1l0.9,0.5c0,0,0.1,0,0.1,0l1.1-0.6
			c0,0,0-0.1,0-0.1l-0.9-0.5C351.5,256.5,351.5,256.5,351.4,256.5z M354.4,258l-1.1,0.6c0,0,0,0.1,0,0.1l1.6,0.8c0,0,0.1,0,0.1,0
			l1.1-0.6c0,0,0-0.1,0-0.1l-1.6-0.8C354.5,258,354.4,258,354.4,258z M352.8,257.2l-1.1,0.6c0,0,0,0.1,0,0.1l0.9,0.5
			c0,0,0.1,0,0.1,0l1.1-0.6c0,0,0-0.1,0-0.1l-0.9-0.5C352.9,257.2,352.8,257.2,352.8,257.2z M356.4,259l-1.1,0.6c0,0,0,0.1,0,0.1
			l0.9,0.5c0,0,0.1,0,0.1,0l1.1-0.6c0,0,0-0.1,0-0.1l-0.9-0.5C356.5,259,356.4,259,356.4,259z M357.7,259.7l-1.1,0.6
			c0,0,0,0.1,0,0.1l0.9,0.5c0,0,0.1,0,0.1,0l1.1-0.6c0,0,0-0.1,0-0.1l-0.9-0.5C357.8,259.7,357.8,259.7,357.7,259.7z M353.9,261.9
			l1.1-0.6c0,0,0-0.1,0-0.1l-0.9-0.5c0,0-0.1,0-0.1,0l-1.1,0.6c0,0,0,0.1,0,0.1l0.9,0.5C353.8,262,353.8,262,353.9,261.9z
			 M355.2,262.6l1.1-0.6c0,0,0-0.1,0-0.1l-0.9-0.5c0,0-0.1,0-0.1,0l-1.1,0.6c0,0,0,0.1,0,0.1l0.9,0.5
			C355.1,262.6,355.2,262.6,355.2,262.6z M356.6,263.3l1.1-0.6c0,0,0-0.1,0-0.1l-0.9-0.5c0,0-0.1,0-0.1,0l-1.1,0.6c0,0,0,0.1,0,0.1
			l0.9,0.5C356.4,263.3,356.5,263.3,356.6,263.3z M357.9,264l1.1-0.6c0,0,0-0.1,0-0.1l-0.9-0.5c0,0-0.1,0-0.1,0l-1.1,0.6
			c0,0,0,0.1,0,0.1l0.9,0.5C357.8,264,357.9,264,357.9,264z M351.3,259.1l1.1-0.6c0,0,0-0.1,0-0.1l-0.9-0.5c0,0-0.1,0-0.1,0
			l-1.1,0.6c0,0,0,0.1,0,0.1l0.9,0.5C351.2,259.1,351.2,259.1,351.3,259.1z M352.5,261.3l1.1-0.6c0,0,0-0.1,0-0.1l-0.8-0.4
			c0,0,0-0.1,0-0.1l1.4-0.7c0,0,0-0.1,0-0.1l-1.1-0.5c0,0-0.1,0-0.1,0l-2.6,1.3c0,0,0,0.1,0,0.1l2.1,1
			C352.4,261.3,352.5,261.3,352.5,261.3z M359.1,260.4l-1.1,0.6c0,0,0,0.1,0,0.1l0.9,0.5c0,0,0.1,0,0.1,0l1.1-0.6c0,0,0-0.1,0-0.1
			l-0.9-0.5C359.2,260.3,359.1,260.3,359.1,260.4z M360.4,261l-1.1,0.6c0,0,0,0.1,0,0.1l0.9,0.5c0,0,0.1,0,0.1,0l1.1-0.6
			c0,0,0-0.1,0-0.1l-0.9-0.5C360.5,261,360.4,261,360.4,261z M368.4,268.1C368.4,268.1,368.4,268.1,368.4,268.1l-0.9-0.5
			c0,0-0.1,0-0.1,0l-1.1,0.6c0,0,0,0.1,0,0.1l0.9,0.5c0,0,0.1,0,0.1,0L368.4,268.1z M371.2,266.4l-1.1,0.6c0,0,0,0.1,0,0.1l0.9,0.5
			c0,0,0.1,0,0.1,0l1.1-0.6c0,0,0-0.1,0-0.1l-0.9-0.5C371.3,266.4,371.2,266.4,371.2,266.4z M370.2,267.5
			C370.3,267.5,370.3,267.4,370.2,267.5l-0.9-0.5c0,0-0.1,0-0.1,0l-1.1,0.6c0,0,0,0.1,0,0.1l0.9,0.5c0,0,0.1,0,0.1,0L370.2,267.5z
			 M365.1,269.1l1.1-0.6c0,0,0-0.1,0-0.1l-0.9-0.5c0,0-0.1,0-0.1,0l-1.1,0.6c0,0,0,0.1,0,0.1l0.9,0.5
			C365,269.1,365.1,269.1,365.1,269.1z M367.5,269.2C367.5,269.2,367.5,269.2,367.5,269.2l-0.9-0.5c0,0-0.1,0-0.1,0l-1.1,0.6
			c0,0,0,0.1,0,0.1l0.9,0.5c0,0,0.1,0,0.1,0L367.5,269.2z M369.8,265.7l-1.1,0.6c0,0,0,0.1,0,0.1l0.9,0.5c0,0,0.1,0,0.1,0l1.1-0.6
			c0,0,0-0.1,0-0.1l-0.9-0.5C369.9,265.7,369.9,265.7,369.8,265.7z M363.1,262.4l-1.1,0.6c0,0,0,0.1,0,0.1l0.9,0.5c0,0,0.1,0,0.1,0
			l1.1-0.6c0,0,0-0.1,0-0.1l-0.9-0.5C363.2,262.4,363.1,262.4,363.1,262.4z M368.5,265.1l-1.1,0.6c0,0,0,0.1,0,0.1l0.9,0.5
			c0,0,0.1,0,0.1,0l1.1-0.6c0,0,0-0.1,0-0.1l-0.9-0.5C368.6,265,368.5,265,368.5,265.1z M361.7,261.7l-1.1,0.6c0,0,0,0.1,0,0.1
			l0.9,0.5c0,0,0.1,0,0.1,0l1.1-0.6c0,0,0-0.1,0-0.1l-0.9-0.5C361.9,261.7,361.8,261.7,361.7,261.7z M364.4,263.1l-1.1,0.6
			c0,0,0,0.1,0,0.1l0.9,0.5c0,0,0.1,0,0.1,0l1.1-0.6c0,0,0-0.1,0-0.1l-0.9-0.5C364.5,263,364.5,263,364.4,263.1z M365.8,263.7
			l-1.1,0.6c0,0,0,0.1,0,0.1l0.9,0.5c0,0,0.1,0,0.1,0l1.1-0.6c0,0,0-0.1,0-0.1l-0.9-0.5C365.9,263.7,365.8,263.7,365.8,263.7z
			 M367.1,264.4l-1.1,0.6c0,0,0,0.1,0,0.1l0.9,0.5c0,0,0.1,0,0.1,0l1.1-0.6c0,0,0-0.1,0-0.1l-0.9-0.5
			C367.2,264.4,367.2,264.4,367.1,264.4z M360.6,265.3l1.1-0.6c0,0,0-0.1,0-0.1l-0.9-0.5c0,0-0.1,0-0.1,0l-1.1,0.6c0,0,0,0.1,0,0.1
			l0.9,0.5C360.5,265.3,360.5,265.3,360.6,265.3z M348.4,255l-1.1,0.6c0,0,0,0.1,0,0.1l0.9,0.5c0,0,0.1,0,0.1,0l1.1-0.6
			c0,0,0-0.1,0-0.1l-0.9-0.5C348.5,255,348.5,255,348.4,255z M350.1,255.9l-1.1,0.6c0,0,0,0.1,0,0.1l0.9,0.5c0,0,0.1,0,0.1,0
			l1.1-0.6c0,0,0-0.1,0-0.1l-0.9-0.5C350.2,255.8,350.1,255.8,350.1,255.9z M347.1,254.4l-1.1,0.6c0,0,0,0.1,0,0.1l0.9,0.5
			c0,0,0.1,0,0.1,0l1.1-0.6c0,0,0-0.1,0-0.1l-0.9-0.5C347.2,254.3,347.1,254.3,347.1,254.4z M354.4,260.6l1.1-0.6c0,0,0-0.1,0-0.1
			l-0.9-0.5c0,0-0.1,0-0.1,0l-1.1,0.6c0,0,0,0.1,0,0.1l0.9,0.5C354.3,260.7,354.3,260.7,354.4,260.6z M344.7,254.3
			C344.6,254.3,344.6,254.3,344.7,254.3l0.9,0.5c0,0,0.1,0,0.1,0l1.1-0.6c0,0,0-0.1,0-0.1l-0.9-0.5c0,0-0.1,0-0.1,0L344.7,254.3z
			 M359.2,264.6l1.1-0.6c0,0,0-0.1,0-0.1l-0.9-0.5c0,0-0.1,0-0.1,0l-1.1,0.6c0,0,0,0.1,0,0.1l0.9,0.5
			C359.1,264.6,359.2,264.6,359.2,264.6z M342.7,256.4l1.1-0.6c0,0,0-0.1,0-0.1l-0.9-0.5c0,0-0.1,0-0.1,0l-1.1,0.6c0,0,0,0.1,0,0.1
			l0.9,0.5C342.6,256.4,342.7,256.4,342.7,256.4z M345.6,256.3l1.1-0.6c0,0,0-0.1,0-0.1l-0.9-0.5c0,0-0.1,0-0.1,0l-1.1,0.6
			c0,0,0,0.1,0,0.1l0.9,0.5C345.5,256.3,345.6,256.3,345.6,256.3z M343.2,255C343.1,255.1,343.1,255.1,343.2,255l0.9,0.5
			c0,0,0.1,0,0.1,0l1.1-0.6c0,0,0-0.1,0-0.1l-0.9-0.5c0,0-0.1,0-0.1,0L343.2,255z M344,254.3l-0.9-0.5c0,0-0.1,0-0.1,0l-2.6,1.3
			c0,0,0,0.1,0,0.1l0.9,0.5c0,0,0.1,0,0.1,0L344,254.3C344,254.3,344,254.3,344,254.3z M346.9,255.8l-1.1,0.6c0,0,0,0.1,0,0.1
			l0.9,0.5c0,0,0.1,0,0.1,0l1.1-0.6c0,0,0-0.1,0-0.1l-0.9-0.5C347,255.8,347,255.8,346.9,255.8z M357.1,260.9l-1.1,0.6
			c0,0,0,0.1,0,0.1l0.9,0.5c0,0,0.1,0,0.1,0l1.1-0.6c0,0,0-0.1,0-0.1l-0.9-0.5C357.2,260.9,357.1,260.9,357.1,260.9z M345.1,256.5
			C345.2,256.5,345.2,256.4,345.1,256.5l-0.9-0.5c0,0-0.1,0-0.1,0l-1.1,0.6c0,0,0,0.1,0,0.1l0.9,0.5c0,0,0.1,0,0.1,0L345.1,256.5z
			 M355.7,260.2l-1.1,0.6c0,0,0,0.1,0,0.1l0.9,0.5c0,0,0.1,0,0.1,0l1.1-0.6c0,0,0-0.1,0-0.1l-0.9-0.5
			C355.8,260.2,355.8,260.2,355.7,260.2z M367,267.4C367.1,267.4,367.1,267.4,367,267.4l-0.9-0.5c0,0-0.1,0-0.1,0l-1.1,0.6
			c0,0,0,0.1,0,0.1l0.9,0.5c0,0,0.1,0,0.1,0L367,267.4z M367.8,266.3l-1.1,0.6c0,0,0,0.1,0,0.1l0.9,0.5c0,0,0.1,0,0.1,0l1.1-0.6
			c0,0,0-0.1,0-0.1l-0.9-0.5C367.9,266.3,367.9,266.3,367.8,266.3z M364.6,267.3l1.1-0.6c0,0,0-0.1,0-0.1l-0.9-0.5c0,0-0.1,0-0.1,0
			l-1.1,0.6c0,0,0,0.1,0,0.1l0.9,0.5C364.5,267.3,364.6,267.3,364.6,267.3z M363.3,266.6l1.1-0.6c0,0,0-0.1,0-0.1l-0.9-0.5
			c0,0-0.1,0-0.1,0l-1.1,0.6c0,0,0,0.1,0,0.1l0.9,0.5C363.2,266.7,363.2,266.7,363.3,266.6z M361.9,266l1.1-0.6c0,0,0-0.1,0-0.1
			l-0.9-0.5c0,0-0.1,0-0.1,0l-1.1,0.6c0,0,0,0.1,0,0.1l0.9,0.5C361.8,266,361.9,266,361.9,266z M366.5,265.6l-1.1,0.6
			c0,0,0,0.1,0,0.1l0.9,0.5c0,0,0.1,0,0.1,0l1.1-0.6c0,0,0-0.1,0-0.1l-0.9-0.5C366.6,265.6,366.5,265.6,366.5,265.6z M365.1,264.9
			l-1.1,0.6c0,0,0,0.1,0,0.1l0.9,0.5c0,0,0.1,0,0.1,0l1.1-0.6c0,0,0-0.1,0-0.1l-0.9-0.5C365.2,264.9,365.2,264.9,365.1,264.9z
			 M359.7,262.2l-1.1,0.6c0,0,0,0.1,0,0.1l0.9,0.5c0,0,0.1,0,0.1,0l1.1-0.6c0,0,0-0.1,0-0.1l-0.9-0.5
			C359.9,262.2,359.8,262.2,359.7,262.2z M361.1,262.9l-1.1,0.6c0,0,0,0.1,0,0.1l0.9,0.5c0,0,0.1,0,0.1,0l1.1-0.6c0,0,0-0.1,0-0.1
			l-0.9-0.5C361.2,262.9,361.1,262.9,361.1,262.9z M358.4,261.6l-1.1,0.6c0,0,0,0.1,0,0.1l0.9,0.5c0,0,0.1,0,0.1,0l1.1-0.6
			c0,0,0-0.1,0-0.1l-0.9-0.5C358.5,261.6,358.4,261.6,358.4,261.6z M363.8,264.3l-1.1,0.6c0,0,0,0.1,0,0.1l0.9,0.5c0,0,0.1,0,0.1,0
			l1.1-0.6c0,0,0-0.1,0-0.1l-0.9-0.5C363.9,264.2,363.8,264.2,363.8,264.3z M362.4,263.6l-1.1,0.6c0,0,0,0.1,0,0.1l0.9,0.5
			c0,0,0.1,0,0.1,0l1.1-0.6c0,0,0-0.1,0-0.1l-0.9-0.5C362.5,263.6,362.5,263.6,362.4,263.6z M363.8,268.4l1.1-0.6c0,0,0-0.1,0-0.1
			l-0.9-0.5c0,0-0.1,0-0.1,0l-1.1,0.6c0,0,0,0.1,0,0.1l0.9,0.5C363.6,268.5,363.7,268.5,363.8,268.4z M371.5,267.7l0.9,0.5
			c0,0,0.1,0,0.1,0l1.1-0.6c0,0,0-0.1,0-0.1l-0.9-0.5c0,0-0.1,0-0.1,0L371.5,267.7C371.4,267.7,371.4,267.7,371.5,267.7z
			 M369.5,268.3l1.4,0.7c0,0,0.1,0,0.1,0l1.1-0.6c0,0,0-0.1,0-0.1l-1.4-0.7c0,0-0.1,0-0.1,0L369.5,268.3
			C369.4,268.2,369.4,268.2,369.5,268.3z M373.1,266.6l1.1,0.6c0,0,0.1,0,0.1,0l1.1-0.6c0,0,0-0.1,0-0.1l-1.1-0.6c0,0-0.1,0-0.1,0
			L373.1,266.6C373,266.6,373,266.6,373.1,266.6z M373.3,265.6C373.3,265.6,373.3,265.5,373.3,265.6l-0.9-0.5c0,0-0.1,0-0.1,0
			l-1.1,0.6c0,0,0,0.1,0,0.1l0.9,0.5c0,0,0.1,0,0.1,0L373.3,265.6z M367.6,268.9l1.8,0.9c0,0,0.1,0,0.1,0l1.1-0.6c0,0,0-0.1,0-0.1
			l-1.8-0.9c0,0-0.1,0-0.1,0L367.6,268.9C367.6,268.8,367.6,268.9,367.6,268.9z M366.7,270l1.1,0.6c0,0,0.1,0,0.1,0l1.1-0.6
			c0,0,0-0.1,0-0.1l-1.1-0.6c0,0-0.1,0-0.1,0L366.7,270C366.7,269.9,366.7,270,366.7,270z M363.3,260.6
			C363.3,260.6,363.3,260.5,363.3,260.6l-0.9-0.5c0,0-0.1,0-0.1,0l-1.1,0.6c0,0,0,0.1,0,0.1l0.9,0.5c0,0,0.1,0,0.1,0L363.3,260.6z
			 M365.9,261.9C366,261.9,366,261.9,365.9,261.9l-0.9-0.5c0,0-0.1,0-0.1,0l-1.1,0.6c0,0,0,0.1,0,0.1l0.9,0.5c0,0,0.1,0,0.1,0
			L365.9,261.9z M371.9,264.9C371.9,264.9,372,264.9,371.9,264.9l-0.9-0.5c0,0-0.1,0-0.1,0l-1.1,0.6c0,0,0,0.1,0,0.1l0.9,0.5
			c0,0,0.1,0,0.1,0L371.9,264.9z M364.6,261.3C364.6,261.2,364.6,261.2,364.6,261.3l-0.9-0.5c0,0-0.1,0-0.1,0l-1.1,0.6
			c0,0,0,0.1,0,0.1l0.9,0.5c0,0,0.1,0,0.1,0L364.6,261.3z M367.3,262.6C367.3,262.6,367.3,262.5,367.3,262.6l-0.9-0.5
			c0,0-0.1,0-0.1,0l-1.1,0.6c0,0,0,0.1,0,0.1l0.9,0.5c0,0,0.1,0,0.1,0L367.3,262.6z M364.9,270.6
			C364.9,270.6,364.9,270.6,364.9,270.6l1.4,0.8c0,0,0.1,0,0.1,0l1.1-0.6c0,0,0-0.1,0-0.1l-1.4-0.7c0,0-0.1,0-0.1,0L364.9,270.6z
			 M369.2,263.6C369.3,263.5,369.3,263.5,369.2,263.6l-0.9-0.5c0,0-0.1,0-0.1,0l-1.1,0.6c0,0,0,0.1,0,0.1l0.9,0.5c0,0,0.1,0,0.1,0
			L369.2,263.6z M370.6,264.2C370.6,264.2,370.6,264.2,370.6,264.2l-0.9-0.5c0,0-0.1,0-0.1,0l-1.1,0.6c0,0,0,0.1,0,0.1l0.9,0.5
			c0,0,0.1,0,0.1,0L370.6,264.2z M340,258.1C340,258.1,340,258.2,340,258.1l2.3,1.2c0,0,0.1,0,0.1,0l1.1-0.6c0,0,0-0.1,0-0.1
			l-2.3-1.1c0,0-0.1,0-0.1,0L340,258.1z M343,259.6C343,259.6,342.9,259.6,343,259.6l0.9,0.5c0,0,0.1,0,0.1,0l1.1-0.6
			c0,0,0-0.1,0-0.1l-0.9-0.5c0,0-0.1,0-0.1,0L343,259.6z M362.4,267.8l1.1-0.6c0,0,0-0.1,0-0.1l-0.9-0.5c0,0-0.1,0-0.1,0l-1.1,0.6
			c0,0,0,0.1,0,0.1l0.9,0.5C362.3,267.8,362.4,267.8,362.4,267.8z M345.7,260.9C345.6,261,345.6,261,345.7,260.9l0.9,0.5
			c0,0,0.1,0,0.1,0l1.1-0.6c0,0,0-0.1,0-0.1l-0.9-0.5c0,0-0.1,0-0.1,0L345.7,260.9z M338.7,257.4
			C338.6,257.4,338.6,257.5,338.7,257.4l0.9,0.5c0,0,0.1,0,0.1,0l1.1-0.6c0,0,0-0.1,0-0.1l-0.9-0.5c0,0-0.1,0-0.1,0L338.7,257.4z
			 M337.3,256.8l0.9,0.5c0,0,0.1,0,0.1,0l2.6-1.3c0,0,0-0.1,0-0.1l-0.9-0.5c0,0-0.1,0-0.1,0L337.3,256.8
			C337.3,256.8,337.3,256.8,337.3,256.8z M350.7,263.4C350.7,263.5,350.7,263.5,350.7,263.4l1.1,0.6c0,0,0.1,0,0.1,0l1.1-0.6
			c0,0,0-0.1,0-0.1l-1.1-0.6c0,0-0.1,0-0.1,0L350.7,263.4z M347.3,261.7C347.3,261.8,347.3,261.8,347.3,261.7l1.4,0.8
			c0,0,0.1,0,0.1,0l1.1-0.6c0,0,0-0.1,0-0.1l-1.4-0.7c0,0-0.1,0-0.1,0L347.3,261.7z M353.8,265C353.8,265,353.8,265.1,353.8,265
			l7.6,3.9c0,0,0.1,0,0.1,0l1.1-0.6c0,0,0-0.1,0-0.1l-7.6-3.8c0,0-0.1,0-0.1,0L353.8,265z M361.8,269
			C361.8,269,361.8,269.1,361.8,269l1.1,0.6c0,0,0.1,0,0.1,0l1.1-0.6c0,0,0-0.1,0-0.1l-1.1-0.6c0,0-0.1,0-0.1,0L361.8,269z
			 M352.3,264.2C352.2,264.3,352.2,264.3,352.3,264.2l1.1,0.6c0,0,0.1,0,0.1,0l1.1-0.6c0,0,0-0.1,0-0.1l-1.1-0.6c0,0-0.1,0-0.1,0
			L352.3,264.2z M363.4,269.8C363.3,269.8,363.3,269.8,363.4,269.8l1.1,0.6c0,0,0.1,0,0.1,0l1.1-0.6c0,0,0-0.1,0-0.1l-1.1-0.6
			c0,0-0.1,0-0.1,0L363.4,269.8z M349.2,262.7C349.1,262.7,349.1,262.7,349.2,262.7l1.1,0.6c0,0,0.1,0,0.1,0l1.1-0.6
			c0,0,0-0.1,0-0.1l-1.1-0.6c0,0-0.1,0-0.1,0L349.2,262.7z M344.3,260.3C344.3,260.3,344.3,260.3,344.3,260.3l0.9,0.5
			c0,0,0.1,0,0.1,0l1.1-0.6c0,0,0-0.1,0-0.1l-0.9-0.5c0,0-0.1,0-0.1,0L344.3,260.3z M342.6,257.8l1.1-0.6c0,0,0-0.1,0-0.1l-0.9-0.5
			c0,0-0.1,0-0.1,0l-1.1,0.6c0,0,0,0.1,0,0.1l0.9,0.5C342.5,257.9,342.5,257.9,342.6,257.8z M348.6,257.7l1.1-0.6c0,0,0-0.1,0-0.1
			l-0.9-0.5c0,0-0.1,0-0.1,0l-1.1,0.6c0,0,0,0.1,0,0.1l0.9,0.5C348.5,257.8,348.5,257.8,348.6,257.7z M351.6,262.4l1.1-0.6
			c0,0,0-0.1,0-0.1l-2.7-1.3c0,0-0.1,0-0.1,0l-1.1,0.6c0,0,0,0.1,0,0.1l2.7,1.3C351.5,262.4,351.6,262.4,351.6,262.4z M345,258
			C345,257.9,345,257.9,345,258l-0.9-0.5c0,0-0.1,0-0.1,0l-1.1,0.6c0,0,0,0.1,0,0.1l0.9,0.5c0,0,0.1,0,0.1,0L345,258z M345.4,257.7
			l1.1-0.6c0,0,0-0.1,0-0.1l-0.9-0.5c0,0-0.1,0-0.1,0l-1.1,0.6c0,0,0,0.1,0,0.1l0.9,0.5C345.3,257.7,345.4,257.7,345.4,257.7z
			 M353,263l1.1-0.6c0,0,0-0.1,0-0.1l-0.9-0.5c0,0-0.1,0-0.1,0l-1.1,0.6c0,0,0,0.1,0,0.1l0.9,0.5C352.9,263.1,353,263.1,353,263z
			 M348,259.4C348,259.4,348,259.4,348,259.4l-0.9-0.5c0,0-0.1,0-0.1,0l-1.1,0.6c0,0,0,0.1,0,0.1l0.9,0.5c0,0,0.1,0,0.1,0L348,259.4
			z M359.7,266.4l1.1-0.6c0,0,0-0.1,0-0.1l-0.9-0.5c0,0-0.1,0-0.1,0l-1.1,0.6c0,0,0,0.1,0,0.1l0.9,0.5
			C359.6,266.4,359.7,266.4,359.7,266.4z M358.4,265.7l1.1-0.6c0,0,0-0.1,0-0.1l-0.9-0.5c0,0-0.1,0-0.1,0l-1.1,0.6c0,0,0,0.1,0,0.1
			l0.9,0.5C358.3,265.8,358.3,265.8,358.4,265.7z M361.1,267.1l1.1-0.6c0,0,0-0.1,0-0.1l-0.9-0.5c0,0-0.1,0-0.1,0l-1.1,0.6
			c0,0,0,0.1,0,0.1l0.9,0.5C361,267.1,361,267.1,361.1,267.1z M355.7,264.4l1.1-0.6c0,0,0-0.1,0-0.1l-0.9-0.5c0,0-0.1,0-0.1,0
			l-1.1,0.6c0,0,0,0.1,0,0.1l0.9,0.5C355.6,264.4,355.6,264.4,355.7,264.4z M357,265.1l1.1-0.6c0,0,0-0.1,0-0.1l-0.9-0.5
			c0,0-0.1,0-0.1,0l-1.1,0.6c0,0,0,0.1,0,0.1l0.9,0.5C356.9,265.1,357,265.1,357,265.1z M354.3,263.7l1.1-0.6c0,0,0-0.1,0-0.1
			l-0.9-0.5c0,0-0.1,0-0.1,0l-1.1,0.6c0,0,0,0.1,0,0.1l0.9,0.5C354.2,263.7,354.3,263.7,354.3,263.7z M348.2,253.5
			C348.3,253.4,348.3,253.4,348.2,253.5l-0.9-0.5c0,0-0.1,0-0.1,0l-0.3,0.1c0,0,0,0.1,0,0.1l0.9,0.5c0,0,0.1,0,0.1,0L348.2,253.5z
			 M355.6,256.8C355.7,256.8,355.7,256.7,355.6,256.8l-0.9-0.5c0,0-0.1,0-0.1,0l-1.1,0.6c0,0,0,0.1,0,0.1l0.9,0.5c0,0,0.1,0,0.1,0
			L355.6,256.8z M353,255.4C353,255.4,353,255.4,353,255.4l-0.9-0.5c0,0-0.1,0-0.1,0l-1.1,0.6c0,0,0,0.1,0,0.1l0.9,0.5
			c0,0,0.1,0,0.1,0L353,255.4z M357.3,257.6C357.3,257.6,357.3,257.5,357.3,257.6l-0.9-0.5c0,0-0.1,0-0.1,0l-1.1,0.6
			c0,0,0,0.1,0,0.1l0.9,0.5c0,0,0.1,0,0.1,0L357.3,257.6z M354.3,256.1C354.3,256.1,354.3,256,354.3,256.1l-0.9-0.5c0,0-0.1,0-0.1,0
			l-1.1,0.6c0,0,0,0.1,0,0.1l0.9,0.5c0,0,0.1,0,0.1,0L354.3,256.1z M360,258.9C360,258.9,360,258.9,360,258.9l-0.9-0.5
			c0,0-0.1,0-0.1,0l-1.1,0.6c0,0,0,0.1,0,0.1l0.9,0.5c0,0,0.1,0,0.1,0L360,258.9z M358.6,258.3C358.7,258.2,358.7,258.2,358.6,258.3
			l-0.9-0.5c0,0-0.1,0-0.1,0l-1.1,0.6c0,0,0,0.1,0,0.1l0.9,0.5c0,0,0.1,0,0.1,0L358.6,258.3z M350.9,254.8
			C351,254.8,351,254.8,350.9,254.8l-0.9-0.5c0,0-0.1,0-0.1,0l-0.3,0.1c0,0,0,0.1,0,0.1l0.9,0.5c0,0,0.1,0,0.1,0L350.9,254.8z
			 M346.9,252.8C346.9,252.8,346.9,252.7,346.9,252.8l-0.9-0.5c0,0-0.1,0-0.1,0l-0.3,0.1c0,0,0,0.1,0,0.1l0.9,0.5c0,0,0.1,0,0.1,0
			L346.9,252.8z M345.5,253.6C345.5,253.5,345.5,253.5,345.5,253.6l-0.9-0.5c0,0-0.1,0-0.1,0l-1.1,0.6c0,0,0,0.1,0,0.1l0.9,0.5
			c0,0,0.1,0,0.1,0L345.5,253.6z M341.2,257.2l1.1-0.6c0,0,0-0.1,0-0.1l-0.9-0.5c0,0-0.1,0-0.1,0l-1.1,0.6c0,0,0,0.1,0,0.1l0.9,0.5
			C341.1,257.2,341.2,257.2,341.2,257.2z M349.6,254.1C349.6,254.1,349.6,254.1,349.6,254.1l-0.9-0.5c0,0-0.1,0-0.1,0l-0.3,0.1
			c0,0,0,0.1,0,0.1l0.9,0.5c0,0,0.1,0,0.1,0L349.6,254.1z M361.3,259.6C361.4,259.6,361.4,259.6,361.3,259.6l-0.9-0.5
			c0,0-0.1,0-0.1,0l-1.1,0.6c0,0,0,0.1,0,0.1l0.9,0.5c0,0,0.1,0,0.1,0L361.3,259.6z"/>
		<path id="XMLID_2611_" class="st88" d="M354.4,267.4l-9.1-4.5c-0.3-0.1-0.7-0.1-1,0l-5.2,2.7c-0.3,0.1-0.3,0.4,0,0.5l9.1,4.5
			c0.3,0.1,0.7,0.1,1,0l5.2-2.7C354.7,267.7,354.7,267.5,354.4,267.4z"/>
		<path id="XMLID_708_" class="st83" d="M354.4,267.4l-9.1-4.5c-0.3-0.1-0.7-0.1-1,0l-5.2,2.7c-0.3,0.1-0.3,0.4,0,0.5l9.1,4.5
			c0.3,0.1,0.7,0.1,1,0l5.2-2.7C354.7,267.7,354.7,267.5,354.4,267.4z"/>
		<path id="XMLID_2609_" class="st88" d="M384.2,264.1c-0.1,0-0.2,0.1-0.3,0.1C384,264.2,384.1,264.2,384.2,264.1
			C384.2,264.1,384.2,264.1,384.2,264.1C384.2,264.1,384.2,264.1,384.2,264.1z"/>
		<path id="XMLID_963_" class="st88" d="M382.7,264.2C382.7,264.2,382.7,264.2,382.7,264.2C382.7,264.2,382.7,264.2,382.7,264.2
			C382.7,264.2,382.7,264.2,382.7,264.2z"/>
	</g>
	<g id="Window_2_">
		<g id="XMLID_493_">
			<path class="st88" d="M381.4,258.8c0,0.3-0.3,0.5-0.6,0.3l-28-14c-0.3-0.2-0.6-0.6-0.6-0.9l-0.2-16.7l29.2,14.6L381.4,258.8z"/>
		</g>
		<g id="XMLID_284_" class="st94">
			<path class="st14" d="M381.4,258.8c0,0.3-0.3,0.5-0.6,0.3l-28-14c-0.3-0.2-0.6-0.6-0.6-0.9l-0.2-16.7l29.2,14.6L381.4,258.8z"/>
		</g>
		<g id="XMLID_2917_">
			<path id="XMLID_2957_" class="st88" d="M381.2,241c0-0.3-0.3-0.8-0.6-0.9l-28-14c-0.3-0.2-0.6,0-0.6,0.3l0,1.1l29.2,14.6
				L381.2,241z"/>
			<g id="XMLID_2937_">
				<g id="XMLID_2942_">
					<path id="XMLID_486_" class="st85" d="M355.4,228c0.2,0.1,0.3,0.3,0.3,0.4c0,0.2-0.1,0.2-0.3,0.1s-0.3-0.3-0.3-0.4
						C355.1,228,355.2,228,355.4,228z"/>
					<path id="XMLID_2946_" class="st85" d="M354.4,227.5c0.2,0.1,0.3,0.3,0.3,0.4c0,0.2-0.1,0.2-0.3,0.1c-0.2-0.1-0.3-0.3-0.3-0.4
						C354.1,227.5,354.2,227.5,354.4,227.5z"/>
					<path id="XMLID_2945_" class="st85" d="M353.4,227c0.2,0.1,0.3,0.3,0.3,0.4c0,0.2-0.1,0.2-0.3,0.1c-0.2-0.1-0.3-0.3-0.3-0.4
						C353.1,227,353.2,227,353.4,227z"/>
				</g>
			</g>
		</g>
	</g>
</g>
</svg>
